<?xml version="1.0" encoding="utf-8"?>
<!-- Generator: Adobe Illustrator 22.1.0, SVG Export Plug-In . SVG Version: 6.00 Build 0)  -->
<svg version="1.1" id="Layer_1" xmlns="http://www.w3.org/2000/svg" xmlns:xlink="http://www.w3.org/1999/xlink" x="0px" y="0px"
	 viewBox="0 0 1500 1500" style="enable-background:new 0 0 1500 1500;" xml:space="preserve">
<style type="text/css">
	.st0{fill:none;stroke:#000000;stroke-miterlimit:10;}
</style>
<g id="XMLID_1_">
	<g>
		<polygon points="1244.5,1035.5 1080.5,1322.5 419.5,1322.5 89.5,749.5 419.5,177.5 1080.5,177.5 1230.5,441.5 1051.5,442.5 
			988.5,334.5 509.5,334.5 269.5,749.5 509.5,1165.5 988.5,1165.5 1063.5,1035.5 		"/>
	</g>
	<g>
		<line class="st0" x1="419.5" y1="177.5" x2="1080.5" y2="177.5"/>
		<line class="st0" x1="419.5" y1="1322.5" x2="1080.5" y2="1322.5"/>
		<line class="st0" x1="419.5" y1="177.5" x2="89.5" y2="749.5"/>
		<line class="st0" x1="89.5" y1="749.5" x2="419.5" y2="1322.5"/>
		<line class="st0" x1="1051.5" y1="442.5" x2="1230.5" y2="441.5"/>
		<line class="st0" x1="1080.5" y1="177.5" x2="1230.5" y2="441.5"/>
		<line class="st0" x1="1063.5" y1="1035.5" x2="1244.5" y2="1035.5"/>
		<line class="st0" x1="1080.5" y1="1322.5" x2="1244.5" y2="1035.5"/>
		<line class="st0" x1="509.5" y1="334.5" x2="988.5" y2="334.5"/>
		<line class="st0" x1="1051.5" y1="442.5" x2="988.5" y2="334.5"/>
		<line class="st0" x1="509.5" y1="334.5" x2="269.5" y2="749.5"/>
		<line class="st0" x1="509.5" y1="1165.5" x2="269.5" y2="749.5"/>
		<line class="st0" x1="988.5" y1="1165.5" x2="509.5" y2="1165.5"/>
		<line class="st0" x1="1063.5" y1="1035.5" x2="988.5" y2="1165.5"/>
	</g>
</g>
<g>
	<g>
		<path d="M1122,566.5c20.2-0.1,40.4-0.2,60.5-0.3c32.1-0.2,64.3-0.4,96.4-0.5c7.4,0,14.7-0.1,22.1-0.1c7.7,0,7.7-12,0-12
			c-20.2,0.1-40.4,0.2-60.5,0.3c-32.1,0.2-64.3,0.4-96.4,0.5c-7.4,0-14.7,0.1-22.1,0.1C1114.3,554.5,1114.3,566.5,1122,566.5
			L1122,566.5z"/>
	</g>
</g>
<g>
	<g>
		<path d="M1158,630.5c20.2-0.1,40.4-0.2,60.5-0.3c32.1-0.2,64.3-0.4,96.4-0.5c7.4,0,14.7-0.1,22.1-0.1c7.7,0,7.7-12,0-12
			c-20.2,0.1-40.4,0.2-60.5,0.3c-32.1,0.2-64.3,0.4-96.4,0.5c-7.4,0-14.7,0.1-22.1,0.1C1150.3,618.5,1150.3,630.5,1158,630.5
			L1158,630.5z"/>
	</g>
</g>
<g>
	<g>
		<path d="M1195,695.5c20.2-0.1,40.4-0.2,60.5-0.3c32.1-0.2,64.3-0.4,96.4-0.5c7.4,0,14.7-0.1,22.1-0.1c7.7,0,7.7-12,0-12
			c-20.2,0.1-40.4,0.2-60.5,0.3c-32.1,0.2-64.3,0.4-96.4,0.5c-7.4,0-14.7,0.1-22.1,0.1C1187.3,683.5,1187.3,695.5,1195,695.5
			L1195,695.5z"/>
	</g>
</g>
<g>
	<g>
		<path d="M1229,757.5c20.2-0.1,40.4-0.2,60.5-0.3c32.1-0.2,64.3-0.4,96.4-0.5c7.4,0,14.7-0.1,22.1-0.1c7.7,0,7.7-12,0-12
			c-20.2,0.1-40.4,0.2-60.5,0.3c-32.1,0.2-64.3,0.4-96.4,0.5c-7.4,0-14.7,0.1-22.1,0.1C1221.3,745.5,1221.3,757.5,1229,757.5
			L1229,757.5z"/>
	</g>
</g>
<g>
	<g>
		<path d="M1086,503.5c20.2-0.1,40.4-0.2,60.5-0.3c32.1-0.2,64.3-0.4,96.4-0.5c7.4,0,14.7-0.1,22.1-0.1c7.7,0,7.7-12,0-12
			c-20.2,0.1-40.4,0.2-60.5,0.3c-32.1,0.2-64.3,0.4-96.4,0.5c-7.4,0-14.7,0.1-22.1,0.1C1078.3,491.5,1078.3,503.5,1086,503.5
			L1086,503.5z"/>
	</g>
</g>
<g>
	<g>
		<path d="M1195,819.5c20.2-0.1,40.4-0.2,60.5-0.3c32.1-0.2,64.3-0.4,96.4-0.5c7.4,0,14.7-0.1,22.1-0.1c7.7,0,7.7-12,0-12
			c-20.2,0.1-40.4,0.2-60.5,0.3c-32.1,0.2-64.3,0.4-96.4,0.5c-7.4,0-14.7,0.1-22.1,0.1C1187.3,807.5,1187.3,819.5,1195,819.5
			L1195,819.5z"/>
	</g>
</g>
<g>
	<g>
		<path d="M1160,878.5c20.2-0.1,40.4-0.2,60.5-0.3c32.1-0.2,64.3-0.4,96.4-0.5c7.4,0,14.7-0.1,22.1-0.1c7.7,0,7.7-12,0-12
			c-20.2,0.1-40.4,0.2-60.5,0.3c-32.1,0.2-64.3,0.4-96.4,0.5c-7.4,0-14.7,0.1-22.1,0.1C1152.3,866.5,1152.3,878.5,1160,878.5
			L1160,878.5z"/>
	</g>
</g>
<g>
	<g>
		<path d="M1127,934.5c20.2-0.1,40.4-0.2,60.5-0.3c32.1-0.2,64.3-0.4,96.4-0.5c7.4,0,14.7-0.1,22.1-0.1c7.7,0,7.7-12,0-12
			c-20.2,0.1-40.4,0.2-60.5,0.3c-32.1,0.2-64.3,0.4-96.4,0.5c-7.4,0-14.7,0.1-22.1,0.1C1119.3,922.5,1119.3,934.5,1127,934.5
			L1127,934.5z"/>
	</g>
</g>
<g>
	<g>
		<path d="M1096,987.5c20.2-0.1,40.4-0.2,60.5-0.3c32.1-0.2,64.3-0.4,96.4-0.5c7.4,0,14.7-0.1,22.1-0.1c7.7,0,7.7-12,0-12
			c-20.2,0.1-40.4,0.2-60.5,0.3c-32.1,0.2-64.3,0.4-96.4,0.5c-7.4,0-14.7,0.1-22.1,0.1C1088.3,975.5,1088.3,987.5,1096,987.5
			L1096,987.5z"/>
	</g>
</g>
</svg>
