<?xml version="1.0" encoding="utf-8"?>
<!-- Generator: Adobe Illustrator 22.1.0, SVG Export Plug-In . SVG Version: 6.00 Build 0)  -->
<svg version="1.1" id="Layer_1" xmlns="http://www.w3.org/2000/svg" xmlns:xlink="http://www.w3.org/1999/xlink" x="0px" y="0px"
	 viewBox="0 0 1366 768" style="enable-background:new 0 0 1366 768;" xml:space="preserve">
<style type="text/css">
	.st0{fill:#0E3E66;}
	.st1{fill:#B2D732;}
	.st2{fill:#342B09;}
	.st3{fill:#EBBB97;}
	.st4{fill:#FF9E3E;}
	.st5{fill:#1C5691;}
	.st6{fill:#3E60AD;}
	.st7{fill:#BF5506;}
	.st8{fill:#8E4000;}
	.st9{fill:#30603B;}
	.st10{fill:#950E17;}
	.st11{fill:#110934;}
	.st12{fill:#25492C;}
	.st13{fill:#CCCCCC;}
	.st14{fill:#C7E5EC;}
	.st15{fill:#FCCB1A;}
	.st16{fill:#3D4142;}
	.st17{fill:#823617;}
	.st18{fill:#BA7B43;}
	.st19{fill:#2A489B;}
	.st20{fill:#123175;}
	.st21{fill:#512110;}
	.st22{fill:#4424D6;}
	.st23{fill:none;stroke:#FFFFFF;stroke-width:3;stroke-miterlimit:10;}
	.st24{fill:none;stroke:#1C5691;stroke-miterlimit:10;}
	.st25{fill:none;stroke:#FFFEFD;stroke-width:3;stroke-miterlimit:10;}
	.st26{fill:none;stroke:#000000;stroke-width:3;stroke-miterlimit:10;}
	.st27{fill:none;stroke:#000000;stroke-width:2;stroke-miterlimit:10;}
</style>
<g>
	<g>
		<path d="M481.7-6168.7c1.9,0,1.9-3,0-3C479.7-6171.7,479.7-6168.7,481.7-6168.7L481.7-6168.7z"/>
	</g>
</g>
<g id="XMLID_1_">
	<g>
		<path class="st0" d="M1189.7,518.2c0.9,3.4-0.1,7.2-1.3,10.6c-13.3,40.4-43.4,74.9-81.4,94l-0.8-1.6c-4.7-3.7-9.6-6.9-14.8-9.7
			l-0.5,0c0.1-0.9,0.1-1.7,0.2-2.6c0.6-4.6,1.9-9.5,0.4-13.9c0.4-0.6,0.5-1.5,0.5-2.3c0.6-11.1-0.3-22.1-1.1-33.1
			c-0.2-2.4-0.4-4.7-0.6-7.1l0.1,0c1.1-0.4,2.1-0.8,3.2-1.2c31-12,62.4-22.8,94.3-32.4L1189.7,518.2z"/>
		<path class="st0" d="M1189.7,518.2l-1.8,0.6c-31.8,9.6-63.3,20.4-94.3,32.4l-0.4-0.9c3.8-20.6,18.1-37.9,23.8-58.1l0.1-0.8
			c6.7,0.5,13.3,1.3,19.9,2.4c0.3,0,0.5,0.1,0.8,0.1c7.8,1.4,15.6,3.4,23.1,5.8c8.3,2.7,16.5,6,23.4,11.3c2,1.5,3.8,3.2,4.9,5.4
			C1189.4,517.1,1189.6,517.7,1189.7,518.2z"/>
		<path class="st1" d="M1185.1,378.8c0.5,20.6-3.1,41.3-11.6,60.1c-2.3,5-4.9,9.9-7.6,14.8c-4,7.2-8.1,14.5-12.7,21.3l-1.7-0.3
			c-34.8,0.7-69.7,1.5-104.5,2.2l-0.1-0.1c5.7-7.1,10.3-15.2,16.1-22.2c4.6-5.6,9.8-10.5,14.8-15.7c2.9-3,5.6-6.1,8.3-9.2
			c5.1-5.9,10-12.1,14.9-18.3c8.1-10.2,16.2-20.4,24.4-30.6l0.4,0.3c19.4-1.4,38.8-1.8,58.3-2.3L1185.1,378.8z"/>
		<path class="st1" d="M1185.1,378.8l-1,0c-19.4,0.4-38.9,0.8-58.3,2.3l-0.4-0.3c15-18.9,30.1-37.8,45.1-56.7l0-0.6
			c0.9,0.1,1.7,0.2,2.4,0.7c1.4,0.9,2,2.5,2.6,4.1C1181.3,344.5,1184.6,361.6,1185.1,378.8z"/>
		<path class="st1" d="M1170.6,323.5l0,0.6c-15,18.9-30.1,37.8-45.1,56.7c-8.1,10.2-16.3,20.4-24.4,30.6
			c-4.9,6.1-9.8,12.3-14.9,18.3l-1.4-1.2c-1-3.3-2.9-6.3-4-9.7c-0.7-2.3-1-4.7-1.4-7c-2.5-14.8-8.7-28.8-14.8-42.5l-0.6-0.8
			c5.7-4.5,11.7-8.9,17.6-13.1c1.1-0.8,2.2-1.6,3.4-2.4c2.6-1.9,5.2-3.7,7.8-5.5c3.8-2.6,7.8-5,11.8-7.2c6-3.1,12.3-5.7,18.7-7.8
			c14.6-4.9,29.9-7.9,45.3-8.9C1169.3,323.5,1169.9,323.5,1170.6,323.5z"/>
		<path class="st1" d="M1151.5,474.7l1.7,0.3c-4.7,6.8-9.9,13.2-16.1,18.6l0,0.2c-6.6-1.1-13.2-1.9-19.9-2.4
			c-14.7-1.1-29.4-0.8-44.1,0c-9.1,0.5-18.4,1.2-26.4,5.4c-0.9-2.4-2-4.7-3.4-6.8c-1.3-1.9-3-3.7-4.9-5.1l1-0.2
			c2.8-2.4,5.2-5.1,7.5-8l0.1,0.1C1081.8,476.2,1116.7,475.5,1151.5,474.7z"/>
		<path class="st1" d="M1115.8,254.1c3.3,10.8,6.1,22.3,3.3,33.1l0.1,0.5c-0.4,0.9-0.9,1.8-1.5,2.5c-1.5,1.8-3.8,2.7-6,3.5
			c-6.1,2.2-12.2,4.4-18.6,5l-0.8,0.1c1.8,9.6-0.3,19.5-2.3,29c-0.9,4.2-1.8,8.5-2.8,12.7l-0.4,0.5c1.7,2,3.5,4,5.5,5.7l0.5,0.7
			c-2.6,1.8-5.2,3.6-7.8,5.5l-0.9-1.2c-9.6-21.3-23.6-40.3-38.3-58.6c-2.9-44.7-42.7-80.1-91.3-80.1c-48.5,0-88.1,35.2-91.3,79.8
			c-7.2-3.2-14.3-6.5-20.7-11.1l-1,0.3c-5.5-10.7-12.6-20.7-20.2-30.3c-5-6.3-10.2-12.5-15.4-18.6l-0.4-0.2c0,0,0,0,0-0.1l0.9-0.7
			c-1.1-1.5-2.2-2.9-3.3-4.4c-0.7-0.9-1.3-1.8-2-2.7l0.7-0.4c4.4-11.1,11.2-21.3,19.7-29.6c2.3-2.3,4.9-4.5,8-5.3
			c3.9-1,8,0.5,11.7,2.1c6.2,2.8,12.2,6.1,17.8,10.1l0.4-0.1c9-8.4,19.1-15.7,29.9-21.5l0.7-1.4c0.2-1.3,0.3-2.6,0.5-3.9
			c0.7-9.3-1.9-19,0.6-28l0.2-1.5c16.1-8.4,34.6-12.2,52.7-10.8l0.3,0c3.8,3.4,6,8.3,7.3,13.3c1.3,4.9,1.8,10.1,3.2,15v1
			c13.3-0.3,26.7,2,39.2,6.8l0.4-0.1c1.3-3.4,3.6-6.2,5.9-9.1c4.3-5.5,9-11.2,15.6-13.6l0.7-0.7c3.2-0.5,6.4,0.8,9.4,2.1
			c13.7,5.9,27.9,12.2,36.9,24l0.1,0.4c1.5,3.7,0.2,7.8-1.3,11.4c-2.6,6-6.1,11.7-10.4,16.6l0,0.4c1.3,1.1,2.6,2.3,3.8,3.5
			c8.6,8.7,15.8,18.8,21.3,29.8l0.1,0.6c2.2,0.6,4.4,0.5,6.7,0.3c7.3-0.4,14.6-0.9,21.8-1.3l0.6,0.1c2.9,2.9,5.3,6.2,7,9.9
			C1114,248.1,1114.9,251.1,1115.8,254.1z"/>
		<path class="st0" d="M1061.1,510.1c0.1,0.3,0.2,0.6,0.3,0.9c0.1,1-0.5,1.9-0.9,2.9c-1.2,3.2,0.6,6.6,0.8,10c0,0.5,0.1,1,0.4,1.3
			c0.3,0.2,0.6,0.3,0.9,0.3c1.5,0.2,3,0.4,4.5,0.5c0.2,0,0.5,0.1,0.7,0.1c0.6,0.1,1.1,0.3,1.4,0.8c0.2,0.3,0.3,0.7,0.4,1
			c0.1,0.4,0.1,0.8,0.1,1.2c-0.1,0.9-0.3,1.8-0.8,2.6c-0.5,0.7-1.1,1.6-0.7,2.3l1,0.9c-3.7,2.6-6,6.8-7.9,10.8
			c-2.1,4.4-3.9,9-7.4,12.3c-0.5,0.5-1,0.9-1.6,1.2c-0.6,0.3-1.3,0.3-2,0.4c-6,0.3-11.9-0.9-17.8-2.5c-0.8-6.8-1.6-16-1.4-22.7
			c0-1.1,0.1-2.2,0.7-3.1c0.7-1,1.9-1.4,3-1.8c6.1-2.1,13.3-4.6,15.3-10.8c1.1-3.3,0.4-6.9-0.4-10.4c-0.8-3.9-1.7-7.8-3.1-11.5
			c8-4.3,17.3-5,26.4-5.4c14.7-0.8,29.5-1.1,44.1,0l-0.1,0.8c-5.7,20.2-19.9,37.5-23.8,58.1l0.4,0.9c-1.1,0.4-2.1,0.8-3.2,1.2
			l-0.1,0c-0.5-4.5-1.2-8.9-2.7-13.1c-0.5-1.4-1-2.7-1.8-3.9c-0.9-1.3-2-2.4-3.1-3.5c-0.6-0.6-1.2-1.2-1.8-1.8
			c-1.3-1.3-2.6-2.6-3.9-3.9c0,0,0,0,0.1,0c0.1-0.1,0.2-0.2,0.2-0.3c0-0.1,0-0.3-0.1-0.4c-0.6-1.1-1.1-2.2-1.5-3.3
			c0.1-0.4-0.1-0.8,0.1-1.1c0.1-0.4,0.6-0.6,0.9-0.9c0.4-0.3,0.8-0.8,1.1-1.2c0.5-0.8,0.8-1.7,1.2-2.5c0.8-2.3,1.6-4.5,2.4-6.7
			c0.5-1.4,1-3,0.4-4.4c-0.6-1.5-2.3-2.3-4-2.5c-1.6-0.2-3.3,0-4.9-0.4c-3.6-0.7-6.5-3.9-10.1-4c-2.1-0.1-4.3,1-5.4,2.9
			c-1.1,1.9-0.9,4.4,0.6,6C1059.1,508.2,1060.5,509,1061.1,510.1z"/>
		<path class="st0" d="M1106.3,621.2l0.8,1.6c-4.4,2.2-9,4.3-13.6,6.1l-2,0.2c-0.2-3.1-0.4-6.1-0.5-9.2c-0.1-2.8-0.1-5.5,0.1-8.3
			l0.5,0C1096.7,614.3,1101.7,617.6,1106.3,621.2z"/>
		<path class="st2" d="M1103.3,712.7c0,0.7,0,1.4-0.4,2c-0.7,1.1-2.3,1.1-3.5,0.8c-1.2-0.4-2.4-1.1-3.7-1c-0.7,0-1.4,0.3-2.1,0.5
			c-2.8,0.8-5.7,0.6-8.6,0.4c-1.2-0.1-2.6-0.3-3.1-1.4c-0.3-0.8,0-1.6,0.6-2.2c0.6-0.6,1.3-0.9,2.1-1.2c2.5-0.9,5.1-1.6,7.7-1.9
			c1.1-0.2,2.3-0.3,3.3-0.8c0.2-0.1,0.3-0.2,0.4-0.3c1.7,0.1,3.5-0.1,5.2-0.6l0.1-0.2c0.1,0.1,0.2,0.2,0.3,0.2
			c0.5,0.4,1.2,0.6,1.5,1.2c0.2,0.3,0.2,0.7,0.2,1.1C1103.3,710.4,1103.3,711.6,1103.3,712.7z"/>
		<path class="st0" d="M1096.9,663.2c3.3,13.4,7.9,27.2,5.1,40.7c-1.3-0.7-3.1-0.5-4.1,0.5c-0.2-0.1-0.3-0.2-0.5-0.3
			c-2.3-1.4-3.9-3.8-4.9-6.3c-1.1-2.7-1.7-5.5-2.7-8.3c-0.9-2.7-2.2-5.2-3.3-7.7c-2.1-4.9-3.5-10-4.8-15.1
			c-1.4-5.1-2.7-10.1-4.1-15.1c0.9-2.9,1.9-5.7,2.8-8.6l0.4-1.1c1.6-9.5,6.1-18.2,8.2-27.5c1.3-6,1.7-12.1,1.8-18.3l-0.1-0.3
			c0.1,0,0.3-0.1,0.4-0.2c0.2-0.1,0.4-0.3,0.5-0.5c1.5,4.4,0.2,9.3-0.4,13.9c-0.1,0.9-0.2,1.7-0.2,2.6c-0.2,2.8-0.1,5.5-0.1,8.3
			c0.1,3.1,0.3,6.1,0.5,9.2C1092.4,640.5,1094.2,652,1096.9,663.2z"/>
		<path class="st3" d="M1102,703.9l-0.9,1.5c-0.4,0.4-0.2,1,0.2,1.4l-0.1,0.2c-1.7,0.5-3.4,0.7-5.2,0.6c0.7-0.6,1.2-1.6,0.9-2.5
			l0.5-0.9c0.2,0.1,0.3,0.2,0.5,0.3C1099,703.4,1100.8,703.2,1102,703.9z"/>
		<path class="st4" d="M1054.8,575.1c-1.7,0.1-3.3,0-5-0.2c-3.4-0.5-6.8-1.6-10-2.9c-8.3-3.3-16.1-7.8-23.2-13.1
			c-0.5-0.3-1-0.8-1.1-1.4c0-0.2,0-0.4,0.1-0.6c0-0.2,0.1-0.3,0.2-0.5c0.3-0.7,0.6-1.5,0.9-2.2c0.1-0.3,0.3-0.7,0.6-0.9
			c0.1-0.1,0.2-0.1,0.2-0.1c0.5-0.2,1-0.1,1.5,0.1c4.5,1.2,8.9,2.7,13.4,4c5.9,1.6,11.8,2.9,17.8,2.5c0.7,0,1.4-0.1,2-0.4
			c0.6-0.3,1.1-0.7,1.6-1.2c3.4-3.4,5.3-8,7.4-12.3c1.9-4.1,4.2-8.3,7.9-10.8c0.2-0.2,0.5-0.3,0.8-0.5c1.8-1.1,3.7-1.8,5.7-2.4
			c1.8-0.6,3.7-1.3,5.5-1.9l0,0c0.6,0.6,1.2,1.2,1.8,1.8c1.1,1.1,2.2,2.2,3.1,3.5c0.8,1.2,1.3,2.6,1.8,3.9c1.5,4.2,2.2,8.6,2.7,13.1
			c0.3,2.3,0.4,4.7,0.6,7.1c0.9,11,1.7,22.1,1.1,33.1c0,0.8-0.1,1.7-0.5,2.3c-0.1,0.2-0.3,0.4-0.5,0.5c-0.1,0.1-0.2,0.2-0.4,0.2
			c-0.5,0.2-1.1,0.2-1.6,0.3c-7.1,0.2-14.3-0.5-21.3,0.5c-2.9,0.4-6.1,1-8.7-0.3c-0.2-0.1-0.4-0.2-0.6-0.4c-0.2-0.1-0.3-0.3-0.4-0.5
			c-0.2-0.3-0.3-0.7-0.4-1.1c-0.2-1.2-0.1-2.4,0.1-3.5c0.3-1.6,0.8-3.3,0.9-4.9c0.4-3.5-0.5-6.9-1.4-10.3L1054.8,575.1z"/>
		<path class="st5" d="M1063.3,709.8c-1.5-1.3-2.2-3.4-2.3-5.4c-0.1-2,0.3-4,0.6-6.1c0.5-4.1,0.2-8.2-0.3-12.3
			c-0.4-3.4-0.8-6.9-1.1-10.3c-0.4-5-0.5-9.9-0.6-14.9c-0.1-6.7-0.2-13.3-0.3-20c0-1.7-0.1-3.4-0.1-5.2c-0.2-13.3-0.4-26.6-0.6-39.9
			c0.2,0.2,0.4,0.3,0.6,0.4c2.6,1.4,5.8,0.7,8.7,0.3c7-1,14.2-0.3,21.3-0.5c0.5,0,1.1,0,1.6-0.3l0.1,0.3c-0.2,6.1-0.5,12.3-1.8,18.3
			c-2.1,9.4-6.6,18.1-8.2,27.5l-0.4,1.1c-0.9,2.9-1.9,5.7-2.8,8.6c0,0,0,0,0-0.1c0,0,0,0.1,0,0.1c-0.8,13.6-1.6,27.2-4.2,40.6
			c-0.9,4.9-2.1,9.7-3.3,14.5c-0.3,1.1-0.6,2.2-1.3,3.1c-0.7,0.7-1.6,1.1-2.6,1.1C1065.2,710.9,1064.1,710.5,1063.3,709.8
			C1063.3,709.8,1063.3,709.8,1063.3,709.8z"/>
		<path class="st1" d="M1084.8,428.5l1.4,1.2c-2.7,3.1-5.5,6.2-8.3,9.2c-5,5.2-10.3,10.1-14.8,15.7c-5.8,7.1-10.4,15.1-16.1,22.2
			c-2.3,2.9-4.7,5.6-7.5,8l-1,0.2c-3.4-2.5-7.5-3.9-11.6-3.2c-5.2,0.9-10.1,5.1-15.2,3.6c-2.4-0.7-4.2-2.5-6-4.2
			c-5.1-5.1-10.2-10.2-15.3-15.3l-0.2,0c0.8-4.6,3.5-8.6,5.2-12.9c1.1-2.8,1.8-6,1.4-8.9l1-0.3c3.5-6.6,7-13.3,11.8-19
			c0.6-0.8,1.3-1.5,2-2.3c4.5-4.7,9.8-8.4,14.3-13.1c4.5-4.7,8-10.3,11.9-15.4c7.5-9.7,16.6-17.9,26.2-25.6l0.6,0.8
			c6.1,13.7,12.3,27.7,14.8,42.5c0.4,2.4,0.7,4.8,1.4,7C1081.9,422.1,1083.8,425.1,1084.8,428.5z"/>
		<path class="st4" d="M1084.1,351.7l0.9,1.2c-1.1,0.8-2.3,1.6-3.4,2.4c-5.9,4.3-11.8,8.6-17.6,13.1c-9.7,7.6-18.7,15.8-26.2,25.6
			c-4,5.2-7.5,10.7-11.9,15.4c-4.5,4.7-9.9,8.4-14.3,13.1c-0.7,0.7-1.4,1.5-2,2.3l-1.1-0.9c1.1-9.5,1.8-19,2.2-28.5
			c0.3-6.4,0.4-12.7,0.3-19.1c0-3.5-0.1-7.1,0.8-10.5c0.1-0.3,0.1-0.5,0.2-0.8c20.8-15.7,34.1-39.7,34.1-66.6c0-1.8-0.1-3.6-0.2-5.4
			C1060.5,311.5,1074.5,330.4,1084.1,351.7z"/>
		<path class="st2" d="M1081.9,505.3c0.6,1.4,0.1,3-0.4,4.4c-0.8,2.2-1.6,4.5-2.4,6.7c-0.3,0.9-0.7,1.8-1.2,2.5l-0.4-0.1
			c-0.1-0.7,0.2-1.4,0.4-2.1c0.2-0.7,0.2-1.5-0.3-2c-0.9-0.8-2.5,0.2-3.4-0.5c-0.7-0.6-0.5-1.7-0.8-2.5c-0.6-1.3-2.3-1.4-3.7-1.4
			c-2.1,0-4.2,0.1-6.3,0.1c-0.8,0-1.6,0-2.3-0.3c-0.6-1.1-2-1.9-2.9-2.9c-1.4-1.6-1.6-4.1-0.6-6c1.1-1.9,3.2-3,5.4-2.9
			c3.7,0.1,6.6,3.3,10.1,4c1.6,0.3,3.3,0.1,4.9,0.4C1079.6,503,1081.3,503.8,1081.9,505.3z"/>
		<path class="st3" d="M1081,530.1L1081,530.1c-1.8,0.7-3.7,1.3-5.5,1.9c-2,0.7-3.9,1.4-5.7,2.4c-0.3,0.2-0.5,0.3-0.8,0.5l-1-0.9
			c-0.4-0.8,0.2-1.6,0.7-2.3c0.5-0.8,0.8-1.7,0.8-2.6c1.9-0.9,3.8-1.6,5.7-2.2c0.6-0.2,1.3-0.4,1.8-0.8
			C1078.4,527.5,1079.7,528.8,1081,530.1z"/>
		<path class="st3" d="M1075.8,522.2C1075.8,522.2,1075.8,522.2,1075.8,522.2c-0.1,0.7-0.8,1.1-1.4,1.4c-2.2,1-4.4,1.9-6.7,2.6
			c-0.2,0-0.4-0.1-0.7-0.1c-1.5-0.2-3-0.3-4.5-0.5c-0.3,0-0.7-0.1-0.9-0.3c-0.4-0.3-0.4-0.9-0.4-1.3c-0.2-3.4-1.9-6.8-0.8-10
			c0.4-0.9,1-1.9,0.9-2.9c0-0.3-0.1-0.6-0.3-0.9c0.7,0.3,1.5,0.3,2.3,0.3c2.1,0,4.2-0.1,6.3-0.1c1.4,0,3.1,0.1,3.7,1.4
			c0.4,0.8,0.1,2,0.8,2.5c0.9,0.8,2.5-0.2,3.4,0.5c0.5,0.5,0.5,1.3,0.3,2c-0.2,0.7-0.5,1.4-0.4,2.1l0.4,0.1
			c-0.3,0.5-0.7,0.9-1.1,1.2c-0.3,0.3-0.7,0.5-0.9,0.9C1075.8,521.4,1075.9,521.8,1075.8,522.2z"/>
		<path class="st3" d="M1077.1,526.2c-0.5,0.4-1.1,0.6-1.8,0.8c-2,0.6-3.9,1.3-5.7,2.2c0-0.4,0-0.8-0.1-1.2c-0.1-0.4-0.2-0.7-0.4-1
			c-0.3-0.4-0.9-0.6-1.4-0.8c2.3-0.7,4.5-1.6,6.7-2.6c0.6-0.3,1.3-0.7,1.4-1.3c0,0,0,0,0,0c0.4,1.2,0.9,2.3,1.5,3.3
			c0.1,0.1,0.1,0.2,0.1,0.4C1077.4,526,1077.3,526.1,1077.1,526.2C1077.2,526.2,1077.2,526.2,1077.1,526.2z"/>
		<path class="st2" d="M1065.6,714.3c0.9-0.1,1.8-0.2,2.7-0.2l0.5-0.3c0.3,0.4,0.5,0.8,0.7,1.1c1,1.8,0.3,4.1-0.3,6.1
			c-0.2,0.4-0.3,0.9-0.6,1.2c-0.8,0.8-2.1,0.5-3,0c-1-0.5-1.9-1.2-3-1.2c-0.7,0-1.3,0.3-2,0.6c-3.3,1.3-7.1,1.4-10.5,0.2
			c-0.9-0.3-1.9-1.1-1.5-1.9c0.1-0.3,0.4-0.5,0.7-0.6c3.8-2.3,8.4-2.8,12.5-4.5c0.3-0.1,0.5-0.2,0.8-0.4
			C1063.5,714.3,1064.6,714.3,1065.6,714.3z"/>
		<path class="st3" d="M1068.8,713.8l-0.5,0.3c-0.9,0.1-1.8,0.1-2.7,0.2c-1,0-2,0-3,0c0.2-0.1,0.3-0.3,0.4-0.4
			c0.2-0.3,0.2-0.6,0.3-0.9c0.1-1,0.1-2.1,0.1-3.1c0,0,0.1,0,0.1,0.1c0.8,0.7,1.9,1,2.9,1l1.8,0.4
			C1067.7,712.1,1068.2,712.9,1068.8,713.8z"/>
		<path class="st0" d="M1034.7,613.2c5.5-8.2,10.2-18.1,13-28l0.8,0.2c2.8,1.7,5.6,3.4,8.4,5.1l1,0.1c-0.2,1.2-0.3,2.4-0.1,3.5
			c0.1,0.4,0.2,0.8,0.4,1.1c0.1,0.2,0.3,0.3,0.4,0.5c0.2,13.3,0.4,26.6,0.6,39.9c0,1.7,0.1,3.5,0.1,5.2l-1.1,0
			c-20.4,5.5-41.7,6.3-62.7,6.8l-0.4,0.1c-0.5-3.8-2.3-7.6-3.4-11.3c-0.4-1.4-0.8-2.9-0.3-4.2c0.4-1.2,1.3-2,2.3-2.8
			c5.5-4.9,11-9.8,16.5-14.7c2.1-1.9,4.5-3.9,7.3-4.3c6-0.7,12.1,5.9,17.2,2.7L1034.7,613.2z"/>
		<path class="st0" d="M1057.4,575.6c0.9,3.3,1.8,6.8,1.4,10.3c-0.2,1.6-0.7,3.3-0.9,4.9l-1-0.1c-2.8-1.7-5.6-3.4-8.4-5.1l-0.8-0.2
			c0.9-3.1,1.6-6.2,2-9.2l0.1-1.2c1.7,0.2,3.3,0.3,5,0.2L1057.4,575.6z"/>
		<path class="st6" d="M881,542.5C881,542.5,881,542.5,881,542.5c0,1-0.5,1.9-0.9,2.8c-0.9,2.1-0.8,4.5-0.8,6.8c0,1.9,0.1,4,1.3,5.4
			c1.3,1.6,3.5,2,5.7,2.3c0.8,3.6,2,7,3.6,10.2c-0.1,0.1-0.2,0.2-0.3,0.4c-2.5,2.9-4.6,6.1-6.1,9.6c-1.2,2.5-2,5.3-2,8.1
			c0,2.8,1,5.5,2.3,8l0,0.7c-6.3-0.2-12.8-0.6-18.4-3.6c-1.1-0.6-2.3-1.4-3.5-1.8c-1.5-0.5-3-0.5-4.6-0.6c-4.3-0.1-8.7-0.2-12.6,1.6
			c-0.5,0.2-1,0.5-1.3,0.9c-0.3,0.4-0.3,0.9-0.3,1.4c-0.1,1.9,0.2,3.8,0.8,5.6l0,0.5c-3.4,0.1-6.9,0.2-10.3,0.4l-0.1-0.6
			c-0.6-2.3-2.3-4.1-3.6-6.1c-1.3-2-2-4.2-2.9-6.4c-1.5-3.7-3.3-7.3-5.5-10.6c-0.4-0.7-0.9-1.4-1.6-1.8c-0.7-0.4-1.7-0.5-2.3,0.1
			c-1,1-0.1,2.6,0.7,3.7c2.8,4,4.4,8.7,6.8,12.9c0.8,1.4,1.7,2.8,2.6,4.2c1.3,2,2.5,4,3.8,6c0.3,0.5,0.6,0.9,0.9,1.4l0.3,0.3
			c1.9,0,3.8-0.1,5.7-0.1v0.1c-0.5,0.8-0.1,1.9,0.8,2.4c0.8,0.5,1.8,0.4,2.8,0.1l0.5,0.9c-6.2,3.7-12.8,6.4-19.7,8.3l-0.3-1.2
			c-7.3-7.4-12.7-16.5-15.8-26.4c-1.2-3.8-2-7.9-0.8-11.7c1.8-5.7,7.6-9.1,13.2-11.2c1.3-0.5,2.8-1,3.6-2.1c0.9-1.2,1-2.8,1-4.3
			c0-4.8,0-9.5,0.1-14.3c0-3.7,0-7.4-1.3-10.9c-1.3-3.4-4.2-6.5-7.8-7L813,526c1-1,3-1,4-2c22-19,39-41,55-66
			c6.5-10.5,12.8-20.8,18.9-31.2l1.2,0.7c3.4-1.7,7.7-0.5,10.5,2c1,0.9,1.9,1.9,2.6,3c1.4,2,2.3,4.3,3.1,6.6c1,3,2.2,6.4,5.1,7.7
			c1.2,0.5,2.5,0.6,3.8,0.7c7.5,0.4,15,0.8,22.4,1.2c0.7,0,1.3,0.1,1.9-0.2c0.6-0.3,1.1-0.9,1.5-1.5c2-3,3.9-6,5.9-8.9
			c1-1.5,2-3.1,3.1-4.7c0.4-0.6,0.8-1.2,1.2-1.8c0.7-1,1.4-2.1,2.5-2.7c1.1-0.6,2.3-0.6,3.5-0.6c9.5,0.3,18.6,3.4,27.5,6.5
			c3.1,1.1,6.3,2.2,8.3,4.8c1.1,1.4,1.6,2.9,1.9,4.6c0.4,2.9-0.3,6.1-1.4,8.9c-1.7,4.3-4.4,8.3-5.2,12.9l0.2,0
			c5.1,5.1,10.2,10.2,15.3,15.3c1.7,1.7,3.6,3.5,6,4.2c5.1,1.5,10-2.6,15.2-3.6c4.1-0.7,8.2,0.7,11.6,3.2c1.9,1.4,3.6,3.2,4.9,5.1
			c1.4,2.1,2.5,4.4,3.4,6.8c1.4,3.7,2.3,7.7,3.1,11.5c0.7,3.4,1.5,7,0.4,10.4c-2,6.2-9.2,8.6-15.3,10.8c-1.1,0.4-2.3,0.8-3,1.8
			c-0.6,0.9-0.7,2-0.7,3.1c-0.3,6.7,0.6,15.9,1.4,22.7c-4.5-1.3-8.9-2.7-13.4-4c-0.5-0.1-1-0.3-1.5-0.1l0,0c-2-1.6-3.5-3.7-4.4-6.1
			c-0.1-0.3-0.2-0.6-0.5-0.8c-0.6-0.5-1.5-0.1-1.8,0.6c-0.3,0.7-0.2,1.5-0.1,2.2c-1.7-0.7-3.4-1.4-4.4-2.9c-0.6-0.8-1.2-2-2.3-2
			c-0.6,0-1.2,0.5-1.4,1.1c-0.2,0.6-0.2,1.2-0.1,1.9c0.4,3.5,2.7,7,6.1,8.1c2.1,0.7,4.5,0.4,6.4,1.6l0.6,0.1
			c-0.1,0.2-0.1,0.4-0.1,0.6c0.1,0.6,0.6,1,1.1,1.4c7.1,5.3,15,9.7,23.2,13.1c3.2,1.3,6.6,2.4,10,2.9l-0.1,1.2c-0.5,3-1.2,6.1-2,9.2
			c-2.8,9.9-7.5,19.8-13,28l-0.1-0.1c-5.1,3.1-11.2-3.5-17.2-2.7c-2.8,0.4-5.2,2.4-7.3,4.3c-5.5,4.9-11,9.8-16.5,14.7
			c-0.9,0.8-1.8,1.7-2.3,2.8c-0.5,1.3-0.1,2.9,0.3,4.2c1.2,3.7,2.9,7.6,3.4,11.3c0.3,2.2,0.2,4.4-0.8,6.5c-2.1,4.6-7.3,6.7-12,8.5
			c-3.6,1.3-7.2,2.6-10.9,4c-4.3,1.5-8.9,3.1-13.2,1.6c-5.5-1.9-8-8-10.6-13.2c-0.5-1-1.2-2.1-2.2-2.7c-0.9-0.4-1.9-0.4-2.9-0.3
			c-7.2,0.5-14.3,1-21.5,1.5l-1.4-0.3c0.7-2.9,1.5-5.7,2.2-8.6c1.4-5.5,2.8-11.2,1.6-16.7c-1.6-7.1-7.2-12.5-13.3-16.4
			c0.5,0,1.1-0.1,1.6-0.1c0.2,0,0.4,0,0.5-0.2c0.1-0.1,0.1-0.3,0.1-0.4c0.3-5.5,0.6-11.1,0.8-16.6l-1.3-0.2c0.2-0.1,0.3-0.2,0.5-0.2
			c0.6-0.3,1.3-0.7,1.9-1.1c5.1,2,10.6,3.2,16.3,3.2c25.1,0,45.5-21.3,45.5-47.5S955.6,501,930.5,501c-18.8,0-35,11.9-41.9,28.9
			c-0.9,0-1.8,0.1-2.6,0.2c-2.1,0.3-4.3,0.7-6,2c-1.7,1.3-2.7,3.7-1.8,5.6C878.9,539.5,880.9,540.6,881,542.5z"/>
		<path class="st4" d="M1019.7,311.5l-1.9-0.3c0.5-3,0.7-6.1,0.7-9.2c0-7.5-1.5-14.7-4.1-21.3c1.9-1.2,3.9-2.3,6-3.3
			c2.8-1.4,5.9-2.6,8.9-1.8c2.8,0.8,4.8,3.1,6.6,5.4c3.3,4,6.6,8.1,9.9,12.2c0.1,1.8,0.2,3.6,0.2,5.4c0,26.9-13.3,50.9-34.1,66.6
			c0.7-2.5,1.9-4.9,2.6-7.4c1.8-6,1.3-12.3,1.6-18.6c0.3-7.2,1.4-14.3,2.6-21.3C1019,315.7,1019.3,313.6,1019.7,311.5z"/>
		<path class="st1" d="M1045.8,293.1c-3.3-4.1-6.6-8.1-9.9-12.2c-1.8-2.3-3.8-4.6-6.6-5.4c-3-0.8-6.2,0.4-8.9,1.8c-2,1-4,2.1-6,3.3
			c-9.2-22.9-32.8-39.2-60.4-39.2c-35.6,0-64.5,27.1-64.5,60.5c0,0.9,0,1.9,0.1,2.8c-7.7-3.6-15.4-7.1-23.1-10.6
			c-1.1-0.5-2.2-1-3.3-1.4c3.1-44.5,42.8-79.8,91.3-79.8C1003.1,213,1042.9,248.4,1045.8,293.1z"/>
		<path class="st4" d="M1019.7,311.5c-0.3,2.1-0.7,4.2-1,6.2c-1.2,7.1-2.3,14.2-2.6,21.3c-0.2,6.2,0.2,12.6-1.6,18.6
			c-0.8,2.5-1.9,4.9-2.6,7.4c-7.1,5.4-15,9.7-23.6,12.9c-6.9-5.6-13.8-11.2-20.6-16.8c25.9-5.2,46.1-25.1,50.1-49.9L1019.7,311.5z"
			/>
		<path class="st4" d="M1018.5,302c0,3.1-0.3,6.2-0.7,9.2c-4,24.8-24.2,44.7-50.1,49.9c-2-1.6-3.9-3.2-5.9-4.8L961,356
			c0.8-1.9,1.7-3.7,2.5-5.6c6.5-14.3,13.3-28.6,22.3-41.6c7.7-11,17.2-21.1,28.6-28.1C1017,287.3,1018.5,294.5,1018.5,302z"/>
		<path class="st3" d="M1017.5,553.1L1017.5,553.1c-0.1,0-0.2,0.1-0.2,0.1c-0.3,0.2-0.5,0.6-0.6,0.9c-0.3,0.7-0.6,1.5-0.9,2.2
			c-0.1,0.2-0.1,0.3-0.2,0.5l-0.6-0.1c-1.9-1.1-4.3-0.9-6.4-1.6c-3.4-1.1-5.7-4.5-6.1-8.1c-0.1-0.6-0.1-1.3,0.1-1.9
			c0.2-0.6,0.8-1.1,1.4-1.1c1,0,1.6,1.1,2.3,2c1.1,1.4,2.8,2.2,4.4,2.9c-0.1-0.7-0.3-1.5,0.1-2.2c0.3-0.7,1.3-1.1,1.8-0.6
			c0.2,0.2,0.3,0.5,0.5,0.8C1014,549.4,1015.5,551.5,1017.5,553.1z"/>
		<path class="st4" d="M1011.9,365.1c-0.1,0.3-0.1,0.5-0.2,0.8c-0.9,3.4-0.8,7-0.8,10.5c0,6.4,0,12.7-0.3,19.1l-1,0
			c-7.1-5.8-14.2-11.6-21.3-17.4C996.9,374.8,1004.8,370.4,1011.9,365.1z"/>
		<path class="st4" d="M1009.6,395.4l1,0c-0.4,9.5-1.1,19-2.2,28.5l1.1,0.9c-4.8,5.7-8.3,12.4-11.8,19l-1,0.3
			c-0.2-1.7-0.8-3.2-1.9-4.6c-2-2.5-5.2-3.7-8.3-4.8c-8.9-3.1-18-6.2-27.5-6.5c-1.2,0-2.5,0-3.5,0.6c-1.1,0.6-1.8,1.6-2.5,2.7
			c-0.4,0.6-0.8,1.2-1.2,1.8l-0.4-0.3c0.3-12.5,0.7-24.9,1-37.4c0.1-3.9,0.2-7.8,0.5-11.6c0.5,0,1,0,1.5,0c11.9,0,23.3-2.1,33.8-6
			C995.4,383.8,1002.5,389.6,1009.6,395.4z"/>
		<path class="st4" d="M967.6,361.1c6.9,5.6,13.8,11.2,20.6,16.8c-10.5,3.9-21.9,6-33.8,6c-0.5,0-1,0-1.5,0c0.2-2.3,0.5-4.7,0.9-7
			c0.9-5,2.5-9.9,4.4-14.7C961.5,362.2,964.6,361.8,967.6,361.1z"/>
		<path class="st4" d="M961.7,356.3c2,1.6,3.9,3.2,5.9,4.8c-3,0.6-6.2,1-9.3,1.2c0.8-2.1,1.7-4.3,2.7-6.4L961.7,356.3z"/>
		<path class="st1" d="M958.3,362.4c-1.9,4.8-3.5,9.6-4.4,14.7c-0.4,2.3-0.7,4.6-0.9,7c-12.3-0.2-24.1-2.6-34.8-7
			c3.3-6.5,6.5-13.1,9.5-19.7c8,3.4,16.9,5.2,26.2,5.2C955.5,362.5,956.9,362.5,958.3,362.4z"/>
		<path class="st1" d="M953,384c-0.3,3.9-0.4,7.7-0.5,11.6c-0.3,12.5-0.6,24.9-1,37.4l0.4,0.3c-1,1.6-2,3.1-3.1,4.7l-0.4-0.2
			c-11,0-22-1.6-32.6-4.6c-3.4-1-7-2.1-10.3-0.9l-0.4,0.3c-0.8-1.1-1.6-2.1-2.6-3c-2.8-2.5-7.1-3.7-10.5-2l-1.2-0.7
			c9.7-16.5,18.8-32.9,27.3-49.8C928.9,381.3,940.7,383.8,953,384z"/>
		<path class="st1" d="M948.9,438c-2,3-3.9,6-5.9,8.9c-0.4,0.6-0.8,1.2-1.5,1.5c-0.6,0.3-1.3,0.3-1.9,0.2c-7.5-0.4-15-0.8-22.4-1.2
			c-1.3-0.1-2.6-0.1-3.8-0.7c-2.9-1.3-4-4.7-5.1-7.7c-0.8-2.3-1.8-4.6-3.1-6.6l0.4-0.3c3.3-1.2,6.9-0.1,10.3,0.9
			c10.6,3,21.6,4.6,32.6,4.6L948.9,438z"/>
		<path class="st7" d="M938.7,329.5l0.6,1.2c-0.7,1.7-1.4,3.4-2.1,5.1c-4,6.8-7.8,13.6-11.8,20.5c-20.5-9.5-34.8-28.9-35.8-51.5
			C906.2,312.6,922.5,320.9,938.7,329.5z"/>
		<path class="st8" d="M937.2,335.8c-3,7.3-6.2,14.4-9.4,21.5c-0.8-0.3-1.6-0.7-2.3-1C929.4,349.4,933.2,342.6,937.2,335.8z"/>
		<path class="st8" d="M925.4,356.3c0.8,0.4,1.5,0.7,2.3,1c-3.1,6.7-6.3,13.2-9.5,19.7c-1.4-0.6-2.8-1.2-4.2-1.8
			C918,369,921.7,362.6,925.4,356.3z"/>
		<path class="st7" d="M925.4,356.3c-3.7,6.4-7.4,12.7-11.4,19c-30.3-13.9-51-43.1-51-76.7c0-1.9,0.1-3.8,0.2-5.7
			c1.1,0.5,2.2,1,3.3,1.4c7.7,3.4,15.4,7,23.1,10.6C890.7,327.4,905,346.8,925.4,356.3z"/>
		<path class="st9" d="M904.9,697.5c-0.1-0.7-0.3-1.4-0.4-2.1c-1-4.2-2.6-8.2-3.8-12.3c-1.9-6.7-2.4-13.8-3-20.8
			c-1.2-16.4-2.5-32.8-3.7-49.2l0-0.6c0.1,0,0.3,0,0.4,0c5.2-0.3,10.5-0.6,15.7-0.9c6.1,3.9,11.8,9.3,13.3,16.4
			c1.2,5.5-0.2,11.2-1.6,16.7c-0.7,2.9-1.5,5.8-2.2,8.6c-0.8,2.9-1.5,5.9-2.3,8.8c-1.1,4.2-2.2,8.5-2.2,12.8
			c0,5.7,1.8,11.2,2.9,16.8c1,5.1,1.5,10.4,1.4,15.6c-0.1,4.8-0.7,9.5-1.2,14.3c-0.8,6.6-1.6,13.3-2.3,19.9
			c-0.1,0.6-0.2,1.4-0.5,1.9c-0.2,0.3-0.4,0.5-0.6,0.7c-0.9,0.6-2.3,0.2-3-0.7c-0.7-0.9-0.9-2-1.1-3.2c-2-11.5-3.6-23.1-4.8-34.7
			C905.6,702.9,905.4,700.2,904.9,697.5z"/>
		<path class="st10" d="M915.5,575.5c2.7,2.4,4.9,5.8,4.5,9.4c-0.4,3.4-2.9,6-5.8,7.9c-3.2-1.3-6.2-2.9-8.9-4.9
			c0.1-2.3-0.4-4.7-0.9-7c-0.2-0.8-0.4-1.6-0.9-2.2c-0.2-0.2-0.4-0.3-0.5-0.4c-0.4-0.6-1-1.2-1.6-1.6c-0.9-0.6-1.9-1-2.8-1.6
			c-2.5-1.6-3.9-4.3-5.3-6.9c-0.5-0.8-0.9-1.7-1.2-2.6c-0.2-0.4-0.3-0.8-0.4-1.3c-0.3-1.4-0.1-2.8,0-4.2c0.2-2,0.4-4,0.6-5.9
			c0.1-0.8,0.2-1.7,0.6-2.5c0.9-1.7,3.3-2.9,2.9-4.7c-0.2-0.8-1-1.4-1.9-1.6c-0.9-0.2-1.8-0.1-2.6-0.1c-2,0.1-4-0.1-5.9-0.6
			c0.4-5.2,1.6-10.2,3.5-14.9c1,0,2,0,3,0.2c4.3,0.8,8.2,3.9,9.7,8.1c1.9,5.2,0.3,11.3,2.9,16.2c1,1.8,2.4,3.3,3.6,4.9
			c1.8,2.5,2.9,5.3,3.4,8.3c0.2,1.5,0.3,3.1,1,4.4C912.9,573.4,914.3,574.4,915.5,575.5z"/>
		<path class="st2" d="M917.7,754.7c0,0.7,0,1.6-0.6,2c-0.7,0.5-1.7,0.1-2.2-0.6c-0.4-0.7-0.5-1.6-0.4-2.4c0-0.4,0-1-0.4-1.2
			c-0.3-0.1-0.6,0-0.9,0.1c-1.1,0.6-2,1.4-2.6,2.4c-0.2,0.4-0.4,0.8-0.8,1c-0.3,0.1-0.6,0.1-0.9,0.1c-3.5-0.1-6.9-0.2-10.4-0.2
			c-0.3,0-0.7,0-0.9-0.3c-0.1-0.1-0.2-0.3-0.2-0.4c0-0.4,0.4-0.9,0.8-1.2c1.3-0.9,2.8-1.7,4.3-2.3l0,0.1c1.4,0.8,3.2,0.4,4.7-0.2
			c1.5-0.7,2.8-1.6,4.4-2.2c1.1-0.4,2.4-0.6,3.1-1.5c0.3-0.4,0.5-0.9,0.9-1.2c0.1,0.3,0.2,0.6,0.4,0.7c0.4,0.4,0.9,0.7,1.1,1.1
			c0.2,0.4,0.2,0.8,0.3,1.3C917.5,751.3,917.6,753,917.7,754.7z"/>
		<path class="st3" d="M915.4,743.4l0.1,0.1c0,0.7,0,2.1,0.2,3c-0.4,0.3-0.6,0.8-0.9,1.2c-0.7,0.9-2,1.1-3.1,1.5
			c-1.5,0.5-2.9,1.5-4.4,2.2c-1.5,0.7-3.3,1-4.7,0.2l0-0.1c2.6-1.1,5.3-2.1,7.8-3.5c0.4-0.2,0.7-0.4,1-0.8c0.6-0.8,0.5-2.9,0.2-3.9
			l0.3-0.1c0.7,0.9,2.1,1.4,3,0.7C915,744,915.2,743.7,915.4,743.4z"/>
		<path class="st8" d="M776,551.1c-15.4,7.5-31.9,12.7-49,15.9c-3.2,0.3-6.2,0.8-9.2,1.2c-7.2,1.2-14,2.5-21.8,1.7l-1.5,1.1
			c-4.1-5.5-8-11.3-11.8-17.1c7.4,1.1,15,0.2,22.4-1.1c25.2-4.1,50.8-11.6,70.2-28.2c2-1.7,3.9-3.4,5.7-5.3l2.4,0.3
			c26.1-15.4,48.6-37.8,68.7-60.3c21.3-23.8,39.7-50.6,57.4-77.1c1.5-2.3,3.1-4.7,4.6-7c1.4,0.6,2.8,1.2,4.2,1.8
			c-8.5,16.9-17.6,33.3-27.3,49.8c-6.1,10.4-12.4,20.7-18.9,31.2c-16,25-33,47-55,66c-1,1-3,1-4,2c-9.3,8.5-19.4,15.6-30.2,21.6
			C780.5,548.8,778.3,550,776,551.1z"/>
		<path class="st11" d="M893.3,612.5c-0.4-0.1-0.7-0.2-0.9-0.5c-0.2-0.3-0.2-0.7-0.2-1.1c0-1,0-2.1-0.1-3.1c1.4-0.6,2.5-1.8,3.5-3
			c2.4-3,4.7-6,6.8-9.2c0.7-1.1,1.4-2.2,1.9-3.4l0.7,0.3c0.1,1.5,1.6,2.6,3.1,2.7c1.3,0.1,2.6-0.4,3.8-1l1.3,0.2
			c-0.2,5.5-0.4,11.1-0.8,16.6c0,0.2,0,0.3-0.1,0.4c-0.1,0.1-0.3,0.2-0.5,0.2c-0.6,0-1.1,0.1-1.6,0.1c-5.2,0.3-10.5,0.6-15.7,0.9
			c-0.1,0-0.2,0-0.4,0C893.8,612.6,893.6,612.6,893.3,612.5z"/>
		<path class="st10" d="M914.2,592.8c-0.6,0.4-1.3,0.8-1.9,1.1c-0.2,0.1-0.3,0.2-0.5,0.2c-1.2,0.6-2.5,1.1-3.8,1
			c-1.5-0.1-3-1.2-3.1-2.7l-0.7-0.3c0.2-0.4,0.4-0.8,0.5-1.3c0.3-1,0.4-1.9,0.5-2.9C908,589.9,911,591.6,914.2,592.8z"/>
		<path class="st7" d="M914,375.2c-1.5,2.4-3,4.7-4.6,7c-17.7,26.5-36.1,53.4-57.4,77.1c-20.1,22.5-42.5,44.9-68.7,60.3l-2.4-0.3
			c3.1-3,6-6.2,8.9-9.4c2-2.1,3.9-4.3,5.7-6.6c0.1-0.1,0.2-0.3,0.3-0.4c2.5-3.4,4.6-7.1,6.7-10.8c2.2-4,4.5-8,6.7-11.9
			c4-7,8-14.1,10.1-21.9l0-1.4c12.3-0.2,25.2-5.7,30.9-16.5c3.3-6.4,3.8-13.8,4.2-21c1.2-26.4,0.4-52.9-0.4-79.3
			c-0.3-9-0.5-18.1-2-27c-0.2-1.3-0.4-2.6-0.7-4c-2-9.6-5.5-18.7-10-27.3l1-0.3c6.4,4.5,13.6,7.9,20.7,11.1
			c-0.1,1.9-0.2,3.8-0.2,5.7C863,332.1,883.8,361.3,914,375.2z"/>
		<path class="st3" d="M902.9,578.5c0.2,0.1,0.4,0.2,0.5,0.4c0.6,0.6,0.8,1.4,0.9,2.2c0.5,2.3,1,4.7,0.9,7c-3.6-2.5-6.8-5.5-9.5-8.9
			c1.9-1.3,4.3-1.6,6.5-0.9C902.4,578.3,902.6,578.3,902.9,578.5z"/>
		<path class="st3" d="M845.6,596.7c-0.4,0.4-0.6,1-0.5,1.5c0,0.4,0.3,0.8,0.2,1.3c0,0.4-0.3,0.7-0.7,0.7l0,0.4c-0.2,0-0.5,0-0.7,0
			l0-0.5c-0.6-1.8-0.9-3.7-0.8-5.6c0-0.5,0.1-1,0.3-1.4c0.3-0.4,0.8-0.7,1.3-0.9c3.9-1.8,8.3-1.7,12.6-1.6c1.5,0,3.1,0.1,4.6,0.6
			c1.2,0.4,2.3,1.2,3.5,1.8c5.6,3,12,3.5,18.4,3.6c0.7,0,1.3,0,2,0c0.4,0,0.8,0,1.2-0.2c0.5-0.3,0.8-0.9,1-1.4
			c1.2-3.1,2.4-6.2,3.6-9.3c0.8-2.2,1.7-4.4,3.4-6c0.3-0.2,0.6-0.5,0.9-0.7c2.8,3.4,6,6.4,9.5,8.9c0,1-0.2,2-0.5,2.9
			c-0.1,0.4-0.3,0.9-0.5,1.3c-0.5,1.2-1.2,2.3-1.9,3.4c-2.1,3.2-4.3,6.3-6.8,9.2c-1,1.2-2.1,2.4-3.5,3c-0.3,0.1-0.6,0.2-0.9,0.3
			c-1.7,0.3-3.3-0.4-4.8-1.1c-1-0.4-1.9-0.8-2.9-1.1c-3.7-1.3-7.5-2.4-11.3-3.7c-3.8-1.3-7.4-2.7-10.8-4.7c-1.9-1.2-4-2.6-6.2-2.3
			l-0.2,0c-0.4,0.8-1.1,1.5-1.9,1.7c-0.6,0.2-1.2,0.2-1.8,0.3c-1.5,0.1-3.1,0.2-4.5-0.4H845.6z"/>
		<path class="st12" d="M904.9,697.5c-1.4,5.5-2.7,11-4.1,16.4c-0.4,1.7-0.8,3.4-1.3,5c-1.5,6.2-3,12.3-4,18.6
			c-0.3,2-0.6,4.1-1.9,5.7c-0.1,0.1-0.1,0.1-0.2,0.2c-1.3,1.4-3.9,1.8-5.1,0.3c-0.2-0.2-0.3-0.4-0.4-0.7c-0.4-0.9-0.3-1.9-0.3-2.8
			c0.2-5.4,0.4-10.8,0.6-16.1c0.2-4.7,0.3-9.5,1.2-14.2c0.5-2.8,1.3-5.6,1.6-8.4c0.4-3.6,0.1-7.3-0.2-11c-0.3-3.6-0.6-7.2-0.9-10.8
			c-0.4-4.5-0.8-9.1-1.1-13.7c-0.9-12.4-1.4-24.8-0.4-37.2c0.3-3.6,0.7-7.3,2.5-10.5c1.1-1.9,2.6-4,2.3-6c0.2,0,0.5,0.1,0.7,0.1
			l0,0.6c1.2,16.4,2.5,32.8,3.7,49.2c0.5,7,1.1,14,3,20.8c1.2,4.1,2.8,8.1,3.8,12.3C904.7,696.1,904.8,696.8,904.9,697.5z"/>
		<path class="st11" d="M902.9,578.5c-0.2-0.1-0.5-0.2-0.7-0.3c-2.1-0.7-4.6-0.3-6.5,0.9c-2.3-2.8-4.2-5.9-5.8-9.2
			c0.8-1,1.7-2,1.6-3.3c0-0.3,0-0.5-0.1-0.7l0.5-0.2c0.3,0.9,0.8,1.8,1.2,2.6c1.4,2.6,2.8,5.3,5.3,6.9c0.9,0.6,2,1,2.8,1.6
			C901.9,577.3,902.4,577.8,902.9,578.5z"/>
		<path class="st3" d="M895.6,547.1c0.5,1.9-2,3-2.9,4.7c-0.4,0.8-0.5,1.6-0.6,2.5c-0.2,2-0.4,3.9-0.6,5.9c-0.1,1.4-0.3,2.8,0,4.2
			c0.1,0.4,0.2,0.9,0.4,1.3l-0.5,0.2c-0.5-1.7-2.2-3-2.4-4.8c0-0.2,0-0.5-0.1-0.7c-0.2-0.4-0.7-0.5-1.1-0.5c-0.5-0.1-1-0.1-1.5-0.2
			c-0.8-3.6-1.3-7.4-1.3-11.3c0-1.3,0-2.5,0.1-3.7c1.9,0.5,3.9,0.7,5.9,0.6c0.9,0,1.8-0.1,2.6,0.1
			C894.6,545.7,895.4,546.3,895.6,547.1z"/>
		<path class="st11" d="M895.7,579.1c-0.3,0.2-0.6,0.4-0.9,0.7c-1.7,1.6-2.6,3.8-3.4,6c-1.2,3.1-2.4,6.2-3.6,9.3
			c-0.2,0.6-0.5,1.2-1,1.4c-0.4,0.2-0.8,0.2-1.2,0.2c-0.6,0-1.3,0-2,0l0-0.7c-1.3-2.5-2.3-5.2-2.3-8c0-2.8,0.8-5.5,2-8.1
			c1.6-3.5,3.6-6.7,6.1-9.6c0.1-0.1,0.2-0.2,0.3-0.4C891.5,573.2,893.4,576.3,895.7,579.1z"/>
		<path class="st2" d="M894.3,746.7c0.9,2.5,0.7,5.3,0.5,7.9c0,0.1,0,0.3,0,0.4c0,0.4-0.1,0.8-0.3,1.1c-0.2,0.5-0.8,0.8-1.2,0.7
			c-0.7-0.1-1-1-1-1.7c0-0.7,0.1-1.5-0.4-2c-0.5-0.6-1.5-0.6-2.2-0.2c-0.7,0.5-1,1.2-1.2,2c-0.1,0.5-0.2,1-0.5,1.3
			c-0.4,0.3-0.9,0.3-1.4,0.3c-3.3-0.1-6.6-0.1-10-0.2c-0.6,0-1.2,0-1.7-0.4c-0.8-0.7-0.4-2.2,0.5-2.8c0.9-0.6,2.1-0.7,3.1-1
			c0.6-0.2,1.1-0.4,1.6-0.6l0.1,0.2c1.4,0.1,3,0.3,4.2-0.4c0.5-0.3,0.9-0.6,1.3-0.9C888,748.8,892.3,748.5,894.3,746.7z"/>
		<path class="st3" d="M894.2,746.4c0,0.1,0.1,0.2,0.1,0.3c-2,1.8-6.3,2.1-8.5,3.5c-0.5,0.3-0.9,0.7-1.3,0.9
			c-1.3,0.7-2.8,0.6-4.2,0.4l-0.1-0.2c2.1-1,4-2.6,6.3-3.3c0.6-0.1,1.2-0.3,1.4-0.9c0.1-0.2,0-0.4,0-0.6c0-1.2-0.1-2.4-0.1-3.6
			l0.2-0.1c0.1,0.2,0.2,0.5,0.4,0.7c1.2,1.5,3.8,1.1,5.1-0.3l0,0C893.8,744.2,893.9,745.7,894.2,746.4z"/>
		<path class="st6" d="M893.3,612.5c0.3,2-1.3,4.1-2.3,6c-1.8,3.1-2.2,6.8-2.5,10.5c-1,12.4-0.5,24.8,0.4,37.2l-1.4,0.1
			c-6-1.1-11.9-3-17.4-5.6c-4.3-2.1-8.9-5.3-9.1-10.1c-0.1-2.5,1.1-4.9,1.9-7.3c0.9-2.9,1.2-5.9,1.5-8.9c0.1-0.7,0.1-1.5-0.2-2.1
			c-0.4-0.8-1.3-1.2-2.1-1.6c-7.5-3.6-13.8-9.5-18-16.6l-2.3-1.1c2.4-1.3,4.7-2.7,7-4.2l0.5-0.5c0.7,0.2,1.4-0.5,1.8-1.2
			c0.3-0.4,0.5-0.8,0.8-1.2l0.8,0.5c2-0.2,4,0.5,5.9,1.1c5,1.3,10.3,1.4,15.5,1.5c1.4,0,2.8,0.1,4.2,0.1c1.1,0,2.3,0,3.3-0.4
			c1-0.4,1.9-1.5,1.8-2.6l0.1-0.3c1,0.3,2,0.7,2.9,1.1c1.6,0.6,3.2,1.4,4.8,1.1c0.3-0.1,0.6-0.1,0.9-0.3c0,1,0,2.1,0.1,3.1
			c0,0.4,0,0.8,0.2,1.1C892.6,612.3,893,612.5,893.3,612.5z"/>
		<path class="st10" d="M886,530.1c0.9-0.1,1.7-0.2,2.6-0.2c-1.9,4.6-3.1,9.6-3.5,14.9c-0.2-0.1-0.4-0.1-0.5-0.2
			c-1.4-0.4-2.8-1.1-3.6-2.2c-0.1-1.8-2.1-3-2.8-4.7c-0.9-2,0.2-4.3,1.8-5.6C881.7,530.8,883.9,530.4,886,530.1z"/>
		<path class="st3" d="M884.6,544.6c0.2,0,0.4,0.1,0.5,0.2c-0.1,1.2-0.1,2.5-0.1,3.7c0,3.9,0.5,7.7,1.3,11.3
			c-2.2-0.3-4.4-0.7-5.7-2.3c-1.2-1.5-1.3-3.5-1.3-5.4c0-2.3-0.1-4.7,0.8-6.8c0.4-0.9,0.9-1.8,0.9-2.7c0,0,0,0,0,0
			C881.8,543.6,883.2,544.2,884.6,544.6z"/>
		<path class="st3" d="M863.6,603.6c0-0.3,0.1-0.7,0.1-1l0.3,0c2.7,0.2,5.5,0.1,8.2-0.3l0.1-0.2c3.7,1.2,7.6,2.3,11.3,3.7l-0.1,0.3
			c0.1,1.1-0.7,2.2-1.8,2.6c-1,0.5-2.2,0.4-3.3,0.4c-1.4,0-2.8-0.1-4.2-0.1c-5.2-0.1-10.5-0.2-15.5-1.5c-2-0.5-3.9-1.2-5.9-1.1
			l-0.8-0.5c0.2-0.3,0.4-0.6,0.6-0.9l0-1.2c3.6-0.1,7.2-0.1,10.8-0.2L863.6,603.6z"/>
		<path class="st6" d="M872.2,602.2l-0.1,0.2c-2.7,0.4-5.5,0.5-8.2,0.3l-0.3,0c0-0.5,0-1.1,0-1.6l-0.5-0.2
			c-6.1-0.2-12.3-0.3-18.5-0.2l0-0.4c0.3,0,0.6-0.4,0.7-0.7c0-0.4-0.2-0.8-0.2-1.3c-0.1-0.5,0.1-1.1,0.5-1.5h1.2
			c1.4,0.6,3,0.5,4.5,0.4c0.6,0,1.2-0.1,1.8-0.3c0.8-0.3,1.5-0.9,1.9-1.7l0.2,0c2.2-0.3,4.3,1.2,6.2,2.3
			C864.8,599.5,868.5,600.9,872.2,602.2z"/>
		<path class="st13" d="M863.7,601c0,0.5,0.1,1.1,0,1.6c0,0.3,0,0.7-0.1,1l-0.3,0c-3.6,0.1-7.2,0.1-10.8,0.2c-2.6,0-5.2,0.1-7.7,0.2
			c-2.2,0-4.4,0.1-6.6,0.1c-1.9,0-3.8,0.1-5.7,0.1l-0.3-0.3c-0.3-0.5-0.6-0.9-0.9-1.4l2.3-1.5c3.4-0.2,6.9-0.3,10.3-0.4
			c0.3,0,0.5,0,0.7,0c6.2-0.1,12.3-0.1,18.5,0.2L863.7,601z"/>
		<path class="st14" d="M663,391.6c-0.3-0.9-0.5-1.8-0.5-2.8c0.1-2.7,1.7-5,4-6.5c1.1-0.8,2.3-1.3,3.6-1.6c3.8-1,7.9-0.2,11.8,0.6
			c9.4,2,18.7,4.5,28,6.8c5,1.2,10.1,2.4,15.1,3.4c11.2,2.3,22.6,3.7,34,5.1c11.9,1.5,23.7,3,35.5,4.5c-9.8-25-14.9-51.9-14.8-78.7
			c0-9.7,0.7-19.6,4.2-28.6c3.4-8.9,9.8-17,18.5-20.8l0.3,0.7c8.3-3.5,18.5-2.1,25.4,3.6c2,1.7,3.8,3.6,5.5,5.7
			c7.6,9.2,13.9,19.5,18.5,30.5l0.2,0c1.5,8.9,1.7,17.9,2,27c0.8,26.4,1.5,52.9,0.4,79.3c-0.3,7.2-0.8,14.6-4.2,21
			c-5.7,10.9-18.6,16.3-30.9,16.5c0,0,0,0,0,0c-12.3,0.2-24.1-4-35.7-8.1c-14.3-5.1-28.5-10.2-42.8-15.3
			c-8.7-3.1-17.4-6.2-25.7-10.2c-5.1-2.4-10.1-5.2-15.1-8c-1.4-0.8-2.8-1.6-4.2-2.3c-8-4.4-16-8.9-24-13.3
			C668.3,397.9,664.3,395.2,663,391.6z"/>
		<path class="st13" d="M687,428.3c5.6-0.2,11.3-0.4,16.9-0.3c0.7,0,1.5,0.1,1.9,0.6c0.3,0.3,0.3,0.8,0.3,1.2
			c0.2,2.1,0.5,4.1,0.7,6.2l-1.2,0.7c-3.3,0.1-6.6,0.1-10,0.2c-13.3,0.2-26.7,0.5-40,0.7l-1.6-0.4c-0.4,1.6-0.7,3.3-0.8,5
			c-1.4-0.4-2.8,0.7-3.3,2.1c-0.5,1.3-0.3,2.8-0.2,4.3c0.4,3.3,0.9,6.5,1.4,9.8c1.4,10,3.1,19.9,5,29.8c0.8,4.5,1.7,8.9,3,13.3
			c1.6,5.4,3.7,10.7,5.9,15.9c3.7,8.9,7.6,17.8,11.6,26.6l0,0.3c2.1,3.2,4.1,6.5,6.3,9.7c3.8,5.8,7.7,11.5,11.8,17.1
			c3.6,4.9,7.5,9.6,11.6,14.1c0.3,0.3,0.5,0.5,0.8,0.8c6.7,7.2,14.2,13.8,22.5,19c1.3,0.8,2.5,1.5,3.8,2.3
			c5.1,2.9,10.6,5.2,16.3,6.9c4.2,1.2,8.4,2.1,12.5,3.4c2.5,0.8,4.9,1.9,7.5,2.5c2.8,0.6,5.6,0.7,8.5,0.7c5,0,10.1,0,15.1-0.3
			c2.5-0.1,5.1-0.3,7.6-0.5c7.4-0.7,14.8-1.9,21.8-3.9c6.9-1.9,13.5-4.6,19.7-8.3c0.9-0.5,1.7-1,2.6-1.6l0-2.1
			c2.6,0,5.2-0.1,7.7-0.2l0,1.2c-0.2,0.3-0.4,0.6-0.6,0.9c-0.3,0.4-0.5,0.8-0.8,1.2c-0.4,0.6-1.1,1.4-1.8,1.2l-0.5,0.5
			c-2.3,1.5-4.6,2.9-7,4.2c-12.1,6.7-25.4,10.9-39.1,12.7c-2.5,0.3-5,0.6-7.6,0.8c-22.8,1.5-46-3.5-65.5-15.2
			c-0.5-0.3-1.1-0.7-1.7-1c-1.1-0.7-2.2-1.4-3.2-2.1c-8.1-5.4-15.4-11.9-22-19c0,0,0,0-0.1-0.1c-3.9-4.2-7.5-8.7-11-13.3
			c-1.3-1.7-2.6-3.5-3.9-5.3c-3.8-5.4-7.4-10.9-10.8-16.6c-17.5-29.6-28.4-63.1-31.6-97.3c-0.1-1.4-0.3-2.9-0.4-4.3
			c0.7-4.2,1-8.5,1-12.9c0-3.9-0.3-7.7-0.8-11.4c13-0.1,26-0.1,39-0.2c0.9,0,1.9,0,2.8,0L687,428.3z"/>
		<path class="st9" d="M802.3,273c-8.7,3.8-15.1,11.9-18.5,20.8c-3.5,9.1-4.2,18.9-4.2,28.6c0,26.9,5,53.7,14.8,78.7
			c-11.8-1.5-23.7-3-35.5-4.5c-11.4-1.4-22.8-2.9-34-5.1c-5.1-1-10.1-2.2-15.1-3.4l0.3-1.1c17.6-30.3,35.1-60.5,52.7-90.7
			c12.5-7.1,18.8-20.4,20-34.2l2,0.2c11.4-4.6,23.4-7.8,35.6-9.6l1-0.8c7.6,9.6,14.7,19.6,20.2,30.3c4.5,8.6,8,17.7,10,27.3
			c0.3,1.3,0.5,2.6,0.7,4l-0.2,0c-4.6-11-10.9-21.3-18.5-30.5c-1.7-2-3.4-4-5.5-5.7c-7-5.7-17.1-7.1-25.4-3.6L802.3,273z"/>
		<path class="st3" d="M844.8,604l0,2.1c-0.8,0.6-1.7,1.1-2.6,1.6l-0.5-0.9c-0.9,0.2-1.9,0.3-2.8-0.1c-0.8-0.4-1.3-1.6-0.8-2.4v-0.1
			C840.4,604,842.6,604,844.8,604z"/>
		<path class="st13" d="M833.5,600.5l0.1,0.6l-2.3,1.5c-1.3-2-2.5-4-3.8-6c-0.9-1.4-1.8-2.8-2.6-4.2c-2.4-4.3-4-8.9-6.8-12.9
			c-0.8-1.1-1.6-2.7-0.7-3.7c0.6-0.6,1.6-0.5,2.3-0.1c0.7,0.4,1.2,1.1,1.6,1.8c2.1,3.4,4,6.9,5.5,10.6c0.9,2.2,1.7,4.4,2.9,6.4
			C831.2,596.4,833,598.2,833.5,600.5z"/>
		<path class="st8" d="M711.1,624.1c33,23,67.9,42.9,100.6,65.7l0.2-0.1l-16.8-63.2c2.5-0.2,5.1-0.4,7.6-0.8l0.3,2.2l26,97
			c-2.7,0-5.3,0-8,0l-6.8-27.4c-8-4.8-15.8-9.7-23.6-14.8c-28.1-18.3-55.3-38-84.1-55.3l-0.3,0.2c-0.8,0.5-1.5,1-2.3,1.5
			c-24.8,15.9-49.7,31.8-74.5,47.7c-10.5,6.7-21.1,13.5-31.6,20.2c-0.8,0.5-1.5,1-1.9,1.8c-0.3,0.6-0.3,1.4-0.6,2.1
			c-0.6,1.7-2.5,2.4-4.1,3l-0.6,0c0.9-11.9,1.7-23.8,2.6-35.6l1.2,0.1c1.6-5.7,3.3-11.5,4.9-17.2c0.6-2.1,1.2-4.2,1.8-6.3
			c1.6-5.5,3.1-11,4.8-16.5c1.3-4.2,2.6-8.3,3.8-12.5c4.9-15.6,9.8-31.2,14.6-46.8l0-0.2c1.9,0.3,3.7,0.5,5.6,0.7
			c0,0.6,0.4,1.2,1,1.3v0.2l70.3,46.2l5.3,3.5c6-4.1,11.9-8.2,17.9-12.2l0.2-0.3c1.1,0.7,2.1,1.4,3.2,2.1c0.5,0.4,1.1,0.7,1.7,1
			l-0.1,0.2C723.4,615.7,717.3,619.9,711.1,624.1L711.1,624.1z M596.5,689.9c6.7-4.1,13.3-8.3,20-12.4c2.6-1.6,5.1-3.2,7.7-4.8
			c4.7-2.9,9.3-5.8,14-8.7c20.8-12.9,41.5-25.8,62.2-38.8l0.3-0.8c-9.4-6.5-18.7-12.9-28.1-19.4c-13.6-9.4-27.3-18.8-41.7-27
			l-0.4,0.6c-6.7,21.1-13.3,42.2-19.7,63.3c-0.7,2.4-1.5,4.9-2.2,7.3c-0.2,0.7-0.4,1.3-0.6,2C604.1,664.1,600.3,677,596.5,689.9z"/>
		<path class="st13" d="M821.3,251.8l-1,0.8c-12.2,1.8-24.2,5-35.6,9.6l-2-0.2c0.2-2.7,0.3-5.4,0.2-8c0.2,0,0.5,0,0.7-0.2
			c5.2-4.3,10.3-8.6,15.4-12.9c2.6-2.2,5.3-4.6,6.6-7.8l0.4,0.2C811.1,239.2,816.3,245.4,821.3,251.8z"/>
		<path class="st9" d="M687.2,427.6c0.2-0.7,0.6-1.4,1-2c2.6-4.1,5.1-8.2,7.7-12.2l0.1-0.2c1.4,0.8,2.8,1.5,4.2,2.3
			c5,2.8,10,5.5,15.1,8c8.3,4,17,7.1,25.7,10.2c14.3,5.1,28.5,10.2,42.8,15.3c11.6,4.1,23.4,8.3,35.7,8.1c0,0,0,0,0,0l0,1.4
			c-2.2,7.8-6.2,14.9-10.1,21.9c-2.3,4-4.5,8-6.7,11.9c-2.1,3.7-4.2,7.4-6.7,10.8l-0.5-0.3c-19.6-15.9-41.6-28.4-63.3-41.3
			c-0.8-0.5-1.7-1-2.5-1.5c-11.7-7-23.4-14.3-33.8-23.1c3.3-0.1,6.6-0.1,10-0.2l1.2-0.7c-0.2-2.1-0.5-4.1-0.7-6.2
			c0-0.4-0.1-0.8-0.3-1.2c-0.4-0.5-1.2-0.6-1.9-0.6c-5.6-0.1-11.3,0.1-16.9,0.3l0-0.4c-0.9,0-1.8,0-2.8,0
			C685.2,427.8,686.2,427.7,687.2,427.6z"/>
		<path class="st3" d="M803.1,227.8c1.1,1.5,2.2,2.9,3.3,4.4l-0.9,0.7c0,0,0,0,0,0.1c-1.3,3.2-4,5.5-6.6,7.8
			c-5.1,4.4-10.3,8.7-15.4,12.9c-0.2,0.2-0.5,0.2-0.7,0.2c-0.1-2.6-0.4-5.2-0.9-7.8c0.3-0.1,0.4-0.6-0.4-2c0.6-0.3,1.2-0.8,1.7-1.3
			c3.6-3.3,7.2-6.6,9.6-10.8c3-5.2,4.1-11.5,2.8-17.4c1,1.8,1.6,3.8,2.5,5.6c0.8,1.7,1.8,3.3,2.9,4.8
			C801.8,226,802.5,226.9,803.1,227.8z"/>
		<path class="st15" d="M766.4,87.1c-0.2-2.9-0.8-5.8-2-8.5l0.1-1.1c-0.3-2.2-3.1-3.5-5.1-2.7c-2,0.8-3.1,3.3-2.7,5.5
			c0.4,2.2,2,4,4,5.1C762.4,86.4,764.4,86.8,766.4,87.1z M781.2,125.6c-3.5-0.1-7.1-0.2-10.6-0.3l0-1.8c-0.2-7.3,0.3-14.7,1.3-21.9
			c0.3-2.1,0.6-4.2,0.6-6.3c0-2.5-0.6-5-0.9-7.5c1.9,0.1,3.8,0.3,5.6,0.4c0.6,0.1,1.3,0.1,1.8-0.3c0.5-0.3,0.8-1,1-1.6
			c0.9-2.5,1.6-5.1,2.2-7.8l-0.3-1c-1.8-2.5-5.9-2.2-8.1,0c-2.1,2.2-2.6,5.5-2.4,8.6c0,0.5,0.1,1.1,0.2,1.6
			c-1.4-0.1-2.7-0.2-4.1-0.3l-1.1,0c0.2,2.3,0.1,4.7,0.1,7c-0.1,9.5-0.3,19.1-0.4,28.6l-0.1,2.1c-2.5-0.1-5-0.1-7.5-0.2l-0.8,0.1
			c0-0.2-0.1-0.4-0.1-0.6l0.4-1.5c1.8-6.5-1.4-13.3-5.5-18.6c-4.1-5.3-9.3-9.8-12.6-15.6c-4.2-7.3-5.3-16.3-2.9-24.3
			c2.4-8,8.3-15,15.9-18.6c10.3-5,22.4-3.9,33.6-1.6c2.7,0.6,5.4,1.2,7.7,2.7c3.9,2.6,5.9,7.2,7.6,11.5c2,5.1,4.1,10.4,4.1,15.9
			c0,11.8-9.4,21.2-18.3,28.9c-2.4,2.1-5,4.3-5.9,7.4c-1.4,4.8,1.8,10.3-0.3,14.8C781.4,125.6,781.3,125.6,781.2,125.6z"/>
		<path class="st8" d="M779.9,569.7l-3.9-18.7c2.3-1.1,4.5-2.3,6.8-3.5l0.2,0.4l17.7,71.8c-2.5,0.2-5.1,0.4-7.6,0.5L793,619
			l-11.8-44.4c-2.5,1.8-5.1,3.6-7.7,5.4c-12.8,9-25.7,18-38.5,27l-1.8,0.2c-1.3-0.7-2.5-1.5-3.8-2.3l0.6-0.9
			c13.9-9.6,27.9-19.1,41.8-28.7C774.5,573.4,777.2,571.6,779.9,569.7z"/>
		<path class="st2" d="M736.2,200L736.2,200c-8.2-2-16.2-8-17.2-17c-1-8,6-15,13-17c8-2,16-1,24,0c2,0,5-1,7-1c9-2,17-11,26-5
			c14.9,9.1,12.7,27.7,9.1,44l-2.5-0.6c0.4-1.4,0.4-2.9-0.1-4.3c-0.3-0.7-0.7-1.4-1.4-1.7c-0.4-0.2-0.9-0.2-1.4-0.2
			c-2.5,0.1-5,1.1-6.9,2.7c-0.2,0.2-0.5,0.4-0.8,0.4c-0.3-0.1-0.5-0.4-0.7-0.7c-1.9-3.3-4.3-6.4-7.1-9c-0.6-0.5-1.2-1.1-1.3-1.9
			c-0.9-1-2.4-1.3-3.8-1.1c-1.3,0.2-2.6,0.9-3.8,1.6c-8.2,4.5-16.8,8.1-25.8,10.8c0-0.2-0.1-0.3-0.1-0.5c-0.3,0.3-0.4,0.5-0.5,0.7
			c0,0.1,0,0.2,0,0.2c-0.2-0.2-0.4-0.3-0.7-0.3c-0.6-0.1-1.3,0.1-1.9,0.3C738.3,200.7,737.1,200.6,736.2,200z"/>
		<path class="st2" d="M795.6,203.4l2.5,0.6c-0.7,3.4-1.5,6.7-2.3,9.8l-0.4,0.3c-0.1-0.2-0.2-0.4-0.4-0.6c-1.1-1.6-2.6-3.3-2.2-5.2
			c0.3-1.2,1.2-2,1.9-3.1C795.2,204.6,795.5,204,795.6,203.4z"/>
		<path class="st3" d="M742.5,200.1c8.9-2.6,17.6-6.3,25.8-10.8c1.2-0.7,2.4-1.4,3.8-1.6c1.4-0.3,2.9,0,3.8,1.1
			c0.1,0.8,0.8,1.3,1.3,1.9c2.8,2.6,5.2,5.7,7.1,9c0.2,0.3,0.4,0.6,0.7,0.7c0.3,0,0.6-0.2,0.8-0.4c2-1.6,4.4-2.5,6.9-2.7
			c0.5,0,1,0,1.4,0.2c0.7,0.3,1.1,1,1.4,1.7c0.5,1.3,0.5,2.9,0.1,4.3c-0.2,0.6-0.5,1.2-0.8,1.8c-0.7,1-1.6,1.9-1.9,3.1
			c-0.4,1.9,1.1,3.6,2.2,5.2c0.1,0.2,0.2,0.4,0.4,0.6c0.1,0.2,0.2,0.4,0.3,0.6c1.2,5.9,0.2,12.2-2.8,17.4c-2.5,4.2-6.1,7.5-9.6,10.8
			c-0.5,0.5-1.1,1-1.7,1.3c0,0,0-0.1,0-0.1c-0.6,0.1-0.9,0.3-1,0.6c-9.9,5.4-21.7,5.1-28.5-4.9c-6.6-9.6-6.8-22.3-8.4-33.4l-0.1-0.3
			c-0.1-0.9-0.3-1.9-0.4-2.8c-0.1-0.6-0.2-1.2-0.5-1.8c-0.1-0.2-0.2-0.3-0.3-0.4c0.2,0.1,0.3-0.1-0.4-0.6c0-0.2,0.2-0.4,0.5-0.7
			C742.4,199.8,742.5,199.9,742.5,200.1C742.5,200.1,742.5,200.1,742.5,200.1z"/>
		<path class="st5" d="M795.9,503.1c-0.1,0.1-0.2,0.3-0.3,0.4c-1.8,2.3-3.7,4.4-5.7,6.6c-2.9,3.2-5.8,6.3-8.9,9.4
			c-1.8,1.8-3.7,3.6-5.7,5.3c-19.4,16.6-45,24.1-70.2,28.2c-7.4,1.2-15,2.2-22.4,1.1c-2.1-3.2-4.2-6.5-6.3-9.7l0-0.3
			c-4-8.8-7.9-17.7-11.6-26.6c-2.2-5.2-4.3-10.5-5.9-15.9c-1.3-4.4-2.2-8.8-3-13.3c-1.9-9.9-3.5-19.8-5-29.8l0.4,0
			c9.8,1.4,19.6,2.1,29.5,2.7c16.8,1,33.6,1.5,50.5,1.4l0.6-0.9c21.7,12.9,43.8,25.4,63.3,41.3L795.9,503.1z"/>
		<path class="st15" d="M781.9,77.6l0.3,1c-0.5,2.6-1.3,5.2-2.2,7.8c-0.2,0.6-0.5,1.2-1,1.6c-0.5,0.3-1.2,0.3-1.8,0.3
			c-1.9-0.1-3.8-0.3-5.6-0.4c-0.1-0.5-0.1-1.1-0.2-1.6c-0.2-3.1,0.3-6.4,2.4-8.6C776,75.4,780.1,75.1,781.9,77.6z"/>
		<path class="st2" d="M781.2,125.6c-0.2,2.7-0.5,5.3-0.7,8c-0.2,2.3-0.6,5-2.5,6.4c-0.8,0.6-1.8,0.8-2.8,0.9
			c-0.6,0.1-1.2,0.1-1.8,0.1c-1.6,0-3.2,0.1-4.7,0.1c-1.3,0-2.6,0-3.9-0.2c-2.1-0.3-3.9-1.1-4.9-2.9c-0.5-0.9-0.6-2-0.8-3
			c-0.5-3.3-0.9-6.5-1.4-9.8l0.8-0.1c2.5,0.1,5,0.1,7.5,0.2c1.5,0,3,0.1,4.6,0.1C774.1,125.4,777.7,125.5,781.2,125.6z"/>
		<path class="st2" d="M775.2,140.8l2.7,1.3c-1.4,2.8-5.4,3.2-8.7,3.1c-1.3,0-2.6-0.1-3.7-0.8c-1.1-0.7-1.6-2.3-0.8-3.3l0.1-0.3
			c1.3,0.2,2.6,0.2,3.9,0.2c1.6,0,3.2-0.1,4.7-0.1C774,140.9,774.6,140.9,775.2,140.8z"/>
		<path class="st15" d="M772.5,95.3c0,2.1-0.3,4.2-0.6,6.3c-1,7.3-1.5,14.6-1.3,21.9l0,1.8c-1.5,0-3.1-0.1-4.6-0.1l0.1-2.1
			c0.1-9.5,0.3-19.1,0.4-28.6c0-2.3,0.1-4.7-0.1-7l1.1,0c1.4,0.1,2.7,0.2,4.1,0.3C771.9,90.3,772.5,92.8,772.5,95.3z"/>
		<path class="st15" d="M764.4,78.6c1.2,2.7,1.8,5.6,2,8.5c-2-0.3-4-0.7-5.8-1.7c-1.9-1.1-3.6-2.9-4-5.1c-0.4-2.2,0.7-4.7,2.7-5.5
			c2.1-0.9,4.8,0.5,5.1,2.7L764.4,78.6z"/>
		<path class="st16" d="M515.5,246.2c10.7-2.4,21.8-3.8,33.1-4.3c0.4,0,0.7,0,1.1,0c0,0,0,0,0-0.1c8-0.3,16.2-0.3,24.3,0.1
			c6-13,9-28,21-38c8-5,17-4,25-3c19,3,38,8,52,21c13,13,3,31-2,46c-1,3,0,7,3,9c13,7,23,17,33.9,27.1l0.2,0.1
			c1.5,1.8,2.9,3.6,4.4,5.4c0.5,0.7,1.2,1.3,2,1.5c0.5,0.1,1-0.1,1.4-0.2c3.5-1.1,7-2.4,10.4-3.9l0,0c10.8-5.9,22.7-5,33.7-9
			c1.3-0.5,2.5-1.2,3.7-1.9c-17.6,30.2-35.1,60.5-52.7,90.7l-0.3,1.1c-9.3-2.3-18.6-4.8-28-6.8c-3.9-0.8-7.9-1.6-11.8-0.6
			c-1.3,0.3-2.5,0.9-3.6,1.6l-0.3-0.4c-13.5-4.7-27.9-7-42.2-6.6c-2.4,0.1-5,0.3-7,1.7c-15.7-13.7-36.7-22.4-59.7-23
			c-3.3-7-6.5-14-9.7-21c-0.7-1.5-1.3-3-2.4-4.2c-1.2-1.5-3-2.5-4.9-2.6c-1.9-0.1-3.9,1-4.7,2.7l-0.2,0.3c4,8.3,8,16.7,11.9,25.1
			c-47.1,3.5-84.2,40.3-84.2,85.2c0,7,0.9,13.8,2.6,20.3c-4.6,3.4-8.7,7.5-12.3,12c-7.3,9.1-12.7,19.7-17.9,30.2
			c-3.5,6.9-7,13.9-10.4,20.8c-0.6,1.1-1.1,2.2-1.7,3.3l-0.1,0C419,513,415,501,411,488c-12-45.8-23.9-89.6-37.8-133.4c0,0,0,0,0,0
			c0.1-0.4-0.1-0.8-0.4-1.1c-0.3-0.3-0.8-0.5-1.3-0.6c-2.5-0.8-5.3-1-7.9-0.6l-0.3,0c0.1-0.8,0.1-1.6,0.1-2.4c0-2.2-0.3-4.4-0.5-6.6
			c-0.3-4.5,0-9,0.4-13.4c0-0.4,0.1-0.8,0.1-1.2l1.6,0.1c5.9,1.1,11.7,2.9,17.2,5.1c10.2-15.5,23-29.2,37.7-40.5
			c1.5-1.1,3.1-2.4,3.5-4.3c0.3-1.2-0.1-2.5-0.5-3.7c-2.2-7.2-4.4-14.4-6.6-21.6c-1.4-4.4-2.7-9.1-2-13.7c1.4-8.8,9.8-14.4,17.5-19
			c8.5-5,16.9-10.1,25.3-15.1c3.4-2,6.9-4.1,10.5-5.5c1.7-0.6,3.4-1.1,5.2-1.4c10.1-1.7,20.3,3.5,27.3,11
			C507,227.4,511.3,236.9,515.5,246.2z"/>
		<path class="st0" d="M732.1,461.5l-0.6,0.9c-16.8,0.1-33.7-0.4-50.5-1.4c-9.9-0.6-19.7-1.3-29.5-2.7l-0.4,0
			c-0.5-3.3-0.9-6.5-1.4-9.8c-0.2-1.4-0.4-2.9,0.2-4.3c0.5-1.3,2-2.4,3.3-2.1c0.1-1.7,0.4-3.3,0.8-5l1.6,0.4
			c13.3-0.2,26.7-0.5,40-0.7c10.4,8.8,22.1,16.1,33.8,23.1C730.4,460.5,731.2,461,732.1,461.5z"/>
		<path class="st16" d="M717.8,568.2l0.2,1c-3.3,5.2-6.7,10.5-10.9,15l-1,0.9c-4.1-4.5-7.9-9.2-11.6-14.1l1.5-1.1
			C703.8,570.7,710.6,569.4,717.8,568.2z"/>
		<path class="st16" d="M705.3,639.7l0.1,0.3c-10.3,14-26.6,21.9-42.3,29.3c-10.4,4.9-21.4,9.9-32.8,8.9l-0.8-1.3
			c24.8-15.9,49.7-31.8,74.5-47.7l0.8,1.2C704.9,633.4,705.1,636.5,705.3,639.7z"/>
		<path class="st16" d="M702.6,589.1l-1.3,1.2c-1.1,2.5-3.4,4.3-5.6,5.9c-0.4,0.3-0.8,0.6-0.8,1c-0.1,0.3,0,0.7,0.1,1
			c2.1,6.3,4.2,12.6,6.3,18.9l-0.1,0.1L631,571v-0.2c-0.6-0.1-1-0.7-1-1.3c18.8,2.3,37.8,2.9,56.7,1.8l1.1-0.8
			c1.3,1.8,2.5,3.6,3.9,5.3C695.1,580.4,698.7,584.9,702.6,589.1z"/>
		<path class="st16" d="M700.8,624.3l-0.3,0.8c-20.7,13.1-41.5,25.9-62.2,38.8c-4.7,2.9-9.3,5.8-14,8.7l-0.5-0.8
			c-6-6.7-10.9-14.3-14.5-22.5l-0.6-0.2c0.7-2.4,1.5-4.9,2.2-7.3c6.4-21.1,13-42.2,19.7-63.3l0.4-0.6c14.4,8.1,28.1,17.6,41.7,27
			C682,611.4,691.4,617.9,700.8,624.3z"/>
		<path class="st16" d="M695.9,413.2l-0.1,0.2c-2.5,4.1-5.1,8.2-7.7,12.2c-0.4,0.6-0.8,1.3-1,2c-1,0.1-2,0.2-3,0.3
			c-13,0.1-26,0.1-39,0.2c-1.8-12.3-6.3-23.8-13.1-33.9c4.9,0.1,9.7-1.7,14.4-3c5.4-1.6,11.6-2.5,16.4,0.4c1.3,3.6,5.3,6.3,8.9,8.3
			C679.9,404.3,687.9,408.8,695.9,413.2z"/>
		<path class="st8" d="M630,569.5c-1.9-0.2-3.7-0.5-5.6-0.7c-8.9-1.3-17.8-2.9-26.5-5l-1.1,0c0.1-2.1,0.3-4.3,0.6-6.4
			c0.4-2.9,1-5.8,1.2-8.7c0-0.2,0-0.3,0-0.5l2.4,0.1c24.8,3.2,49.6,5.3,74.6,6.5l1.4-0.9c3.3,5.7,6.9,11.2,10.8,16.6l-1.1,0.8
			C667.8,572.5,648.8,571.9,630,569.5z"/>
		<path class="st5" d="M404.7,648c-10.3,11.2-20.7,22.4-31,33.6c-1.2,1.3-2.5,2.7-4.2,3.4c-0.4,0.2-0.8,0.3-1.2,0.3
			c-1.1,0.2-2.3,0.2-3.5,0.2c-5.7-0.2-11.4-0.3-17-0.5c-0.5,0-1,0-1.5,0c14-30.8,28.6-61.3,43.6-91.7c1.4-2.9,2.8-5.7,4.2-8.6
			c0.8-1.5,1.5-3.1,2.3-4.6c4.2-8.5,8.5-17.1,12.8-25.6c3.4-6.8,6.8-13.6,10.2-20.4c1.3-2.6,2.7-5.3,4-7.9c0.5-1.1,1.1-2.2,1.7-3.3
			c3.5-6.9,7-13.9,10.4-20.8c5.3-10.5,10.6-21,17.9-30.2c3.6-4.5,7.7-8.6,12.3-12c9.8,37.4,45.9,65.2,88.9,65.2
			c44.2,0,81.2-29.4,89.7-68.4c0.4,0,0.8,0,1.2,0.1c3.3,34.2,14.2,67.7,31.6,97.3l-1.4,0.9c-24.9-1.2-49.8-3.4-74.6-6.5l-2.4-0.1
			c0-0.7,0-1.4,0-2.1c-0.1-1.5-0.4-3.1-1-4.6c-0.8-2.1-2.1-4-4-5.1c-4.9-3-11.6-0.1-14.7,4.8c-0.9,1.4-1.6,3-2.1,4.6l-2.3-0.3
			c-8.5-2.5-17.1-5.1-25.6-7.7c-7.7-2.4-15.5-4.8-23.2-7.2c-8.3-2.6-16.8-5.4-23.5-10.8c-0.3-0.2-0.5-0.4-0.8-0.6l-0.9,0.5
			c-6.6,15.8-15.3,30.6-25,44.7c-8.9,13-18.7,25.3-28.9,37.3c-1.7,2-3.4,4-5.2,6c-1.5,1.8-3.1,3.5-4.6,5.3
			c-7.2,8.1-14.5,16.1-21.9,24.1c-1.1,1.2-2.2,2.4-3.3,3.6c-0.2,0.2-0.4,0.4-0.5,0.6C409,643.4,406.8,645.7,404.7,648z"/>
		<path class="st3" d="M666.2,381.9l0.3,0.4c-2.2,1.5-3.9,3.8-4,6.5c0,1,0.1,2,0.5,2.8c-4.8-2.9-11-2-16.4-0.4
			c-4.7,1.4-9.6,3.1-14.4,3c-4.2-6.3-9.3-12.1-15.2-17.2c1.9-1.4,4.5-1.7,7-1.7C638.2,374.9,652.6,377.1,666.2,381.9z"/>
		<path class="st13" d="M640.3,437.1c-16.9,0.4-33.7,0.7-50.6,1.1l-1,0c-1.8-2.9-3.6-5.8-5.2-8.8c-3.9-7-7.3-14.2-10.7-21.4
			c-5.4-11.3-10.8-22.7-16.2-34c-3.1-6.6-6.3-13.1-9.4-19.7c2.4-0.2,4.8-0.3,7.3-0.3c0.9,0,1.8,0,2.7,0
			c11.6,24.6,23.6,49.1,36.2,73.2l1,1.1c17-0.1,33.9-0.2,50.9-0.3c0.5,3.7,0.8,7.5,0.8,11.4c0,4.4-0.3,8.7-1,12.9
			c-0.2-2.9-0.4-5.8-0.5-8.7c-1.3-0.3-2.6-0.6-3.9-0.9C640.5,440.9,640.4,439,640.3,437.1z"/>
		<path class="st0" d="M644.5,443.7c0.1,2.9,0.3,5.8,0.5,8.7c-0.2,1.4-0.5,2.9-0.8,4.3c-44.8-2-89.6-4-134.4-6l0-0.6
			c0.9-8.1,7.9-14.6,15.6-17.4c7.7-2.8,16.1-2.8,24.3-2.6c10.6,0.2,21.3,0.3,31.9,0.5l1.9-1.1c1.7,3,3.4,5.9,5.2,8.8l1,0
			c16.9-0.4,33.7-0.7,50.6-1.1c0.1,1.9,0.2,3.8,0.3,5.7C641.9,443.1,643.2,443.4,644.5,443.7z"/>
		<path class="st5" d="M509.7,450.6c44.8,2,89.6,4,134.4,6c-8.5,39-45.4,68.4-89.7,68.4c-43,0-79.1-27.8-88.9-65.2
			c4.8-3.6,10.2-6.4,16-7.9c8.2-2.2,16.8-1.8,25.3-1.4C507.8,450.5,508.8,450.6,509.7,450.6z"/>
		<path class="st3" d="M632.1,394.2c-0.8,0-1.5-0.1-2.3-0.2c-2.4-0.4-4.9-1.5-6-3.6c-0.2-0.4-0.4-0.9-0.8-1.3
			c-1.2-1.2-3.3,0.1-4.1,1.6c-1,1.9-1.3,4.2-2.3,6.2s-3.5,3.5-5.4,2.4c0.5-5,1.2-10,2.2-15c0.5-2.6,1.3-5.5,3.3-7.2
			c0.1-0.1,0.1-0.1,0.2-0.1C622.8,382.1,627.9,387.9,632.1,394.2z"/>
		<path class="st16" d="M624.4,568.8l0,0.2c-4.9,15.6-9.8,31.2-14.6,46.8c-1.3,4.2-2.6,8.3-3.8,12.5c-1.7,5.5-3.2,11-4.8,16.5
			l-0.8-0.2c-1.6,0.9-3.5,1.4-5.3,1.5h-0.5c0-3-0.2-5.9-0.7-8.8l-2.3-0.7c2.3-1.2,4.6-2.2,7.1-3c-3.2-4.2-4.1-10-2.4-15
			c0.1-0.3,0.2-0.6,0.1-0.9c2.6,0,5.2,0,7.8,0c0.4,0,0.8,0,1.1-0.2c0.4-0.3,0.5-0.9,0.5-1.3c0.3-1.7,1.3-3.2,1.5-4.9
			c0.1-0.8,0-1.6-0.2-2.4l0.6-0.2c1.5-1.7,2.6-3.8,2.8-6c0.2-2.1-0.7-4.4-2.5-5.5c0.9-1.2,0.9-2.9,0.9-4.4
			c-4.8-0.6-9.6-1.2-14.4-1.8c2,0,4.1,0,6.1,0c-1-2.9-2.4-5.5-4.2-7.9c-1.4-1.8-3-3.5-3.9-5.5c-0.9-2.1-1-4.7,0.6-6.3l0.2-0.3
			c1.5,1.2,2.8,2.5,4,4c-0.5-3.7-0.7-7.4-0.6-11l1.1,0C606.7,565.9,615.5,567.5,624.4,568.8z"/>
		<path class="st3" d="M608,597.2c1.8,1.1,2.7,3.4,2.5,5.5c-0.2,2.2-1.4,4.3-2.8,6l-0.6,0.2c-0.3-1.3-0.9-2.5-1.4-3.7
			c-0.8-2-1.1-4.5,0.3-6.1c0.6-0.6,1.4-1,1.9-1.7C607.8,597.3,607.9,597.3,608,597.2z"/>
		<path class="st13" d="M596.3,617.7c-2.1,0-4.1,0-6.2,0c-0.7,0-1.4,0-2.2,0c0.2-2.4,0.4-4.8,0.7-7.2c0.5-3.7,1.1-7.5,1.9-11.2l0,0
			c0.1-0.2,0.1-0.4,0.2-0.6c0.7-2.6,1.5-5.1,2.2-7.7c0.5,0,1,0,1.5,0c4.8,0.6,9.6,1.2,14.4,1.8c0,1.5,0,3.2-0.9,4.4
			c0,0.1-0.1,0.2-0.2,0.2c-0.6,0.6-1.4,1-1.9,1.7c-1.4,1.6-1.1,4.1-0.3,6.1c0.5,1.2,1.1,2.5,1.4,3.7c0.2,0.8,0.3,1.6,0.2,2.4
			c-0.2,1.7-1.2,3.2-1.5,4.9c-0.1,0.5-0.1,1-0.5,1.3c-0.3,0.2-0.7,0.2-1.1,0.2C601.5,617.7,598.9,617.7,596.3,617.7z"/>
		<path class="st2" d="M602,749.4c0.3,0.5,0.3,1.3-0.3,1.6c-0.2,0.1-0.4,0.1-0.6,0.1c-2.9,0.1-5.8,0.3-8.7-0.3
			c-2.8-0.6-5.6-1.9-7.4-4.2c-0.2,1.2,0,2.5-0.5,3.5c-0.5,1.1-2,1.8-2.9,1c-0.5-0.5-0.6-1.2-0.6-1.9c0-1.1-0.1-2.2-0.1-3.3
			c0-2.4,0.1-4.9,1.4-6.8l0.5,0.2c0.1,3,2.5,5.4,5.1,6.8c3.6,2,7.9,2.7,12,2l0.2-0.6C601,748,601.6,748.6,602,749.4z"/>
		<path class="st17" d="M594.5,591c-0.5,0-1,0-1.5,0c-0.7,2.6-1.5,5.1-2.2,7.7c-0.1,0.2-0.1,0.4-0.2,0.6c-0.1,0.2-0.2,0.5-0.4,0.7
			l-0.7-0.6c-2.4-10.9-3.4-22.1-2.9-33.2c0.3,0,0.5,0,0.8,0.1c0,0.2,0,0.5,0.1,0.7c0.3,0.8,1.1,1.1,1.8,1.5c1.5,0.7,2.9,1.5,4.2,2.5
			l-0.2,0.3c-1.6,1.6-1.5,4.3-0.6,6.3c0.9,2.1,2.5,3.7,3.9,5.5c1.8,2.4,3.2,5.1,4.2,7.9C598.5,591,596.5,591,594.5,591z"/>
		<path class="st3" d="M600.2,747.6l-0.2,0.6c-4.1,0.7-8.4,0-12-2c-2.6-1.4-5-3.9-5.1-6.8l-0.5-0.2l0.6-1.3c1.3,0.5,2.7,0.6,3.7-0.2
			l0.9,0c0,2.3,1.3,4.4,3,5.9c1.8,1.5,3.9,2.3,6.1,2.9C597.9,746.8,599.2,747,600.2,747.6z"/>
		<path class="st3" d="M586.6,566.1c-0.3,0-0.6,0.1-0.8,0.2c-0.8,0.3-1.5,1-2.2,1.5c0,0,0,0,0,0l0,0c-0.8-0.2-1.5-0.7-2.2-1.3
			c-0.4-1.7,0.3-3.6,0.8-5.3c1.4-4.4,2.2-9.1,0.8-13.5c1.2-0.5,2.5-1,3.8-1.1c0.8,0,1.6,0.1,2.5,0c3.1,0,6.1-1.9,7.5-4.7l0.9-0.3
			c0.6,1.5,0.9,3,1,4.6c0,0.7,0,1.4,0,2.1c0,0.2,0,0.3,0,0.5c-0.7,3.5-2,7-3.8,10.1c-0.6,1.1-1.4,2.3-2.6,2.8
			c-1.2,0.6-2.8,0.4-3.5-0.7c-0.4,1.4-0.8,2.9-1.2,4.3c-0.1,0.3-0.2,0.6-0.2,0.9C587.1,566.1,586.8,566,586.6,566.1z"/>
		<path class="st10" d="M597.6,541.5l-0.9,0.3c-1.4,2.8-4.4,4.6-7.5,4.7c-0.8,0-1.6-0.1-2.5,0c-1.3,0.1-2.6,0.6-3.8,1.1
			c1.4,4.4,0.6,9.1-0.8,13.5c-0.5,1.7-1.2,3.6-0.8,5.3c-0.6-0.6-1.2-1.4-1.8-2.1c-1-1.3-2.4-2.7-4.1-2.7c0.1-0.9,0.1-1.8,0.1-2.7
			c0-0.4,0-0.9,0-1.3c0-4,0.1-8.2,1.3-11.9c0.5-1.6,1.2-3.2,2.1-4.6c3.1-4.8,9.8-7.7,14.7-4.8C595.5,537.5,596.8,539.4,597.6,541.5z
			"/>
		<path class="st10" d="M587.3,566.2c0-0.3,0.1-0.6,0.2-0.9c0.4-1.4,0.8-2.9,1.2-4.3c0.6,1.1,2.3,1.3,3.5,0.7
			c1.2-0.6,1.9-1.7,2.6-2.8c1.8-3.1,3.1-6.6,3.8-10.1c-0.2,2.9-0.8,5.8-1.2,8.7c-0.3,2.1-0.5,4.3-0.6,6.4c-0.1,3.7,0,7.4,0.6,11
			c-1.1-1.5-2.5-2.9-4-4c-1.3-1-2.7-1.8-4.2-2.5c-0.7-0.3-1.6-0.7-1.8-1.5C587.3,566.6,587.3,566.4,587.3,566.2z"/>
		<path class="st17" d="M596.3,617.7c0,0.3-0.1,0.6-0.1,0.9c-1.7,5-0.8,10.8,2.4,15c-2.5,0.8-4.8,1.8-7.1,3
			c-0.8,0.4-1.5,0.8-2.2,1.3c0.1-2.5,0.2-5.1,0.3-7.6c0.2-4.1,0.3-8.1,0.5-12.2v-0.4C592.2,617.7,594.2,617.7,596.3,617.7z"/>
		<path class="st18" d="M594.5,646.1c0,3.8-0.3,7.7-0.5,11.5c-0.3,3.6-0.5,7.2-0.8,10.8c-0.9,11.9-1.7,23.8-2.6,35.6
			c-0.7,9.6-1.4,19.2-2.1,28.8c-0.1,1.7-0.3,3.6-1.6,4.7c-0.1,0.1-0.2,0.1-0.2,0.2c-1.1,0.8-2.5,0.7-3.7,0.2c-1-0.4-1.9-1.2-2.5-2.1
			c-1.4-2.1-1.5-4.8-1.8-7.3c-1.5-12.7-8.9-25-6.1-37.4l-0.2-0.1c0.9-2.7,2.1-5.2,3.1-7.9c6.4-17.1,4.7-36.9,13.6-52.9l0.5,0
			c-0.1,2.5-0.2,5.1-0.3,7.6c0.7-0.5,1.5-0.9,2.2-1.3l2.3,0.7C594.3,640.2,594.5,643.1,594.5,646.1z"/>
		<path class="st3" d="M580.5,615.7c-2.4,1.3-4.9,2.4-7.4,3.5c-1.4,0.6-2.9,1.3-4.4,1c-2.4-0.5-3.7-3-4.6-5.3
			c-0.6-1.6-1.3-3.2-2-4.8l-0.1,0c0.8-5.5,1.1-11.1,0.9-16.7c-0.2-4-0.7-8-0.2-11.9c0.5-3.7,2-7.5,4.8-9.9l0.4,0.5
			c1.8-1.2,4.8-0.6,6.4,1.1c1.9,2.1,2.3,5.2,2.5,8c0.5,6.7,0.9,13.6-1.5,19.8c-0.2,0.4-0.4,0.9-0.3,1.4c0.2,1.4,2.1,1.5,3.5,1.3
			c0.5-0.1,1-0.2,1.6-0.3c3-0.7,5.9-1.5,8.8-2.5c0.5-0.2,1-0.4,1.3-0.8c0.2-0.2,0.3-0.4,0.4-0.7l0,0c-0.8,3.7-1.4,7.4-1.9,11.2
			C586.2,612.5,583.4,614.2,580.5,615.7z"/>
		<path class="st4" d="M589.5,599.3l0.7,0.6c-0.3,0.4-0.8,0.6-1.3,0.8c-2.9,1-5.8,1.9-8.8,2.5l-0.2-0.9c-0.3-11.8,0.2-23.6,1.4-35.3
			l0.2,0c0,0,0,0,0,0.1c0.1,0.4,0.3,0.8,0.7,0.9c0.4,0.2,0.9,0,1.3-0.2c0,0,0,0,0,0c0.8-0.5,1.4-1.1,2.2-1.5
			c0.3-0.1,0.5-0.2,0.8-0.2C586,577.2,587,588.4,589.5,599.3z"/>
		<path class="st4" d="M590.1,617.7v0.4c-0.2,4.1-0.3,8.1-0.5,12.2l-0.5,0c-8.8,16-7.2,35.8-13.6,52.9c-1,2.6-2.2,5.2-3.1,7.9
			c-0.3,0.7-0.5,1.5-0.7,2.2c-1.1,3.9-1.3,8-1.6,12c-0.8,9.9-2.3,19.8-4.5,29.5c-0.2,1-0.5,2.1-1.2,2.9c-0.3,0.4-0.8,0.7-1.2,0.8
			c-1.1,0.4-2.5,0.3-3.6-0.3c-0.4-0.2-0.7-0.5-1.1-0.7c-1-0.8-1.7-2-2.3-3.1c-2.5-5-2.5-10.8-2.4-16.4c0.1-8.4,0.2-16.8,1.9-24.9
			c1.3-6.1,3.5-12.4,1.6-18.3c-0.6-1.8-1.6-3.5-2.1-5.4c-0.8-2.5-0.8-5.1-0.7-7.7c0.1-3.8,0.2-7.6,0.3-11.5
			c0.2-4.2,0.5-8.5,0.8-12.7c5.3,1.3,10.8,1.7,16.2,1.1c0.8-0.1,1.6-0.2,2.4,0c0.7,0.1,1.4,0.5,2.1,0.6c0.7,0.1,1.6,0,2-0.6l0.8-0.5
			c-1.4-5.5-0.5-11.3,0.4-16.9c0.3-1.8,0.6-3.6,0.8-5.4c2.9-1.5,5.7-3.2,8.2-5.2c-0.3,2.4-0.5,4.8-0.7,7.2
			C588.7,617.7,589.4,617.7,590.1,617.7z"/>
		<path class="st15" d="M552.2,87.2c0.5-0.1,1-0.3,1.4-0.4c0-0.1,0-0.2,0-0.3c10.8,1.6,21.5,7.5,26.3,17.3c2,4.1,2.9,8.6,3.6,13.1
			c0.8,4.7,1.4,9.7,0,14.3c-1.8,6.3-6.7,11.1-11.4,15.5c-1.7,1.6-3.4,3.2-5.5,4.3c-1.5,0.8-3.2,1.3-4.9,1.7
			c-2.1,0.6-4.2,1.1-6.4,1.6c-5,1-10.2,1.3-14.8-0.8c-3-1.4-5.5-3.7-8.4-5.3c-3.4-1.9-7.3-2.7-11.1-2.5l-0.3-0.1
			c0.5-0.9,0.8-2,1-3.1c0.5-2.6,0.9-5.2,1.2-7.9l0.8,0.1c5.7-1.5,10.6-4.8,15.8-7.5c1.7,3.6,4.7,6.7,8.5,7c0.3,0,0.7,0,1-0.1
			c0.6-0.2,0.9-0.8,1.1-1.4c0.6-1.2,1.2-2.6,1-3.9c-0.3-2.2-2.5-3.6-4.6-3.8c-2.2-0.1-4.3,0.7-6.2,1.7c-0.3,0.1-0.6,0.3-0.8,0.4
			c-0.4-0.8-0.7-1.6-0.9-2.3c-0.4-1.1-0.6-2.3-0.8-3.4c0.7-0.2,1.4-0.5,2.1-0.7c0.6-0.2,1.2-0.3,1.6-0.8c0.3-0.3,0.4-0.6,0.6-1
			c0.2-0.4,0.4-0.8,0.5-1.2c0.6-1.4,1.2-3.2,0.3-4.4c-1-1.3-3.2-0.9-4.3,0.3c-1,1.2-1.2,3-1.2,4.6c0,1,0.1,2.1,0.3,3.1
			c-4.9,1.6-9.5,3.8-13.9,6.5l-0.5,0c0.2-4.6,0.1-9.3-0.4-13.9c-0.3-2.7-0.7-5.5,0.1-8.1c0.4-1.5,1.2-2.8,2.1-4.1
			c3-4.3,7.3-7.4,12.1-9.6C541.9,90.1,547.2,88.5,552.2,87.2z"/>
		<path class="st17" d="M581.4,566.9l-0.2,0c-1.2,11.7-1.7,23.5-1.4,35.3l0.2,0.9c-0.5,0.1-1,0.2-1.6,0.3c-1.4,0.3-3.3,0.1-3.5-1.3
			c-0.1-0.5,0.1-0.9,0.3-1.4c2.5-6.2,2.1-13.1,1.5-19.8c-0.2-2.8-0.6-5.9-2.5-8c-1.6-1.8-4.6-2.3-6.4-1.1l-0.4-0.5
			c0.2-0.2,0.4-0.3,0.5-0.4c1.6-1.2,3.6-1.9,5-3.3c1.6-1.6,2.2-3.8,2.4-6.1c1.7,0,3,1.3,4.1,2.7c0.5,0.7,1.1,1.5,1.8,2.1
			C581.3,566.6,581.4,566.8,581.4,566.9z"/>
		<path class="st17" d="M580.5,615.7c-0.3,1.8-0.6,3.6-0.8,5.4c-0.9,5.6-1.7,11.4-0.4,16.9l-0.8,0.5c-0.4,0.6-1.3,0.7-2,0.6
			c-0.7-0.1-1.4-0.5-2.1-0.6c-0.8-0.2-1.6,0-2.4,0c-5.4,0.6-10.9,0.2-16.2-1.1c0-0.3,0-0.5,0.1-0.8l0,0c2.7-8.7,5-17.6,6.3-26.6
			l0.1,0c0.7,1.6,1.3,3.2,2,4.8c0.9,2.3,2.2,4.8,4.6,5.3c1.5,0.3,3-0.3,4.4-1C575.6,618.1,578.1,617,580.5,615.7z"/>
		<path class="st2" d="M577.7,748.3c0.2,0.5,0.2,1,0,1.5c-0.1,0.4-0.3,0.7-0.6,0.9c-0.4,0.3-0.9,0.3-1.3,0.3
			c-2.6,0.1-5.3,0.2-7.9-0.3c-2.6-0.5-5.1-1.8-6.7-3.8c-0.5,0.7,0,1.7,0.1,2.6c0,0.9-0.5,1.8-1.3,2.1c-0.8,0.3-1.8,0.1-2.5-0.5
			c-0.8-0.9-0.8-2.3-0.7-3.5c0.1-1.6,0.3-3.2,0.4-4.8c0-0.4,0.1-0.8,0.2-1.2c0.1-0.3,0.3-0.5,0.5-0.7c0.4-0.7,0.6-1.5,0.5-2.3
			l0.2-0.1c1.2,3.5,3.6,6.5,6.8,8.4c3.2,1.9,7.1,2.5,10.7,1.8L577.7,748.3z"/>
		<path class="st3" d="M577.7,748.3l-1.6,0.5c-3.6,0.7-7.5,0-10.7-1.8c-3.2-1.9-5.7-4.9-6.8-8.4l-0.2,0.1c0-0.2-0.1-0.4-0.2-0.5
			l0.3-0.6c0.3,0.3,0.7,0.5,1.1,0.7c1.1,0.6,2.5,0.7,3.6,0.3l0.7,0c-0.1,1.5,0.7,2.9,1.7,4c1,1,2.3,1.8,3.6,2.5
			c1.3,0.7,2.7,1.5,4.2,1.5c0.9,0,1.8-0.2,2.6,0.1C576.9,746.8,577.5,747.5,577.7,748.3z"/>
		<path class="st8" d="M574.5,545.4l2.3,0.3c-1.1,3.8-1.3,7.9-1.3,11.9c0,0.4,0,0.9,0,1.3l-0.9,0c-7.3-3.1-14.6-6.2-21.9-9.3
			c-1.3-0.6-2.7-1.1-4.1-1l-1.1-0.2c0.5-3.5,0.9-7,1.3-10.6l0.1-0.3C557.4,540.3,566,542.9,574.5,545.4z"/>
		<path class="st16" d="M555.7,636.6L555.7,636.6c0,0.3,0,0.5,0,0.8c-0.4,4.2-0.6,8.5-0.8,12.7l-0.6,0c-3.7,0.4-7.5,0.7-11.2,1.1
			c-0.5,0-1,0.1-1.3,0.4c-0.4,0.3-0.6,0.8-0.9,1.2c-1.2,2.6-2.3,5.2-3.5,7.8c-3.5,7.7-7.1,15.6-12.9,21.8c-1,1.1-2.1,2.1-3.4,2.6
			c-1.3,0.5-2.7,0.5-4.1,0.4c-3.8-0.1-7.6-0.2-11.3-0.3l-1.1-0.5c19.3-43.6,36.5-88.8,43-135.9l1.1,0.2c1.4-0.2,2.8,0.4,4.1,1
			c7.3,3.1,14.6,6.2,21.9,9.3l0.9,0c0,0.9,0,1.8-0.1,2.7c-0.2,2.3-0.8,4.5-2.4,6.1c-1.4,1.4-3.3,2.1-5,3.3c-0.2,0.1-0.4,0.3-0.5,0.4
			c-2.9,2.4-4.4,6.2-4.8,9.9c-0.5,4,0,8,0.2,11.9c0.3,5.6-0.1,11.2-0.9,16.7C560.8,619,558.4,627.9,555.7,636.6z"/>
		<path class="st2" d="M563.1,42c1.2,1.5,3.3,2.8,3,4.6c-0.3,1.4-1.7,2.1-3,2.5c-1,0.2-1.9,0.4-2.9,0.4c-2.3,0.1-4.6-0.5-6.6-1.6
			c-0.6-0.4-1.3-0.7-1.9-0.9c-0.7-0.1-1.5,0.1-1.8,0.8c-0.2,0.5-0.1,1-0.3,1.4c-0.6,1.3-2.9,1-3.5,2.3c-0.4,0.9,0.3,1.8,0.6,2.7
			c0.3,1,0.1,2.1-0.5,2.9l-1.6,0.1c0-0.1-0.1-0.1-0.1-0.2c-0.2-0.2-0.5-0.2-0.8-0.2c-1.5-0.2-2.3-2-2.4-3.6c-0.1-1.5,0-3.2-0.8-4.5
			c-0.7-1.1-2.2-2-2-3.3c0.1-0.6,0.5-1,0.9-1.5c1.3-1.3,2.5-2.6,3.8-4c2.2-2.3,5.1-4.8,8.1-3.9c0.9,0.3,1.6,0.8,2.5,0.9
			c1.6,0.2,3.2-0.9,4.8-0.6C560.9,36.8,561.5,40,563.1,42z"/>
		<path class="st19" d="M539.8,181.8c0-1.9-0.4-3.8-1.1-5.7c-1.2-3-3.4-5.5-5.6-8c-5.5-6.4-10.8-13.1-15.6-20.1
			c1.3-0.4,2.4-1.3,3.1-2.4l0.3,0.1c3.8-0.2,7.7,0.6,11.1,2.5c2.9,1.6,5.4,3.9,8.4,5.3c4.6,2.1,9.7,1.8,14.8,0.8l0.1,0.4
			c7,5.5,9.3,15.4,8,24.2c-1.3,8.8-5.7,16.8-10.2,24.5c-4.5,7.7-9.3,15.4-11.5,24c-0.3-0.1-0.6-0.2-0.9-0.3c-1.9-0.5-4-0.4-5.8,0.3
			c-1.5-9.8-1-20,1.5-29.6C538,192.5,540,187.1,539.8,181.8z"/>
		<path class="st3" d="M560.1,49.4l0,0.6c-0.1,3-1.1,5.9-2.8,8.3c-0.3,0.4-0.6,0.8-1,1.1c-0.5,0.3-1.1,0.4-1.7,0.4
			c-0.9,0-1.9,0-2.8-0.2c-2.1-0.3-4.1-1.2-5.8-2.4c0.6-0.8,0.8-1.9,0.5-2.9c-0.3-0.9-1-1.9-0.6-2.7c0.6-1.3,2.9-1,3.5-2.3
			c0.2-0.5,0.1-1,0.3-1.4c0.3-0.6,1.1-0.9,1.8-0.8c0.7,0.1,1.3,0.5,1.9,0.9C555.5,49,557.9,49.5,560.1,49.4z"/>
		<path class="st13" d="M557.2,354c-0.9,0-1.8,0-2.7,0c-2.5,0-4.9,0.1-7.3,0.3c-4-8.4-7.9-16.7-11.9-25.1l0.2-0.3
			c0.8-1.8,2.8-2.8,4.7-2.7c1.9,0.1,3.7,1.2,4.9,2.6c1,1.2,1.7,2.7,2.4,4.2C550.7,340.1,553.9,347.1,557.2,354z"/>
		<path class="st11" d="M552.2,87.2c-5.1,1.3-10.3,2.9-15,5.1l-0.3-0.6c-0.9-3-2.4-5.9-4.8-8c-1.1-1-2.4-1.7-3.7-2.5
			c-2.2-1.3-4.4-2.6-6.6-3.9l-0.4-0.3c1.8-2.2,3.6-4.5,5.6-6.5c2.9-3.1,6.3-5.9,10.3-7c1.5-0.4,3-0.6,4.5-0.4c2.7,0.2,5.3,1.4,7,3.5
			c0.3,0.3,0.5,0.7,0.7,1c1.3,2.1,1.7,4.7,2.1,7.1c0.6,3.9,1.2,7.8,1.8,11.7c0,0.1,0,0.2,0,0.3C553.2,86.9,552.7,87.1,552.2,87.2z"
			/>
		<path class="st3" d="M551.9,59.5l-0.1,0.5c-1,2.4-1.7,5-2.1,7.6c-0.2-0.4-0.4-0.7-0.7-1c-1.7-2.1-4.3-3.2-7-3.5l0-0.1
			c1-1.5,1.8-3.2,2.4-5c0.1-0.3,0.1-0.6,0-0.8l1.6-0.1C547.8,58.3,549.8,59.2,551.9,59.5z"/>
		<path class="st15" d="M551.2,128.9c0.2,1.3-0.4,2.7-1,3.9c-0.3,0.6-0.6,1.2-1.1,1.4c-0.3,0.1-0.7,0.1-1,0.1
			c-3.9-0.4-6.8-3.5-8.5-7c0.3-0.2,0.6-0.3,0.8-0.4c1.9-1,4-1.8,6.2-1.7C548.7,125.3,550.9,126.8,551.2,128.9z"/>
		<path class="st2" d="M533.7,231.3l1.4-0.5c0,0,0,0.1,0.1,0.1c0.2,0.3,0.5,0.4,0.8,0.6c1.1,0.6,2.2,1.2,3.3,1.7
			c0.1-0.2,0.1-0.4,0.2-0.7l0.9,0.2c1.8,2.1,3.9,3.9,6.2,5.3c1.5,0.9,3.3,2,3.3,3.7c-0.4,0-0.7,0-1.1,0c-2.2-0.1-4.4-0.1-6.6-0.2
			c-2-0.1-4.2-0.2-5.4-1.8c-0.5-0.6-0.7-1.3-1.3-1.8c-0.5-0.4-1.2-0.5-1.9-0.8c-1.4-0.6-2.5-2-2.4-3.4
			C531.1,232.6,532.3,231.3,533.7,231.3z"/>
		<path class="st0" d="M485.2,686.7c-0.4,0.1-0.9,0.1-1.3,0.2c0.2-1.8,0.3-3.6,0.5-5.4c4.8-53.9,10.7-107.8,17.5-161.5l0.3-0.4
			c6.8,5.4,15.3,8.2,23.5,10.8c7.7,2.4,15.4,4.8,23.2,7.2l-0.1,0.3c-0.4,3.5-0.8,7.1-1.3,10.6c-6.5,47.1-23.7,92.3-43,135.9
			c-0.3,0.6-0.5,1.2-0.8,1.9c-0.5-0.1-1.1-0.1-1.6-0.2C496.5,685.5,490.8,685.7,485.2,686.7z"/>
		<path class="st15" d="M542.9,113.5c1,1.2,0.4,3-0.3,4.4c-0.2,0.4-0.4,0.8-0.5,1.2c-0.1,0.4-0.3,0.7-0.6,1c-0.4,0.4-1,0.6-1.6,0.8
			c-0.7,0.2-1.4,0.4-2.1,0.7c-0.2-1-0.3-2.1-0.3-3.1c-0.1-1.6,0.1-3.4,1.2-4.6C539.7,112.6,541.8,112.2,542.9,113.5z"/>
		<path class="st3" d="M540.9,227l-0.3,1c-0.4,1.5-0.8,3.1-1.3,4.6c-0.1,0.2-0.1,0.4-0.2,0.7c-1.1-0.6-2.2-1.2-3.3-1.7
			c-0.3-0.1-0.6-0.3-0.8-0.6c0,0,0-0.1-0.1-0.1c-0.4-0.8,0.6-1.9,0.2-2.8l-0.2-0.7C536.9,226.6,539,226.5,540.9,227z"/>
		<path class="st20" d="M538.7,176.1c0.7,1.8,1.1,3.8,1.1,5.7c-6.8,6.4-17,7.3-26.3,8.4c-11.4,1.4-22.7,3.6-34,5.9
			c-0.1-0.5-0.3-1.1-0.4-1.6c-0.3-1.1-0.5-2.1-0.8-3.2c-0.1-0.3-0.2-0.7-0.2-1.1c0-0.2,0-0.3,0.1-0.5c0.2-0.8,1.1-1.3,1.8-1.7
			c8.1-4.1,16.6-7.4,25.4-9.7c2.5-0.7,5.1-1.3,7.3-2.5c2.3-1.3,4.2-3.5,4.4-6c0.3-2.1-0.6-4.2-1.4-6.1c-2-4.7-4-9.3-6-14l0,0
			c1.1-0.7,2.1-1.4,3.1-2.1l0,0c0.1,0.1,0.3,0.2,0.4,0.2c1.3,0.7,2.9,0.8,4.3,0.3c4.8,7,10,13.7,15.6,20.1
			C535.3,170.6,537.5,173.1,538.7,176.1z"/>
		<path class="st15" d="M538.6,124.9c0.3,0.8,0.6,1.6,0.9,2.3c-5.2,2.7-10.2,6-15.8,7.5l-0.8-0.1c0.3-2.2,0.4-4.4,0.5-6.7l0.5,0
			c4.3-2.7,9-4.9,13.9-6.5C538,122.7,538.2,123.8,538.6,124.9z"/>
		<path class="st3" d="M514.6,137.7c0.2-2,0-3.9-0.5-5.9c-0.4-1.7-0.9-3.4-1.4-5.1c-0.4-1.3-0.8-2.6-1.2-4
			c-2.6-9.1-4.3-18.7-1.4-27.6c2.1-6.5,6.5-12,10.8-17.3c0.2-0.3,0.4-0.5,0.6-0.8l0.4,0.3c2.2,1.3,4.4,2.6,6.6,3.9
			c1.3,0.8,2.6,1.5,3.7,2.5c2.4,2.1,3.9,5,4.8,8l0.3,0.6c-4.8,2.3-9,5.3-12.1,9.6c-0.9,1.2-1.6,2.6-2.1,4.1
			c-0.7,2.6-0.3,5.4-0.1,8.1c0.5,4.6,0.6,9.3,0.4,13.9c-0.1,2.2-0.3,4.5-0.5,6.7c-0.3,2.6-0.7,5.3-1.2,7.9c-0.2,1.1-0.5,2.1-1,3.1
			c-0.7,1.2-1.8,2-3.1,2.4c-1.4,0.4-3,0.4-4.3-0.3c-0.1-0.1-0.3-0.1-0.4-0.2c-2.2-1.5-3.1-4.7-1.9-7.1c1.4-0.1,2.7-1.4,2.8-2.8
			L514.6,137.7z"/>
		<path class="st15" d="M514.1,131.8c0.4,1.9,0.7,3.9,0.5,5.9l-0.7,0c-0.1,1.4-1.3,2.7-2.8,2.8l-0.1-0.1c-1.5,1-3,2-4.6,2.8
			l-1.4,0.8c-1.4-2.3-2.6-4.7-3.7-7.2l0.9-0.4c0.1-0.4,0.6-0.6,1-0.7c3.3-1.2,6.7-2.4,10-3.6L514.1,131.8z"/>
		<path class="st15" d="M514.1,131.8l-1,0.2c-3.3,1.2-6.7,2.4-10,3.6c-0.4,0.1-0.8,0.3-1,0.7l-0.9,0.4c-0.3-0.6-0.5-1.2-0.7-1.8
			c-0.6-1.6-1.3-3.4-2.7-4.5l-0.6-1.3c1.1-0.5,2.3-1,3.4-1.4c3.6-1.3,7.7-1.9,10.2-4.8l0.6-0.1c0.4,1.3,0.8,2.7,1.2,4
			C513.2,128.4,513.7,130.1,514.1,131.8z"/>
		<path class="st15" d="M513,147.5L513,147.5c-1.1,0.8-2.1,1.5-3.2,2.2c-0.2,0.2-0.4,0.3-0.7,0.4l-0.1-0.1c-1.5-1.9-2.9-4-4.1-6.1
			l1.4-0.8c1.6-0.8,3.1-1.7,4.6-2.8l0.1,0.1C509.8,142.8,510.7,146.1,513,147.5z"/>
		<path class="st2" d="M497.8,130.4c1.4,1.1,2.1,2.8,2.7,4.5c0.2,0.6,0.5,1.2,0.7,1.8c1.1,2.5,2.3,4.9,3.7,7.2
			c1.3,2.1,2.6,4.1,4.1,6.1l0.1,0.1c-2.9,1.9-6,3.6-9.2,5c-2,0.9-4.7,1.6-6-0.1c-0.4-0.6-0.6-1.3-1.1-1.8c-1-1-2.6-0.6-4-0.9
			c-3-0.7-4-4.4-4.4-7.4c-0.1-0.8-0.2-1.6,0.3-2.2c0.3-0.4,0.8-0.6,1.1-1c0.3-0.5,0.2-1.2,0.2-1.8c-0.2-3.3,2.8-5.7,5.5-7.5
			c1.9-1.2,3.8-2.3,5.8-3.3L497.8,130.4z"/>
		<path class="st2" d="M470.9,706.5c2-1,4-2.1,5.9-3.2c2.3-1.3,4.6-2.8,6.8-4.3c0,0.1,0.1,0.3,0.1,0.4c0.7,1.7,2.8,2.4,4.7,2.6
			c3.4,0.3,6.8-0.1,10-1.3c1-0.4,2-0.8,2.6-1.7c0.2-0.3,0.4-0.7,0.5-1.1c3.2,2.5,4.9,6.6,5.4,10.6c0.5,4-0.1,8.1-0.7,12.2
			c-0.2,1.1-0.4,2.3-1,3.3c-1.5,2.1-4.6,2.2-7.1,1.6c-2.5-0.6-5.1-1.5-7.5-0.7c-0.1-1.5-0.1-2.9-0.2-4.4c-18.6,3-37.5,4.2-56.3,3.7
			c0,0,0,0,0-0.1c-0.3-1.3,0-2.5,0.6-3.7c0.6-1,1.4-1.9,2.4-2.6c2.1-1.4,4.6-1.8,7.1-2.3C453.4,713.9,462.4,710.8,470.9,706.5z"/>
		<path class="st16" d="M501.4,519.1c0.3,0.2,0.5,0.4,0.8,0.6l-0.3,0.4c-6.8,53.7-12.6,107.5-17.5,161.5l-1.1-0.1
			c-4.7-1.2-9.1-3.3-12.9-6.3l-1.2,0.3c-6.9-24.9-14.9-49.8-22.6-74c10.2-12,20-24.3,28.9-37.3c9.7-14.1,18.4-28.9,25-44.7
			L501.4,519.1z"/>
		<path class="st3" d="M483.5,699c-0.3-0.9-0.1-2,0.1-2.9c0.5-3.1,1.1-6.2,1.6-9.3c5.6-1,11.3-1.2,16.9-0.5l-0.2,1.3
			c0.1,2.8,0.1,5.7-0.1,8.5c-0.1,0.7-0.1,1.4-0.3,2c-0.1,0.4-0.3,0.8-0.5,1.1c-0.6,0.8-1.6,1.3-2.6,1.7c-3.2,1.2-6.7,1.6-10,1.3
			c-1.9-0.2-4-0.9-4.7-2.6C483.6,699.3,483.5,699.1,483.5,699z"/>
		<path class="st3" d="M478.3,191.3c0.3,1.1,0.5,2.1,0.8,3.2l-1.1,0.3c-1.2,0.3-2.5,0.6-3.7,0.8l-1.3-0.3c0.3-1.6,0.1-3.3-0.1-4.9
			l1.7-0.1c0.9,0,1.8,0,2.7,0l0.8-0.1C478.1,190.6,478.2,191,478.3,191.3z"/>
		<path class="st21" d="M468.8,700c-0.6-2-1.2-4-1.8-6c-2.2-7.2-4.4-14.6-6.6-22c-0.6-2-1.2-4-1.8-6c-2.3-7.7-4.5-15.4-6.7-23
			c-0.6-2-1.2-4-1.8-6c-1.1-3.8-2.2-7.5-3.3-11.2c-0.9-3-1.8-6-2.7-9c-0.4-1.3-0.8-2.5-1.1-3.7c-0.5-1.8-1.1-3.6-1.6-5.4
			c1.7-2,3.5-4,5.2-6c7.8,24.3,15.8,49.1,22.6,74c2.4,8.8,4.7,17.6,6.8,26.5l0.8,1.3c-1.9,1.1-3.9,2.2-5.9,3.2
			C470.2,704.4,469.5,702.2,468.8,700z"/>
		<path class="st2" d="M473,190.4c0.2,1.6,0.4,3.3,0.1,4.9c-0.2,1-0.5,1.9-1.1,2.7c-0.5,0.6-1.1,1.2-1.6,1.8
			c-1.7,2.4-0.9,6.1-2.8,8.3c-0.2,0.2-0.4,0.4-0.6,0.4c-0.8,0.2-1.3-1-1.3-1.8c-0.1-5.9-0.3-11.9-0.4-17.8l1.3-0.6
			c1.5-0.1,3-0.2,4.4-0.3c0.5,0,1-0.1,1.4,0.3c0.3,0.3,0.4,0.8,0.5,1.2C472.9,189.8,472.9,190.1,473,190.4z"/>
		<path class="st21" d="M468.8,700h-40.3c-0.6-2-1.1-4-1.7-6H467C467.6,696,468.2,698,468.8,700z"/>
		<path class="st21" d="M460.4,672H421l-0.5,0.2c-0.6-2.1-1.2-4.1-1.8-6.2h29.6h10.4C459.3,668,459.8,670,460.4,672z"/>
		<path class="st16" d="M458.7,666h-10.4v-1.6c-2.6-2.7-5.1-5.5-6.7-8.9c-1.6-3.4-2.1-7.4-0.6-10.9V643h11
			C454.2,650.6,456.4,658.3,458.7,666z"/>
		<path class="st21" d="M451.9,643h-11h-29.2c-0.2-0.7-0.4-1.3-0.6-2c0.2-0.2,0.4-0.4,0.5-0.6c1.1-1.2,2.2-2.4,3.3-3.6l0.1,0.1h27.8
			h7.2l0.2,0C450.8,639,451.4,641,451.9,643z"/>
		<path class="st16" d="M450.2,637l-0.2,0h-7.2v-1.1c1.1-3.5,2.5-6.9,4.1-10.2C448,629.5,449.1,633.2,450.2,637z"/>
		<path class="st21" d="M443.1,613L443.1,613l-4,0h-2l-0.2-0.2c1.5-1.7,3.1-3.5,4.6-5.3C442,609.3,442.5,611.2,443.1,613z"/>
		<path class="st21" d="M418.6,666c0.6,2,1.2,4.1,1.8,6.2c2.1,7.3,4.3,14.6,6.3,21.8c0.6,2,1.1,4,1.7,6c1.9,6.8,3.8,13.5,5.5,20
			l0.6,0.5c-0.6,1.1-0.9,2.4-0.6,3.7h0c-2,0.8-4.5,0.4-6.2-0.9c-7.6-25.1-15.9-50-23.1-75.3c2.1-2.3,4.3-4.6,6.4-7
			c0.2,0.6,0.4,1.3,0.6,2C414,650.4,416.3,658.1,418.6,666z"/>
		<path class="st21" d="M373.2,354.6C387.1,398.4,399,442.2,411,488c4,13,8,25,12.2,38.1l0.1,0c-1.3,2.6-2.7,5.3-4,7.9l0,0
			c-1-3.4-2.1-6.7-3.1-10.1c-0.6-2-1.2-4-1.8-6c-2.5-8.3-5.1-16.6-7.5-25c-0.5-1.7-1-3.3-1.5-5c-2.4-8-4.8-16-7.1-24.1
			c-0.5-1.6-1-3.3-1.5-4.9c-2.4-8.3-4.9-16.7-7.3-25c-0.5-1.7-1-3.3-1.4-5c-2.2-7.7-4.5-15.4-6.7-23.1c-0.5-1.7-1-3.4-1.5-5.1
			c-2.4-8.3-4.8-16.5-7.1-24.8c-1.9-6.7-3.8-13.4-5.8-20l-0.3-0.1c0.3-1.4,0.6-2.5,0.8-3.3c1.5,0.1,2.9,0.3,4.3,0.6
			c0.5,0.1,1,0.4,1.1,0.8l0.1,0C373.1,354.2,373.1,354.4,373.2,354.6C373.2,354.6,373.2,354.6,373.2,354.6z"/>
		<path class="st16" d="M419.2,534.1L419.2,534.1c-3.4,6.8-6.8,13.6-10.2,20.4l-1-0.5h-23.4c-1.5-4.8-2.9-9.7-4.4-14.5
			c-1.5-5.2-3.1-10.3-4.6-15.5H416l0.1,0C417.2,527.3,418.2,530.7,419.2,534.1z"/>
		<path class="st21" d="M416.1,524l-0.1,0h-40.4c-0.6-2-1.2-4-1.8-6l0.1,0h40.3C414.9,520,415.5,522,416.1,524z"/>
		<path class="st16" d="M414.3,518H374l-0.1,0c-2.5-8.3-4.9-16.6-7.3-24.9l0.5-0.1h39.8C409.3,501.4,411.8,509.7,414.3,518z"/>
		<path class="st16" d="M408,554l1,0.5c-4.3,8.5-8.5,17.1-12.8,25.6L396,580h-3.5c-2.7-8.7-5.3-17.3-7.9-26H408z"/>
		<path class="st21" d="M406.8,493H367l-0.5,0.1c-0.5-1.7-1-3.4-1.5-5.1h40.3C405.8,489.7,406.3,491.3,406.8,493z"/>
		<path class="st16" d="M405.3,488H365c-2.3-8-4.7-16-7-24h40l0.2-0.1C400.5,472,402.9,480,405.3,488z"/>
		<path class="st21" d="M396.7,459c0.5,1.6,1,3.3,1.5,4.9L398,464h-40c-0.5-1.7-1-3.3-1.4-5H396.7z"/>
		<path class="st16" d="M396.7,459h-40.2c-0.1-0.4-0.3-0.8-0.4-1.3c-2.3-7.9-4.6-15.8-6.9-23.7h40.2
			C391.9,442.3,394.3,450.7,396.7,459z"/>
		<path class="st21" d="M396,580l0.3,0.1c-0.8,1.5-1.5,3-2.3,4.6c-0.5-1.6-1-3.1-1.5-4.7H396z"/>
		<path class="st21" d="M347.8,429c0.5,1.7,1,3.3,1.5,5c2.3,7.9,4.6,15.8,6.9,23.7c0.1,0.4,0.2,0.8,0.4,1.3c0.5,1.7,1,3.3,1.4,5
			c2.3,8,4.7,16,7,24c0.5,1.7,1,3.4,1.5,5.1c2.4,8.3,4.9,16.6,7.3,24.9c0.6,2,1.2,4,1.8,6c1.5,5.2,3.1,10.3,4.6,15.5
			c1.5,4.8,2.9,9.7,4.4,14.5c2.6,8.7,5.3,17.3,7.9,26c0.5,1.6,1,3.2,1.5,4.7c-1.4,2.9-2.8,5.7-4.2,8.6c-1-3.3-1.9-6.7-2.9-10
			c-12.1-42-24.9-84.2-37.7-126.2c-2.1-7-4.3-14-6.4-21l3.6-11.9C346.9,425.8,347.4,427.4,347.8,429z"/>
		<path class="st21" d="M389.5,434h-40.2c-0.5-1.7-1-3.3-1.5-5H388h0C388.5,430.7,389,432.3,389.5,434z"/>
		<path class="st16" d="M388,429L388,429h-40.2c-0.5-1.6-0.9-3.2-1.4-4.8l5.6-18.8l1.9,0.6h27l0.4-0.1
			C383.6,413.6,385.8,421.3,388,429z"/>
		<path class="st5" d="M384.7,191.8c-2-6-2.2-12.6-0.6-18.7c1.4,0.2,2.2,1.8,2.5,3.2c1.3,5.3,0.6,11-1.8,15.8
			C384.8,192,384.8,191.9,384.7,191.8z"/>
		<path class="st16" d="M324.3,534.8c-0.1,0-0.1,0-0.1,0c-1-4.6-2-9.2-1.9-13.9c0.1-4.8,1.3-9.7,4.3-13.5c1.9-2.5,4.5-4.3,7.2-6
			c5.1-3.2,10.6-5.7,16.3-7.6c0.6-0.2,1.3-0.4,1.7-0.9c0.8-0.9,0.6-2.2,0.3-3.3c-1.3-6.2-2-12.4-2.6-18.6c-0.4-3.8-0.7-7.5-1-11.3
			c-0.1-0.9-0.1-1.8,0.5-2.4l0.2-0.1c12.8,42.1,25.5,84.2,37.7,126.2l-1.1,0.3c-4.3,1.7-8.7,3.4-13.3,4.2c-4.6,0.8-9.5,0.5-13.7-1.6
			c-4.6-2.3-7.8-6.6-10.9-10.8C338.6,562.7,329.3,549.7,324.3,534.8z"/>
		<path class="st4" d="M329.8,256.3c-6.4-8-10.6-17.9-11.7-28.1c-0.3-2.3-0.4-4.7,0-6.9c0.4-2.4,1.4-4.6,2.6-6.7
			c2.5-4.5,5.7-8.5,9-12.5c1.5-1.8,3-3.7,4.9-5.1c2.8-2.1,6.5-3.2,10-2.8c0,0,0-0.1,0-0.1l0.4-0.1c0.7,0.8,1.5,1.6,2.5,2.2
			c2.7,1.5,6.2,0.8,8.8-0.9l0.9-0.3c2.4,0.6,3.6,3.3,4.5,5.6c1.2,3.1,2.4,6.2,3.6,9.4c0.9,2.2,1.7,4.5,3.1,6.4
			c1.4,1.9,3.3,3.4,5.4,4.3c-0.3-6-0.6-12-0.9-17.9c0.2-0.1,0.4-0.1,0.6-0.2c0,0,0,0,0,0.1c0,0,0,0,0-0.1c1.9-0.5,3.7-0.8,5.6-0.8
			v-0.1c0.4-0.1,0.8,0,1,0.3c2.9,9.3,4.6,18.9,5.2,28.6c0.2,3.4,0.2,7.2-2,9.8c-1,1.3-2.6,2.2-4.2,2.2c-1.2,0-2.4-0.5-3.5-1.1
			c-4.9-2.5-9.2-6-12.6-10.3c0.1,7.1,0,14.2-0.3,21.3c0,0.2,0,0.5,0.2,0.6l-0.1,0.3c-1,0.1-2,0.1-2.9,0.2
			c-6.4,0.4-12.9,0.6-19.4,0.7c-1.3,0-2.6,0-3.8-0.5c0,0.3,0.1,0.5,0.1,0.8c0.1,0.4,0.1,0.8-0.1,1.2c-0.2,0.3-0.5,0.5-0.9,0.7
			c-1.7,0.8-3.6,1.2-5.5,1l-0.3-0.5C330,256.6,329.9,256.5,329.8,256.3z"/>
		<path class="st5" d="M366.7,178.9l0-0.1c5.2-0.2,10.3-1.8,14.6-4.6c0.8-0.6,1.7-1.2,2.7-1c0,0,0,0,0,0c-1.6,6.1-1.4,12.7,0.6,18.7
			c-3.8-2.7-8.9-3.6-13.3-2.2c-0.2,0.6,0,1.2,0.3,1.7c3.5,0.9,6.3,4,7.1,7.5c-1.3-3-4.4-5.2-7.7-5.1c-0.8,0-1.7,0.2-2.3,0.7
			c-0.6,0.6-0.8,1.6-0.2,2.2c0.6,0.6,1.7,0.4,2.4,0.9c0.5,0.3,0.7,1,0.7,1.6c-0.6,0-1.3,0.2-1.9,0c0.5,0.1,1.1,0.3,1.5,0.6h0
			c-0.4-0.1-0.8-0.2-1.2-0.2c0.1,0.1,0.3,0.1,0.4,0.2c-2.1-0.3-3.9-2.2-4.5-4.3c-0.7-2.4-0.4-5-0.3-7.5c0-0.2,0-0.5-0.2-0.6
			c-0.1-0.1-0.4-0.1-0.6-0.1c-1.2,0-2.4,0-3.6,0l-0.6,0.2c-0.6-0.7-1.1-1.4-1-2.3c0.2-1.1,1.5-2.1,1-3.1c-0.2-0.1-0.4-0.1-0.6,0
			c-0.1-0.5,0.4-0.9,0.9-1.2c0.8-0.4,1.5-0.8,2.3-1.3c0.2-0.1,0.5-0.3,0.7-0.3c0.4-0.1,0.7-0.1,1.1-0.2
			C365.6,178.9,366.2,178.9,366.7,178.9z"/>
		<path class="st21" d="M379.9,400.8c0.5,1.7,1,3.4,1.5,5.1L381,406h-27l-1.9-0.6l1.5-4.9l1.5,0.4h24L379.9,400.8z"/>
		<path class="st16" d="M379.9,400.8L379,401h-24l-1.5-0.4l7.5-24.9l1,0.3h10.8C375.1,384.2,377.5,392.5,379.9,400.8z"/>
		<path class="st3" d="M371.6,199.1c0.1-0.6-0.2-1.2-0.7-1.6c-0.7-0.5-1.8-0.3-2.4-0.9c-0.6-0.6-0.4-1.6,0.2-2.2
			c0.6-0.6,1.5-0.7,2.3-0.7c3.3-0.1,6.5,2.1,7.7,5.1c0.2,0.9,0.3,1.8,0.2,2.7v0.1c-1.9,0-3.8,0.3-5.6,0.8c-0.2-1.2-1-2.2-2.1-2.6
			c0,0,0,0,0,0c0,0,0.1,0,0.1,0C371.5,199.6,371.6,199.3,371.6,199.1z"/>
		<path class="st17" d="M367.5,352.6c-0.2,0.7-0.4,1.9-0.8,3.3c-0.3,1.2-0.6,2.6-0.9,3.8l-4.8,15.9l-7.5,24.9l-1.5,4.9l-5.6,18.8
			c-0.9-3.1-1.8-6.1-2.7-9.2l2.7-8.9l1.6-5.1l7.6-24.8l0.4-1.2l0-0.7c0,0,0,0,0.1,0c0.2,0,0.5-0.1,0.6-0.2c0.2-0.2,0.2-0.4,0.3-0.6
			c0.2-0.3,0.6-0.4,0.9-0.4c4.6-0.7-5.8,0.1-1.4-1.5c0.5-0.2,1.1-0.5,1-1c0-0.3,1.3-0.8,1-1c-0.6-0.4-0.9-0.6-0.9-0.7
			c0.3,0.1-0.1-0.1,0,0c-0.1,0-0.5-0.1-1.1-0.3c-1.4-0.4,3.4-0.8,2-1c-1-0.2-1.6-0.3-2.2-0.3l0-1.5c0.5,0,1,0,1.5,0
			c0.2,0,0.4,0,0.6-0.1c0.3-0.2,0.3-0.5,0.3-0.8c0-1.5,0-3,0-4.6v-0.5c1,0,2.1,0,3.1,0c0.9-2.4,1.4-4.9,1.5-7.5l0.3,0
			c2.6-0.4,5.4-0.2,7.9,0.6c0.5,0.1,0.9,0.3,1.3,0.6c0.3,0.3,0.5,0.7,0.4,1.1c-0.1-0.2-0.1-0.4-0.2-0.6l-0.1,0
			c0-0.4-0.6-0.7-1.1-0.8C370.4,352.9,368.9,352.7,367.5,352.6z"/>
		<path class="st16" d="M365.8,359.8c0.3-1.3,0.6-2.6,0.9-3.8l0.3,0.1c1.9,6.6,3.8,13.3,5.8,20H362l-1-0.3L365.8,359.8z"/>
		<path class="st3" d="M361.3,698.9c-1,0.7-2.1,1.2-3.3,1.6c-4.5,1.6-9.7,3.2-13.8,0.7c-0.9-0.5-1.7-1.3-2-2.2
			c-0.1-0.3-0.2-0.6-0.2-1c0-0.8,0.3-1.5,0.7-2.2c1.7-3.4,3.3-6.8,5-10.3l0-0.5c5.7,0.2,11.4,0.3,17,0.5c1.2,0,2.4,0.1,3.5-0.2
			l0.1,0.5c-1.6,3.3-3.2,6.5-4.8,9.8c-0.5,0.9-0.9,1.9-1.7,2.7C361.7,698.5,361.5,698.7,361.3,698.9z"/>
		<path class="st3" d="M366.7,178.7l0,0.1c-0.5,0-1.1,0.1-1.6,0.1c-0.4,0-0.7,0-1.1,0.2c-0.2,0.1-0.5,0.2-0.7,0.3
			c-0.8,0.4-1.5,0.8-2.3,1.3c-0.5,0.3-1,0.7-0.9,1.2c-1.6,0.1-2.8,2.3-4.5,2.3c-0.9,0-1.8-0.7-2.2-1.5c-0.4-0.8-0.6-1.8-0.6-2.7
			c-0.2-2.4-0.1-4.8,0.1-7.2c0.1-0.8,0.3-1.7,0.9-2.2c0.4-0.3,1-0.4,1.5-0.5c2.8-0.5,5.6-0.9,8.4-1.4c-0.2,0.2-0.5,0.4-0.8,0.5
			c-0.2,0.1-0.4,0.2-0.6,0.4c-0.2,0.2-0.2,0.5-0.2,0.8c-0.2,2.8,0.1,5.6,0.9,8.2C364.3,178.7,365.5,178.8,366.7,178.7z"/>
		<path class="st2" d="M365.5,706.4c0.1,5.9,0.3,11.7,0.4,17.6c-4.5,1.3-9.2,1.8-13.9,1.5c0.5-1.9-1.3-3.9-3.2-4.3
			c-1.9-0.5-4,0.1-5.9,0.6c-17.2,4.6-35.4,5.5-53,2.7c-0.5-2.7,1.5-5.4,3.9-6.6c2.4-1.3,5.2-1.5,8-1.9c14.6-1.9,28.6-7.8,40.2-16.8
			l0.4-0.1c0.4,0.9,1.2,1.7,2,2.2c4.1,2.4,9.3,0.9,13.8-0.7c1.1-0.4,2.3-0.8,3.3-1.6c1.2,0.1,2.4,1,3,2
			C365.4,702.5,365.4,704.5,365.5,706.4z"/>
		<path class="st0" d="M321.2,360.7C321.2,360.7,321.1,360.7,321.2,360.7c-0.8-2.5-0.8-5.1-0.6-7.8c0.1-1.1,0.2-2.1,0.3-3.2
			c0.3-2.5,0.6-5,0.9-7.4c1.1-9,2.1-18,3.2-27c2.1-17.8,4.2-35.6,4.7-53.5c0-1.8,0.1-3.6,0.1-5.5c0.1,0.1,0.2,0.3,0.3,0.4l0.3,0.5
			c1.9,0.2,3.8-0.2,5.5-1c0.3-0.2,0.7-0.3,0.9-0.7c0.2-0.4,0.2-0.8,0.1-1.2c0-0.3-0.1-0.5-0.1-0.8c1.2,0.5,2.5,0.5,3.8,0.5
			c6.4-0.1,12.9-0.3,19.4-0.7c1.4,4.5,2.8,9,3.4,13.7c0.3,2.5,0.5,5,0.6,7.5c0.4,8.4,0.9,16.9,1.4,25.3c0.1,2.4,0.3,4.9,0.2,7.3
			c-0.1,1.6-0.2,3.2-0.4,4.8c-0.1,1.1-0.2,2.1-0.3,3.2c-0.4,4.5-0.9,9-1.3,13.5c0,0.4-0.1,0.8-0.1,1.2c-0.4,4.5-0.7,9-0.4,13.4
			c0.1,2.2,0.5,4.4,0.5,6.6c0,0.8,0,1.6-0.1,2.4c-0.2,2.6-0.7,5.1-1.5,7.5c-1,0-2.1,0-3.1,0c-1.6,0-3.1,0-4.7,0
			c-0.3,0-0.5,0-0.8-0.1c0,0,0-0.1,0-0.1c0,0.1,0,0.1,0,0.1c-0.1,0-0.3-0.1-0.4-0.1c-0.5-0.3-0.8-0.8-1-1.3
			c-1.3-3.1-1.6-6.6-1.9-9.9c-0.6-7.3-1.2-14.7-1.8-22c-0.7-8-1.3-15.9-2-23.9c-2,2.9-3,6.3-4.1,9.6c-1.8,5.8-3.6,11.6-5.4,17.4
			c-3.1,10.3-6.1,20.7-9.1,31c0,0-0.1,0-0.1,0c-0.3,0-0.6,0-1,0C324.7,360.6,322.9,360.6,321.2,360.7z"/>
		<path class="st2" d="M350,161.4c1.3-1,3.1-1,4.7-0.7c1.7,0.3,3.3,0.9,5,0.8c0.7,0,1.5-0.2,2.2-0.1c1.7,0.1,3.2,1.7,3.4,3.4
			c0.2,1.4-0.5,2.9-1.6,3.8c-2.8,0.5-5.6,0.9-8.4,1.4c-0.5,0.1-1.1,0.2-1.5,0.5c-0.6,0.5-0.8,1.4-0.9,2.2c-0.3,2.4-0.3,4.8-0.1,7.2
			c0.1,0.9,0.2,1.9,0.6,2.7c0.4,0.8,1.3,1.5,2.2,1.5c1.7,0,3-2.1,4.5-2.3c0.2,0,0.4,0,0.6,0c0.5,1-0.8,2-1,3.1
			c-0.1,0.9,0.4,1.6,1,2.3c0.5,0.6,1.1,1.3,1.4,2c0.4,1.3-0.2,2.7-1.4,3.4c-1.1,0.6-2.6,0.5-3.8-0.1l-1.4-0.5c-0.2,0-0.3,0-0.5,0
			c-1.3-0.2-2.7-0.3-3.7-1.1c-1.7-1.2-2.1-3.5-2.3-5.5c-0.2-2.6-0.2-5.3,0.1-7.9c0.2-1.3,0.3-2.8-0.7-3.8c-0.8-0.8-2.1-0.7-3.1-0.2
			c-0.3,0.2-0.6,0.4-0.8,0.7c-0.7,1-0.3,2.3-0.1,3.5c0.6,2.5,0.6,5,0,7.5c0,0.2-0.1,0.3-0.1,0.4l-1,0.2c-0.1-0.1-0.1-0.2-0.2-0.2
			c-1-1.5-1.4-3.4-1.6-5.2c-0.8-5.1-1.4-11,1.9-15c1.6-1.9,3.9-3.1,6.2-4.3C349.8,161.3,349.9,161.3,350,161.4z"/>
		<path class="st3" d="M353.3,359.8C353.3,359.8,353.3,359.7,353.3,359.8c0.3,0,0.5,0,0.8,0c1.6,0,3.1,0,4.7,0v0.5c0,1.5,0,3,0,4.6
			c0,0.3,0,0.7-0.3,0.8c-0.2,0.1-0.4,0.1-0.6,0.1c-0.5,0-1,0-1.5,0c-0.5,0-1,0-1.5,0c-0.5,0-1.1,0-1.5,0.2l-0.2-0.6
			C352.9,363.5,352.9,361.6,353.3,359.8z"/>
		<path class="st2" d="M356.3,367.2c0.6,0,1.2,0.1,2.2,0.3c1.4,0.2-3.4,0.6-2,1c0.6,0.2,0.9,0.3,1.1,0.3c0.1,0.1,0.3,0.3,0.9,0.7
			c0.3,0.2-1,0.7-1,1c0.1,0.5-0.5,0.8-1,1c-4.4,1.6,6,0.8,1.4,1.5c-0.4,0-0.7,0.1-0.9,0.4c-0.1,0.2-0.2,0.5-0.3,0.6
			c-0.2,0.2-0.4,0.2-0.6,0.2c0,0,0,0-0.1,0c-1.1,0.1-2.3,0-3.4-0.3c-0.3-0.1-0.7-0.3-0.9-0.6c-0.2-0.3-0.2-0.6-0.1-0.9
			c0-0.1,0-0.3,0-0.4c0.1-1.6,0.3-3.1,0.7-4.6c0.1-0.4,0.2-0.8,0.5-1.1c0.2-0.2,0.4-0.3,0.6-0.4c0.5-0.2,1-0.2,1.5-0.2
			c0.5,0,1,0,1.5,0L356.3,367.2z"/>
		<path class="st2" d="M357.6,368.8C357.5,368.7,357.9,368.9,357.6,368.8L357.6,368.8z"/>
		<path class="st3" d="M344.4,185.2c0.6-2.4,0.6-5,0-7.5c-0.3-1.2-0.6-2.5,0.1-3.5c0.2-0.3,0.5-0.5,0.8-0.7c1-0.5,2.3-0.5,3.1,0.2
			c1,0.9,0.8,2.4,0.7,3.8c-0.3,2.6-0.3,5.3-0.1,7.9c0.2,2.1,0.7,4.3,2.3,5.5c1.1,0.8,2.4,0.9,3.7,1.1c0.2,0,0.3,0,0.5,0l1.4,0.5
			c0,0.8,0.1,1.5,0.1,2.3l-0.9,0.3c-2.6,1.7-6.1,2.5-8.8,0.9c-0.9-0.5-1.7-1.3-2.5-2.2l-0.4,0.1c-0.5-2.1,0.9-4.6-0.1-6.6
			c-0.3-0.6-0.7-1.1-1.1-1.6l1-0.2C344.4,185.5,344.4,185.4,344.4,185.2z"/>
		<path class="st17" d="M356,374.3l0,0.7l-0.4,1.2L355,376h-22.7c-0.1-0.3-0.2-0.7-0.3-1l0-0.8c1.2,0.1,2.4,0.1,3.6,0.2
			c0.8,0,1.7,0.1,2.4-0.2c0.8-0.3,1.5-0.9,1.5-1.8c0-0.1,0-0.2,0-0.4l1.4-0.1h10l0.5,0c0,0.1,0,0.3,0,0.4c0,0.3,0,0.6,0.1,0.9
			c0.2,0.3,0.6,0.5,0.9,0.6C353.6,374.3,354.8,374.4,356,374.3z"/>
		<path class="st16" d="M355.6,376.2L348,401l0,0h-8.4c-2.4-8.3-4.9-16.7-7.4-25H355L355.6,376.2z"/>
		<path class="st16" d="M353.1,365.3l0.2,0.6c-0.2,0.1-0.4,0.2-0.6,0.4c-0.3,0.3-0.4,0.7-0.5,1.1c-0.4,1.5-0.6,3.1-0.7,4.6l-0.5,0
			h-10l-1.4,0.1c-0.2-1.1-1.5-1.9-2.7-2.3c-2.6-1-5.3-2-8-2.3l0.1-0.5l-1.6-6.5c0,0,0.1,0,0.1,0c3-10.3,6-20.7,9.1-31l0.1,0
			c1.2-0.3,2.1-1.3,3.2-2c2-1.4,4.7-1.8,7-1.2l1.1-0.1c0.6,7.3,1.2,14.7,1.8,22c0.3,3.4,0.6,6.8,1.9,9.9c0.2,0.5,0.5,1.1,1,1.3
			c0.1,0.1,0.3,0.1,0.4,0.1c0,0,0,0,0,0.1C352.9,361.6,352.9,363.5,353.1,365.3z"/>
		<path class="st1" d="M352.1,489.5c0.2,1.1,0.4,2.4-0.3,3.3c-0.4,0.5-1.1,0.7-1.7,0.9c-5.7,1.9-11.2,4.5-16.3,7.6
			c-2.7,1.7-5.3,3.5-7.2,6c-3,3.8-4.2,8.7-4.3,13.5c-0.1,4.7,0.9,9.3,1.9,13.9c-3.2,0-6.5,0.3-9.7,0.8l-1.5-0.5l12.4-41.2l1.4,0.4
			c5.5-7.6,11.1-15.1,16.6-22.7V471c1.1,0,2.2,0,3.3,0l2.8-0.1C350.1,477.1,350.9,483.3,352.1,489.5z"/>
		<path class="st1" d="M349.5,470.9l-2.8,0.1c-1.1,0-2.2,0-3.3,0c-2.9,0-5.8,0-8.7,0l-2.2-0.6l10.3-34.3c2.1,7,4.3,14,6.4,21
			l-0.2,0.1c-0.6,0.6-0.6,1.6-0.5,2.4C348.8,463.4,349.1,467.1,349.5,470.9z"/>
		<path class="st6" d="M346.1,302.4c0.7,8,1.3,15.9,2,23.9l-1.1,0.1c-2.4-0.6-5-0.2-7,1.2c-1,0.7-2,1.6-3.2,2l-0.1,0
			c1.8-5.8,3.5-11.6,5.4-17.4C343,308.7,344.1,305.3,346.1,302.4z"/>
		<path class="st17" d="M348,401l-1.6,5.1L346,406h-4.9c-0.5-1.7-1-3.3-1.5-5L348,401L348,401z"/>
		<path class="st16" d="M346.5,406.1l-2.7,8.9c-0.9-3-1.8-6-2.6-9h4.9L346.5,406.1z"/>
		<path class="st17" d="M346.4,424.2l-3.6,11.9c-0.9-3-1.8-6-2.8-9.1l3.7-12C344.6,418.1,345.5,421.1,346.4,424.2z"/>
		<path class="st21" d="M343.8,415l-3.7,12c-0.7-2.2-1.3-4.3-2-6.5c-1.5-4.9-3-9.7-4.4-14.6h7.4C342,409,342.9,412,343.8,415z"/>
		<path class="st1" d="M343.4,471v0.7c-5.5,7.6-11.1,15.1-16.6,22.7l-1.4-0.4l7.1-23.6l2.2,0.6C337.6,471,340.5,471,343.4,471z"/>
		<path class="st17" d="M257.5,719.5c-0.1,0.9-0.2,1.9-1,2.3c-0.3,0.2-0.7,0.2-1,0.2c-1.3,0-2.5,0-3.8,0c-0.3,0-0.6,0-0.8-0.2
			s-0.3-0.5-0.3-0.7c-0.1-0.5-0.1-1-0.1-1.6h0l4.1-13.5l1.8-5.9l7.8-25.4l1.4-4.5L273,646l1.5-4.8l8.6-28.1l1.5-4.9l7.7-25.1
			l1.5-4.9l7.7-25.1l1.6-5.1l3.7-12.2l3.9-12.7l1.6-5.1l2.9-9.4l4.7-15.5l1.6-5.1l5.3-17.1l2.1-6.8l1.6-5.1l7.7-25.1l1.5-4.9
			l0.6-2.1c0.9,3,1.8,6,2.8,9.1l-10.3,34.3l-7.1,23.6L313,535.1l-55.2,183.3C257.6,718.7,257.5,719.1,257.5,719.5
			C257.5,719.5,257.5,719.5,257.5,719.5z"/>
		<path class="st17" d="M339.6,401c0.5,1.7,1,3.3,1.5,5h-7.4c-0.5-1.7-1-3.3-1.5-5H339.6z"/>
		<path class="st1" d="M338.1,420.6c0.7,2.1,1.3,4.3,2,6.5l-0.6,2.1L339,429h-36l-0.5-0.2c2.4-7.7,4.7-15.3,7.1-23l0.5,0.1h5.6v1
			c0.2,1.6,1.4,3,2.8,3.9c1.4,0.9,3,1.4,4.5,2c5.1,2,9.8,5,14.4,7.9L338.1,420.6z"/>
		<path class="st21" d="M339.6,401h-7.5c-2.5-8.4-5.1-16.7-7.6-25h7.7C334.8,384.3,337.2,392.7,339.6,401z"/>
		<path class="st2" d="M324,374.2c-0.1,0.1-0.3,0.2-0.4,0.4c-0.1,0.2-0.2,0.5-0.4,0.6c-0.2,0.1-0.4,0.1-0.6,0.1
			c-1.2,0-2.5-0.1-3.7-0.3c-0.2,0-0.3-0.1-0.5-0.1c-0.1-2,0-4,0.1-6c0.1-1.2,0.4-2.6,1.6-2.9c0.2-0.1,0.5-0.1,0.7-0.1
			c0.1,0,0.2,0,0.3,0l0,0.5c1.4,0.5,3,0.8,4.5,0.8c0,0,0-0.1,0-0.1c0.9,0.1,1.8,0.1,2.6,0.2c0.2,0,0.4,0,0.5,0.1
			c2.8,0.4,5.4,1.4,8,2.3c1.1,0.4,2.5,1.1,2.7,2.3c0,0.1,0,0.2,0,0.4c-0.1,0.8-0.8,1.5-1.5,1.8c-0.8,0.3-1.6,0.2-2.4,0.2
			c-1.2-0.1-2.4-0.1-3.6-0.2c-2.1-0.1-4.1-0.2-6.2-0.3C325.2,373.9,324.5,373.9,324,374.2z"/>
		<path class="st17" d="M339.4,429.1l-1.5,4.9H302l-1-0.3c0.5-1.6,1-3.2,1.5-4.9l0.5,0.2h36L339.4,429.1z"/>
		<path class="st16" d="M338.1,420.6l-0.9,0.3c-4.6-3-9.3-5.9-14.4-7.9c-1.5-0.6-3.1-1.1-4.5-2c-1.4-0.9-2.5-2.3-2.8-3.9v-1h18.1
			C335.1,410.9,336.6,415.7,338.1,420.6z"/>
		<path class="st1" d="M337.9,434l-7.7,25.1L330,459h-36l-0.7-0.2c2.6-8.4,5.1-16.8,7.7-25.1l1,0.3H337.9z"/>
		<path class="st17" d="M333.7,406h-18.1H310l-0.5-0.1c0.5-1.7,1-3.4,1.6-5.1l0.9,0.3h20.2C332.7,402.7,333.2,404.3,333.7,406z"/>
		<path class="st17" d="M332,375c0.1,0.3,0.2,0.7,0.3,1h-7.7c-0.2-0.6-0.4-1.2-0.6-1.8c0.5-0.3,1.2-0.3,1.8-0.3
			c2.1,0.1,4.1,0.2,6.2,0.3L332,375z"/>
		<path class="st16" d="M324.6,376c2.5,8.3,5,16.6,7.6,25H312l-0.9-0.3c2.6-8.6,5.3-17.2,7.9-25.7v0c1.2,0.2,2.4,0.3,3.7,0.3
			c0.2,0,0.4,0,0.6-0.1c0.2-0.1,0.3-0.4,0.4-0.6c0.1-0.2,0.2-0.3,0.4-0.4C324.2,374.8,324.4,375.4,324.6,376z"/>
		<path class="st17" d="M330.3,459.1l-1.6,5.1L328,464h-36l-0.2-0.1c0.5-1.7,1-3.4,1.6-5.1l0.7,0.2h36L330.3,459.1z"/>
		<path class="st6" d="M329.2,261.8l0.5,0c-0.5,17.9-2.6,35.8-4.7,53.5c-1.1,9-2.1,18-3.2,27l-0.7-0.1c-3.3-2.4-6.6-4.6-10.1-6.7
			l0.7-1.2c-4.3-7.5-8.7-15.1-13-22.7c7.5-10.7,13.9-22.1,20.2-33.5c3-5.4,6-10.8,9-16.1l0.7-0.7C329,261.5,329.1,261.6,329.2,261.8
			z"/>
		<path class="st21" d="M327.4,360.5l1.6,6.5l-0.1,0.5c-0.2,0-0.4-0.1-0.5-0.1c-0.9-0.1-1.7-0.1-2.6-0.2c0.4-2.1,0.6-4.3,0.6-6.4
			l0-0.2C326.7,360.5,327.1,360.5,327.4,360.5z"/>
		<path class="st6" d="M328.8,261.3l-0.7,0.7c-3,5.4-6,10.8-9,16.1c-6.4,11.4-12.8,22.8-20.2,33.5c-17.9-31.5-35.6-63.1-53-94.9
			c0.1-0.1,0.2-0.3,0.3-0.4c0.3-0.4,0.6-0.8,1.1-1c0.4-0.2,0.9-0.2,1.4-0.2c11.3,0,22.6,3.1,32.8,8.1c10.2,4.9,19.5,11.6,28.1,19
			C316.3,248.2,322.8,254.6,328.8,261.3z"/>
		<path class="st1" d="M328.7,464.2l-2.1,6.8l-2.6-0.8c-10.6,0.7-21.3,0.9-32,0.9l-2.2-0.7c0.7-2.1,1.3-4.3,2-6.4l0.2,0.1h36
			L328.7,464.2z"/>
		<path class="st1" d="M326.6,471l-5.3,17.1L321,488h-36l-0.5-0.2c1.8-5.8,3.6-11.6,5.3-17.5l2.2,0.7c10.7,0.1,21.3-0.2,32-0.9
			L326.6,471z"/>
		<path class="st3" d="M325.8,367.2C325.8,367.2,325.8,367.2,325.8,367.2c-1.5,0.1-3.1-0.1-4.5-0.7l0-0.5c-0.1,0-0.2,0-0.3,0l0-0.5
			c0.1-1.6,0.2-3.2,0.3-4.8c1.8,0,3.5-0.1,5.2-0.2l0,0.2C326.4,362.9,326.2,365,325.8,367.2z"/>
		<path class="st4" d="M318.7,353.3c0,0.1,0,0.1,0.1,0.2c0,0,0.1-0.1,0.1-0.1l-13.8,45l-2.6-0.8c-1.8-1.2-3.6-2.3-5.4-3.5
			c-16.1-10.3-33.1-19.1-50.3-27.5l0.8-1.6c-0.2-19.6-1.2-39.1-2.8-58.6l0-0.2c4.8,1,9.6,2,14.2,3.5c4.4,1.5,8.7,3.5,12.9,5.5
			c13.3,6.3,26.7,12.6,39.2,20.4c3.4,2.1,6.8,4.3,10.1,6.7l0.7,0.1c-0.3,2.5-0.6,5-0.9,7.4c-0.1,1.1-0.2,2.1-0.3,3.2l-0.9-0.1
			c0.1-0.1,0.2-0.1,0.4-0.1c-0.4,0.1-0.8,0.2-1.1,0.4C318.9,353.2,318.8,353.3,318.7,353.3z"/>
		<path class="st17" d="M321.4,488.1l-1.6,5.1L319,493h-36l-0.1,0c0.5-1.7,1-3.4,1.6-5.1l0.5,0.2h36L321.4,488.1z"/>
		<path class="st17" d="M218,706c-1.2,4-2.4,7.9-3.6,11.9l-0.1,0.1c-0.4,1.2-1.5,2.2-2.8,2.6c-1.3,0.3-2.7,0-3.7-0.9l-0.1-0.7
			c-0.1-1-0.1-2,0.1-3l0.1,0l56.7-185.5l17.5-57.1h0l19.3-63l3.7-12l13.8-45c0,0,0,0,0,0c0.2-0.2,0.5-0.4,0.8-0.5l0.9,0.1
			c-0.2,2.6-0.2,5.3,0.5,7.8c0,0,0,0,0,0c-0.1,1.6-0.2,3.2-0.3,4.8l0,0.5c-0.2,0-0.5,0-0.7,0.1c-1.1,0.3-1.5,1.7-1.6,2.9
			c-0.1,2-0.2,4-0.1,6c0.2,0,0.3,0.1,0.5,0.1v0c-2.6,8.6-5.3,17.1-7.9,25.7c-0.5,1.7-1,3.4-1.6,5.1c-2.4,7.7-4.7,15.3-7.1,23
			c-0.5,1.6-1,3.2-1.5,4.9c-2.5,8.4-5.1,16.7-7.7,25.1c-0.5,1.7-1,3.4-1.6,5.1c-0.7,2.1-1.3,4.3-2,6.4c-1.8,5.8-3.6,11.6-5.3,17.5
			c-0.5,1.7-1.1,3.4-1.6,5.1c-2.5,8.3-5.1,16.6-7.6,24.8c-0.5,1.7-1,3.4-1.6,5.1c-0.9,2.9-1.8,5.8-2.7,8.7
			c-1.6,5.4-3.3,10.7-4.9,16.1c-0.5,1.7-1.1,3.4-1.6,5.1c-2.5,8.4-5.1,16.7-7.7,25.1c-0.5,1.6-1,3.2-1.5,4.9
			c-2.5,8.4-5.1,16.7-7.6,25.1c-0.5,1.6-1,3.2-1.5,4.9c-2.9,9.4-5.7,18.8-8.6,28.1c-0.5,1.6-1,3.2-1.5,4.9
			c-2.5,8.1-4.9,16.1-7.4,24.2c-0.4,1.4-0.9,2.8-1.3,4.3c-2.6,8.6-5.2,17.2-7.8,25.7C219.2,702,218.6,704,218,706z"/>
		<path class="st1" d="M319.8,493.2l-4.7,15.5l-0.2-0.1c-3,2.1-5.6,4.9-7.2,8.2v1.2H276l-0.7-0.2c2.5-8.3,5.1-16.5,7.6-24.8l0.1,0
			h36L319.8,493.2z"/>
		<path class="st1" d="M315,508.7l-2.9,9.4L312,518h-4.4v-1.2c1.7-3.3,4.2-6.1,7.2-8.2L315,508.7z"/>
		<path class="st17" d="M312.2,518.1l-1.6,5.1L310,523h-5.3H274l-0.3-0.1c0.5-1.7,1-3.4,1.6-5.1l0.7,0.2h31.6h4.4L312.2,518.1z"/>
		<path class="st6" d="M298.9,311.7c4.3,7.6,8.6,15.1,13,22.7l-0.7,1.2c-12.5-7.8-25.9-14.1-39.2-20.4c-4.2-2-8.4-4-12.9-5.5
			c-4.6-1.5-9.4-2.5-14.2-3.5c-2.7-0.6-5.4-1.2-8.1-2c-4.8-1.4-9.5-3.4-14.4-4.5c-0.1,0-0.2-0.1-0.3-0.1l0.1-0.4
			c-0.6-5.4-0.6-10.9-0.1-16.3c1.1-10.3,4.4-20.3,7.7-30.1c1.6-5,3.3-9.9,5-14.9c1.3-4,2.7-8,4.7-11.7c1.8-3.3,4.2-6.4,6.5-9.3
			C263.2,248.6,280.9,280.2,298.9,311.7z"/>
		<path class="st1" d="M310.6,523.2l-3.9,12.7l-0.6-0.2c-3.3-0.1-6.5-0.2-9.8-0.4l0.1-1.7c2.1-3.7,5-7.1,8.2-9.8V523h5.3
			L310.6,523.2z"/>
		<path class="st4" d="M305.1,398.4l-3.7,12l-0.8-0.2c-9.1,0.6-18.1,1.7-27,3.3c-2,0.3-3.9,0.7-5.7,1.5c-1.7,0.7-3.2,1.8-4.9,2.7
			c-2.6,1.3-5.5,1.9-8.3,2.6c-11.5,3.1-21.9,9.5-32,16l-0.4-0.6c-4.8-2.7-9.5-5.4-14.1-8.3c31.2-4.7,57.7-26,88.6-32.9l0.3-0.4
			c1.8,1.1,3.6,2.3,5.4,3.5L305.1,398.4z"/>
		<path class="st1" d="M304.7,523v0.7c-3.3,2.8-6.1,6.1-8.2,9.8l-0.1,1.7c-8.3-0.6-16.5-1.7-24.6-3.4l-0.6-0.2
			c0.9-2.9,1.8-5.8,2.7-8.7l0.3,0.1H304.7z"/>
		<path class="st17" d="M303,548l-1.6,5.1L301,553h-36l-0.4-0.1c0.5-1.7,1.1-3.4,1.6-5.1l0.8,0.3L303,548L303,548z"/>
		<path class="st1" d="M301.5,410.4l-19.3,63h0l-2.8-0.9c-29.1,0.8-58.2,1.6-87.3,2.4l-0.3,0c0.5-3.8,2.7-7.1,4.9-10.2
			c3.2-4.6,6.4-9.2,9.6-13.9c1.1-1.6,2.2-3.1,3.4-4.5c2.9-3.4,6.7-5.8,10.4-8.3c0.9-0.6,1.9-1.2,2.8-1.8c10.1-6.5,20.4-12.9,32-16
			c2.8-0.8,5.7-1.3,8.3-2.6c1.7-0.8,3.2-1.9,4.9-2.7c1.8-0.8,3.8-1.2,5.7-1.5c8.9-1.6,17.9-2.6,27-3.3L301.5,410.4z"/>
		<path class="st4" d="M297.1,394.1l-0.3,0.4c-30.9,6.8-57.4,28.2-88.6,32.9c-15.3-9.5-29.7-20.5-41.5-34
			c-15.4-17.6-26.3-40-26.9-63.4c-0.1-6.2,0.4-12.3,1-18.5c0.1-0.6,0.1-1.1,0.2-1.7c32.5,23.4,69.7,39.2,105.8,56.9
			C264.1,375,281,383.8,297.1,394.1z"/>
		<path class="st17" d="M293.8,578.2l-1.5,4.9L292,583h-36l-0.6-0.2c0.5-1.6,1-3.2,1.5-4.9l0.1,0h36L293.8,578.2z"/>
		<path class="st17" d="M284.6,608.2l-1.5,4.9l-0.1,0h-36l-0.7-0.2c0.5-1.6,1-3.2,1.5-4.9l0.2,0.1h36L284.6,608.2z"/>
		<path class="st1" d="M282.2,473.4l-17.5,57.1l-2.8-0.9c-14.5-3.4-28.3-9.8-40.1-18.8c-6.8-5.2-12.9-11.1-19.2-16.9
			c-5.5-5.1-11.7-11.3-10.9-18.7c0-0.1,0-0.2,0-0.2l0.3,0c29.1-0.8,58.2-1.6,87.3-2.4L282.2,473.4z"/>
		<path class="st17" d="M274.5,641.2L273,646h0h-36l-0.7-0.2c0.5-1.6,1-3.2,1.5-4.9l0.2,0.1h36L274.5,641.2z"/>
		<path class="st17" d="M265.6,670.2l-1.4,4.5l-0.7-0.2h-35l-0.9-0.3c0.4-1.4,0.9-2.8,1.3-4.3l0.1,0h36L265.6,670.2z"/>
		<path class="st17" d="M256.4,700.1l-1.8,5.9H218c0.6-2,1.2-4,1.8-6.1l0.2,0.1h36L256.4,700.1z"/>
		<path class="st4" d="M247.6,365l-0.8,1.6c-36.1-17.6-73.2-33.5-105.8-56.9c0.3-1.7,0.8-3.4,2.2-4.4c0.9-0.7,2.1-0.9,3.3-1.1
			c18.6-3.4,37.4-5.4,56.3-5.9c6.3-0.2,12.8-0.2,19,1.2c0.1,0,0.2,0,0.3,0.1c4.9,1.1,9.6,3.1,14.4,4.5c2.7,0.8,5.4,1.4,8.1,2l0,0.2
			C246.4,325.9,247.4,345.4,247.6,365z"/>
		<path class="st10" d="M199.2,511.8c0.2,1.2-0.6,2.4-0.6,3.7c-0.2-0.2-0.3-0.4-0.5-0.5c-1.3-1.3-2.5-2.7-3.5-4.3
			c-1-1.6-1.6-3.5-1.4-5.4c0-0.2,0.1-0.4,0.1-0.6l0.3-0.3c1.9,1.6,3.6,3.6,4.9,5.8C198.8,510.6,199.1,511.2,199.2,511.8z"/>
		<path class="st10" d="M198.1,515l-0.6,0.5c-1.6,1-3.2,2-4.8,2.9L191,519c-0.9-2.3-2.3-4.7-4.5-5.8c-1.5-0.8-3.6-0.6-4.9,0.4
			l-0.1-0.1c3.8-2.7,7.6-5.9,11.3-8.2l0.5,0.1c-0.2,1.9,0.5,3.8,1.4,5.4C195.6,512.3,196.9,513.6,198.1,515z"/>
		<path class="st3" d="M185.9,525.7L185.9,525.7c-0.2-1.6-1.3-2.9-2.4-4.2c-1.8-2-3.8-3.8-3.2-6.2c0.2-0.7,0.7-1.3,1.3-1.8
			c1.3-1,3.4-1.1,4.9-0.4c2.2,1.1,3.5,3.5,4.5,5.8c3.8,9.4,3.6,19.9,3.3,30.1c-0.1,3.7-0.3,7.6-2.1,10.9c-1.1,1.9-2.7,3.5-4.6,4.7
			l-0.1-0.1c-1-4.5-4.1-11.4-8-14l-0.2-0.5c0.3-0.1,0.5-0.2,0.8-0.3c0.9-0.4,1.7-1,2.5-1.5c0.8-0.6,1.6-1.2,1.9-2
			c0.2-0.7,0.2-1.4,0.1-2.1C184.4,537.9,186.9,531.7,185.9,525.7z"/>
		<path class="st22" d="M140.9,607.6c0,0.1,0,0.2,0,0.3c0,0-0.1,0-0.1,0c-0.8-11.9-1.3-23.9-1.3-35.8c0-2.9,0.1-6,1.6-8.5
			c1.5-2.5,4.2-3.9,6.2-6.1c0.8-0.9,1.5-2.1,1.8-3.3l0.5,0c2.3,0.2,4.7,0.1,7-0.1c0.7-0.1,1.4-0.2,1.9-0.5c1.9-0.3,3.9-0.7,5.8-1.1
			l0,0.2c3.6-0.6,7.1-1.1,10.7-1.7c0.6-0.1,1.3-0.2,1.9-0.3c0.8-0.2,1.6-0.4,2.4-0.7l0.2,0.5c3.9,2.6,7,9.5,8,14l0.1,0.1
			c-1.5,1-3.2,1.8-4.9,2.4c-3.8,1.3-7.8,2-11.7,3.2c-0.7,0.2-1.5,0.5-1.9,1.2c-0.5,0.7-0.4,1.6-0.4,2.4c0.8,10.6,1,21.2,0.6,31.8
			c0,0.4,0,0.9-0.3,1.2c-0.1,0.1-0.3,0.2-0.5,0.3c-0.3,0.1-0.5,0.1-0.8,0.1c-8.9,0.3-17.8,0.5-26.6,0.8
			C140.9,607.8,140.9,607.7,140.9,607.6z"/>
		<path class="st2" d="M186.4,714.2c0.5,0.8,0.7,1.9,0.2,2.7c-0.3,0.5-0.9,0.8-1.5,1c-1.4,0.5-2.8,0.4-4.3,0.4
			c-4-0.1-8.1-0.1-12.1-0.2c-1.3,0-2.5,0-3.7-0.5c-0.2-0.1-0.4-0.2-0.6-0.4c-0.2-0.2-0.2-0.5-0.3-0.8c-0.1-0.8-0.2-1.7,0.1-2.5
			c0.3-0.8,1-1.6,1.8-1.6l0.2,0c1.3-0.1,2.7-0.1,4.1-0.2c2.8-0.1,5.6-0.3,8.4-0.4c1.4-0.1,2.9-0.1,4.3,0.2S185.7,713,186.4,714.2z"
			/>
		<path class="st10" d="M158.8,527.6c3.2-2.1,7.7-4.4,10.7-6.1l0-0.4c3.3-0.2,6.5-2,8.3-4.8c0.1-0.2,0.3-0.5,0.2-0.8l0.5,0
			c1-0.6,2-1.3,3-2.1l0.1,0.1c-0.6,0.4-1.1,1-1.3,1.8c-0.6,2.4,1.4,4.2,3.2,6.2c-2.9,1-5.9,2.2-8.9,3.3c-1.4,0.5-2.9,1.1-4.4,1.6
			c-3.7,1.4-7.4,2.7-10.9,4l-1.8,0.1c-0.2-0.7-0.5-1.3-0.9-1.8l-0.4-0.7c0.4-0.2,0.7-0.5,1.1-0.7L158.8,527.6z"/>
		<path class="st5" d="M181.1,635.1c2.4,15.2,2.2,31.2-3,45.7c-0.8,2.1-1.6,4.2-2,6.4c-0.5,3.3,0.1,6.7-0.7,9.9
			c-0.7,2.9-2.5,5.6-2.7,8.6c0,0.6,0,1.3-0.4,1.9c-0.4,0.6-1.2,0.8-2,0.8c-0.2,0-0.4,0-0.6,0c-1.5-0.1-3-0.1-4.5-0.2
			c-0.1,0-0.1,0-0.2,0c-0.4,0-0.8-0.1-1.1-0.3c-0.4-0.4-0.5-1-0.5-1.6c0-13.3,1.1-26.6,3.3-39.8c0.6-3.9,1.4-7.8,1.2-11.8
			c-0.1-3.2-1-6.5-2.8-9.1c-0.4-0.6-0.9-1.2-1.4-1.7c-1-1.1-2.3-1.9-3.5-2.9c-10.3-8-17.4-20-19.4-32.9c8.9-0.3,17.8-0.5,26.6-0.8
			c0.3,0,0.6,0,0.8-0.1c1.4,4.3,4.8,7.5,7.2,11.3C178.8,623.4,180.2,629.3,181.1,635.1z"/>
		<path class="st3" d="M178.2,535.2c0.4,2.1,0.1,4.3-0.2,6.4c-0.3,3-0.7,6-1.1,9.1l0,0c-0.6,0.1-1.2,0.2-1.9,0.3
			c-3.6,0.6-7.2,1.1-10.7,1.7l0-0.2c0.1,0,0.3-0.1,0.4-0.1c1.5-0.3,3.2-0.9,3.9-2.3c0.3-0.6,0.3-1.3,0.4-2c0.2-3.6,0.5-7.1,0.9-10.7
			c0.2-1.8,0.5-3.6,0.8-5.4c0.3-1.5,0-2.8,0.1-4.3l-0.5-1.4c1.5-0.5,2.9-1.1,4.4-1.6l0.6,1.6C175.9,529.4,177.7,532.1,178.2,535.2z"
			/>
		<path class="st3" d="M178,515.5c0,0.3-0.1,0.6-0.2,0.8c-1.8,2.8-5,4.6-8.3,4.8c0,0-0.1,0-0.1,0l-0.3-0.5c-0.6-1.9,0.7-4,2.4-4.9
			s3.8-0.9,5.8-0.7c0.2,0,0.4,0,0.6,0.2C177.9,515.3,178,515.4,178,515.5z"/>
		<path class="st3" d="M170.4,708.4l0,0.9c-0.3,0.8-0.4,1.7-0.2,2.5l0,0.3c-1.4,0.1-2.7,0.1-4.1,0.2l-0.2,0l0-0.4
			c-0.8-0.7-1.1-1.8-1-2.8l0.1-1.1c0.1,0,0.1,0,0.2,0c1.5,0.1,3,0.2,4.5,0.2C170,708.4,170.2,708.4,170.4,708.4z"/>
		<path class="st0" d="M165.3,645.5l-0.6,0.1c-4.4,9.1-8.7,18.3-13.1,27.4c-0.6,1.3-1.2,2.6-1.9,3.9c-1.7,3.5-3.3,7-5,10.5
			c-2.6,5.4-5.2,10.9-7.8,16.3c-0.5,1-0.9,2-1.7,2.7c-0.7,0.7-1.6,1.1-2.5,1.3c-1.3,0.3-2.6,0.4-3.9,0.4c-0.5,0-1.1,0-1.6-0.1
			c-0.6-0.1-1.1-0.4-1.4-0.8c-0.6-0.8-0.4-1.9-0.1-2.8c2.2-9.3,4.5-18.7,8.5-27.4c1.1-2.4,2.4-4.8,3.4-7.3c1.6-4.1,2.5-8.6,4.2-12.7
			c0.7-1.8,1.6-3.5,2.2-5.3c2.2-7-0.6-14.5-2.1-21.8c-1.5-7.2-1.9-14.6-1-21.9c0,0,0,0,0.1,0c2,12.9,9.1,24.9,19.4,32.9
			c1.2,0.9,2.4,1.8,3.5,2.9C164.4,644.3,164.9,644.8,165.3,645.5z"/>
		<path class="st3" d="M158.6,553.6c-0.5,0.4-1.2,0.5-1.9,0.5c-2.3,0.2-4.7,0.3-7,0.1l-0.5,0c0.5-1.7,0.3-3.4-0.9-4.5
			c-0.2-0.2-0.4-0.3-0.5-0.4l1.7-0.2c1.2,0.7,2.9-0.6,2.9-2c0-1.5-1.1-2.8-2.4-3.7c-1.2-0.9-2.7-1.6-3.5-2.8
			c-0.9-1.2-0.9-3.3,0.3-4.1c2.3,0.6,4.6,1.3,6.9,1.9c0.9-2.3-2.5-4.3-2.3-6.7c0.2-2.1,2.9-2.8,4.7-3.8c0,0,0.1,0,0.1,0l0.4,0.7
			c0.4,0.5,0.7,1.1,0.9,1.8c0.4,1.1,0.6,2.2,1.4,3c0.4,0.4,0.9,0.7,1.4,1.1c2.4,2,2.6,5.7,2.5,8.9c0,0.5,0,1.1-0.3,1.6
			c-0.8,1.5-3.2,1.5-3.9,3c-0.7,1.7,1.3,3.8,0.2,5.2C158.8,553.4,158.7,553.5,158.6,553.6z"/>
		<path class="st2" d="M149.4,549.2l-1.7,0.2c-1.3-0.8-3.1-1-4.6-1.7c-2-1.1-3.1-3.4-3.9-5.6c-1.8-4.5-3.5-10.1-0.5-14
			c3.4-4.2,10.2-3.3,14.7-6.3c0.7-0.5,1.4-1.1,2.3-1.3c1.8-0.4,3.5,1.5,3.5,3.3c0,1.4-0.8,2.6-1.9,3.5c-0.3,0.3-0.7,0.5-1.1,0.7
			c0,0-0.1,0-0.1,0c-1.9,1-4.5,1.7-4.7,3.8c-0.3,2.4,3.2,4.4,2.3,6.7c-2.3-0.6-4.6-1.3-6.9-1.9c-1.3,0.8-1.2,2.8-0.3,4.1
			c0.9,1.2,2.3,2,3.5,2.8c1.2,0.9,2.4,2.2,2.4,3.7C152.3,548.6,150.6,549.9,149.4,549.2z"/>
		<path class="st2" d="M148.9,714.4c0.6,1.2,0.2,2.8-1,3.4c-0.4,0.2-1,0.3-1.5,0.3c-6.5,0.5-13.1,0.7-19.7,0.6c-0.3,0-0.6,0-0.8-0.2
			c-0.2-0.2-0.3-0.4-0.3-0.7c-0.2-1-0.3-2-0.3-3c0-0.4,0.1-0.8,0.3-1.1c0.3-0.5,0.9-0.7,1.5-0.8c0.2,0,0.5,0,0.7,0
			c1.9,0,3.9-0.1,5.8-0.1c0.1,0.1,0.2,0.2,0.3,0.2c0.3,0.1,0.7,0.1,1.1,0c2.3-0.3,4.6-0.5,6.9-0.8c1.3-0.1,2.6-0.3,3.9,0
			C147.1,712.5,148.4,713.3,148.9,714.4z"/>
		<path class="st3" d="M133.6,712.8c-1.9,0-3.9,0.1-5.8,0.1c-0.2,0-0.5,0-0.7,0L127,712c0.1-1.3,0.1-2.7,0.2-4l0,0
			c0.5,0.1,1.1,0.1,1.6,0.1c1.3,0,2.7-0.1,3.9-0.4l0.2,0.7c0.3,0.8,0,1.7,0,2.5C132.9,711.6,133.1,712.4,133.6,712.8z"/>
	</g>
	<g>
		<path class="st23" d="M502.2,136.3c0.1-0.4,0.6-0.6,1-0.7c3.3-1.2,6.7-2.4,10-3.6"/>
		<path class="st23" d="M539.5,127.3c-5.2,2.7-10.2,6-15.8,7.5"/>
		<path class="st23" d="M539.5,127.3c1.7,3.6,4.7,6.7,8.5,7c0.3,0,0.7,0,1-0.1c0.6-0.2,0.9-0.8,1.1-1.4c0.6-1.2,1.2-2.6,1-3.9
			c-0.3-2.2-2.5-3.6-4.6-3.8c-2.2-0.1-4.3,0.7-6.2,1.7C540.1,127,539.8,127.1,539.5,127.3z"/>
		<path class="st23" d="M537.8,121.5c0.2,1.2,0.5,2.3,0.8,3.4c0.3,0.8,0.6,1.6,0.9,2.3"/>
		<path class="st23" d="M537.8,121.5c0.7-0.2,1.4-0.5,2.1-0.7c0.6-0.2,1.2-0.3,1.6-0.8c0.3-0.3,0.4-0.6,0.6-1
			c0.2-0.4,0.4-0.8,0.5-1.2c0.6-1.4,1.2-3.2,0.3-4.4c-1-1.3-3.2-0.9-4.3,0.3c-1,1.2-1.2,3-1.2,4.6
			C537.5,119.4,537.6,120.5,537.8,121.5z"/>
		<path class="st23" d="M523.9,128c4.3-2.7,9-4.9,13.9-6.5"/>
		<path class="st23" d="M506.4,143.1c1.6-0.8,3.1-1.7,4.6-2.8"/>
		<path class="st24" d="M501.9,520.1c-6.8,53.7-12.6,107.5-17.5,161.5c-0.2,1.8-0.3,3.6-0.5,5.4c0.4-0.1,0.9-0.2,1.3-0.2
			c5.6-1,11.3-1.2,16.9-0.5c0.5,0.1,1.1,0.1,1.6,0.2c0.3-0.6,0.6-1.2,0.8-1.9c19.3-43.6,36.5-88.8,43-135.9c0.5-3.5,0.9-7,1.3-10.6"
			/>
		<path class="st23" d="M1090.5,552.5c1.1-0.4,2.1-0.8,3.2-1.2c31-12,62.4-22.8,94.3-32.4"/>
		<path class="st23" d="M1093.3,550.3c3.8-20.6,18.1-37.9,23.8-58.1"/>
		<path class="st23" d="M1091.5,611.5c5.2,2.8,10.2,6,14.8,9.7"/>
		<path class="st25" d="M1039.4,484.8c2.8-2.4,5.2-5.1,7.5-8c5.7-7.1,10.3-15.2,16.1-22.2c4.6-5.6,9.8-10.5,14.8-15.7
			c2.9-3,5.6-6.1,8.3-9.2c5.1-5.9,10-12.1,14.9-18.3c8.1-10.2,16.2-20.4,24.4-30.6c15-18.9,30.1-37.8,45.1-56.7"/>
		<path class="st23" d="M1084.8,428.5c-1-3.3-2.9-6.3-4-9.7c-0.7-2.3-1-4.7-1.4-7c-2.5-14.8-8.7-28.8-14.8-42.5"/>
		<path class="st23" d="M1125.8,381.1c19.4-1.4,38.8-1.8,58.3-2.3"/>
		<path class="st23" d="M961.7,356.3c2,1.6,3.9,3.2,5.9,4.8c6.9,5.6,13.8,11.2,20.6,16.8c7.1,5.8,14.2,11.6,21.3,17.4"/>
		<path class="st23" d="M1008.4,423.9c1.1-9.5,1.8-19,2.2-28.5c0.3-6.4,0.4-12.7,0.3-19.1c0-3.5-0.1-7.1,0.8-10.5
			c0.1-0.3,0.1-0.5,0.2-0.8c0.7-2.5,1.9-4.9,2.6-7.4c1.8-6,1.3-12.3,1.6-18.6c0.3-7.2,1.4-14.3,2.6-21.3c0.3-2.1,0.7-4.1,1-6.2
			c1.8-11,3.6-21.9,5.4-32.9"/>
		<path class="st23" d="M192,475c29.1-0.8,58.2-1.6,87.3-2.4"/>
		<path class="st23" d="M292,471c10.7,0.1,21.3-0.2,32-0.9"/>
		<path class="st23" d="M334.7,471c2.9,0,5.8,0,8.7,0c1.1,0,2.2,0,3.3,0"/>
		<path class="st23" d="M296.5,533.5c2.1-3.7,5-7.1,8.2-9.8"/>
		<path class="st23" d="M326.8,494.4c5.5-7.6,11.1-15.1,16.6-22.7"/>
		<path class="st23" d="M236.9,429.6c11.4,8.1,22.3,17,32.6,26.5c4,3.8,8.1,7.7,10.9,12.4"/>
		<path class="st23" d="M139.9,308.9c0.4,0.3,0.8,0.6,1.2,0.8c32.5,23.4,69.7,39.2,105.8,56.9c17.2,8.4,34.2,17.2,50.3,27.5
			c1.8,1.1,3.6,2.3,5.4,3.5"/>
		<path class="st23" d="M207.8,427.4c0.2,0,0.3,0,0.5-0.1c31.2-4.7,57.7-26,88.6-32.9"/>
		<path class="st23" d="M247.6,365c-0.2-19.6-1.2-39.1-2.8-58.6"/>
		<path class="st23" d="M245.4,216c0.1,0.3,0.3,0.5,0.4,0.8c17.4,31.8,35.1,63.4,53,94.9c4.3,7.6,8.6,15.1,13,22.7"/>
		<path class="st23" d="M298.8,311.8C298.8,311.7,298.8,311.7,298.8,311.8c7.5-10.8,13.9-22.2,20.3-33.6c3-5.4,6-10.8,9-16.1"/>
		<path class="st24" d="M645.2,428.1c0.5,3.7,0.8,7.5,0.8,11.4c0,4.4-0.3,8.7-1,12.9c-0.2,1.4-0.5,2.9-0.8,4.3
			c-8.5,39-45.4,68.4-89.7,68.4c-43,0-79.1-27.8-88.9-65.2c-1.7-6.5-2.6-13.3-2.6-20.3c0-44.9,37.1-81.8,84.2-85.2
			c2.4-0.2,4.8-0.3,7.3-0.3c0.9,0,1.8,0,2.7,0c23.1,0.6,44,9.2,59.7,23c5.8,5.1,10.9,10.8,15.2,17.2
			C638.9,404.3,643.4,415.8,645.2,428.1z"/>
		<path class="st26" d="M725,27c6,3.7,11.4,8.2,16,13.5"/>
		<path class="st26" d="M772.5,7c0.4,8.7,0.7,17.3,1.1,26"/>
		<path class="st26" d="M797.5,39.5c4.6-5,9.8-9.4,15.5-13.1"/>
		<path class="st23" d="M766.1,123c0.1-9.5,0.3-19.1,0.4-28.6c0-2.3,0.1-4.7-0.1-7c0-0.1,0-0.3,0-0.4c-0.2-2.9-0.8-5.8-2-8.5"/>
		<path class="st23" d="M764.5,77.4c-0.3-2.2-3.1-3.5-5.1-2.7c-2,0.8-3.1,3.3-2.7,5.5c0.4,2.2,2,4,4,5.1c1.8,1,3.8,1.4,5.8,1.7
			c0.2,0,0.4,0.1,0.6,0.1"/>
		<path class="st23" d="M767.5,87.5c1.4,0.1,2.7,0.2,4.1,0.3c1.9,0.1,3.8,0.3,5.6,0.4c0.6,0.1,1.3,0.1,1.8-0.3c0.5-0.3,0.8-1,1-1.6
			c0.9-2.5,1.6-5.1,2.2-7.8"/>
		<path class="st23" d="M781.9,77.6c-1.8-2.5-5.9-2.2-8.1,0c-2.1,2.2-2.6,5.5-2.4,8.6c0,0.5,0.1,1.1,0.2,1.6c0.3,2.5,0.9,5,0.9,7.5
			c0,2.1-0.3,4.2-0.6,6.3c-1,7.3-1.5,14.6-1.3,21.9"/>
	</g>
</g>
<line class="st27" x1="392.5" y1="176.5" x2="403" y2="167"/>
<line class="st27" x1="413.5" y1="180.5" x2="393.1" y2="183.4"/>
<line class="st27" x1="407" y1="195" x2="393.2" y2="189.8"/>
<g>
	<g>
		<path d="M755,209.5c1.9,0,1.9-3,0-3C753.1,206.5,753.1,209.5,755,209.5L755,209.5z"/>
	</g>
</g>
<g>
	<g>
		<path d="M557,51.8c1,0,1-1.5,0-1.5C556,50.3,556,51.8,557,51.8L557,51.8z"/>
	</g>
</g>
<g>
	<g>
		<path d="M595.7,551.1c1,0,1-1.5,0-1.5C594.7,549.6,594.7,551.1,595.7,551.1L595.7,551.1z"/>
	</g>
</g>
<g>
	<g>
		<path d="M589.7,551.4c1,0,1-1.5,0-1.5C588.7,549.9,588.7,551.4,589.7,551.4L589.7,551.4z"/>
	</g>
</g>
<g>
	<g>
		<path d="M882.7,548.4c1,0,1-1.5,0-1.5C881.7,546.9,881.7,548.4,882.7,548.4L882.7,548.4z"/>
	</g>
</g>
<g>
	<g>
		<path d="M1064,514.1c1,0,1-1.5,0-1.5C1063,512.6,1063,514.1,1064,514.1L1064,514.1z"/>
	</g>
</g>
<g>
	<g>
		<path d="M156.3,533.8c1,0,1-1.5,0-1.5C155.4,532.3,155.4,533.8,156.3,533.8L156.3,533.8z"/>
	</g>
</g>
<g>
	<g>
		<path d="M359,174.8c0.1,0,0.2,0,0.3,0c1,0,1-1.5,0-1.5c-0.1,0-0.2,0-0.3,0C358,173.3,358,174.8,359,174.8L359,174.8z"/>
	</g>
</g>
<g>
	<g>
		<path class="st5" d="M470.5,466c0,6.9,0,13.8,0,20.8c1,0,2,0,3,0c0-6.3,0-12.5,0-18.8c0-1.9-3-1.9-3,0c0,6.3,0,12.5,0,18.8
			c0,1.9,3,1.9,3,0c0-6.9,0-13.8,0-20.8C473.5,464.1,470.5,464.1,470.5,466L470.5,466z"/>
	</g>
</g>
</svg>
