<?xml version="1.0" encoding="utf-8"?>
<!-- Generator: Adobe Illustrator 22.1.0, SVG Export Plug-In . SVG Version: 6.00 Build 0)  -->
<svg version="1.1" id="Layer_1" xmlns="http://www.w3.org/2000/svg" xmlns:xlink="http://www.w3.org/1999/xlink" x="0px" y="0px"
	 viewBox="0 0 1366 768" style="enable-background:new 0 0 1366 768;" xml:space="preserve">
<style type="text/css">
	.st0{fill:#342B09;}
	.st1{fill:#3D4142;}
	.st2{fill:#FF9E3E;}
	.st3{fill:#3E60AD;}
	.st4{fill:#B2D732;}
	.st5{fill:#823617;}
	.st6{fill:#950E17;}
	.st7{fill:#8E4000;}
	.st8{fill:#0E3E66;}
	.st9{fill:#30603B;}
	.st10{fill:#1C5691;}
	.st11{fill:#4424D6;}
	.st12{fill:#FCCB1A;}
	.st13{fill:#EBBB97;}
	.st14{fill:#110934;}
	.st15{fill:#512110;}
	.st16{fill:#CCCCCC;}
	.st17{fill:#BF5506;}
	.st18{fill:#C7E5EC;}
	.st19{fill:#2A489B;}
	.st20{fill:#25492C;}
	.st21{fill:#BA7B43;}
	.st22{fill:#123175;}
	.st23{fill:none;stroke:#FFFFFF;stroke-width:3;stroke-miterlimit:10;}
	.st24{fill:none;stroke:#FFFEFD;stroke-width:3;stroke-miterlimit:10;}
	.st25{fill:none;stroke:#000000;stroke-width:3;stroke-miterlimit:10;}
	.st26{fill:none;stroke:#000000;stroke-width:2;stroke-miterlimit:10;}
</style>
<g>
	<g>
		<path d="M599.7-49.5c1.9,0,1.9-3,0-3C597.7-52.5,597.7-49.5,599.7-49.5L599.7-49.5z"/>
	</g>
</g>
<g>
	<g>
		<path d="M481.7-6168.7c1.9,0,1.9-3,0-3C479.7-6171.7,479.7-6168.7,481.7-6168.7L481.7-6168.7z"/>
	</g>
</g>
<g id="XMLID_1_">
	<g>
		<path class="st0" d="M358.7,185.3c0.5,0.6,1.1,1.3,1.4,2c0.4,1.3-0.2,2.7-1.4,3.4c-1.1,0.6-2.6,0.5-3.8-0.1l-1.4-0.5
			c-0.2,0-0.3,0-0.5,0c-1.3-0.2-2.7-0.3-3.7-1.1c-1.7-1.2-2.1-3.5-2.3-5.5c-0.2-2.6-0.2-5.3,0.1-7.9c0.2-1.3,0.3-2.8-0.7-3.8
			c-0.8-0.8-2.1-0.7-3.1-0.2c-0.3,0.2-0.6,0.4-0.8,0.7c-0.7,1-0.3,2.3-0.1,3.5c0.6,2.5,0.6,5,0,7.5c0,0.2-0.1,0.3-0.1,0.4l-1,0.2
			c-0.1-0.1-0.1-0.2-0.2-0.2c-1-1.5-1.4-3.4-1.6-5.2c-0.8-5.1-1.4-11,1.9-15c1.6-1.9,3.9-3.1,6.2-4.3c0.1,0,0.2,0.1,0.3,0.2
			c1.3-1,3.1-1,4.7-0.7c1.7,0.3,3.3,0.9,5,0.8c0.7,0,1.5-0.2,2.2-0.1c1.7,0.1,3.2,1.7,3.4,3.4c0.2,1.4-0.5,2.9-1.6,3.8
			c-2.8,0.5-5.6,0.9-8.4,1.4c-0.5,0.1-1.1,0.2-1.5,0.5c-0.6,0.5-0.8,1.4-0.9,2.2c-0.3,2.4-0.3,4.8-0.1,7.2c0.1,0.9,0.2,1.9,0.6,2.7
			c0.4,0.8,1.3,1.5,2.2,1.5c1.7,0,3-2.1,4.5-2.3c0.2,0,0.4,0,0.6,0c0.5,1-0.8,2-1,3.1C357.6,183.9,358.1,184.6,358.7,185.3z"/>
		<path class="st1" d="M403.3,486H363c-2.3-8-4.7-16-7-24h40l0.2-0.1C398.5,470,400.9,478,403.3,486z"/>
		<path class="st1" d="M703.3,637.7l0.1,0.3c-10.3,14-26.6,21.9-42.3,29.3c-10.4,4.9-21.4,9.9-32.8,8.9l-0.8-1.3
			c24.8-15.9,49.7-31.8,74.5-47.7l0.8,1.2C702.9,631.4,703.1,634.5,703.3,637.7z"/>
		<path class="st2" d="M959.7,354.3c2,1.6,3.9,3.2,5.9,4.8c-3,0.6-6.2,1-9.3,1.2c0.8-2.1,1.7-4.3,2.7-6.4L959.7,354.3z"/>
		<path class="st3" d="M334.6,327.5c1.8-5.8,3.5-11.6,5.4-17.4c1-3.3,2.1-6.7,4.1-9.6c0.7,8,1.3,15.9,2,23.9l-1.1,0.1
			c-2.4-0.6-5-0.2-7,1.2c-1,0.7-2,1.6-3.2,2L334.6,327.5z"/>
		<path class="st4" d="M326.7,462.2l-2.1,6.8l-2.6-0.8c-10.6,0.7-21.3,0.9-32,0.9l-2.2-0.7c0.7-2.1,1.3-4.3,2-6.4l0.2,0.1h36
			L326.7,462.2z"/>
		<path class="st5" d="M328.3,457.1l-1.6,5.1L326,462h-36l-0.2-0.1c0.5-1.7,1-3.4,1.6-5.1l0.7,0.2h36L328.3,457.1z"/>
		<path class="st6" d="M190.7,516.4L189,517c-0.9-2.3-2.3-4.7-4.5-5.8c-1.5-0.8-3.6-0.6-4.9,0.4l-0.1-0.1c3.8-2.7,7.6-5.9,11.3-8.2
			l0.5,0.1c-0.2,1.9,0.5,3.8,1.4,5.4c0.9,1.6,2.2,3,3.5,4.3l-0.6,0.5C193.9,514.5,192.3,515.4,190.7,516.4z"/>
		<path class="st5" d="M263.6,668.2l-1.4,4.5l-0.7-0.2h-35l-0.9-0.3c0.4-1.4,0.9-2.8,1.3-4.3l0.1,0h36L263.6,668.2z"/>
		<path class="st7" d="M594.5,687.9c6.7-4.1,13.3-8.3,20-12.4c2.6-1.6,5.1-3.2,7.7-4.8c4.7-2.9,9.3-5.8,14-8.7
			c20.8-12.9,41.5-25.8,62.2-38.8l0.3-0.8c-9.4-6.5-18.7-12.9-28.1-19.4c-13.6-9.4-27.3-18.8-41.7-27l-0.4,0.6
			c-6.7,21.1-13.3,42.2-19.7,63.3c-0.7,2.4-1.5,4.9-2.2,7.3c-0.2,0.7-0.4,1.3-0.6,2C602.1,662.1,598.3,675,594.5,687.9z
			 M812.2,695.6c-8-4.8-15.8-9.7-23.6-14.8c-28.1-18.3-55.3-38-84.1-55.3l-0.3,0.2c-0.8,0.5-1.5,1-2.3,1.5
			c-24.8,15.9-49.7,31.8-74.5,47.7c-10.5,6.7-21.1,13.5-31.6,20.2c-0.8,0.5-1.5,1-1.9,1.8c-0.3,0.6-0.3,1.4-0.6,2.1
			c-0.6,1.7-2.5,2.4-4.1,3l-0.6,0c0.9-11.9,1.7-23.8,2.6-35.6l1.2,0.1c1.6-5.7,3.3-11.5,4.9-17.2c0.6-2.1,1.2-4.2,1.8-6.3
			c1.6-5.5,3.1-11,4.8-16.5c1.3-4.2,2.6-8.3,3.8-12.5c4.9-15.6,9.8-31.2,14.6-46.8l0-0.2c1.9,0.3,3.7,0.5,5.6,0.7
			c0,0.6,0.4,1.2,1,1.3v0.2l70.3,46.2l5.3,3.5c6-4.1,11.9-8.2,17.9-12.2l0.2-0.3c1.1,0.7,2.1,1.4,3.2,2.1c0.5,0.4,1.1,0.7,1.7,1
			l-0.1,0.2c-6.1,4.2-12.2,8.4-18.3,12.5l0,0c33,23,67.9,42.9,100.6,65.7l0.2-0.1l-16.8-63.2c2.5-0.2,5.1-0.4,7.6-0.8l0.3,2.2l26,97
			c-2.7,0-5.3,0-8,0L812.2,695.6z"/>
		<path class="st8" d="M483.2,684.7c-0.4,0.1-0.9,0.1-1.3,0.2c0.2-1.8,0.3-3.6,0.5-5.4c4-44.5,8.7-89,14-133.4
			c14.4,6.8,30.4,11.1,47.2,12.5c-7.5,42.8-23.4,84-41.1,123.8c-0.3,0.6-0.5,1.2-0.8,1.9c-0.5-0.1-1.1-0.1-1.6-0.2
			C494.5,683.5,488.8,683.7,483.2,684.7z"/>
		<path class="st0" d="M583,744.6c-0.2,1.2,0,2.5-0.5,3.5c-0.5,1.1-2,1.8-2.9,1c-0.5-0.5-0.6-1.2-0.6-1.9c0-1.1-0.1-2.2-0.1-3.3
			c0-2.4,0.1-4.9,1.4-6.8l0.5,0.2c0.1,3,2.5,5.4,5.1,6.8c3.6,2,7.9,2.7,12,2l0.2-0.6c0.8,0.4,1.4,1,1.8,1.8c0.3,0.5,0.3,1.3-0.3,1.6
			c-0.2,0.1-0.4,0.1-0.6,0.1c-2.9,0.1-5.8,0.3-8.7-0.3C587.6,748.2,584.8,746.9,583,744.6z"/>
		<path class="st9" d="M817.5,456.5c-2.2,7.8-6.2,14.9-10.1,21.9c-2.3,4-4.5,8-6.7,11.9c-2.1,3.7-4.2,7.4-6.7,10.8l-0.5-0.3
			c-19.6-15.9-41.6-28.4-63.3-41.3c-0.8-0.5-1.7-1-2.5-1.5c-11.7-7-23.4-14.3-33.8-23.1c3.3-0.1,6.6-0.1,10-0.2l1.2-0.7
			c-0.2-2.1-0.5-4.1-0.7-6.2c0-0.4-0.1-0.8-0.3-1.2c-0.4-0.5-1.2-0.6-1.9-0.6c-5.8-0.2-11.6,0.1-17.5,0.3c0-0.1,0-0.3,0-0.4
			c0-0.1,0-0.1,0-0.2c0.3,0,0.5,0,0.8-0.1c0.2-0.7,0.6-1.4,1-2c2.6-4.1,5.1-8.2,7.7-12.2l0.1-0.2c1.4,0.8,2.8,1.5,4.2,2.3
			c5,2.8,10,5.5,15.1,8c8.3,4,17,7.1,25.7,10.2c14.3,5.1,28.5,10.2,42.8,15.3c11.6,4.1,23.4,8.3,35.7,8.1c0,0,0,0,0,0L817.5,456.5z"
			/>
		<path class="st10" d="M364,193.4c-0.7-2.4-0.4-5-0.3-7.5c0-0.2,0-0.5-0.2-0.6c-0.1-0.1-0.4-0.1-0.6-0.1c-1.2,0-2.4,0-3.6,0
			l-0.6,0.2c-0.6-0.7-1.1-1.4-1-2.3c0.2-1.1,1.5-2.1,1-3.1c-0.2-0.1-0.4-0.1-0.6,0c-0.1-0.5,0.4-0.9,0.9-1.2
			c0.8-0.4,1.5-0.8,2.3-1.3c0.2-0.1,0.5-0.3,0.7-0.3c0.4-0.1,0.7-0.1,1.1-0.2c0.5,0,1.1-0.1,1.6-0.1l0-0.1
			c5.2-0.2,10.3-1.8,14.6-4.6c0.8-0.6,1.7-1.2,2.7-1c0,0,0,0,0,0c-1.6,6.1-1.4,12.7,0.6,18.7c-3.8-2.7-8.9-3.6-13.3-2.2
			c-0.2,0.6,0,1.2,0.3,1.7c3.5,0.9,6.3,4,7.1,7.5c-1.3-3-4.4-5.2-7.7-5.1c-0.8,0-1.7,0.2-2.3,0.7c-0.6,0.6-0.8,1.6-0.2,2.2
			c0.6,0.6,1.7,0.4,2.4,0.9c0.5,0.3,0.7,1,0.7,1.6c-0.6,0-1.3,0.2-1.9,0c0.5,0.1,1.1,0.3,1.5,0.6h0c-0.4-0.1-0.8-0.2-1.2-0.2
			c0.1,0.1,0.3,0.1,0.4,0.2C366.4,197.5,364.6,195.5,364,193.4z"/>
		<path class="st4" d="M946.9,436c-2,3-3.9,6-5.9,8.9c-0.4,0.6-0.8,1.2-1.5,1.5c-0.6,0.3-1.3,0.3-1.9,0.2c-7.5-0.4-15-0.8-22.4-1.2
			c-1.3-0.1-2.6-0.1-3.8-0.7c-2.9-1.3-4-4.7-5.1-7.7c-0.8-2.3-1.8-4.6-3.1-6.6l0.4-0.3c3.3-1.2,6.9-0.1,10.3,0.9
			c10.6,3,21.6,4.6,32.6,4.6L946.9,436z"/>
		<path class="st11" d="M138.9,605.6c0,0.1,0,0.2,0,0.3c0,0-0.1,0-0.1,0c-0.8-11.9-1.3-23.9-1.3-35.8c0-2.9,0.1-6,1.6-8.5
			c1.5-2.5,4.2-3.9,6.2-6.1c0.8-0.9,1.5-2.1,1.8-3.3l0.5,0c2.3,0.2,4.7,0.1,7-0.1c0.7-0.1,1.4-0.2,1.9-0.5c1.9-0.3,3.9-0.7,5.8-1.1
			l0,0.2c3.6-0.6,7.1-1.1,10.7-1.7c0.6-0.1,1.3-0.2,1.9-0.3c0.8-0.2,1.6-0.4,2.4-0.7l0.2,0.5c3.9,2.6,7,9.5,8,14l0.1,0.1
			c-1.5,1-3.2,1.8-4.9,2.4c-3.8,1.3-7.8,2-11.7,3.2c-0.7,0.2-1.5,0.5-1.9,1.2c-0.5,0.7-0.4,1.6-0.4,2.4c0.8,10.6,1,21.2,0.6,31.8
			c0,0.4,0,0.9-0.3,1.2c-0.1,0.1-0.3,0.2-0.5,0.3c-0.3,0.1-0.5,0.1-0.8,0.1c-8.9,0.3-17.8,0.5-26.6,0.8
			C138.9,605.8,138.9,605.7,138.9,605.6z"/>
		<path class="st4" d="M324.6,469l-5.3,17.1L319,486h-36l-0.5-0.2c1.8-5.8,3.6-11.6,5.3-17.5l2.2,0.7c10.7,0.1,21.3-0.2,32-0.9
			L324.6,469z"/>
		<path class="st1" d="M417.2,532.1L417.2,532.1c-3.4,6.8-6.8,13.6-10.2,20.4l-1-0.5h-23.4c-1.5-4.8-2.9-9.7-4.4-14.5
			c-1.5-5.2-3.1-10.3-4.6-15.5H414l0.1,0C415.2,525.3,416.2,528.7,417.2,532.1z"/>
		<path class="st8" d="M642.5,441.7c0.1,2.9,0.3,5.8,0.5,8.7c-0.2,1.4-0.5,2.9-0.8,4.3c-44.8-2-89.6-4-134.4-6l0-0.6
			c0.9-8.1,7.9-14.6,15.6-17.4c7.7-2.8,16.1-2.8,24.3-2.6c10.6,0.2,21.3,0.3,31.9,0.5l1.9-1.1c1.7,3,3.4,5.9,5.2,8.8l1,0
			c16.9-0.4,33.7-0.7,50.6-1.1c0.1,1.9,0.2,3.8,0.3,5.7C639.9,441.1,641.2,441.4,642.5,441.7z"/>
		<path class="st12" d="M549.2,126.9c0.2,1.3-0.4,2.7-1,3.9c-0.3,0.6-0.6,1.2-1.1,1.4c-0.3,0.1-0.7,0.1-1,0.1
			c-3.9-0.4-6.8-3.5-8.5-7c0.3-0.2,0.6-0.3,0.8-0.4c1.9-1,4-1.8,6.2-1.7C546.7,123.3,548.9,124.8,549.2,126.9z"/>
		<path class="st8" d="M1055.9,588.7c-0.2,1.2-0.3,2.4-0.1,3.5c0.1,0.4,0.2,0.8,0.4,1.1c0.1,0.2,0.3,0.3,0.4,0.5
			c0.2,13.3,0.4,26.6,0.6,39.9c0,1.7,0.1,3.5,0.1,5.2l-1.1,0c-20.4,5.5-41.7,6.3-62.7,6.8l-0.4,0.1c-0.5-3.8-2.3-7.6-3.4-11.3
			c-0.4-1.4-0.8-2.9-0.3-4.2c0.4-1.2,1.3-2,2.3-2.8c5.5-4.9,11-9.8,16.5-14.7c2.1-1.9,4.5-3.9,7.3-4.3c6-0.7,12.1,5.9,17.2,2.7
			l0.1,0.1c5.5-8.2,10.2-18.1,13-28l0.8,0.2c2.8,1.7,5.6,3.4,8.4,5.1L1055.9,588.7z"/>
		<path class="st1" d="M353.6,374.2L346,399l0,0h-8.4c-2.4-8.3-4.9-16.7-7.4-25H353L353.6,374.2z"/>
		<path class="st8" d="M139.9,627.9c-1.5-7.2-1.9-14.6-1-21.9c0,0,0,0,0.1,0c2,12.9,9.1,24.9,19.4,32.9c1.2,0.9,2.4,1.8,3.5,2.9
			c0.5,0.5,1,1.1,1.4,1.7l-0.6,0.1c-4.4,9.1-8.7,18.3-13.1,27.4c-0.6,1.3-1.2,2.6-1.9,3.9c-1.7,3.5-3.3,7-5,10.5
			c-2.6,5.4-5.2,10.9-7.8,16.3c-0.5,1-0.9,2-1.7,2.7c-0.7,0.7-1.6,1.1-2.5,1.3c-1.3,0.3-2.6,0.4-3.9,0.4c-0.5,0-1.1,0-1.6-0.1
			c-0.6-0.1-1.1-0.4-1.4-0.8c-0.6-0.8-0.4-1.9-0.1-2.8c2.2-9.3,4.5-18.7,8.5-27.4c1.1-2.4,2.4-4.8,3.4-7.3c1.6-4.1,2.5-8.6,4.2-12.7
			c0.7-1.8,1.6-3.5,2.2-5.3C144.2,642.6,141.4,635.1,139.9,627.9z"/>
		<path class="st8" d="M328.3,255.2c1.9,0.2,3.8-0.2,5.5-1c0.3-0.2,0.7-0.3,0.9-0.7c0.2-0.4,0.2-0.8,0.1-1.2c0-0.3-0.1-0.5-0.1-0.8
			c1.2,0.5,2.5,0.5,3.8,0.5c6.4-0.1,12.9-0.3,19.4-0.7c1.4,4.5,2.8,9,3.4,13.7c0.3,2.5,0.5,5,0.6,7.5c0.4,8.4,0.9,16.9,1.4,25.3
			c0.1,2.4,0.3,4.9,0.2,7.3c-0.1,1.6-0.2,3.2-0.4,4.8c-0.1,1.1-0.2,2.1-0.3,3.2c-0.4,4.5-0.9,9-1.3,13.5c0,0.4-0.1,0.8-0.1,1.2
			c-0.4,4.5-0.7,9-0.4,13.4c0.1,2.2,0.5,4.4,0.5,6.6c0,0.8,0,1.6-0.1,2.4c-0.2,2.6-0.7,5.1-1.5,7.5c-1,0-2.1,0-3.1,0
			c-1.6,0-3.1,0-4.7,0c-0.3,0-0.5,0-0.8-0.1c0,0,0-0.1,0-0.1c0,0.1,0,0.1,0,0.1c-0.1,0-0.3-0.1-0.4-0.1c-0.5-0.3-0.8-0.8-1-1.3
			c-1.3-3.1-1.6-6.6-1.9-9.9c-0.6-7.3-1.2-14.7-1.8-22c-0.7-8-1.3-15.9-2-23.9c-2,2.9-3,6.3-4.1,9.6c-1.8,5.8-3.6,11.6-5.4,17.4
			c-3.1,10.3-6.1,20.7-9.1,31c0,0-0.1,0-0.1,0c-0.3,0-0.6,0-1,0c-1.8,0.1-3.5,0.1-5.2,0.2c0,0,0,0,0,0c-0.8-2.5-0.7-5.1-0.5-7.8
			c0.1-1.1,0.2-2.1,0.3-3.2c0.3-2.5,0.6-5,0.9-7.4c1.1-9,2.1-18,3.2-27c2.1-17.8,4.2-35.6,4.7-53.5c0-1.8,0.1-3.6,0.1-5.4
			c0.1,0.1,0.2,0.3,0.3,0.4L328.3,255.2z"/>
		<path class="st7" d="M596.6,546.7c0-0.2,0-0.3,0-0.5l2.4,0.1c3.7,0.5,7.4,0.9,11.2,1.4c-4.7,2-9.5,3.8-14.4,5.4
			C596.1,550.9,596.5,548.8,596.6,546.7z"/>
		<path class="st2" d="M303.1,396.4l-3.7,12l-0.8-0.2c-9.1,0.6-18.1,1.7-27,3.3c-2,0.3-3.9,0.7-5.7,1.5c-1.7,0.7-3.2,1.8-4.9,2.7
			c-2.6,1.3-5.5,1.9-8.3,2.6c-11.5,3.1-21.9,9.5-32,16l-0.4-0.6c-4.8-2.7-9.5-5.4-14.1-8.3c31.2-4.7,57.7-26,88.6-32.9l0.3-0.4
			c1.8,1.1,3.6,2.3,5.4,3.5L303.1,396.4z"/>
		<path class="st2" d="M1009.9,363.1c-0.1,0.3-0.1,0.5-0.2,0.8c-0.9,3.4-0.8,7-0.8,10.5c0,6.4,0,12.7-0.3,19.1l-1,0
			c-7.1-5.8-14.2-11.6-21.3-17.4C994.9,372.8,1002.8,368.4,1009.9,363.1z"/>
		<path class="st4" d="M1113.8,252.1c3.3,10.8,6.1,22.3,3.3,33.1l0.1,0.5c-0.4,0.9-0.9,1.8-1.5,2.5c-1.5,1.8-3.8,2.7-6,3.5
			c-6.1,2.2-12.2,4.4-18.6,5l-0.8,0.1c1.8,9.6-0.3,19.5-2.3,29c-0.9,4.2-1.8,8.5-2.8,12.7l-0.4,0.5c1.7,2,3.5,4,5.5,5.7l0.5,0.7
			c-2.6,1.8-5.2,3.6-7.8,5.5l-0.9-1.2c-9.6-21.3-23.6-40.3-38.3-58.6c-2.9-44.7-42.7-80.1-91.3-80.1c-48.5,0-88.1,35.2-91.3,79.8
			c-7.2-3.2-14.3-6.5-20.7-11.1l-1,0.3c-5.5-10.7-12.6-20.7-20.2-30.3c-5-6.3-10.2-12.5-15.4-18.6l-0.4-0.2c0,0,0,0,0-0.1l0.9-0.7
			c-1.1-1.5-2.2-2.9-3.3-4.4c-0.7-0.9-1.3-1.8-2-2.7l0.7-0.4c4.4-11.1,11.2-21.3,19.7-29.6c2.3-2.3,4.9-4.5,8-5.3
			c3.9-1,8,0.5,11.7,2.1c6.2,2.8,12.2,6.1,17.8,10.1l0.4-0.1c9-8.4,19.1-15.7,29.9-21.5l0.7-1.4c0.2-1.3,0.3-2.6,0.5-3.9
			c0.7-9.3-1.9-19,0.6-28l0.2-1.5c16.1-8.4,34.6-12.2,52.7-10.8l0.3,0c3.8,3.4,6,8.3,7.3,13.3c1.3,4.9,1.8,10.1,3.2,15v1
			c13.3-0.3,26.7,2,39.2,6.8l0.4-0.1c1.3-3.4,3.6-6.2,5.9-9.1c4.3-5.5,9-11.2,15.6-13.6l0.7-0.7c3.2-0.5,6.4,0.8,9.5,2.1
			c13.6,5.9,27.9,12.2,36.9,24l0.1,0.4c1.5,3.7,0.2,7.8-1.3,11.4c-2.6,6-6.1,11.7-10.4,16.6l0,0.4c1.3,1.1,2.6,2.3,3.8,3.5
			c8.6,8.7,15.8,18.8,21.3,29.8l0.1,0.6c2.2,0.6,4.4,0.5,6.7,0.3c7.3-0.4,14.6-0.9,21.8-1.3l0.6,0.1c2.9,2.9,5.3,6.2,7,9.9
			C1112,246.1,1112.9,249.1,1113.8,252.1z"/>
		<path class="st6" d="M913.5,573.5c2.7,2.4,4.9,5.8,4.5,9.4c-0.4,3.4-2.9,6-5.8,7.9c-3.2-1.3-6.2-2.9-8.9-4.9
			c0.1-2.3-0.4-4.7-0.9-7c-0.2-0.8-0.4-1.6-0.9-2.2c-0.2-0.2-0.4-0.3-0.5-0.4c-0.4-0.6-1-1.2-1.6-1.6c-0.9-0.6-1.9-1-2.8-1.6
			c-2.5-1.6-3.9-4.3-5.3-6.9c-0.5-0.8-0.9-1.7-1.2-2.6c-0.2-0.4-0.3-0.8-0.4-1.3c-0.3-1.4-0.1-2.8,0-4.2c0.2-2,0.4-4,0.6-5.9
			c0.1-0.8,0.2-1.7,0.6-2.5c0.9-1.7,3.3-2.9,2.9-4.7c-0.2-0.8-1-1.4-1.9-1.6c-0.9-0.2-1.8-0.1-2.6-0.1c-2,0.1-4-0.1-5.9-0.6
			c0.4-5.2,1.6-10.2,3.5-14.9c1,0,2,0,3,0.2c4.3,0.8,8.2,3.9,9.7,8.1c1.9,5.2,0.3,11.3,2.9,16.2c1,1.8,2.4,3.3,3.6,4.9
			c1.8,2.5,2.9,5.3,3.4,8.3c0.2,1.5,0.3,3.1,1,4.4C910.9,571.4,912.3,572.4,913.5,573.5z"/>
		<path class="st13" d="M147.4,547.2c1.2,0.7,2.9-0.6,2.9-2c0-1.5-1.1-2.8-2.4-3.7c-1.2-0.9-2.7-1.6-3.5-2.8
			c-0.9-1.2-0.9-3.3,0.3-4.1c2.3,0.6,4.6,1.3,6.9,1.9c0.9-2.3-2.5-4.3-2.3-6.7c0.2-2.1,2.9-2.8,4.7-3.8c0,0,0.1,0,0.1,0l0.4,0.7
			c0.4,0.5,0.7,1.1,0.9,1.8c0.4,1.1,0.6,2.2,1.4,3c0.4,0.4,0.9,0.7,1.4,1.1c2.4,2,2.6,5.7,2.5,8.9c0,0.5,0,1.1-0.3,1.6
			c-0.8,1.5-3.2,1.5-3.9,3c-0.7,1.7,1.3,3.8,0.2,5.2c-0.1,0.1-0.2,0.3-0.4,0.3c-0.5,0.4-1.2,0.5-1.9,0.5c-2.3,0.2-4.7,0.3-7,0.1
			l-0.5,0c0.5-1.7,0.3-3.4-0.9-4.5c-0.2-0.2-0.4-0.3-0.5-0.4L147.4,547.2z"/>
		<path class="st0" d="M468.9,704.5c2-1,4-2.1,5.9-3.2c2.3-1.3,4.6-2.8,6.8-4.3c0,0.1,0.1,0.3,0.1,0.4c0.7,1.7,2.8,2.4,4.7,2.6
			c3.4,0.3,6.8-0.1,10-1.3c1-0.4,2-0.8,2.6-1.7c0.2-0.3,0.4-0.7,0.5-1.1c3.2,2.5,4.9,6.6,5.4,10.6c0.5,4-0.1,8.1-0.7,12.2
			c-0.2,1.1-0.4,2.3-1,3.3c-1.5,2.1-4.6,2.2-7.1,1.6c-2.5-0.6-5.1-1.5-7.5-0.7c-0.1-1.5-0.1-2.9-0.2-4.4c-18.6,3-37.5,4.2-56.3,3.7
			c0,0,0,0,0-0.1c-0.3-1.3,0-2.5,0.6-3.7c0.6-1,1.4-1.9,2.4-2.6c2.1-1.4,4.6-1.8,7.1-2.3C451.4,711.9,460.4,708.8,468.9,704.5z"/>
		<path class="st4" d="M1149.5,472.7l1.7,0.3c-4.7,6.8-9.9,13.2-16.1,18.6l0,0.2c-6.6-1.1-13.2-1.9-19.9-2.4
			c-14.7-1.1-29.4-0.8-44.1,0c-9.1,0.5-18.4,1.2-26.4,5.4c-0.9-2.4-2-4.7-3.4-6.8c-1.3-1.9-3-3.7-4.9-5.1l1-0.2
			c2.8-2.4,5.2-5.1,7.5-8l0.1,0.1C1079.8,474.2,1114.7,473.5,1149.5,472.7z"/>
		<path class="st14" d="M884.8,594.5c-0.4,0.2-0.8,0.2-1.2,0.2c-0.6,0-1.3,0-2,0l0-0.7c-1.3-2.5-2.3-5.2-2.3-8c0-2.8,0.8-5.5,2-8.1
			c1.6-3.5,3.6-6.7,6.1-9.6c0.1-0.1,0.2-0.2,0.3-0.4c1.6,3.3,3.5,6.4,5.8,9.2c-0.3,0.2-0.6,0.4-0.9,0.7c-1.7,1.6-2.6,3.8-3.4,6
			c-1.2,3.1-2.4,6.2-3.6,9.3C885.6,593.6,885.4,594.2,884.8,594.5z"/>
		<path class="st15" d="M394,578l0.3,0.1c-0.8,1.5-1.5,3-2.3,4.6c-0.5-1.6-1-3.1-1.5-4.7H394z"/>
		<path class="st5" d="M301,546l-1.6,5.1L299,551h-36l-0.4-0.1c0.5-1.7,1.1-3.4,1.6-5.1l0.8,0.3L301,546L301,546z"/>
		<path class="st4" d="M956.3,360.4c-1.9,4.8-3.5,9.6-4.4,14.7c-0.4,2.3-0.7,4.6-0.9,7c-12.3-0.2-24.1-2.6-34.8-7
			c3.3-6.5,6.5-13.1,9.5-19.7c8,3.4,16.9,5.2,26.2,5.2C953.5,360.5,954.9,360.5,956.3,360.4z"/>
		<path class="st10" d="M179.1,633.1c2.4,15.2,2.2,31.2-3,45.7c-0.8,2.1-1.6,4.2-2,6.4c-0.5,3.3,0.1,6.7-0.7,9.9
			c-0.7,2.9-2.5,5.6-2.7,8.6c0,0.6,0,1.3-0.4,1.9c-0.4,0.6-1.2,0.8-2,0.8c-0.2,0-0.4,0-0.6,0c-1.5-0.1-3-0.1-4.5-0.2
			c-0.1,0-0.1,0-0.2,0c-0.4,0-0.8-0.1-1.1-0.3c-0.4-0.4-0.5-1-0.5-1.6c0-13.3,1.1-26.6,3.3-39.8c0.6-3.9,1.4-7.8,1.2-11.8
			c-0.1-3.2-1-6.5-2.8-9.1c-0.4-0.6-0.9-1.2-1.4-1.7c-1-1.1-2.3-1.9-3.5-2.9c-10.3-8-17.4-20-19.4-32.9c8.9-0.3,17.8-0.5,26.6-0.8
			c0.3,0,0.6,0,0.8-0.1c1.4,4.3,4.8,7.5,7.2,11.3C176.8,621.4,178.2,627.3,179.1,633.1z"/>
		<path class="st5" d="M344.4,422.2l-3.6,11.9c-0.9-3-1.8-6-2.8-9.1l3.7-12C342.6,416.1,343.5,419.1,344.4,422.2z"/>
		<path class="st2" d="M1006.4,421.9c1.1-9.5,1.8-19,2.2-28.5c0.3-6.4,0.4-12.7,0.3-19.1c0-3.5-0.1-7.1,0.8-10.5
			c0.1-0.3,0.1-0.5,0.2-0.8c20.8-15.7,34.1-39.7,34.1-66.6c0-1.8-0.1-3.6-0.2-5.4c14.7,18.3,28.7,37.3,38.3,58.6l0.9,1.2
			c-1.1,0.8-2.3,1.6-3.4,2.4c-5.9,4.3-11.8,8.6-17.6,13.1c-9.7,7.6-18.7,15.8-26.2,25.6c-4,5.2-7.5,10.7-11.9,15.4
			c-4.5,4.7-9.9,8.4-14.3,13.1c-0.7,0.7-1.4,1.5-2,2.3L1006.4,421.9z"/>
		<path class="st12" d="M518.7,143.6c0.5-0.9,0.8-2,1-3.1c0.5-2.6,0.9-5.2,1.2-7.9l0.8,0.1c5.7-1.5,10.6-4.8,15.8-7.5
			c1.7,3.6,4.7,6.7,8.5,7c0.3,0,0.7,0,1-0.1c0.6-0.2,0.9-0.8,1.1-1.4c0.6-1.2,1.2-2.6,1-3.9c-0.3-2.2-2.5-3.6-4.6-3.8
			c-2.2-0.1-4.3,0.7-6.2,1.7c-0.3,0.1-0.6,0.3-0.8,0.4c-0.4-0.8-0.7-1.6-0.9-2.3c-0.4-1.1-0.6-2.3-0.8-3.4c0.7-0.2,1.4-0.5,2.1-0.7
			c0.6-0.2,1.2-0.3,1.6-0.8c0.3-0.3,0.4-0.6,0.6-1c0.2-0.4,0.4-0.8,0.5-1.2c0.6-1.4,1.2-3.2,0.3-4.4c-1-1.3-3.2-0.9-4.3,0.3
			c-1,1.2-1.2,3-1.2,4.6c0,1,0.1,2.1,0.3,3.1c-4.9,1.6-9.5,3.8-13.9,6.5l-0.5,0c0.2-4.6,0.1-9.3-0.4-13.9c-0.3-2.7-0.7-5.5,0.1-8.1
			c0.4-1.5,1.2-2.8,2.1-4.1c3-4.3,7.3-7.4,12.1-9.6c4.7-2.2,9.9-3.8,15-5.1c0.5-0.1,1-0.3,1.4-0.4c0-0.1,0-0.2,0-0.3
			c10.8,1.6,21.5,7.5,26.3,17.3c2,4.1,2.9,8.6,3.6,13.1c0.8,4.7,1.4,9.7,0,14.3c-1.8,6.3-6.7,11.1-11.4,15.5
			c-1.7,1.6-3.4,3.2-5.5,4.3c-1.5,0.8-3.2,1.3-4.9,1.7c-2.1,0.6-4.2,1.1-6.4,1.6c-5,1-10.2,1.3-14.8-0.8c-3-1.4-5.5-3.7-8.4-5.3
			c-3.4-1.9-7.3-2.7-11.1-2.5L518.7,143.6z"/>
		<path class="st5" d="M291.8,576.2l-1.5,4.9L290,581h-36l-0.6-0.2c0.5-1.6,1-3.2,1.5-4.9l0.1,0h36L291.8,576.2z"/>
		<path class="st0" d="M1099.2,705l0.1-0.2c0.1,0.1,0.2,0.2,0.3,0.2c0.5,0.4,1.2,0.6,1.5,1.2c0.2,0.3,0.2,0.7,0.2,1.1
			c0,1.2,0,2.3,0.1,3.5c0,0.7,0,1.4-0.4,2c-0.7,1.1-2.3,1.1-3.5,0.8c-1.2-0.4-2.4-1.1-3.7-1c-0.7,0-1.4,0.3-2.1,0.5
			c-2.8,0.8-5.7,0.6-8.6,0.4c-1.2-0.1-2.6-0.3-3.1-1.4c-0.3-0.8,0-1.6,0.6-2.2c0.6-0.6,1.3-0.9,2.1-1.2c2.5-0.9,5.1-1.6,7.7-1.9
			c1.1-0.2,2.3-0.3,3.3-0.8c0.2-0.1,0.3-0.2,0.4-0.3C1095.8,705.6,1097.6,705.4,1099.2,705z"/>
		<path class="st5" d="M317,373c-2.6,8.6-5.3,17.1-7.9,25.7c-0.5,1.7-1,3.4-1.6,5.1c-2.4,7.7-4.7,15.3-7.1,23
			c-0.5,1.6-1,3.2-1.5,4.9c-2.5,8.4-5.1,16.7-7.7,25.1c-0.5,1.7-1,3.4-1.6,5.1c-0.7,2.1-1.3,4.3-2,6.4c-1.8,5.8-3.6,11.6-5.3,17.5
			c-0.5,1.7-1.1,3.4-1.6,5.1c-2.5,8.3-5.1,16.6-7.6,24.8c-0.5,1.7-1,3.4-1.6,5.1c-0.9,2.9-1.8,5.8-2.7,8.7
			c-1.6,5.4-3.3,10.7-4.9,16.1c-0.5,1.7-1.1,3.4-1.6,5.1c-2.5,8.4-5.1,16.7-7.7,25.1c-0.5,1.6-1,3.2-1.5,4.9
			c-2.5,8.4-5.1,16.7-7.6,25.1c-0.5,1.6-1,3.2-1.5,4.9c-2.9,9.4-5.7,18.8-8.6,28.1c-0.5,1.6-1,3.2-1.5,4.9
			c-2.5,8.1-4.9,16.1-7.4,24.2c-0.4,1.4-0.9,2.8-1.3,4.3c-2.6,8.6-5.2,17.2-7.8,25.7c-0.6,2-1.2,4-1.8,6.1c-1.2,4-2.4,7.9-3.6,11.9
			l-0.1,0.1c-0.4,1.2-1.5,2.2-2.8,2.6c-1.3,0.3-2.7,0-3.7-0.9l-0.1-0.7c-0.1-1-0.1-2,0.1-3l0.1,0l56.7-185.5l17.5-57.1h0l19.3-63
			l3.7-12l13.8-45c0,0,0,0,0,0c0.2-0.2,0.5-0.4,0.8-0.5l0.9,0.1c-0.2,2.6-0.2,5.3,0.5,7.8c0,0,0,0,0,0c-0.1,1.6-0.2,3.2-0.3,4.8
			l0,0.5c-0.2,0-0.5,0-0.7,0.1c-1.1,0.3-1.5,1.7-1.6,2.9c-0.1,2-0.2,4-0.1,6C316.7,372.9,316.8,373,317,373L317,373z"/>
		<path class="st2" d="M951.1,429.5c-0.4,0.6-0.8,1.2-1.2,1.8l-0.4-0.3c0.3-12.5,0.7-24.9,1-37.4c0.1-3.9,0.2-7.8,0.5-11.6
			c0.5,0,1,0,1.5,0c11.9,0,23.3-2.1,33.8-6c7.1,5.8,14.2,11.6,21.3,17.4l1,0c-0.4,9.5-1.1,19-2.2,28.5l1.1,0.9
			c-4.8,5.7-8.3,12.4-11.8,19l-1,0.3c-0.2-1.7-0.8-3.2-1.9-4.6c-2-2.5-5.2-3.7-8.3-4.8c-8.9-3.1-18-6.2-27.5-6.5
			c-1.2,0-2.5,0-3.5,0.6C952.5,427.4,951.8,428.5,951.1,429.5z"/>
		<path class="st13" d="M163.2,706.1c1.5,0.1,3,0.2,4.5,0.2c0.2,0,0.4,0,0.6,0l0,0.9c-0.3,0.8-0.4,1.7-0.2,2.5l0,0.3
			c-1.4,0.1-2.7,0.1-4.1,0.2l-0.2,0l0-0.4c-0.8-0.7-1.1-1.8-1-2.8l0.1-1.1C163.1,706.1,163.2,706.1,163.2,706.1z"/>
		<path class="st1" d="M344.5,404.1l-2.7,8.9c-0.9-3-1.8-6-2.6-9h4.9L344.5,404.1z"/>
		<path class="st4" d="M317.8,491.2l-4.7,15.5l-0.2-0.1c-3,2.1-5.6,4.9-7.2,8.2v1.2H274l-0.7-0.2c2.5-8.3,5.1-16.5,7.6-24.8l0.1,0
			h36L317.8,491.2z"/>
		<path class="st16" d="M861.3,601.6c-3.6,0.1-7.2,0.1-10.8,0.2c-2.6,0-5.2,0.1-7.7,0.2c-2.2,0-4.4,0.1-6.6,0.1
			c-1.9,0-3.8,0.1-5.7,0.1l-0.3-0.3c-0.3-0.5-0.6-0.9-0.9-1.4l2.3-1.5c3.4-0.2,6.9-0.3,10.3-0.4c0.3,0,0.5,0,0.7,0
			c6.2-0.1,12.3-0.1,18.5,0.2l0.5,0.2c0,0.5,0.1,1.1,0,1.6c0,0.3,0,0.7-0.1,1L861.3,601.6z"/>
		<path class="st17" d="M936.7,327.5l0.6,1.2c-0.7,1.7-1.4,3.4-2.1,5.1c-4,6.8-7.8,13.6-11.8,20.5c-20.5-9.5-34.8-28.9-35.8-51.5
			C904.2,310.6,920.5,318.9,936.7,327.5z"/>
		<path class="st1" d="M377.9,398.8L377,399h-24l-1.5-0.4l7.5-24.9l1,0.3h10.8C373.1,382.2,375.5,390.5,377.9,398.8z"/>
		<path class="st5" d="M310.2,516.1l-1.6,5.1L308,521h-5.3H272l-0.3-0.1c0.5-1.7,1-3.4,1.6-5.1l0.7,0.2h31.6h4.4L310.2,516.1z"/>
		<path class="st14" d="M908.1,609.7c-0.3,0-0.5,0-0.8,0c-5-1.6-9.8-3.7-14.2-6.4c0.2-0.2,0.3-0.4,0.5-0.6c2.4-3,4.7-6,6.8-9.2
			c0.7-1.1,1.4-2.2,1.9-3.4l0.7,0.3c0.1,1.5,1.6,2.6,3.1,2.7c1.3,0.1,2.6-0.4,3.8-1l1.3,0.2c-0.2,5.5-0.4,11.1-0.8,16.6
			c0,0.2,0,0.3-0.1,0.4c-0.1,0.1-0.3,0.2-0.5,0.2C909.2,609.6,908.7,609.7,908.1,609.7z"/>
		<path class="st1" d="M456.7,664h-10.4v-1.6c-2.6-2.7-5.1-5.5-6.7-8.9c-1.6-3.4-2.1-7.4-0.6-10.9V641h11
			C452.2,648.6,454.4,656.3,456.7,664z"/>
		<path class="st13" d="M887,559.1c0-0.2,0-0.5-0.1-0.7c-0.2-0.4-0.7-0.5-1.1-0.5c-0.5-0.1-1-0.1-1.5-0.2c-0.8-3.6-1.3-7.4-1.3-11.3
			c0-1.3,0-2.5,0.1-3.7c1.9,0.5,3.9,0.7,5.9,0.6c0.9,0,1.8-0.1,2.6,0.1c0.8,0.2,1.7,0.8,1.9,1.6c0.5,1.9-2,3-2.9,4.7
			c-0.4,0.8-0.5,1.6-0.6,2.5c-0.2,2-0.4,3.9-0.6,5.9c-0.1,1.4-0.3,2.8,0,4.2c0.1,0.4,0.2,0.9,0.4,1.3l-0.5,0.2
			C888.9,562.2,887.2,560.9,887,559.1z"/>
		<path class="st13" d="M836.9,604.6c-0.8-0.4-1.3-1.6-0.8-2.4v-0.1c2.2,0,4.4-0.1,6.6-0.1l0,2.1c-0.8,0.6-1.7,1.1-2.6,1.6l-0.5-0.9
			C838.8,605,837.8,605,836.9,604.6z"/>
		<path class="st13" d="M740.3,199c0.2,0.1,0.3-0.1-0.4-0.6c0-0.2,0.2-0.4,0.5-0.7c0,0.1,0.1,0.3,0.1,0.5c0,0,0,0,0,0
			c8.9-2.6,17.6-6.3,25.8-10.8c1.2-0.7,2.4-1.4,3.8-1.6c1.4-0.3,2.9,0,3.8,1.1c0.1,0.8,0.8,1.3,1.3,1.9c2.8,2.6,5.2,5.7,7.1,9
			c0.2,0.3,0.4,0.6,0.7,0.7c0.3,0,0.6-0.2,0.8-0.4c2-1.6,4.4-2.5,6.9-2.7c0.5,0,1,0,1.4,0.2c0.7,0.3,1.1,1,1.4,1.7
			c0.5,1.3,0.5,2.9,0.1,4.3c-0.2,0.6-0.5,1.2-0.8,1.8c-0.7,1-1.6,1.9-1.9,3.1c-0.4,1.9,1.1,3.6,2.2,5.2c0.1,0.2,0.2,0.4,0.4,0.6
			c0.1,0.2,0.2,0.4,0.3,0.6c1.2,5.9,0.2,12.2-2.8,17.4c-2.5,4.2-6.1,7.5-9.6,10.8c-0.5,0.5-1.1,1-1.7,1.3c0,0,0-0.1,0-0.1
			c-0.6,0.1-0.9,0.3-1,0.6c-9.9,5.4-21.7,5.1-28.5-4.9c-6.6-9.6-6.8-22.3-8.4-33.4l-0.1-0.3c-0.1-0.9-0.3-1.9-0.4-2.8
			c-0.1-0.6-0.2-1.2-0.5-1.8C740.5,199.3,740.4,199.1,740.3,199z"/>
		<path class="st5" d="M282.6,606.2l-1.5,4.9l-0.1,0h-36l-0.7-0.2c0.5-1.6,1-3.2,1.5-4.9l0.2,0.1h36L282.6,606.2z"/>
		<path class="st5" d="M588.1,615.7c2,0,4.1,0,6.2,0c0,0.3-0.1,0.6-0.1,0.9c-1.7,5-0.8,10.8,2.4,15c-2.5,0.8-4.8,1.8-7.1,3
			c-0.8,0.4-1.5,0.8-2.2,1.3c0.1-2.5,0.2-5.1,0.3-7.6c0.2-4.1,0.3-8.1,0.5-12.2V615.7z"/>
		<path class="st3" d="M881.3,594.6C868.2,582.4,860,565.1,860,546c0-37,30.7-67,68.5-67s68.5,30,68.5,67s-30.7,67-68.5,67
			c-6.8,0-13.3-1-19.5-2.8c-0.3-0.2-0.5-0.4-0.8-0.5c0.5,0,1.1-0.1,1.6-0.1c0.2,0,0.4,0,0.5-0.2c0.1-0.1,0.1-0.3,0.1-0.4
			c0.3-5.5,0.6-11.1,0.8-16.6l-1.3-0.2c0.2-0.1,0.3-0.2,0.5-0.2c0.6-0.3,1.3-0.7,1.9-1.1c5.1,2,10.6,3.2,16.3,3.2
			c25.1,0,45.5-21.3,45.5-47.5S953.6,499,928.5,499c-18.8,0-35,11.9-41.9,28.9c-0.9,0-1.8,0.1-2.6,0.2c-2.1,0.3-4.3,0.7-6,2
			c-1.7,1.3-2.7,3.7-1.8,5.6c0.7,1.7,2.7,2.8,2.8,4.7c0,0,0,0,0,0c0,1-0.5,1.8-0.9,2.7c-0.9,2.1-0.8,4.5-0.8,6.8
			c0,1.9,0.1,4,1.3,5.4c1.3,1.6,3.5,2,5.7,2.3c0.8,3.6,2,7,3.6,10.2c-0.1,0.1-0.2,0.2-0.3,0.4c-2.5,2.9-4.6,6.1-6.1,9.6
			c-1.2,2.5-2,5.3-2,8.1c0,2.8,1,5.5,2.3,8l0,0.7C881.6,594.6,881.5,594.6,881.3,594.6z"/>
		<path class="st6" d="M192.7,508.7c-1-1.6-1.6-3.5-1.4-5.4c0-0.2,0.1-0.4,0.1-0.6l0.3-0.3c1.9,1.6,3.6,3.6,4.9,5.8
			c0.3,0.5,0.6,1.1,0.7,1.7c0.2,1.2-0.6,2.4-0.6,3.7c-0.2-0.2-0.3-0.4-0.5-0.5C194.9,511.6,193.6,510.3,192.7,508.7z"/>
		<path class="st10" d="M679,459c1.3,0.1,2.6,0.2,3.9,0.2c-3.5,18.3-11.4,35.1-22.6,49.6c-1.2-3.1-2.3-6.2-3.2-9.4
			c-1.3-4.4-2.2-8.8-3-13.3c-1.9-9.9-3.5-19.8-5-29.8l0.4,0C659.3,457.6,669.1,458.4,679,459z"/>
		<path class="st13" d="M481.5,697c-0.3-0.9-0.1-2,0.1-2.9c0.5-3.1,1.1-6.2,1.6-9.3c5.6-1,11.3-1.2,16.9-0.5l-0.2,1.3
			c0.1,2.8,0.1,5.7-0.1,8.5c-0.1,0.7-0.1,1.4-0.3,2c-0.1,0.4-0.3,0.8-0.5,1.1c-0.6,0.8-1.6,1.3-2.6,1.7c-3.2,1.2-6.7,1.6-10,1.3
			c-1.9-0.2-4-0.9-4.7-2.6C481.6,697.3,481.5,697.1,481.5,697z"/>
		<path class="st5" d="M337.4,427.1l-1.5,4.9H300l-1-0.3c0.5-1.6,1-3.2,1.5-4.9l0.5,0.2h36L337.4,427.1z"/>
		<path class="st5" d="M331.7,404h-18.1H308l-0.5-0.1c0.5-1.7,1-3.4,1.6-5.1l0.9,0.3h20.2C330.7,400.7,331.2,402.3,331.7,404z"/>
		<path class="st13" d="M574.2,746.8c-3.6,0.7-7.5,0-10.7-1.8c-3.2-1.9-5.7-4.9-6.8-8.4l-0.2,0.1c0-0.2-0.1-0.4-0.2-0.5l0.3-0.6
			c0.3,0.3,0.7,0.5,1.1,0.7c1.1,0.6,2.5,0.7,3.6,0.3l0.7,0c-0.1,1.5,0.7,2.9,1.7,4c1,1,2.3,1.8,3.6,2.5c1.3,0.7,2.7,1.5,4.2,1.5
			c0.9,0,1.8-0.2,2.6,0.1c0.8,0.2,1.4,0.9,1.6,1.7L574.2,746.8z"/>
		<path class="st13" d="M362.7,683.5c1.2,0,2.4,0.1,3.5-0.2l0.1,0.5c-1.6,3.3-3.2,6.5-4.8,9.8c-0.5,0.9-0.9,1.9-1.7,2.7
			c-0.2,0.2-0.4,0.3-0.6,0.5c-1,0.7-2.1,1.2-3.3,1.6c-4.5,1.6-9.7,3.2-13.8,0.7c-0.9-0.5-1.7-1.3-2-2.2c-0.1-0.3-0.2-0.6-0.2-1
			c0-0.8,0.3-1.5,0.7-2.2c1.7-3.4,3.3-6.8,5-10.3l0-0.5C351.4,683.2,357,683.4,362.7,683.5z"/>
		<path class="st10" d="M675,552l-1.4,0.9c-21.2-1-42.3-2.8-63.4-5.2c18.2-8,34.1-19.8,46.5-34.4C661.6,526.7,667.7,539.7,675,552z"
			/>
		<path class="st1" d="M498.5,517.6l0.9-0.5c0.3,0.2,0.5,0.4,0.8,0.6l-0.3,0.4c-1.2,9.4-2.3,18.7-3.5,28.1c-3.3-1.5-6.5-3.2-9.6-5
			C491.1,533.5,495.1,525.7,498.5,517.6z"/>
		<path class="st5" d="M346,399l-1.6,5.1L344,404h-4.9c-0.5-1.7-1-3.3-1.5-5L346,399L346,399z"/>
		<path class="st13" d="M551.5,45.9c2,1.1,4.3,1.6,6.6,1.6l0,0.6c-0.1,3-1.1,5.9-2.8,8.3c-0.3,0.4-0.6,0.8-1,1.1
			c-0.5,0.3-1.1,0.4-1.7,0.4c-0.9,0-1.9,0-2.8-0.2c-2.1-0.3-4.1-1.2-5.8-2.4c0.6-0.8,0.8-1.9,0.5-2.9c-0.3-0.9-1-1.9-0.6-2.7
			c0.6-1.3,2.9-1,3.5-2.3c0.2-0.5,0.1-1,0.3-1.4c0.3-0.6,1.1-0.9,1.8-0.8C550.3,45.1,550.9,45.5,551.5,45.9z"/>
		<path class="st16" d="M606,595.2c0,0.1-0.1,0.2-0.2,0.2c-0.6,0.6-1.4,1-1.9,1.7c-1.4,1.6-1.1,4.1-0.3,6.1c0.5,1.2,1.1,2.5,1.4,3.7
			c0.2,0.8,0.3,1.6,0.2,2.4c-0.2,1.7-1.2,3.2-1.5,4.9c-0.1,0.5-0.1,1-0.5,1.3c-0.3,0.2-0.7,0.2-1.1,0.2c-2.6,0-5.2,0-7.8,0
			c-2.1,0-4.1,0-6.2,0c-0.7,0-1.4,0-2.2,0c0.2-2.4,0.4-4.8,0.7-7.2c0.5-3.7,1.1-7.5,1.9-11.2l0,0c0.1-0.2,0.1-0.4,0.2-0.6
			c0.7-2.6,1.5-5.1,2.2-7.7c0.5,0,1,0,1.5,0c4.8,0.6,9.6,1.2,14.4,1.8C606.9,592.3,606.8,594,606,595.2z"/>
		<path class="st13" d="M538.9,225l-0.3,1c-0.4,1.5-0.8,3.1-1.3,4.6c-0.1,0.2-0.1,0.4-0.2,0.7c-1.1-0.6-2.2-1.2-3.3-1.7
			c-0.3-0.1-0.6-0.3-0.8-0.6c0,0,0-0.1-0.1-0.1c-0.4-0.8,0.6-1.9,0.2-2.8l-0.2-0.7C534.9,224.6,537,224.5,538.9,225z"/>
		<path class="st2" d="M561.2,736.5c-1.1,0.4-2.5,0.3-3.6-0.3c-0.4-0.2-0.7-0.5-1.1-0.7c-1-0.8-1.7-2-2.3-3.1
			c-2.5-5-2.5-10.8-2.4-16.4c0.1-8.4,0.2-16.8,1.9-24.9c1.3-6.1,3.5-12.4,1.6-18.3c-0.6-1.8-1.6-3.5-2.1-5.4
			c-0.8-2.5-0.8-5.1-0.7-7.7c0.1-3.8,0.2-7.6,0.3-11.5c0.2-4.2,0.5-8.5,0.8-12.7c5.3,1.3,10.8,1.7,16.2,1.1c0.8-0.1,1.6-0.2,2.4,0
			c0.7,0.1,1.4,0.5,2.1,0.6c0.7,0.1,1.6,0,2-0.6l0.8-0.5c-1.4-5.5-0.5-11.3,0.4-16.9c0.3-1.8,0.6-3.6,0.8-5.4
			c2.9-1.5,5.7-3.2,8.2-5.2c-0.3,2.4-0.5,4.8-0.7,7.2c0.7,0,1.4,0,2.2,0v0.4c-0.2,4.1-0.3,8.1-0.5,12.2l-0.5,0
			c-8.8,16-7.2,35.8-13.6,52.9c-1,2.6-2.2,5.2-3.1,7.9c-0.3,0.7-0.5,1.5-0.7,2.2c-1.1,3.9-1.3,8-1.6,12c-0.8,9.9-2.3,19.8-4.5,29.5
			c-0.2,1-0.5,2.1-1.2,2.9C562.1,736,561.7,736.3,561.2,736.5z"/>
		<path class="st13" d="M1066.1,532.1c-0.4-0.8,0.2-1.6,0.7-2.3c0.5-0.8,0.8-1.7,0.8-2.6c1.9-0.9,3.8-1.6,5.7-2.2
			c0.6-0.2,1.3-0.4,1.8-0.8c1.3,1.3,2.6,2.6,3.9,3.9l0,0c-1.8,0.6-3.6,1.3-5.5,1.9c-2,0.7-3.9,1.4-5.7,2.4c-0.3,0.2-0.5,0.3-0.8,0.5
			L1066.1,532.1z"/>
		<path class="st7" d="M935.2,333.8c-3,7.3-6.2,14.4-9.4,21.5c-0.8-0.3-1.6-0.7-2.3-1C927.4,347.4,931.2,340.6,935.2,333.8z"/>
		<path class="st7" d="M925.8,355.3c-3.1,6.7-6.3,13.2-9.5,19.7c-1.4-0.6-2.8-1.2-4.2-1.8c3.9-6.2,7.7-12.6,11.4-19
			C924.2,354.6,925,355,925.8,355.3z"/>
		<path class="st9" d="M850,311.3c-4.6-11-10.9-21.3-18.5-30.5c-1.7-2-3.4-4-5.5-5.7c-7-5.7-17.1-7.1-25.4-3.6l-0.3-0.7
			c-8.7,3.8-15.1,11.9-18.5,20.8c-3.5,9.1-4.2,18.9-4.2,28.6c0,26.9,5,53.7,14.8,78.7c-11.8-1.5-23.7-3-35.5-4.5
			c-11.4-1.4-22.8-2.9-34-5.1c-5.1-1-10.1-2.2-15.1-3.4l0.3-1.1c17.6-30.3,35.1-60.5,52.7-90.7c12.5-7.1,18.8-20.4,20-34.2l2,0.2
			c11.4-4.6,23.4-7.8,35.6-9.6l1-0.8c7.6,9.6,14.7,19.6,20.2,30.3c4.5,8.6,8,17.7,10,27.3c0.3,1.3,0.5,2.6,0.7,4L850,311.3z"/>
		<path class="st2" d="M577.9,600.3c-0.3-11.8,0.2-23.6,1.4-35.3l0.2,0c0,0,0,0,0,0.1c0.1,0.4,0.3,0.8,0.7,0.9
			c0.4,0.2,0.9,0,1.3-0.2c0,0,0,0,0,0c0.8-0.5,1.4-1.1,2.2-1.5c0.3-0.1,0.5-0.2,0.8-0.2c-0.5,11.1,0.5,22.3,2.9,33.2l0.7,0.6
			c-0.3,0.4-0.8,0.6-1.3,0.8c-2.9,1-5.8,1.9-8.8,2.5L577.9,600.3z"/>
		<path class="st8" d="M1067.6,527.2c-0.1,0.9-0.3,1.8-0.8,2.6c-0.5,0.7-1.1,1.6-0.7,2.3l1,0.9c-3.7,2.6-6,6.8-7.9,10.8
			c-2.1,4.4-3.9,9-7.4,12.3c-0.5,0.5-1,0.9-1.6,1.2c-0.6,0.3-1.3,0.3-2,0.4c-6,0.3-11.9-0.9-17.8-2.5c-0.8-6.8-1.6-16-1.4-22.7
			c0-1.1,0.1-2.2,0.7-3.1c0.7-1,1.9-1.4,3-1.8c6.1-2.1,13.3-4.6,15.3-10.8c1.1-3.3,0.4-6.9-0.4-10.4c-0.8-3.9-1.7-7.8-3.1-11.5
			c8-4.3,17.3-5,26.4-5.4c14.7-0.8,29.5-1.1,44.1,0l-0.1,0.8c-5.7,20.2-19.9,37.5-23.8,58.1l0.4,0.9c-1.1,0.4-2.1,0.8-3.2,1.2
			l-0.1,0c-0.5-4.5-1.2-8.9-2.7-13.1c-0.5-1.4-1-2.7-1.8-3.9c-0.9-1.3-2-2.4-3.1-3.5c-0.6-0.6-1.2-1.2-1.8-1.8
			c-1.3-1.3-2.6-2.6-3.9-3.9c0,0,0,0,0.1,0c0.1-0.1,0.2-0.2,0.2-0.3c0-0.1,0-0.3-0.1-0.4c-0.6-1.1-1.1-2.2-1.5-3.3
			c0.1-0.4-0.1-0.8,0.1-1.1c0.1-0.4,0.6-0.6,0.9-0.9c0.4-0.3,0.8-0.8,1.1-1.2c0.5-0.8,0.8-1.7,1.2-2.5c0.8-2.3,1.6-4.5,2.4-6.7
			c0.5-1.4,1-3,0.4-4.4c-0.6-1.5-2.3-2.3-4-2.5c-1.6-0.2-3.3,0-4.9-0.4c-3.6-0.7-6.5-3.9-10.1-4c-2.1-0.1-4.3,1-5.4,2.9
			c-1.1,1.9-0.9,4.4,0.6,6c0.9,1,2.3,1.8,2.9,2.9c0.1,0.3,0.2,0.6,0.3,0.9c0.1,1-0.5,1.9-0.9,2.9c-1.2,3.2,0.6,6.6,0.8,10
			c0,0.5,0.1,1,0.4,1.3c0.3,0.2,0.6,0.3,0.9,0.3c1.5,0.2,3,0.4,4.5,0.5c0.2,0,0.5,0.1,0.7,0.1c0.6,0.1,1.1,0.3,1.4,0.8
			c0.2,0.3,0.3,0.7,0.4,1C1067.7,526.3,1067.7,526.7,1067.6,527.2z"/>
		<path class="st15" d="M449.9,641c-0.6-2-1.2-4-1.8-6c-1.1-3.8-2.2-7.5-3.3-11.2c-0.9-3-1.8-6-2.7-9c-0.4-1.3-0.8-2.5-1.1-3.7
			c-0.5-1.8-1.1-3.6-1.6-5.4c1.7-2,3.5-4,5.2-6c7.8,24.3,15.8,49.1,22.6,74c2.4,8.8,4.7,17.6,6.8,26.5l0.8,1.3
			c-1.9,1.1-3.9,2.2-5.9,3.2c-0.7-2.2-1.4-4.3-2-6.5c-0.6-2-1.2-4-1.8-6c-2.2-7.2-4.4-14.6-6.6-22c-0.6-2-1.2-4-1.8-6
			C454.4,656.3,452.2,648.6,449.9,641z"/>
		<path class="st1" d="M363.8,357.8c0.3-1.3,0.6-2.6,0.9-3.8l0.3,0.1c1.9,6.6,3.8,13.3,5.8,20H360l-1-0.3L363.8,357.8z"/>
		<path class="st0" d="M542.3,55c-0.2-0.2-0.5-0.2-0.8-0.2c-1.5-0.2-2.3-2-2.4-3.6c-0.1-1.5,0-3.2-0.8-4.5c-0.7-1.1-2.2-2-2-3.3
			c0.1-0.6,0.5-1,0.9-1.5c1.3-1.3,2.5-2.6,3.8-4c2.2-2.3,5.1-4.8,8.1-3.9c0.9,0.3,1.6,0.8,2.5,0.9c1.6,0.2,3.2-0.9,4.8-0.6
			c2.5,0.4,3.1,3.6,4.7,5.6c1.2,1.5,3.3,2.8,3,4.6c-0.3,1.4-1.7,2.1-3,2.5c-1,0.2-1.9,0.4-2.9,0.4c-2.3,0.1-4.6-0.5-6.6-1.6
			c-0.6-0.4-1.3-0.7-1.9-0.9c-0.7-0.1-1.5,0.1-1.8,0.8c-0.2,0.5-0.1,1-0.3,1.4c-0.6,1.3-2.9,1-3.5,2.3c-0.4,0.9,0.3,1.8,0.6,2.7
			c0.3,1,0.1,2.1-0.5,2.9l-1.6,0.1C542.4,55.1,542.3,55,542.3,55z"/>
		<path class="st5" d="M254.4,698.1l-1.8,5.9H216c0.6-2,1.2-4,1.8-6.1l0.2,0.1h36L254.4,698.1z"/>
		<path class="st13" d="M606,595.2c1.8,1.1,2.7,3.4,2.5,5.5c-0.2,2.2-1.4,4.3-2.8,6l-0.6,0.2c-0.3-1.3-0.9-2.5-1.4-3.7
			c-0.8-2-1.1-4.5,0.3-6.1c0.6-0.6,1.4-1,1.9-1.7C605.8,595.3,605.9,595.3,606,595.2z"/>
		<path class="st1" d="M336.1,418.6l-0.9,0.3c-4.6-3-9.3-5.9-14.4-7.9c-1.5-0.6-3.1-1.1-4.5-2c-1.4-0.9-2.5-2.3-2.8-3.9v-1h18.1
			C333.1,408.9,334.6,413.7,336.1,418.6z"/>
		<path class="st0" d="M779.2,123.6c-0.2,2.7-0.5,5.3-0.7,8c-0.2,2.3-0.6,5-2.5,6.4c-0.8,0.6-1.8,0.8-2.8,0.9
			c-0.6,0.1-1.2,0.1-1.8,0.1c-1.6,0-3.2,0.1-4.7,0.1c-1.3,0-2.6,0-3.9-0.2c-2.1-0.3-3.9-1.1-4.9-2.9c-0.5-0.9-0.6-2-0.8-3
			c-0.5-3.3-0.9-6.5-1.4-9.8l0.8-0.1c2.5,0.1,5,0.1,7.5,0.2c1.5,0,3,0.1,4.6,0.1C772.1,123.4,775.7,123.5,779.2,123.6z"/>
		<path class="st12" d="M536.6,122.9c0.3,0.8,0.6,1.6,0.9,2.3c-5.2,2.7-10.2,6-15.8,7.5l-0.8-0.1c0.3-2.2,0.4-4.4,0.5-6.7l0.5,0
			c4.3-2.7,9-4.9,13.9-6.5C536,120.7,536.2,121.8,536.6,122.9z"/>
		<path class="st13" d="M581,735.8c1.3,0.5,2.7,0.6,3.7-0.2l0.9,0c0,2.3,1.3,4.4,3,5.9c1.8,1.5,3.9,2.3,6.1,2.9
			c1.1,0.3,2.3,0.6,3.4,1.1l-0.2,0.6c-4.1,0.7-8.4,0-12-2c-2.6-1.4-5-3.9-5.1-6.8l-0.5-0.2L581,735.8z"/>
		<path class="st10" d="M643.3,454.7c1.9,20,6.4,39.7,13.3,58.6c-12.4,14.5-28.3,26.4-46.5,34.4c-3.7-0.4-7.5-0.9-11.2-1.4l-2.4-0.1
			c0-0.7,0-1.4,0-2.1c-0.1-1.5-0.4-3.1-1-4.6c-0.8-2.1-2.1-4-4-5.1c-4.9-3-11.6-0.1-14.7,4.8c-0.9,1.4-1.6,3-2.1,4.6l-2.3-0.3
			c-8.5-2.5-17.1-5.1-25.6-7.7c-7.7-2.4-15.5-4.8-23.2-7.2c-8.3-2.6-16.8-5.4-23.5-10.8c-0.3-0.2-0.5-0.4-0.8-0.6l-0.9,0.5
			c-3.4,8.1-7.4,15.9-11.7,23.6c-20.9-12-38-29.4-48.8-50.2c3.9-7.4,8.1-14.7,13.3-21.2c3.6-4.5,7.7-8.6,12.3-12
			c9.8,37.4,45.9,65.2,88.9,65.2c44.2,0,81.2-29.4,89.7-68.4C642.5,454.7,643,454.7,643.3,454.7z"/>
		<path class="st15" d="M387.5,432h-40.2c-0.5-1.7-1-3.3-1.5-5H386h0C386.5,428.7,387,430.3,387.5,432z"/>
		<path class="st15" d="M341.8,413l-3.7,12c-0.7-2.2-1.3-4.3-2-6.5c-1.5-4.9-3-9.7-4.4-14.6h7.4C340,407,340.9,410,341.8,413z"/>
		<path class="st0" d="M147.4,547.2l-1.7,0.2c-1.3-0.8-3.1-1-4.6-1.7c-2-1.1-3.1-3.4-3.9-5.6c-1.8-4.5-3.5-10.1-0.5-14
			c3.4-4.2,10.2-3.3,14.7-6.3c0.7-0.5,1.4-1.1,2.3-1.3c1.8-0.4,3.5,1.5,3.5,3.3c0,1.4-0.8,2.6-1.9,3.5c-0.3,0.3-0.7,0.5-1.1,0.7
			c0,0-0.1,0-0.1,0c-1.9,1-4.5,1.7-4.7,3.8c-0.3,2.4,3.2,4.4,2.3,6.7c-2.3-0.6-4.6-1.3-6.9-1.9c-1.3,0.8-1.2,2.8-0.3,4.1
			c0.9,1.2,2.3,2,3.5,2.8c1.2,0.9,2.4,2.2,2.4,3.7C150.3,546.6,148.6,547.9,147.4,547.2z"/>
		<path class="st10" d="M382.7,189.8c-2-6-2.2-12.6-0.6-18.7c1.4,0.2,2.2,1.8,2.5,3.2c1.3,5.3,0.6,11-1.8,15.8
			C382.8,190,382.8,189.9,382.7,189.8z"/>
		<path class="st2" d="M245.6,363l-0.8,1.6c-36.1-17.6-73.2-33.5-105.8-56.9c0.3-1.7,0.8-3.4,2.2-4.4c0.9-0.7,2.1-0.9,3.3-1.1
			c18.6-3.4,37.4-5.4,56.3-5.9c6.3-0.2,12.8-0.2,19,1.2c0.1,0,0.2,0,0.3,0.1c4.9,1.1,9.6,3.1,14.4,4.5c2.7,0.8,5.4,1.4,8.1,2l0,0.2
			C244.4,323.9,245.4,343.4,245.6,363z"/>
		<path class="st5" d="M337.6,399c0.5,1.7,1,3.3,1.5,5h-7.4c-0.5-1.7-1-3.3-1.5-5H337.6z"/>
		<path class="st13" d="M1066.1,709.3c-0.4,0.8,0.1,1.7,0.7,2.5l-0.5,0.3c-0.9,0.1-1.8,0.1-2.7,0.2c-1,0-2,0-3,0
			c0.2-0.1,0.3-0.3,0.4-0.4c0.2-0.3,0.2-0.6,0.3-0.9c0.1-1,0.1-2.1,0.1-3.1c0,0,0.1,0,0.1,0.1c0.8,0.7,1.9,1,2.9,1L1066.1,709.3z"/>
		<path class="st8" d="M729.5,460.4c-15.5,0.1-31.1-0.4-46.6-1.2c1.3-7,2.1-14.3,2.1-21.7c0-0.8,0-1.6,0-2.5c2.9,0,5.8-0.1,8.8-0.1
			c10.4,8.8,22.1,16.1,33.8,23.1c0.8,0.5,1.7,1,2.5,1.5L729.5,460.4z"/>
		<path class="st1" d="M496.4,546.2c-5.3,44.4-10,88.8-14,133.4l-1.1-0.1c-4.7-1.2-9.1-3.3-12.9-6.3l-1.2,0.3
			c-6.9-24.9-14.9-49.8-22.6-74c10.2-12,20-24.3,28.9-37.3c4.7-6.9,9.2-13.9,13.3-21.1C489.9,543,493.1,544.7,496.4,546.2z"/>
		<path class="st0" d="M354.5,366.5c0.6,0.2,0.9,0.3,1.1,0.3c0.1,0.1,0.3,0.3,0.9,0.7c0.3,0.2-1,0.7-1,1c0.1,0.5-0.5,0.8-1,1
			c-4.4,1.6,6,0.8,1.4,1.5c-0.4,0-0.7,0.1-0.9,0.4c-0.1,0.2-0.2,0.5-0.3,0.6c-0.2,0.2-0.4,0.2-0.6,0.2c0,0,0,0-0.1,0
			c-1.1,0.1-2.3,0-3.4-0.3c-0.3-0.1-0.7-0.3-0.9-0.6c-0.2-0.3-0.2-0.6-0.1-0.9c0-0.1,0-0.3,0-0.4c0.1-1.6,0.3-3.1,0.7-4.6
			c0.1-0.4,0.2-0.8,0.5-1.1c0.2-0.2,0.4-0.3,0.6-0.4c0.5-0.2,1-0.2,1.5-0.2c0.5,0,1,0,1.5,0l0,1.5c0.6,0,1.2,0.1,2.2,0.3
			C357.9,365.7,353.1,366.1,354.5,366.5z"/>
		<path class="st13" d="M542.3,56c0.1-0.3,0.1-0.6,0-0.8l1.6-0.1c1.7,1.2,3.7,2.1,5.8,2.4l-0.1,0.5c-1,2.4-1.7,5-2.1,7.6
			c-0.2-0.4-0.4-0.7-0.7-1c-1.7-2.1-4.3-3.2-7-3.5l0-0.1C541,59.5,541.8,57.8,542.3,56z"/>
		<path class="st18" d="M852.1,338.3c0.8,26.4,1.5,52.9,0.4,79.3c-0.3,7.2-0.8,14.6-4.2,21c-5.7,10.9-18.6,16.3-30.9,16.5
			c0,0,0,0,0,0c-12.3,0.2-24.1-4-35.7-8.1c-14.3-5.1-28.5-10.2-42.8-15.3c-8.7-3.1-17.4-6.2-25.7-10.2c-5.1-2.4-10.1-5.2-15.1-8
			c-1.4-0.8-2.8-1.6-4.2-2.3c-4.7-2.6-9.4-5.2-14.1-7.8c-2.7-8.7-6.5-17.1-11.1-24.9c3.7-0.8,7.5,0,11.1,0.7c9.4,2,18.7,4.5,28,6.8
			c5,1.2,10.1,2.4,15.1,3.4c11.2,2.3,22.6,3.7,34,5.1c11.9,1.5,23.7,3,35.5,4.5c-9.8-25-14.9-51.9-14.8-78.7
			c0-9.7,0.7-19.6,4.2-28.6c3.4-8.9,9.8-17,18.5-20.8l0.3,0.7c8.3-3.5,18.5-2.1,25.4,3.6c2,1.7,3.8,3.6,5.5,5.7
			c7.6,9.2,13.9,19.5,18.5,30.5l0.2,0C851.6,320.2,851.9,329.2,852.1,338.3z"/>
		<path class="st0" d="M1079.5,507.7c-0.8,2.2-1.6,4.5-2.4,6.7c-0.3,0.9-0.7,1.8-1.2,2.5l-0.4-0.1c-0.1-0.7,0.2-1.4,0.4-2.1
			c0.2-0.7,0.2-1.5-0.3-2c-0.9-0.8-2.5,0.2-3.4-0.5c-0.7-0.6-0.5-1.7-0.8-2.5c-0.6-1.3-2.3-1.4-3.7-1.4c-2.1,0-4.2,0.1-6.3,0.1
			c-0.8,0-1.6,0-2.3-0.3c-0.6-1.1-2-1.9-2.9-2.9c-1.4-1.6-1.6-4.1-0.6-6c1.1-1.9,3.2-3,5.4-2.9c3.7,0.1,6.6,3.3,10.1,4
			c1.6,0.3,3.3,0.1,4.9,0.4c1.6,0.2,3.3,1,4,2.5C1080.5,504.7,1080,506.3,1079.5,507.7z"/>
		<path class="st7" d="M628,567.5c-1.9-0.2-3.7-0.5-5.6-0.7c-8.9-1.3-17.8-2.9-26.5-5l-1.1,0c0.1-2.1,0.3-4.3,0.6-6.4
			c0.1-0.8,0.3-1.6,0.4-2.4c4.9-1.5,9.7-3.3,14.4-5.4c21.1,2.4,42.2,4.2,63.4,5.2l1.4-0.9c3.3,5.7,6.9,11.2,10.8,16.6l-1.1,0.8
			C665.8,570.5,646.8,569.9,628,567.5z"/>
		<path class="st15" d="M363,486c0.5,1.7,1,3.4,1.5,5.1c2.4,8.3,4.9,16.6,7.3,24.9c0.6,2,1.2,4,1.8,6c1.5,5.2,3.1,10.3,4.6,15.5
			c1.5,4.8,2.9,9.7,4.4,14.5c2.6,8.7,5.3,17.3,7.9,26c0.5,1.6,1,3.2,1.5,4.7c-1.4,2.9-2.8,5.7-4.2,8.6c-1-3.3-1.9-6.7-2.9-10
			c-12.1-42-24.9-84.2-37.7-126.2c-2.1-7-4.3-14-6.4-21l3.6-11.9c0.5,1.6,0.9,3.2,1.4,4.8c0.5,1.7,1,3.3,1.5,5
			c2.3,7.9,4.6,15.8,6.9,23.7c0.1,0.4,0.2,0.8,0.4,1.3c0.5,1.7,1,3.3,1.4,5C358.4,470,360.7,478,363,486z"/>
		<path class="st15" d="M394.7,457c0.5,1.6,1,3.3,1.5,4.9L396,462h-40c-0.5-1.7-1-3.3-1.4-5H394.7z"/>
		<path class="st10" d="M507.7,448.6c44.8,2,89.6,4,134.4,6c-8.5,39-45.4,68.4-89.7,68.4c-43,0-79.1-27.8-88.9-65.2
			c4.8-3.6,10.2-6.4,16-7.9c8.2-2.2,16.8-1.8,25.3-1.4C505.8,448.5,506.8,448.6,507.7,448.6z"/>
		<path class="st4" d="M313,506.7l-2.9,9.4L310,516h-4.4v-1.2c1.7-3.3,4.2-6.1,7.2-8.2L313,506.7z"/>
		<path class="st0" d="M533.1,228.9c0.2,0.3,0.5,0.4,0.8,0.6c1.1,0.6,2.2,1.2,3.3,1.7c0.1-0.2,0.1-0.4,0.2-0.7l0.9,0.2
			c1.8,2.1,3.9,3.9,6.2,5.3c1.5,0.9,3.3,2,3.3,3.7c-0.4,0-0.7,0-1.1,0c-2.2-0.1-4.4-0.1-6.6-0.2c-2-0.1-4.2-0.2-5.4-1.8
			c-0.5-0.6-0.7-1.3-1.3-1.8c-0.5-0.4-1.2-0.5-1.9-0.8c-1.4-0.6-2.5-2-2.4-3.4c0.1-1.4,1.3-2.6,2.7-2.6l1.4-0.5
			C533.1,228.9,533.1,228.9,533.1,228.9z"/>
		<path class="st0" d="M892.8,752.6c0,0.1,0,0.3,0,0.4c0,0.4-0.1,0.8-0.3,1.1c-0.2,0.5-0.8,0.8-1.2,0.7c-0.7-0.1-1-1-1-1.7
			c0-0.7,0.1-1.5-0.4-2c-0.5-0.6-1.5-0.6-2.2-0.2c-0.7,0.5-1,1.2-1.2,2c-0.1,0.5-0.2,1-0.5,1.3c-0.4,0.3-0.9,0.3-1.4,0.3
			c-3.3-0.1-6.6-0.1-10-0.2c-0.6,0-1.2,0-1.7-0.4c-0.8-0.7-0.4-2.2,0.5-2.8c0.9-0.6,2.1-0.7,3.1-1c0.6-0.2,1.1-0.4,1.6-0.6l0.1,0.2
			c1.4,0.1,3,0.3,4.2-0.4c0.5-0.3,0.9-0.6,1.3-0.9c2.2-1.5,6.5-1.7,8.5-3.5C893.2,747.2,893,750,892.8,752.6z"/>
		<path class="st3" d="M326.1,260l0.7-0.7c0.1,0.1,0.3,0.3,0.4,0.4l0.5,0c-0.5,17.9-2.6,35.8-4.7,53.5c-1.1,9-2.1,18-3.2,27
			l-0.7-0.1c-3.3-2.4-6.6-4.6-10.1-6.7l0.7-1.2c-4.3-7.5-8.7-15.1-13-22.7c7.5-10.7,13.9-22.1,20.2-33.5
			C320.1,270.8,323.1,265.4,326.1,260z"/>
		<path class="st5" d="M319.4,486.1l-1.6,5.1L317,491h-36l-0.1,0c0.5-1.7,1-3.4,1.6-5.1l0.5,0.2h36L319.4,486.1z"/>
		<path class="st13" d="M125.8,710.9c-0.2,0-0.5,0-0.7,0L125,710c0.1-1.3,0.1-2.7,0.2-4l0,0c0.5,0.1,1.1,0.1,1.6,0.1
			c1.3,0,2.7-0.1,3.9-0.4l0.2,0.7c0.3,0.8,0,1.7,0,2.5c0,0.7,0.2,1.5,0.7,1.9C129.7,710.8,127.7,710.9,125.8,710.9z"/>
		<path class="st0" d="M1063.6,712.3c0.9-0.1,1.8-0.2,2.7-0.2l0.5-0.3c0.3,0.4,0.5,0.8,0.7,1.1c1,1.8,0.3,4.1-0.3,6.1
			c-0.2,0.4-0.3,0.9-0.6,1.2c-0.8,0.8-2.1,0.5-3,0c-1-0.5-1.9-1.2-3-1.2c-0.7,0-1.3,0.3-2,0.6c-3.3,1.3-7.1,1.4-10.5,0.2
			c-0.9-0.3-1.9-1.1-1.5-1.9c0.1-0.3,0.4-0.5,0.7-0.6c3.8-2.3,8.4-2.8,12.5-4.5c0.3-0.1,0.5-0.2,0.8-0.4
			C1061.5,712.3,1062.6,712.3,1063.6,712.3z"/>
		<path class="st4" d="M1168.6,322.1c-15,18.9-30.1,37.8-45.1,56.7c-8.1,10.2-16.3,20.4-24.4,30.6c-4.9,6.1-9.8,12.3-14.9,18.3
			l-1.4-1.2c-1-3.3-2.9-6.3-4-9.7c-0.7-2.3-1-4.7-1.4-7c-2.5-14.8-8.7-28.8-14.8-42.5l-0.6-0.8c5.7-4.5,11.7-8.9,17.6-13.1
			c1.1-0.8,2.2-1.6,3.4-2.4c2.6-1.9,5.2-3.7,7.8-5.5c3.8-2.6,7.8-5,11.8-7.2c6-3.1,12.3-5.7,18.7-7.8c14.6-4.9,29.9-7.9,45.3-8.9
			c0.7,0,1.4-0.1,2,0L1168.6,322.1z"/>
		<path class="st2" d="M1080.8,529.9c1.1,1.1,2.2,2.2,3.1,3.5c0.8,1.2,1.3,2.6,1.8,3.9c1.5,4.2,2.2,8.6,2.7,13.1
			c0.3,2.3,0.4,4.7,0.6,7.1c0.9,11,1.7,22.1,1.1,33.1c0,0.8-0.1,1.7-0.5,2.3c-0.1,0.2-0.3,0.4-0.5,0.5c-0.1,0.1-0.2,0.2-0.4,0.2
			c-0.5,0.2-1.1,0.2-1.6,0.3c-7.1,0.2-14.3-0.5-21.3,0.5c-2.9,0.4-6.1,1-8.7-0.3c-0.2-0.1-0.4-0.2-0.6-0.4c-0.2-0.1-0.3-0.3-0.4-0.5
			c-0.2-0.3-0.3-0.7-0.4-1.1c-0.2-1.2-0.1-2.4,0.1-3.5c0.3-1.6,0.8-3.3,0.9-4.9c0.4-3.5-0.5-6.9-1.4-10.3l-2.6-0.5
			c-1.7,0.1-3.3,0-5-0.2c-3.4-0.5-6.8-1.6-10-2.9c-8.3-3.3-16.1-7.8-23.2-13.1c-0.5-0.3-1-0.8-1.1-1.4c0-0.2,0-0.4,0.1-0.6
			c0-0.2,0.1-0.3,0.2-0.5c0.3-0.7,0.6-1.5,0.9-2.2c0.1-0.3,0.3-0.7,0.6-0.9c0.1-0.1,0.2-0.1,0.2-0.1c0.5-0.2,1-0.1,1.5,0.1
			c4.5,1.2,8.9,2.7,13.4,4c5.9,1.6,11.8,2.9,17.8,2.5c0.7,0,1.4-0.1,2-0.4c0.6-0.3,1.1-0.7,1.6-1.2c3.4-3.4,5.3-8,7.4-12.3
			c1.9-4.1,4.2-8.3,7.9-10.8c0.2-0.2,0.5-0.3,0.8-0.5c1.8-1.1,3.7-1.8,5.7-2.4c1.8-0.6,3.7-1.3,5.5-1.9l0,0
			C1079.6,528.7,1080.2,529.3,1080.8,529.9z"/>
		<path class="st13" d="M878.2,749.4c2.1-1,4-2.6,6.3-3.3c0.6-0.1,1.2-0.3,1.4-0.9c0.1-0.2,0-0.4,0-0.6c0-1.2-0.1-2.4-0.1-3.6
			l0.2-0.1c0.1,0.2,0.2,0.5,0.4,0.7c1.2,1.5,3.8,1.1,5.1-0.3l0,0c0.3,0.7,0.4,2.2,0.7,2.9c0,0.1,0.1,0.2,0.1,0.3
			c-2,1.8-6.3,2.1-8.5,3.5c-0.5,0.3-0.9,0.7-1.3,0.9c-1.3,0.7-2.8,0.6-4.2,0.4L878.2,749.4z"/>
		<path class="st13" d="M515.6,146.1c-1.4,0.4-3,0.4-4.3-0.3c-0.1-0.1-0.3-0.1-0.4-0.2c-2.2-1.5-3.1-4.7-1.9-7.1
			c1.4-0.1,2.7-1.4,2.8-2.8l0.7,0c0.2-2,0-3.9-0.5-5.9c-0.4-1.7-0.9-3.4-1.4-5.1c-0.4-1.3-0.8-2.6-1.2-4c-2.6-9.1-4.3-18.7-1.4-27.6
			c2.1-6.5,6.5-12,10.8-17.3c0.2-0.3,0.4-0.5,0.6-0.8l0.4,0.3c2.2,1.3,4.4,2.6,6.6,3.9c1.3,0.8,2.6,1.5,3.7,2.5c2.4,2.1,3.9,5,4.8,8
			l0.3,0.6c-4.8,2.3-9,5.3-12.1,9.6c-0.9,1.2-1.6,2.6-2.1,4.1c-0.7,2.6-0.3,5.4-0.1,8.1c0.5,4.6,0.6,9.3,0.4,13.9
			c-0.1,2.2-0.3,4.5-0.5,6.7c-0.3,2.6-0.7,5.3-1.2,7.9c-0.2,1.1-0.5,2.1-1,3.1C518,144.8,516.9,145.6,515.6,146.1z"/>
		<path class="st4" d="M1043.8,291.1c-3.3-4.1-6.6-8.1-9.9-12.2c-1.8-2.3-3.8-4.6-6.6-5.4c-3-0.8-6.2,0.4-8.9,1.8c-2,1-4,2.1-6,3.3
			c-9.2-22.9-32.8-39.2-60.4-39.2c-35.6,0-64.5,27.1-64.5,60.5c0,0.9,0,1.9,0.1,2.8c-7.7-3.6-15.4-7.1-23.1-10.6
			c-1.1-0.5-2.2-1-3.3-1.4c3.1-44.5,42.8-79.8,91.3-79.8C1001.1,211,1040.9,246.4,1043.8,291.1z"/>
		<path class="st0" d="M322,372.2c-0.1,0.1-0.3,0.2-0.4,0.4c-0.1,0.2-0.2,0.5-0.4,0.6c-0.2,0.1-0.4,0.1-0.6,0.1
			c-1.2,0-2.5-0.1-3.7-0.3c-0.2,0-0.3-0.1-0.5-0.1c-0.1-2,0-4,0.1-6c0.1-1.2,0.4-2.6,1.6-2.9c0.2-0.1,0.5-0.1,0.7-0.1
			c0.1,0,0.2,0,0.3,0l0,0.5c1.4,0.5,3,0.8,4.5,0.8c0,0,0-0.1,0-0.1c0.9,0.1,1.8,0.1,2.6,0.2c0.2,0,0.4,0,0.5,0.1
			c2.8,0.4,5.4,1.4,8,2.3c1.1,0.4,2.5,1.1,2.7,2.3c0,0.1,0,0.2,0,0.4c-0.1,0.8-0.8,1.5-1.5,1.8c-0.8,0.3-1.6,0.2-2.4,0.2
			c-1.2-0.1-2.4-0.1-3.6-0.2c-2.1-0.1-4.1-0.2-6.2-0.3C323.2,371.9,322.5,371.9,322,372.2z"/>
		<path class="st19" d="M537.8,179.8c0-1.9-0.4-3.8-1.1-5.7c-1.2-3-3.4-5.5-5.6-8c-5.5-6.4-10.8-13.1-15.6-20.1
			c1.3-0.4,2.4-1.3,3.1-2.4l0.3,0.1c3.8-0.2,7.7,0.6,11.1,2.5c2.9,1.6,5.4,3.9,8.4,5.3c4.6,2.1,9.7,1.8,14.8,0.8l0.1,0.4
			c7,5.5,9.3,15.4,8,24.2c-1.3,8.8-5.7,16.8-10.2,24.5c-4.5,7.7-9.3,15.4-11.5,24c-0.3-0.1-0.6-0.2-0.9-0.3c-1.9-0.5-4-0.4-5.8,0.3
			c-1.5-9.8-1-20,1.5-29.6C536,190.5,538,185.1,537.8,179.8z"/>
		<path class="st1" d="M622.4,566.8l0,0.2c-4.9,15.6-9.8,31.2-14.6,46.8c-1.3,4.2-2.6,8.3-3.8,12.5c-1.7,5.5-3.2,11-4.8,16.5
			l-0.8-0.2c-1.6,0.9-3.5,1.4-5.3,1.5h-0.5c0-3-0.2-5.9-0.7-8.8l-2.3-0.7c2.3-1.2,4.6-2.2,7.1-3c-3.2-4.2-4.1-10-2.4-15
			c0.1-0.3,0.2-0.6,0.1-0.9c2.6,0,5.2,0,7.8,0c0.4,0,0.8,0,1.1-0.2c0.4-0.3,0.5-0.9,0.5-1.3c0.3-1.7,1.3-3.2,1.5-4.9
			c0.1-0.8,0-1.6-0.2-2.4l0.6-0.2c1.5-1.7,2.6-3.8,2.8-6c0.2-2.1-0.7-4.4-2.5-5.5c0.9-1.2,0.9-2.9,0.9-4.4
			c-4.8-0.6-9.6-1.2-14.4-1.8c2,0,4.1,0,6.1,0c-1-2.9-2.4-5.5-4.2-7.9c-1.4-1.8-3-3.5-3.9-5.5c-0.9-2.1-1-4.7,0.6-6.3l0.2-0.3
			c1.5,1.2,2.8,2.5,4,4c-0.5-3.7-0.7-7.4-0.6-11l1.1,0C604.7,563.9,613.5,565.5,622.4,566.8z"/>
		<path class="st15" d="M337.6,399h-7.5c-2.5-8.4-5.1-16.7-7.6-25h7.7C332.8,382.3,335.2,390.7,337.6,399z"/>
		<path class="st2" d="M1017.7,309.5l-1.9-0.3c0.5-3,0.7-6.1,0.7-9.2c0-7.5-1.5-14.7-4.1-21.3c1.9-1.2,3.9-2.3,6-3.3
			c2.8-1.4,5.9-2.6,8.9-1.8c2.8,0.8,4.8,3.1,6.6,5.4c3.3,4,6.6,8.1,9.9,12.2c0.1,1.8,0.2,3.6,0.2,5.4c0,26.9-13.3,50.9-34.1,66.6
			c0.7-2.5,1.9-4.9,2.6-7.4c1.8-6,1.3-12.3,1.6-18.6c0.3-7.2,1.4-14.3,2.6-21.3C1017,313.7,1017.3,311.6,1017.7,309.5z"/>
		<path class="st13" d="M1075.1,524.2c-0.5,0.4-1.1,0.6-1.8,0.8c-2,0.6-3.9,1.3-5.7,2.2c0-0.4,0-0.8-0.1-1.2c-0.1-0.4-0.2-0.7-0.4-1
			c-0.3-0.4-0.9-0.6-1.4-0.8c2.3-0.7,4.5-1.6,6.7-2.6c0.6-0.3,1.3-0.7,1.4-1.3c0,0,0,0,0,0c0.4,1.2,0.9,2.3,1.5,3.3
			c0.1,0.1,0.1,0.2,0.1,0.4C1075.4,524,1075.3,524.1,1075.1,524.2C1075.2,524.2,1075.2,524.2,1075.1,524.2z"/>
		<path class="st13" d="M1099.2,705c-1.7,0.5-3.4,0.7-5.2,0.6c0.7-0.6,1.2-1.6,0.9-2.5l0.5-0.9c0.2,0.1,0.3,0.2,0.5,0.3
			c1.1-1,2.8-1.3,4.1-0.5l-0.9,1.5c-0.4,0.4-0.2,1,0.2,1.4L1099.2,705z"/>
		<path class="st16" d="M680.8,551.9c3.8,5.8,7.7,11.5,11.8,17.1c3.6,4.9,7.5,9.6,11.6,14.1c0.3,0.3,0.5,0.5,0.8,0.8
			c6.7,7.2,14.2,13.8,22.5,19c1.3,0.8,2.5,1.5,3.8,2.3c5.1,2.9,10.6,5.2,16.3,6.9c4.2,1.2,8.4,2.1,12.5,3.4c2.5,0.8,4.9,1.9,7.5,2.5
			c2.8,0.6,5.6,0.7,8.5,0.7c5,0,10.1,0,15.1-0.3c2.5-0.1,5.1-0.3,7.6-0.5c7.4-0.7,14.8-1.9,21.8-3.9c6.9-1.9,13.5-4.6,19.7-8.3
			c0.9-0.5,1.7-1,2.6-1.6l0-2.1c2.6,0,5.2-0.1,7.7-0.2l0,1.2c-0.2,0.3-0.4,0.6-0.6,0.9c-0.3,0.4-0.5,0.8-0.8,1.2
			c-0.4,0.6-1.1,1.4-1.8,1.2l-0.5,0.5c-2.3,1.5-4.6,2.9-7,4.2c-12.1,6.7-25.4,10.9-39.1,12.7c-2.5,0.3-5,0.6-7.6,0.8
			c-22.8,1.5-46-3.5-65.5-15.2c-0.5-0.3-1.1-0.7-1.7-1c-1.1-0.7-2.2-1.4-3.2-2.1c-8.1-5.4-15.4-11.9-22-19c0,0,0,0-0.1-0.1
			c-3.9-4.2-7.5-8.7-11-13.3c-1.3-1.7-2.6-3.5-3.9-5.3c-3.8-5.4-7.4-10.9-10.8-16.6c-7.3-12.3-13.4-25.3-18.3-38.7
			c1.3-1.5,2.5-3,3.7-4.5c0.8,2.2,1.8,4.4,2.7,6.5c3.7,8.9,7.6,17.8,11.6,26.6l0,0.3C676.6,545.5,678.7,548.7,680.8,551.9z"/>
		<path class="st13" d="M323.8,365.2C323.8,365.2,323.8,365.2,323.8,365.2c-1.5,0.1-3.1-0.1-4.5-0.7l0-0.5c-0.1,0-0.2,0-0.3,0l0-0.5
			c0.1-1.6,0.2-3.2,0.3-4.8c1.8,0,3.5-0.1,5.2-0.2l0,0.2C324.4,360.9,324.2,363,323.8,365.2z"/>
		<path class="st15" d="M404.8,491H365l-0.5,0.1c-0.5-1.7-1-3.4-1.5-5.1h40.3C403.8,487.7,404.3,489.3,404.8,491z"/>
		<path class="st4" d="M951,382c-0.3,3.9-0.4,7.7-0.5,11.6c-0.3,12.5-0.6,24.9-1,37.4l0.4,0.3c-1,1.6-2,3.1-3.1,4.7l-0.4-0.2
			c-11,0-22-1.6-32.6-4.6c-3.4-1-7-2.1-10.3-0.9l-0.4,0.3c-0.8-1.1-1.6-2.1-2.6-3c-2.8-2.5-7.1-3.7-10.5-2l-1.2-0.7
			c9.7-16.5,18.8-32.9,27.3-49.8C926.9,379.3,938.7,381.8,951,382z"/>
		<path class="st1" d="M412.3,516H372l-0.1,0c-2.5-8.3-4.9-16.6-7.3-24.9l0.5-0.1h39.8C407.3,499.4,409.8,507.7,412.3,516z"/>
		<path class="st12" d="M770.5,93.3c0,2.1-0.3,4.2-0.6,6.3c-1,7.3-1.5,14.6-1.3,21.9l0,1.8c-1.5,0-3.1-0.1-4.6-0.1l0.1-2.1
			c0.1-9.5,0.3-19.1,0.4-28.6c0-2.3,0.1-4.7-0.1-7l1.1,0c1.4,0.1,2.7,0.2,4.1,0.3C769.9,88.3,770.5,90.8,770.5,93.3z"/>
		<path class="st17" d="M912,373.2c-1.5,2.4-3,4.7-4.6,7c-17.7,26.5-36.1,53.4-57.4,77.1c-20.1,22.5-42.5,44.9-68.7,60.3l-2.4-0.3
			c3.1-3,6-6.2,8.9-9.4c2-2.1,3.9-4.3,5.7-6.6c0.1-0.1,0.2-0.3,0.3-0.4c2.5-3.4,4.6-7.1,6.7-10.8c2.2-4,4.5-8,6.7-11.9
			c4-7,8-14.1,10.1-21.9l0-1.4c12.3-0.2,25.2-5.7,30.9-16.5c3.3-6.4,3.8-13.8,4.2-21c1.2-26.4,0.4-52.9-0.4-79.3
			c-0.3-9-0.5-18.1-2-27c-0.2-1.3-0.4-2.6-0.7-4c-2-9.6-5.5-18.7-10-27.3l1-0.3c6.4,4.5,13.6,7.9,20.7,11.1
			c-0.1,1.9-0.2,3.8-0.2,5.7C861,330.1,881.8,359.3,912,373.2z"/>
		<path class="st13" d="M621.9,373.3c14.3-0.4,28.7,1.8,42.2,6.6l0.3,0.4c-2.2,1.5-3.9,3.8-4,6.5c0,1,0.1,2,0.5,2.8
			c-4.8-2.9-11-2-16.4-0.4c-4.7,1.4-9.6,3.1-14.4,3c-4.2-6.3-9.3-12.1-15.2-17.2C616.9,373.6,619.5,373.4,621.9,373.3z"/>
		<path class="st7" d="M774,549.1c-15.4,7.5-31.9,12.7-49,15.9c-3.2,0.3-6.2,0.8-9.2,1.2c-7.2,1.2-14,2.5-21.8,1.7l-1.5,1.1
			c-4.1-5.5-8-11.3-11.8-17.1c7.4,1.1,15,0.2,22.4-1.1c25.2-4.1,50.8-11.6,70.2-28.2c2-1.7,3.9-3.4,5.7-5.3l2.4,0.3
			c26.1-15.4,48.6-37.8,68.7-60.3c21.3-23.8,39.7-50.6,57.4-77.1c1.5-2.3,3.1-4.7,4.6-7c1.4,0.6,2.8,1.2,4.2,1.8
			c-8.5,16.9-17.6,33.3-27.3,49.8c-6.1,10.4-12.4,20.7-18.9,31.2c-16,25-33,47-55,66c-1,1-3,1-4,2c-9.3,8.5-19.4,15.6-30.2,21.6
			C778.5,546.8,776.3,548,774,549.1z"/>
		<path class="st15" d="M449.9,641h-11h-29.2c-0.2-0.7-0.4-1.3-0.6-2c0.2-0.2,0.4-0.4,0.5-0.6c1.1-1.2,2.2-2.4,3.3-3.6l0.1,0.1h27.8
			h7.2l0.2,0C448.8,637,449.4,639,449.9,641z"/>
		<path class="st20" d="M892.1,611.2c1.2,16.4,2.5,32.8,3.7,49.2c0.5,7,1.1,14,3,20.8c1.2,4.1,2.8,8.1,3.8,12.3
			c0.2,0.7,0.3,1.4,0.4,2.1c-1.4,5.5-2.7,11-4.1,16.4c-0.4,1.7-0.8,3.4-1.3,5c-1.5,6.2-3,12.3-4,18.6c-0.3,2-0.6,4.1-1.9,5.7
			c-0.1,0.1-0.1,0.1-0.2,0.2c-1.3,1.4-3.9,1.8-5.1,0.3c-0.2-0.2-0.3-0.4-0.4-0.7c-0.4-0.9-0.3-1.9-0.3-2.8
			c0.2-5.4,0.4-10.8,0.6-16.1c0.2-4.7,0.3-9.5,1.2-14.2c0.5-2.8,1.3-5.6,1.6-8.4c0.4-3.6,0.1-7.3-0.2-11c-0.3-3.6-0.6-7.2-0.9-10.8
			c-0.4-4.5-0.8-9.1-1.1-13.7c-0.9-12.4-1.4-24.8-0.4-37.2c0.3-3.6,0.7-7.3,2.5-10.5c1.1-1.9,2.6-4,2.3-6c0.2,0,0.5,0.1,0.7,0.1
			L892.1,611.2z"/>
		<path class="st1" d="M448.2,635l-0.2,0h-7.2v-1.1c1.1-3.5,2.5-6.9,4.1-10.2C446,627.5,447.1,631.2,448.2,635z"/>
		<path class="st1" d="M513.5,244.2c10.7-2.4,21.8-3.8,33.1-4.3c0.4,0,0.7,0,1.1,0c0,0,0,0,0-0.1c8-0.3,16.2-0.3,24.3,0.1
			c6-13,9-28,21-38c8-5,17-4,25-3c19,3,38,8,52,21c13,13,3,31-2,46c-1,3,0,7,3,9c13,7,23,17,33.9,27.1l0.2,0.1
			c1.5,1.8,2.9,3.6,4.4,5.4c0.5,0.7,1.2,1.3,2,1.5c0.5,0.1,1-0.1,1.4-0.2c3.5-1.1,7-2.4,10.4-3.9l0,0c10.8-5.9,22.7-5,33.7-9
			c1.3-0.5,2.5-1.2,3.7-1.9c-17.6,30.2-35.1,60.5-52.7,90.7l-0.3,1.1c-9.3-2.3-18.6-4.8-28-6.8c-3.7-0.8-7.5-1.5-11.1-0.7
			c-22.2-37.4-64.9-62.6-113.8-62.6c-71.9,0-130.1,54.4-130.1,121.6c0,19.2,4.8,37.4,13.2,53.5c-1.6,3-3.1,6-4.6,9
			c-3.5,6.9-7,13.9-10.4,20.8c-0.6,1.1-1.1,2.2-1.7,3.3l-0.1,0C417,511,413,499,409,486c-12-45.8-23.9-89.6-37.8-133.4c0,0,0,0,0,0
			c0.1-0.4-0.1-0.8-0.4-1.1c-0.3-0.3-0.8-0.5-1.3-0.6c-2.5-0.8-5.3-1-7.9-0.6l-0.3,0c0.1-0.8,0.1-1.6,0.1-2.4c0-2.2-0.3-4.4-0.5-6.6
			c-0.3-4.5,0-9,0.4-13.4c0-0.4,0.1-0.8,0.1-1.2l1.6,0.1c5.9,1.1,11.7,2.9,17.2,5.1c10.2-15.5,23-29.2,37.7-40.5
			c1.5-1.1,3.1-2.4,3.5-4.3c0.3-1.2-0.1-2.5-0.5-3.7c-2.2-7.2-4.4-14.4-6.6-21.6c-1.4-4.4-2.7-9.1-2-13.7c1.4-8.8,9.8-14.4,17.5-19
			c8.5-5,16.9-10.1,25.3-15.1c3.4-2,6.9-4.1,10.5-5.5c1.7-0.6,3.4-1.1,5.2-1.4c10.1-1.7,20.3,3.5,27.3,11
			C505,225.4,509.3,234.9,513.5,244.2z"/>
		<path class="st1" d="M394.7,457h-40.2c-0.1-0.4-0.3-0.8-0.4-1.3c-2.3-7.9-4.6-15.8-6.9-23.7h40.2
			C389.9,440.3,392.3,448.7,394.7,457z"/>
		<path class="st0" d="M495.8,128.4c1.4,1.1,2.1,2.8,2.7,4.5c0.2,0.6,0.5,1.2,0.7,1.8c1.1,2.5,2.3,4.9,3.7,7.2
			c1.3,2.1,2.6,4.1,4.1,6.1l0.1,0.1c-2.9,1.9-6,3.6-9.2,5c-2,0.9-4.7,1.6-6-0.1c-0.4-0.6-0.6-1.3-1.1-1.8c-1-1-2.6-0.6-4-0.9
			c-3-0.7-4-4.4-4.4-7.4c-0.1-0.8-0.2-1.6,0.3-2.2c0.3-0.4,0.8-0.6,1.1-1c0.3-0.5,0.2-1.2,0.2-1.8c-0.2-3.3,2.8-5.7,5.5-7.5
			c1.9-1.2,3.8-2.3,5.8-3.3L495.8,128.4z"/>
		<path class="st1" d="M715.8,566.2l0.2,1c-3.3,5.2-6.7,10.5-10.9,15l-1,0.9c-4.1-4.5-7.9-9.2-11.6-14.1l1.5-1.1
			C701.8,568.7,708.6,567.4,715.8,566.2z"/>
		<path class="st14" d="M889.9,563.7c0.3,0.9,0.8,1.8,1.2,2.6c1.4,2.6,2.8,5.3,5.3,6.9c0.9,0.6,2,1,2.8,1.6c0.6,0.4,1.2,1,1.6,1.6
			c-0.2-0.1-0.5-0.2-0.7-0.3c-2.1-0.7-4.6-0.3-6.5,0.9c-2.3-2.8-4.2-5.9-5.8-9.2c0.8-1,1.7-2,1.6-3.3c0-0.3,0-0.5-0.1-0.7
			L889.9,563.7z"/>
		<path class="st13" d="M354.9,190.6c0,0.8,0.1,1.5,0.1,2.3l-0.9,0.3c-2.6,1.7-6.1,2.5-8.8,0.9c-0.9-0.5-1.7-1.3-2.5-2.2l-0.4,0.1
			c-0.5-2.1,0.9-4.6-0.1-6.6c-0.3-0.6-0.7-1.1-1.1-1.6l1-0.2c0-0.1,0.1-0.3,0.1-0.4c0.6-2.4,0.6-5,0-7.5c-0.3-1.2-0.6-2.5,0.1-3.5
			c0.2-0.3,0.5-0.5,0.8-0.7c1-0.5,2.3-0.5,3.1,0.2c1,0.9,0.8,2.4,0.7,3.8c-0.3,2.6-0.3,5.3-0.1,7.9c0.2,2.1,0.7,4.3,2.3,5.5
			c1.1,0.8,2.4,0.9,3.7,1.1c0.2,0,0.3,0,0.5,0L354.9,190.6z"/>
		<path class="st4" d="M1082.8,426.5l1.4,1.2c-2.7,3.1-5.5,6.2-8.3,9.2c-5,5.2-10.3,10.1-14.8,15.7c-5.8,7.1-10.4,15.1-16.1,22.2
			c-2.3,2.9-4.7,5.6-7.5,8l-1,0.2c-3.4-2.5-7.5-3.9-11.6-3.2c-5.2,0.9-10.1,5.1-15.2,3.6c-2.4-0.7-4.2-2.5-6-4.2
			c-5.1-5.1-10.2-10.2-15.3-15.3l-0.2,0c0.8-4.6,3.5-8.6,5.2-12.9c1.1-2.8,1.8-6,1.4-8.9l1-0.3c3.5-6.6,7-13.3,11.8-19
			c0.6-0.8,1.3-1.5,2-2.3c4.5-4.7,9.8-8.4,14.3-13.1c4.5-4.7,8-10.3,11.9-15.4c7.5-9.7,16.6-17.9,26.2-25.6l0.6,0.8
			c6.1,13.7,12.3,27.7,14.8,42.5c0.4,2.4,0.7,4.8,1.4,7C1079.9,420.1,1081.8,423.1,1082.8,426.5z"/>
		<path class="st5" d="M354,373l-0.4,1.2L353,374h-22.7c-0.1-0.3-0.2-0.7-0.3-1l0-0.8c1.2,0.1,2.4,0.1,3.6,0.2
			c0.8,0,1.7,0.1,2.4-0.2c0.8-0.3,1.5-0.9,1.5-1.8c0-0.1,0-0.2,0-0.4l1.4-0.1h10l0.5,0c0,0.1,0,0.3,0,0.4c0,0.3,0,0.6,0.1,0.9
			c0.2,0.3,0.6,0.5,0.9,0.6c1.1,0.3,2.3,0.4,3.4,0.3L354,373z"/>
		<path class="st15" d="M377.9,398.8c0.5,1.7,1,3.4,1.5,5.1L379,404h-27l-1.9-0.6l1.5-4.9l1.5,0.4h24L377.9,398.8z"/>
		<path class="st0" d="M792.8,203.2c0.4-0.5,0.6-1.1,0.8-1.8l2.5,0.6c-0.7,3.4-1.5,6.7-2.3,9.8l-0.4,0.3c-0.1-0.2-0.2-0.4-0.4-0.6
			c-1.1-1.6-2.6-3.3-2.2-5.2C791.2,205.1,792.2,204.2,792.8,203.2z"/>
		<path class="st4" d="M347.5,468.9l-2.8,0.1c-1.1,0-2.2,0-3.3,0c-2.9,0-5.8,0-8.7,0l-2.2-0.6l10.3-34.3c2.1,7,4.3,14,6.4,21
			l-0.2,0.1c-0.6,0.6-0.6,1.6-0.5,2.4C346.8,461.4,347.1,465.1,347.5,468.9z"/>
		<path class="st4" d="M335.9,432l-7.7,25.1L328,457h-36l-0.7-0.2c2.6-8.4,5.1-16.8,7.7-25.1l1,0.3H335.9z"/>
		<path class="st13" d="M905.3,749.5c-1.5,0.7-3.3,1-4.7,0.2l0-0.1c2.6-1.1,5.3-2.1,7.8-3.5c0.4-0.2,0.7-0.4,1-0.8
			c0.6-0.8,0.5-2.9,0.2-3.9l0.3-0.1c0.7,0.9,2.1,1.4,3,0.7c0.3-0.2,0.5-0.4,0.6-0.7l0.1,0.1c0,0.7,0,2.1,0.2,3
			c-0.4,0.3-0.6,0.8-0.9,1.2c-0.7,0.9-2,1.1-3.1,1.5C908.1,747.8,906.8,748.8,905.3,749.5z"/>
		<path class="st3" d="M296.9,309.7c4.3,7.6,8.6,15.1,13,22.7l-0.7,1.2c-12.5-7.8-25.9-14.1-39.2-20.4c-4.2-2-8.4-4-12.9-5.5
			c-4.6-1.5-9.4-2.5-14.2-3.5c-2.7-0.6-5.4-1.2-8.1-2c-4.8-1.4-9.5-3.4-14.4-4.5c-0.1,0-0.2-0.1-0.3-0.1l0.1-0.4
			c-0.6-5.4-0.6-10.9-0.1-16.3c1.1-10.3,4.4-20.3,7.7-30.1c1.6-5,3.3-9.9,5-14.9c1.3-4,2.7-8,4.7-11.7c1.8-3.3,4.2-6.4,6.5-9.3
			C261.2,246.6,278.9,278.2,296.9,309.7z"/>
		<path class="st5" d="M587.5,597.3c-2.4-10.9-3.4-22.1-2.9-33.2c0.3,0,0.5,0,0.8,0.1c0,0.2,0,0.5,0.1,0.7c0.3,0.8,1.1,1.1,1.8,1.5
			c1.5,0.7,2.9,1.5,4.2,2.5l-0.2,0.3c-1.6,1.6-1.5,4.3-0.6,6.3c0.9,2.1,2.5,3.7,3.9,5.5c1.8,2.4,3.2,5.1,4.2,7.9c-2,0-4,0-6.1,0
			c-0.5,0-1,0-1.5,0c-0.7,2.6-1.5,5.1-2.2,7.7c-0.1,0.2-0.1,0.4-0.2,0.6c-0.1,0.2-0.2,0.5-0.4,0.7L587.5,597.3z"/>
		<path class="st12" d="M779.9,75.6l0.3,1c-0.5,2.6-1.3,5.2-2.2,7.8c-0.2,0.6-0.5,1.2-1,1.6c-0.5,0.3-1.2,0.3-1.8,0.3
			c-1.9-0.1-3.8-0.3-5.6-0.4c-0.1-0.5-0.1-1.1-0.2-1.6c-0.2-3.1,0.3-6.4,2.4-8.6C774,73.4,778.1,73.1,779.9,75.6z"/>
		<path class="st17" d="M923.4,354.3c-3.7,6.4-7.4,12.7-11.4,19c-30.3-13.9-51-43.1-51-76.7c0-1.9,0.1-3.8,0.2-5.7
			c1.1,0.5,2.2,1,3.3,1.4c7.7,3.4,15.4,7,23.1,10.6C888.7,325.4,903,344.8,923.4,354.3z"/>
		<path class="st0" d="M146.9,712.4c0.6,1.2,0.2,2.8-1,3.4c-0.4,0.2-1,0.3-1.5,0.3c-6.5,0.5-13.1,0.7-19.7,0.6c-0.3,0-0.6,0-0.8-0.2
			c-0.2-0.2-0.3-0.4-0.3-0.7c-0.2-1-0.3-2-0.3-3c0-0.4,0.1-0.8,0.3-1.1c0.3-0.5,0.9-0.7,1.5-0.8c0.2,0,0.5,0,0.7,0
			c1.9,0,3.9-0.1,5.8-0.1c0.1,0.1,0.2,0.2,0.3,0.2c0.3,0.1,0.7,0.1,1.1,0c2.3-0.3,4.6-0.5,6.9-0.8c1.3-0.1,2.6-0.3,3.9,0
			C145.1,710.5,146.4,711.3,146.9,712.4z"/>
		<path class="st5" d="M361.7,350.3c2.6-0.4,5.4-0.2,7.9,0.6c0.5,0.1,0.9,0.3,1.3,0.6c0.3,0.3,0.5,0.7,0.4,1.1
			c-0.1-0.2-0.1-0.4-0.2-0.6l-0.1,0c0-0.4-0.6-0.7-1.1-0.8c-1.4-0.3-2.9-0.5-4.3-0.6c-0.2,0.7-0.4,1.9-0.8,3.3
			c-0.3,1.2-0.6,2.6-0.9,3.8l-4.8,15.9l-7.5,24.9l-1.5,4.9l-5.6,18.8c-0.9-3.1-1.8-6.1-2.7-9.2l2.7-8.9l1.6-5.1l7.6-24.8l0.4-1.2
			l0-0.7c0,0,0,0,0.1,0c0.2,0,0.5-0.1,0.6-0.2c0.2-0.2,0.2-0.4,0.3-0.6c0.2-0.3,0.6-0.4,0.9-0.4c4.6-0.7-5.8,0.1-1.4-1.5
			c0.5-0.2,1.1-0.5,1-1c0-0.3,1.3-0.8,1-1c-0.6-0.4-0.9-0.6-0.9-0.7c0.3,0.1-0.1-0.1,0,0c-0.1,0-0.5-0.1-1.1-0.3
			c-1.4-0.4,3.4-0.8,2-1c-1-0.2-1.6-0.3-2.2-0.3l0-1.5c0.5,0,1,0,1.5,0c0.2,0,0.4,0,0.6-0.1c0.3-0.2,0.3-0.5,0.3-0.8
			c0-1.5,0-3,0-4.6v-0.5c1,0,2.1,0,3.1,0c0.9-2.4,1.4-4.9,1.5-7.5L361.7,350.3z"/>
		<path class="st2" d="M318.1,350.7c-0.4,0.1-0.8,0.2-1.1,0.4c-0.1,0.1-0.2,0.1-0.3,0.2c0,0.1,0,0.1,0.1,0.2c0,0,0.1-0.1,0.1-0.1
			l-13.8,45l-2.6-0.8c-1.8-1.2-3.6-2.3-5.4-3.5c-16.1-10.3-33.1-19.1-50.3-27.5l0.8-1.6c-0.2-19.6-1.2-39.1-2.8-58.6l0-0.2
			c4.8,1,9.6,2,14.2,3.5c4.4,1.5,8.7,3.5,12.9,5.5c13.3,6.3,26.7,12.6,39.2,20.4c3.4,2.1,6.8,4.3,10.1,6.7l0.7,0.1
			c-0.3,2.5-0.6,5-0.9,7.4c-0.1,1.1-0.3,2.1-0.3,3.2l-0.9-0.1C317.8,350.8,317.9,350.7,318.1,350.7z"/>
		<path class="st4" d="M308.6,521.2l-3.9,12.7l-0.6-0.2c-3.3-0.1-6.5-0.2-9.8-0.4l0.1-1.7c2.1-3.7,5-7.1,8.2-9.8V521h5.3
			L308.6,521.2z"/>
		<path class="st8" d="M1185.9,516.8c-31.8,9.6-63.3,20.4-94.3,32.4l-0.4-0.9c3.8-20.6,18.1-37.9,23.8-58.1l0.1-0.8
			c6.7,0.5,13.3,1.3,19.9,2.4c0.3,0,0.5,0.1,0.8,0.1c7.8,1.4,15.6,3.4,23.1,5.8c8.3,2.7,16.5,6,23.4,11.3c2,1.5,3.8,3.2,4.9,5.4
			c0.2,0.5,0.4,1,0.6,1.6L1185.9,516.8z"/>
		<path class="st21" d="M592.5,644.1c0,3.8-0.3,7.7-0.5,11.5c-0.3,3.6-0.5,7.2-0.8,10.8c-0.9,11.9-1.7,23.8-2.6,35.6
			c-0.7,9.6-1.4,19.2-2.1,28.8c-0.1,1.7-0.3,3.6-1.6,4.7c-0.1,0.1-0.2,0.1-0.2,0.2c-1.1,0.8-2.5,0.7-3.7,0.2c-1-0.4-1.9-1.2-2.5-2.1
			c-1.4-2.1-1.5-4.8-1.8-7.3c-1.5-12.7-8.9-25-6.1-37.4l-0.2-0.1c0.9-2.7,2.1-5.2,3.1-7.9c6.4-17.1,4.7-36.9,13.6-52.9l0.5,0
			c-0.1,2.5-0.2,5.1-0.3,7.6c0.7-0.5,1.5-0.9,2.2-1.3l2.3,0.7C592.3,638.2,592.5,641.1,592.5,644.1z"/>
		<path class="st1" d="M629,569v-0.2c-0.6-0.1-1-0.7-1-1.3c18.8,2.3,37.8,2.9,56.7,1.8l1.1-0.8c1.3,1.8,2.5,3.6,3.9,5.3
			c3.5,4.6,7.1,9,11,13.3l-1.3,1.2c-1.1,2.5-3.4,4.3-5.6,5.9c-0.4,0.3-0.8,0.6-0.8,1c-0.1,0.3,0,0.7,0.1,1
			c2.1,6.3,4.2,12.6,6.3,18.9l-0.1,0.1L629,569z"/>
		<path class="st12" d="M540.9,111.5c1,1.2,0.4,3-0.3,4.4c-0.2,0.4-0.4,0.8-0.5,1.2c-0.1,0.4-0.3,0.7-0.6,1c-0.4,0.4-1,0.6-1.6,0.8
			c-0.7,0.2-1.4,0.4-2.1,0.7c-0.2-1-0.3-2.1-0.3-3.1c-0.1-1.6,0.1-3.4,1.2-4.6C537.7,110.6,539.8,110.2,540.9,111.5z"/>
		<path class="st10" d="M1088.9,594c-0.2,6.1-0.5,12.3-1.8,18.3c-2.1,9.4-6.6,18.1-8.2,27.5l-0.4,1.1c-0.9,2.9-1.9,5.7-2.8,8.6
			c0,0,0,0,0-0.1c0,0,0,0.1,0,0.1c-0.8,13.6-1.6,27.2-4.2,40.6c-0.9,4.9-2.1,9.7-3.3,14.5c-0.3,1.1-0.6,2.2-1.3,3.1
			c-0.7,0.7-1.6,1.1-2.6,1.1c-1,0-2.1-0.4-2.9-1c0,0,0,0-0.1-0.1c-1.5-1.3-2.2-3.4-2.3-5.4c-0.1-2,0.3-4,0.6-6.1
			c0.5-4.1,0.2-8.2-0.3-12.3c-0.4-3.4-0.8-6.9-1.1-10.3c-0.4-5-0.5-9.9-0.6-14.9c-0.1-6.7-0.2-13.3-0.3-20c0-1.7-0.1-3.4-0.1-5.2
			c-0.2-13.3-0.4-26.6-0.6-39.9c0.2,0.2,0.4,0.3,0.6,0.4c2.6,1.4,5.8,0.7,8.7,0.3c7-1,14.2-0.3,21.3-0.5c0.5,0,1.1,0,1.6-0.3
			L1088.9,594z"/>
		<path class="st5" d="M272.5,639.2L271,644h0h-36l-0.7-0.2c0.5-1.6,1-3.2,1.5-4.9l0.2,0.1h36L272.5,639.2z"/>
		<path class="st13" d="M1011.1,545c0.9,2.4,2.5,4.5,4.4,6.1l0,0c-0.1,0-0.2,0.1-0.2,0.1c-0.3,0.2-0.5,0.6-0.6,0.9
			c-0.3,0.7-0.6,1.5-0.9,2.2c-0.1,0.2-0.1,0.3-0.2,0.5l-0.6-0.1c-1.9-1.1-4.3-0.9-6.4-1.6c-3.4-1.1-5.7-4.5-6.1-8.1
			c-0.1-0.6-0.1-1.3,0.1-1.9c0.2-0.6,0.8-1.1,1.4-1.1c1,0,1.6,1.1,2.3,2c1.1,1.4,2.8,2.2,4.4,2.9c-0.1-0.7-0.3-1.5,0.1-2.2
			c0.3-0.7,1.3-1.1,1.8-0.6C1010.8,544.4,1011,544.7,1011.1,545z"/>
		<path class="st13" d="M861.6,601.6c0-0.3,0.1-0.7,0.1-1l0.3,0c2.7,0.2,5.5,0.1,8.2-0.3l0.1-0.2c3.7,1.2,7.6,2.3,11.3,3.7l-0.1,0.3
			c0.1,1.1-0.7,2.2-1.8,2.6c-1,0.5-2.2,0.4-3.3,0.4c-1.4,0-2.8-0.1-4.2-0.1c-5.2-0.1-10.5-0.2-15.5-1.5c-2-0.5-3.9-1.2-5.9-1.1
			l-0.8-0.5c0.2-0.3,0.4-0.6,0.6-0.9l0-1.2c3.6-0.1,7.2-0.1,10.8-0.2L861.6,601.6z"/>
		<path class="st4" d="M1168.6,322.1l0-0.6c0.9,0.1,1.7,0.2,2.4,0.7c1.4,0.9,2,2.5,2.6,4.1c5.7,16.2,9,33.3,9.4,50.5l-1,0
			c-19.4,0.4-38.9,0.8-58.3,2.3l-0.4-0.3C1138.5,359.9,1153.5,341,1168.6,322.1z"/>
		<path class="st1" d="M553.7,635.4c-0.4,4.2-0.6,8.5-0.8,12.7l-0.6,0c-3.7,0.4-7.5,0.7-11.2,1.1c-0.5,0-1,0.1-1.3,0.4
			c-0.4,0.3-0.6,0.8-0.9,1.2c-1.2,2.6-2.3,5.2-3.5,7.8c-3.5,7.7-7.1,15.6-12.9,21.8c-1,1.1-2.1,2.1-3.4,2.6
			c-1.3,0.5-2.7,0.5-4.1,0.4c-3.8-0.1-7.6-0.2-11.3-0.3l-1.1-0.5c17.6-39.9,33.5-81.1,41.1-123.8c3.7,0.3,7.4,0.5,11.2,0.5
			c6.4,0,12.6-0.4,18.7-1.3c0,0.6,0,1.2-0.1,1.8c-0.2,2.3-0.8,4.5-2.4,6.1c-1.4,1.4-3.3,2.1-5,3.3c-0.2,0.1-0.4,0.3-0.5,0.4
			c-2.9,2.4-4.4,6.2-4.8,9.9c-0.5,4,0,8,0.2,11.9c0.3,5.6-0.1,11.2-0.9,16.7c-1.3,9-3.6,17.9-6.3,26.6l0,0
			C553.7,634.9,553.7,635.2,553.7,635.4z"/>
		<path class="st2" d="M295.1,392.1l-0.3,0.4c-30.9,6.8-57.4,28.2-88.6,32.9c-15.3-9.5-29.7-20.5-41.5-34
			c-15.4-17.6-26.3-40-26.9-63.4c-0.1-6.2,0.4-12.3,1-18.5c0.1-0.6,0.1-1.1,0.2-1.7c32.5,23.4,69.7,39.2,105.8,56.9
			C262.1,373,279,381.8,295.1,392.1z"/>
		<path class="st15" d="M414.1,522l-0.1,0h-40.4c-0.6-2-1.2-4-1.8-6l0.1,0h40.3C412.9,518,413.5,520,414.1,522z"/>
		<path class="st12" d="M779.2,123.6c-3.5-0.1-7.1-0.2-10.6-0.3l0-1.8c-0.2-7.3,0.3-14.7,1.3-21.9c0.3-2.1,0.6-4.2,0.6-6.3
			c0-2.5-0.6-5-0.9-7.5c1.9,0.1,3.8,0.3,5.6,0.4c0.6,0.1,1.3,0.1,1.8-0.3c0.5-0.3,0.8-1,1-1.6c0.9-2.5,1.6-5.1,2.2-7.8l-0.3-1
			c-1.8-2.5-5.9-2.2-8.1,0c-2.1,2.2-2.6,5.5-2.4,8.6c0,0.5,0.1,1.1,0.2,1.6c-1.4-0.1-2.7-0.2-4.1-0.3l-1.1,0c0.2,2.3,0.1,4.7,0.1,7
			c-0.1,9.5-0.3,19.1-0.4,28.6l-0.1,2.1c-2.5-0.1-5-0.1-7.5-0.2l-0.8,0.1c0-0.2-0.1-0.4-0.1-0.6l0.4-1.5c1.8-6.5-1.4-13.3-5.5-18.6
			c-4.1-5.3-9.3-9.8-12.6-15.6c-4.2-7.3-5.3-16.3-2.9-24.3c2.4-8,8.3-15,15.9-18.6c10.3-5,22.4-3.9,33.6-1.6
			c2.7,0.6,5.4,1.2,7.7,2.7c3.9,2.6,5.9,7.2,7.6,11.5c2,5.1,4.1,10.4,4.1,15.9c0,11.8-9.4,21.2-18.3,28.9c-2.4,2.1-5,4.3-5.9,7.4
			c-1.4,4.8,1.8,10.3-0.3,14.8C779.4,123.6,779.3,123.6,779.2,123.6z M764.4,85.1c-0.2-2.9-0.8-5.8-2-8.5l0.1-1.1
			c-0.3-2.2-3.1-3.5-5.1-2.7c-2,0.8-3.1,3.3-2.7,5.5c0.4,2.2,2,4,4,5.1C760.4,84.4,762.4,84.8,764.4,85.1z"/>
		<path class="st13" d="M173.1,549c-3.6,0.6-7.2,1.1-10.7,1.7l0-0.2c0.1,0,0.3-0.1,0.4-0.1c1.5-0.3,3.2-0.9,3.9-2.3
			c0.3-0.6,0.3-1.3,0.4-2c0.2-3.6,0.5-7.1,0.9-10.7c0.2-1.8,0.5-3.6,0.8-5.4c0.3-1.5,0-2.8,0.1-4.3l-0.5-1.4
			c1.5-0.5,2.9-1.1,4.4-1.6l0.6,1.6c0.8,3,2.5,5.7,3,8.8c0.4,2.1,0.1,4.3-0.2,6.4c-0.3,3-0.7,6-1.1,9.1l0,0
			C174.3,548.8,173.7,548.9,173.1,549z"/>
		<path class="st6" d="M912.2,590.8c-0.6,0.4-1.3,0.8-1.9,1.1c-0.2,0.1-0.3,0.2-0.5,0.2c-1.2,0.6-2.5,1.1-3.8,1
			c-1.5-0.1-3-1.2-3.1-2.7l-0.7-0.3c0.2-0.4,0.4-0.8,0.5-1.3c0.3-1,0.4-1.9,0.5-2.9C906,587.9,909,589.6,912.2,590.8z"/>
		<path class="st16" d="M829.4,600.5c-1.3-2-2.5-4-3.8-6c-0.9-1.4-1.8-2.8-2.6-4.2c-2.4-4.3-4-8.9-6.8-12.9
			c-0.8-1.1-1.6-2.7-0.7-3.7c0.6-0.6,1.6-0.5,2.3-0.1c0.7,0.4,1.2,1.1,1.6,1.8c2.1,3.4,4,6.9,5.5,10.6c0.9,2.2,1.7,4.4,2.9,6.4
			c1.3,2,3.1,3.8,3.6,6.1l0.1,0.6L829.4,600.5z"/>
		<path class="st13" d="M630.1,392.2c-0.8,0-1.5-0.1-2.3-0.2c-2.4-0.4-4.9-1.5-6-3.6c-0.2-0.4-0.4-0.9-0.8-1.3
			c-1.2-1.2-3.3,0.1-4.1,1.6c-1,1.9-1.3,4.2-2.3,6.2s-3.5,3.5-5.4,2.4c0.5-5,1.2-10,2.2-15c0.5-2.6,1.3-5.5,3.3-7.2
			c0.1-0.1,0.1-0.1,0.2-0.1C620.8,380.1,625.9,385.9,630.1,392.2z"/>
		<path class="st2" d="M965.6,359.1c6.9,5.6,13.8,11.2,20.6,16.8c-10.5,3.9-21.9,6-33.8,6c-0.5,0-1,0-1.5,0c0.2-2.3,0.5-4.7,0.9-7
			c0.9-5,2.5-9.9,4.4-14.7C959.5,360.2,962.6,359.8,965.6,359.1z"/>
		<path class="st13" d="M900.9,576.5c0.2,0.1,0.4,0.2,0.5,0.4c0.6,0.6,0.8,1.4,0.9,2.2c0.5,2.3,1,4.7,0.9,7
			c-3.6-2.5-6.8-5.5-9.5-8.9c1.9-1.3,4.3-1.6,6.5-0.9C900.4,576.3,900.6,576.3,900.9,576.5z"/>
		<path class="st8" d="M546.9,535.7l-0.1,0.3c-0.4,3.5-0.8,7.1-1.3,10.6c-0.6,4-1.2,8.1-1.9,12.1c-16.9-1.3-32.8-5.7-47.2-12.5
			c1.1-9.4,2.3-18.7,3.5-28.1l0.3-0.4c6.8,5.4,15.3,8.2,23.5,10.8C531.4,530.9,539.1,533.3,546.9,535.7z"/>
		<path class="st1" d="M679.8,403.4c2.3,7.2,3.8,14.6,4.6,22.3c-0.7,0.1-1.5,0.1-2.2,0.2c-13,0.1-26,0.1-39,0.2
			c-1.8-12.3-6.3-23.8-13.1-33.9c4.9,0.1,9.7-1.7,14.4-3c5.4-1.6,11.6-2.5,16.4,0.4c1.3,3.6,5.3,6.3,8.9,8.3
			C673.2,399.7,676.5,401.6,679.8,403.4z"/>
		<path class="st9" d="M902.9,695.5c-0.1-0.7-0.3-1.4-0.4-2.1c-1-4.2-2.6-8.2-3.8-12.3c-1.9-6.7-2.4-13.8-3-20.8
			c-1.2-16.4-2.5-32.8-3.7-49.2l0-0.6c0.1,0,0.3,0,0.4,0c5-0.3,9.9-0.6,14.9-0.9c0.5,0.2,1.1,0.3,1.6,0.5c5.8,3.9,11,9.1,12.5,15.9
			c1.2,5.5-0.2,11.2-1.6,16.7c-0.7,2.9-1.5,5.8-2.2,8.6c-0.8,2.9-1.5,5.9-2.3,8.8c-1.1,4.2-2.2,8.5-2.2,12.8
			c0,5.7,1.8,11.2,2.9,16.8c1,5.1,1.5,10.4,1.4,15.6c-0.1,4.8-0.7,9.5-1.2,14.3c-0.8,6.6-1.6,13.3-2.3,19.9
			c-0.1,0.6-0.2,1.4-0.5,1.9c-0.2,0.3-0.4,0.5-0.6,0.7c-0.9,0.6-2.3,0.2-3-0.7c-0.7-0.9-0.9-2-1.1-3.2c-2-11.5-3.6-23.1-4.8-34.7
			C903.6,700.9,903.4,698.2,902.9,695.5z"/>
		<path class="st8" d="M1104.3,619.2l0.8,1.6c-4.4,2.2-9,4.3-13.6,6.1l-2,0.2c-0.2-3.1-0.4-6.1-0.5-9.2c-0.1-2.8-0.1-5.5,0.1-8.3
			l0.5,0C1094.7,612.3,1099.7,615.6,1104.3,619.2z"/>
		<path class="st15" d="M324.4,358.8l0-0.2c0.3,0,0.6,0,1,0l1.6,6.5l-0.1,0.5c-0.2,0-0.4-0.1-0.5-0.1c-0.9-0.1-1.7-0.1-2.6-0.2
			C324.2,363,324.4,360.9,324.4,358.8z"/>
		<path class="st3" d="M859.4,595.4c3.4,2,7.1,3.5,10.8,4.7l-0.1,0.2c-2.7,0.4-5.5,0.5-8.2,0.3l-0.3,0c0-0.5,0-1.1,0-1.6l-0.5-0.2
			c-6.1-0.2-12.3-0.3-18.5-0.2l0-0.4c0.3,0,0.6-0.4,0.7-0.7c0-0.4-0.2-0.8-0.2-1.3c-0.1-0.5,0.1-1.1,0.5-1.5h1.2
			c1.4,0.6,3,0.5,4.5,0.4c0.6,0,1.2-0.1,1.8-0.3c0.8-0.3,1.5-0.9,1.9-1.7l0.2,0C855.4,592.8,857.5,594.3,859.4,595.4z"/>
		<path class="st10" d="M444.6,599.5c-1.7,2-3.4,4-5.2,6c-1.5,1.8-3.1,3.5-4.6,5.3c-7.2,8.1-14.5,16.1-21.9,24.1
			c-1.1,1.2-2.2,2.4-3.3,3.6c-0.2,0.2-0.4,0.4-0.5,0.6c-2.1,2.3-4.3,4.6-6.4,7c-10.3,11.2-20.7,22.4-31,33.6
			c-1.2,1.3-2.5,2.7-4.2,3.4c-0.4,0.2-0.8,0.3-1.2,0.3c-1.1,0.2-2.3,0.2-3.5,0.2c-5.7-0.2-11.4-0.3-17-0.5c-0.5,0-1,0-1.5,0
			c14-30.8,28.6-61.3,43.6-91.7c1.4-2.9,2.8-5.7,4.2-8.6c0.8-1.5,1.5-3.1,2.3-4.6c4.2-8.5,8.5-17.1,12.8-25.6
			c3.4-6.8,6.8-13.6,10.2-20.4c1.3-2.6,2.7-5.3,4-7.9c0.5-1.1,1.1-2.2,1.7-3.3c3.5-6.9,7-13.9,10.4-20.8c1.5-3,3-6,4.6-9
			c10.9,20.7,27.9,38.1,48.8,50.2c-4.1,7.2-8.6,14.3-13.3,21.1C464.6,575.2,454.8,587.6,444.6,599.5z"/>
		<path class="st16" d="M693.7,434.9c-2.9,0.1-5.8,0.1-8.8,0.1c-0.1-2.9-0.2-5.9-0.5-8.8c5.8-0.2,11.6-0.5,17.5-0.3
			c0.7,0,1.5,0.1,1.9,0.6c0.3,0.3,0.3,0.8,0.3,1.2c0.2,2.1,0.5,4.1,0.7,6.2l-1.2,0.7C700.3,434.8,697,434.8,693.7,434.9z"/>
		<path class="st4" d="M341.4,469v0.7c-5.5,7.6-11.1,15.1-16.6,22.7l-1.4-0.4l7.1-23.6l2.2,0.6C335.6,469,338.5,469,341.4,469z"/>
		<path class="st8" d="M685,435c0,0.8,0,1.6,0,2.5c0,7.4-0.7,14.7-2.1,21.7c-1.3-0.1-2.6-0.1-3.9-0.2c-9.9-0.6-19.7-1.3-29.5-2.7
			l-0.4,0c-0.5-3.3-0.9-6.5-1.4-9.8c-0.2-1.4-0.4-2.9,0.2-4.3c0.5-1.3,2-2.4,3.3-2.1c0.1-1.7,0.4-3.3,0.8-5l1.6,0.4
			C664.1,435.4,674.5,435.2,685,435z"/>
		<path class="st1" d="M322.3,532.8c-0.1,0-0.1,0-0.1,0c-1-4.6-2-9.2-1.9-13.9c0.1-4.8,1.3-9.7,4.3-13.5c1.9-2.5,4.5-4.3,7.2-6
			c5.1-3.2,10.6-5.7,16.3-7.6c0.6-0.2,1.3-0.4,1.7-0.9c0.8-0.9,0.6-2.2,0.3-3.3c-1.3-6.2-2-12.4-2.6-18.6c-0.4-3.8-0.7-7.5-1-11.3
			c-0.1-0.9-0.1-1.8,0.5-2.4l0.2-0.1c12.8,42.1,25.5,84.2,37.7,126.2l-1.1,0.3c-4.3,1.7-8.7,3.4-13.3,4.2c-4.6,0.8-9.5,0.5-13.7-1.6
			c-4.6-2.3-7.8-6.6-10.9-10.8C336.6,560.7,327.3,547.7,322.3,532.8z"/>
		<path class="st15" d="M424.8,692c0.6,2,1.1,4,1.7,6c1.9,6.8,3.8,13.5,5.5,20l0.6,0.5c-0.6,1.1-0.9,2.4-0.6,3.7h0
			c-2,0.8-4.5,0.4-6.2-0.9c-7.6-25.1-15.9-50-23.1-75.3c2.1-2.3,4.3-4.6,6.4-7c0.2,0.6,0.4,1.3,0.6,2c2.3,7.4,4.6,15.1,7,23
			c0.6,2,1.2,4.1,1.8,6.2C420.6,677.4,422.8,684.8,424.8,692z"/>
		<path class="st0" d="M299.7,713.9c14.6-1.9,28.6-7.8,40.2-16.8l0.4-0.1c0.4,0.9,1.2,1.7,2,2.2c4.1,2.4,9.3,0.9,13.8-0.7
			c1.1-0.4,2.3-0.8,3.3-1.6c1.2,0.1,2.4,1,3,2c1,1.6,1.1,3.6,1.1,5.5c0.1,5.9,0.3,11.7,0.4,17.6c-4.5,1.3-9.2,1.8-13.9,1.5
			c0.5-1.9-1.3-3.9-3.2-4.3c-1.9-0.5-4,0.1-5.9,0.6c-17.2,4.6-35.4,5.5-53,2.7c-0.5-2.7,1.5-5.4,3.9-6.6
			C294.1,714.5,296.9,714.3,299.7,713.9z"/>
		<path class="st13" d="M566,570c1.8-1.2,4.8-0.6,6.4,1.1c1.9,2.1,2.3,5.2,2.5,8c0.5,6.7,0.9,13.6-1.5,19.8
			c-0.2,0.4-0.4,0.9-0.3,1.4c0.2,1.4,2.1,1.5,3.5,1.3c0.5-0.1,1-0.2,1.6-0.3c3-0.7,5.9-1.5,8.8-2.5c0.5-0.2,1-0.4,1.3-0.8
			c0.2-0.2,0.3-0.4,0.4-0.7l0,0c-0.8,3.7-1.4,7.4-1.9,11.2c-2.5,2-5.3,3.7-8.2,5.2c-2.4,1.3-4.9,2.4-7.4,3.5c-1.4,0.6-2.9,1.3-4.4,1
			c-2.4-0.5-3.7-3-4.6-5.3c-0.6-1.6-1.3-3.2-2-4.8l-0.1,0c0.8-5.5,1.1-11.1,0.9-16.7c-0.2-4-0.7-8-0.2-11.9c0.5-3.7,2-7.5,4.8-9.9
			L566,570z"/>
		<path class="st13" d="M371.4,200.4c-0.2-1.2-1-2.2-2.1-2.6c0,0,0,0,0,0c0,0,0.1,0,0.1,0c0.1-0.2,0.2-0.4,0.2-0.6
			c0.1-0.6-0.2-1.2-0.7-1.6c-0.7-0.5-1.8-0.3-2.4-0.9c-0.6-0.6-0.4-1.6,0.2-2.2c0.6-0.6,1.5-0.7,2.3-0.7c3.3-0.1,6.5,2.1,7.7,5.1
			c0.2,0.9,0.3,1.8,0.2,2.7v0.1C375.1,199.6,373.2,199.9,371.4,200.4z"/>
		<path class="st4" d="M280.2,471.4l-17.5,57.1l-2.8-0.9c-14.5-3.4-28.3-9.8-40.1-18.8c-6.8-5.2-12.9-11.1-19.2-16.9
			c-5.5-5.1-11.7-11.3-10.9-18.7c0-0.1,0-0.2,0-0.2l0.3,0c29.1-0.8,58.2-1.6,87.3-2.4L280.2,471.4z"/>
		<path class="st3" d="M879.6,606.8c1-0.4,1.9-1.5,1.8-2.6l0.1-0.3c1,0.4,2,0.7,2.9,1.1c1.6,0.6,3.2,1.4,4.8,1.1
			c0.3-0.1,0.6-0.1,0.9-0.3c0,1,0,2.1,0.1,3.1c0,0.4,0,0.8,0.2,1.1c0.2,0.3,0.5,0.5,0.9,0.5c0.3,2-1.3,4.1-2.3,6
			c-1.8,3.1-2.2,6.8-2.5,10.5c-1,12.4-0.5,24.8,0.4,37.2l-1.4,0.1c-6-1.1-11.9-3-17.4-5.6c-4.3-2.1-8.9-5.3-9.1-10.1
			c-0.1-2.5,1.1-4.9,1.9-7.3c0.9-2.9,1.2-5.9,1.5-8.9c0.1-0.7,0.1-1.5-0.2-2.1c-0.4-0.8-1.3-1.2-2.1-1.6c-7.5-3.6-13.8-9.5-18-16.6
			l-2.3-1.1c2.4-1.3,4.7-2.7,7-4.2l0.5-0.5c0.7,0.2,1.4-0.5,1.8-1.2c0.3-0.4,0.5-0.8,0.8-1.2l0.8,0.5c2-0.2,4,0.5,5.9,1.1
			c5,1.3,10.3,1.4,15.5,1.5c1.4,0,2.8,0.1,4.2,0.1C877.4,607.2,878.6,607.2,879.6,606.8z"/>
		<path class="st13" d="M903.2,586c0,1-0.2,2-0.5,2.9c-0.1,0.4-0.3,0.9-0.5,1.3c-0.5,1.2-1.2,2.3-1.9,3.4c-2.1,3.2-4.3,6.3-6.8,9.2
			c-0.2,0.2-0.3,0.4-0.5,0.6c-4.3-2.5-8.2-5.5-11.8-8.8c0.1,0,0.3,0,0.4,0c0.7,0,1.3,0,2,0c0.4,0,0.8,0,1.2-0.2
			c0.5-0.3,0.8-0.9,1-1.4c1.2-3.1,2.4-6.2,3.6-9.3c0.8-2.2,1.7-4.4,3.4-6c0.3-0.2,0.6-0.5,0.9-0.7
			C896.4,580.5,899.7,583.5,903.2,586z"/>
		<path class="st8" d="M1089,609.5c0.1-0.9,0.1-1.7,0.2-2.6c0.6-4.6,1.9-9.5,0.4-13.9c0.4-0.6,0.5-1.5,0.5-2.3
			c0.6-11.1-0.3-22.1-1.1-33.1c-0.2-2.4-0.4-4.7-0.6-7.1l0.1,0c1.1-0.4,2.1-0.8,3.2-1.2c31-12,62.4-22.8,94.3-32.4l1.8-0.6
			c0.9,3.4-0.1,7.2-1.3,10.6c-13.3,40.4-43.4,74.9-81.4,94l-0.8-1.6c-4.7-3.7-9.6-6.9-14.8-9.7L1089,609.5z"/>
		<path class="st5" d="M579.3,565c-1.2,11.7-1.7,23.5-1.4,35.3l0.2,0.9c-0.5,0.1-1,0.2-1.6,0.3c-1.4,0.3-3.3,0.1-3.5-1.3
			c-0.1-0.5,0.1-0.9,0.3-1.4c2.5-6.2,2.1-13.1,1.5-19.8c-0.2-2.8-0.6-5.9-2.5-8c-1.6-1.8-4.6-2.3-6.4-1.1l-0.4-0.5
			c0.2-0.2,0.4-0.3,0.5-0.4c1.6-1.2,3.6-1.9,5-3.3c1.6-1.6,2.2-3.8,2.4-6.1c1.7,0,3,1.3,4.1,2.7c0.5,0.7,1.1,1.5,1.8,2.1
			c0,0.2,0.1,0.4,0.1,0.5L579.3,565z"/>
		<path class="st4" d="M220.8,434.2c10.1-6.5,20.4-12.9,32-16c2.8-0.8,5.7-1.3,8.3-2.6c1.7-0.8,3.2-1.9,4.9-2.7
			c1.8-0.8,3.8-1.2,5.7-1.5c8.9-1.6,17.9-2.6,27-3.3l0.8,0.2l-19.3,63h0l-2.8-0.9c-29.1,0.8-58.2,1.6-87.3,2.4l-0.3,0
			c0.5-3.8,2.7-7.1,4.9-10.2c3.2-4.6,6.4-9.2,9.6-13.9c1.1-1.6,2.2-3.1,3.4-4.5c2.9-3.4,6.7-5.8,10.4-8.3
			C218.9,435.4,219.9,434.8,220.8,434.2z"/>
		<path class="st12" d="M509.1,138.4c-1.2,2.4-0.3,5.6,1.9,7.1l0,0c-1,0.8-2.1,1.5-3.1,2.1c-0.2,0.2-0.4,0.3-0.7,0.4l-0.1-0.1
			c-1.5-1.9-2.9-4-4.1-6.1l1.4-0.8c1.6-0.8,3.1-1.7,4.6-2.8L509.1,138.4z"/>
		<path class="st4" d="M337,427h-36l-0.5-0.2c2.4-7.7,4.7-15.3,7.1-23l0.5,0.1h5.6v1c0.2,1.6,1.4,3,2.8,3.9c1.4,0.9,3,1.4,4.5,2
			c5.1,2,9.8,5,14.4,7.9l0.9-0.3c0.7,2.1,1.3,4.3,2,6.5l-0.6,2.1L337,427z"/>
		<path class="st7" d="M573.6,555.7c0,0.4,0,0.9,0,1.3l-0.9,0c-7.3-3.1-14.6-6.2-21.9-9.3c-1.3-0.6-2.7-1.1-4.1-1l-1.1-0.2
			c0.5-3.5,0.9-7,1.3-10.6l0.1-0.3c8.5,2.6,17.1,5.2,25.6,7.7l2.3,0.3C573.7,547.6,573.6,551.7,573.6,555.7z"/>
		<path class="st0" d="M739.9,198.6c-0.2-0.2-0.4-0.3-0.7-0.3c-0.6-0.1-1.3,0.1-1.9,0.3c-1.1,0.2-2.2,0.1-3.2-0.5l0,0
			C726,196,718,190,717,181c-1-8,6-15,13-17c8-2,16-1,24,0c2,0,5-1,7-1c9-2,17-11,26-5c14.9,9.1,12.7,27.7,9.1,44l-2.5-0.6
			c0.4-1.4,0.4-2.9-0.1-4.3c-0.3-0.7-0.7-1.4-1.4-1.7c-0.4-0.2-0.9-0.2-1.4-0.2c-2.5,0.1-5,1.1-6.9,2.7c-0.2,0.2-0.5,0.4-0.8,0.4
			c-0.3-0.1-0.5-0.4-0.7-0.7c-1.9-3.3-4.3-6.4-7.1-9c-0.6-0.5-1.2-1.1-1.3-1.9c-0.9-1-2.4-1.3-3.8-1.1c-1.3,0.2-2.6,0.9-3.8,1.6
			c-8.2,4.5-16.8,8.1-25.8,10.8c0-0.2-0.1-0.3-0.1-0.5c-0.3,0.3-0.4,0.5-0.5,0.7C739.9,198.4,739.9,198.5,739.9,198.6z"/>
		<path class="st13" d="M361,176.6c1.2,0.1,2.4,0.1,3.7,0.1l0,0.1c-0.5,0-1.1,0.1-1.6,0.1c-0.4,0-0.7,0-1.1,0.2
			c-0.2,0.1-0.5,0.2-0.7,0.3c-0.8,0.4-1.5,0.8-2.3,1.3c-0.5,0.3-1,0.7-0.9,1.2c-1.6,0.1-2.8,2.3-4.5,2.3c-0.9,0-1.8-0.7-2.2-1.5
			c-0.4-0.8-0.6-1.8-0.6-2.7c-0.2-2.4-0.1-4.8,0.1-7.2c0.1-0.8,0.3-1.7,0.9-2.2c0.4-0.3,1-0.4,1.5-0.5c2.8-0.5,5.6-0.9,8.4-1.4
			c-0.2,0.2-0.5,0.4-0.8,0.5c-0.2,0.1-0.4,0.2-0.6,0.4c-0.2,0.2-0.2,0.5-0.2,0.8C360,171.2,360.3,174,361,176.6z"/>
		<path class="st13" d="M1059.1,508.1c0.7,0.3,1.5,0.3,2.3,0.3c2.1,0,4.2-0.1,6.3-0.1c1.4,0,3.1,0.1,3.7,1.4c0.4,0.8,0.1,2,0.8,2.5
			c0.9,0.8,2.5-0.2,3.4,0.5c0.5,0.5,0.5,1.3,0.3,2c-0.2,0.7-0.5,1.4-0.4,2.1l0.4,0.1c-0.3,0.5-0.7,0.9-1.1,1.2
			c-0.3,0.3-0.7,0.5-0.9,0.9c-0.1,0.3,0,0.7-0.1,1.1c0,0,0,0,0,0c-0.1,0.7-0.8,1-1.4,1.3c-2.2,1-4.4,1.9-6.7,2.6
			c-0.2,0-0.4-0.1-0.7-0.1c-1.5-0.2-3-0.3-4.5-0.5c-0.3,0-0.7-0.1-0.9-0.3c-0.4-0.3-0.4-0.9-0.4-1.3c-0.2-3.4-1.9-6.8-0.8-10
			c0.4-0.9,1-1.9,0.9-2.9C1059.3,508.7,1059.2,508.4,1059.1,508.1z"/>
		<path class="st13" d="M780.9,251.9c-0.1-2.6-0.4-5.2-0.9-7.8c0.3-0.1,0.4-0.6-0.4-2c0.6-0.3,1.2-0.8,1.7-1.3
			c3.6-3.3,7.2-6.6,9.6-10.8c3-5.2,4.1-11.5,2.8-17.4c1,1.8,1.6,3.8,2.5,5.6c0.8,1.7,1.8,3.3,2.9,4.8c0.6,0.9,1.3,1.8,2,2.7
			c1.1,1.5,2.2,2.9,3.3,4.4l-0.9,0.7c0,0,0,0,0,0.1c-1.3,3.2-4,5.5-6.6,7.8c-5.1,4.4-10.3,8.7-15.4,12.9
			C781.3,251.9,781,251.9,780.9,251.9z"/>
		<path class="st13" d="M581.5,565.7C581.5,565.7,581.5,565.7,581.5,565.7L581.5,565.7c-0.9-0.2-1.6-0.7-2.2-1.3
			c-0.4-1.7,0.3-3.6,0.8-5.3c0.3-0.8,0.5-1.6,0.7-2.4c4.7-0.9,9.2-2,13.7-3.3c-0.5,1.2-1.1,2.3-1.7,3.4c-0.6,1.1-1.4,2.3-2.6,2.8
			c-1.2,0.6-2.8,0.4-3.5-0.7c-0.4,1.4-0.8,2.9-1.2,4.3c-0.1,0.3-0.2,0.6-0.2,0.9c-0.2-0.1-0.5-0.1-0.8-0.1c-0.3,0-0.6,0.1-0.8,0.2
			C582.9,564.6,582.3,565.3,581.5,565.7z"/>
		<path class="st1" d="M698.8,622.3l-0.3,0.8c-20.7,13.1-41.5,25.9-62.2,38.8c-4.7,2.9-9.3,5.8-14,8.7l-0.5-0.8
			c-6-6.7-10.9-14.3-14.5-22.5l-0.6-0.2c0.7-2.4,1.5-4.9,2.2-7.3c6.4-21.1,13-42.2,19.7-63.3l0.4-0.6c14.4,8.1,28.1,17.6,41.7,27
			C680,609.4,689.4,615.9,698.8,622.3z"/>
		<path class="st7" d="M777.9,567.7l-3.9-18.7c2.3-1.1,4.5-2.3,6.8-3.5l0.2,0.4l17.7,71.8c-2.5,0.2-5.1,0.4-7.6,0.5L791,617
			l-11.8-44.4c-2.5,1.8-5.1,3.6-7.7,5.4c-12.8,9-25.7,18-38.5,27l-1.8,0.2c-1.3-0.7-2.5-1.5-3.8-2.3l0.6-0.9
			c13.9-9.6,27.9-19.1,41.8-28.7C772.5,571.4,775.2,569.6,777.9,567.7z"/>
		<path class="st6" d="M884,528.1c0.9-0.1,1.7-0.2,2.6-0.2c-1.9,4.6-3.1,9.6-3.5,14.9c-0.2-0.1-0.4-0.1-0.5-0.2
			c-1.4-0.4-2.8-1.1-3.6-2.2c-0.1-1.8-2.1-3-2.8-4.7c-0.9-2,0.2-4.3,1.8-5.6C879.7,528.8,881.9,528.4,884,528.1z"/>
		<path class="st16" d="M638.3,435.1c-16.9,0.4-33.7,0.7-50.6,1.1l-1,0c-1.8-2.9-3.6-5.8-5.2-8.8c-3.9-7-7.3-14.2-10.7-21.4
			c-5.4-11.3-10.8-22.7-16.2-34c-3.1-6.6-6.3-13.1-9.4-19.7c2.4-0.2,4.8-0.3,7.3-0.3c0.9,0,1.8,0,2.7,0
			c11.6,24.6,23.6,49.1,36.2,73.2l1,1.1c17-0.1,33.9-0.2,50.9-0.3c0.5,3.7,0.8,7.5,0.8,11.4c0,4.4-0.3,8.7-1,12.9
			c-0.2-2.9-0.4-5.8-0.5-8.7c-1.3-0.3-2.6-0.6-3.9-0.9C638.5,438.9,638.4,437,638.3,435.1z"/>
		<path class="st13" d="M878.1,543.2c0.4-0.9,0.9-1.8,0.9-2.7c0,0,0,0,0,0c0.8,1.1,2.3,1.8,3.6,2.2c0.2,0,0.4,0.1,0.5,0.2
			c-0.1,1.2-0.1,2.5-0.1,3.7c0,3.9,0.5,7.7,1.3,11.3c-2.2-0.3-4.4-0.7-5.7-2.3c-1.2-1.5-1.3-3.5-1.3-5.4
			C877.2,547.7,877.2,545.3,878.1,543.2z"/>
		<path class="st2" d="M360.7,250.3c0,0.2,0,0.5,0.2,0.6l-0.1,0.3c-1,0.1-2,0.1-2.9,0.2c-6.4,0.4-12.9,0.6-19.4,0.7
			c-1.3,0-2.6,0-3.8-0.5c0,0.3,0.1,0.5,0.1,0.8c0.1,0.4,0.1,0.8-0.1,1.2c-0.2,0.3-0.5,0.5-0.9,0.7c-1.7,0.8-3.6,1.2-5.5,1l-0.3-0.4
			c-0.1-0.1-0.2-0.3-0.3-0.4c-6.4-8-10.6-17.9-11.7-28.1c-0.3-2.3-0.4-4.7,0-6.9c0.4-2.4,1.4-4.6,2.6-6.7c2.5-4.5,5.7-8.5,9-12.5
			c1.5-1.8,3-3.7,4.9-5.1c2.8-2.1,6.5-3.2,10-2.8c0,0,0-0.1,0-0.1l0.4-0.1c0.7,0.8,1.5,1.6,2.5,2.2c2.7,1.5,6.2,0.8,8.8-0.9l0.9-0.3
			c2.4,0.6,3.6,3.3,4.5,5.6c1.2,3.1,2.4,6.2,3.6,9.4c0.9,2.2,1.7,4.5,3.1,6.4c1.4,1.9,3.3,3.4,5.4,4.3c-0.3-6-0.6-12-0.9-17.9
			c0.2-0.1,0.4-0.1,0.6-0.2c0,0,0,0,0,0.1c0,0,0,0,0-0.1c1.9-0.5,3.7-0.8,5.6-0.8v-0.1c0.4-0.1,0.8,0,1,0.3
			c2.9,9.3,4.6,18.9,5.2,28.6c0.2,3.4,0.2,7.2-2,9.8c-1,1.3-2.6,2.2-4.2,2.2c-1.2,0-2.4-0.5-3.5-1.1c-4.9-2.5-9.2-6-12.6-10.3
			C361.1,236.1,361,243.2,360.7,250.3z"/>
		<path class="st8" d="M1089.6,593c1.5,4.4,0.2,9.3-0.4,13.9c-0.1,0.9-0.2,1.7-0.2,2.6c-0.2,2.8-0.1,5.5-0.1,8.3
			c0.1,3.1,0.3,6.1,0.5,9.2c0.9,11.5,2.7,22.9,5.5,34.1c3.3,13.4,7.9,27.2,5.1,40.7c-1.3-0.7-3.1-0.5-4.1,0.5
			c-0.2-0.1-0.3-0.2-0.5-0.3c-2.3-1.4-3.9-3.8-4.9-6.3c-1.1-2.7-1.7-5.5-2.7-8.3c-0.9-2.7-2.2-5.2-3.3-7.7c-2.1-4.9-3.5-10-4.8-15.1
			c-1.4-5.1-2.7-10.1-4.1-15.1c0.9-2.9,1.9-5.7,2.8-8.6l0.4-1.1c1.6-9.5,6.1-18.2,8.2-27.5c1.3-6,1.7-12.1,1.8-18.3l-0.1-0.3
			c0.1,0,0.3-0.1,0.4-0.2C1089.3,593.4,1089.5,593.2,1089.6,593z"/>
		<path class="st15" d="M466.8,698h-40.3c-0.6-2-1.1-4-1.7-6H465C465.6,694,466.2,696,466.8,698z"/>
		<path class="st1" d="M309.1,398.7c2.6-8.6,5.3-17.2,7.9-25.7v0c1.2,0.2,2.4,0.3,3.7,0.3c0.2,0,0.4,0,0.6-0.1
			c0.2-0.1,0.3-0.4,0.4-0.6c0.1-0.2,0.2-0.3,0.4-0.4c0.2,0.6,0.4,1.2,0.6,1.8c2.5,8.3,5,16.6,7.6,25H310L309.1,398.7z"/>
		<path class="st6" d="M577.5,562.3c-1-1.3-2.4-2.7-4.1-2.7c0.1-0.6,0.1-1.2,0.1-1.8c2.4-0.3,4.8-0.7,7.2-1.2
			c-0.2,0.8-0.4,1.6-0.7,2.4c-0.5,1.7-1.2,3.6-0.8,5.3C578.7,563.8,578.1,563,577.5,562.3z"/>
		<path class="st15" d="M441.1,611L441.1,611l-4,0h-2l-0.2-0.2c1.5-1.7,3.1-3.5,4.6-5.3C440,607.3,440.5,609.2,441.1,611z"/>
		<path class="st12" d="M501.1,133.6c-0.4,0.1-0.8,0.3-1,0.7l-0.9,0.4c-0.3-0.6-0.5-1.2-0.7-1.8c-0.6-1.6-1.3-3.4-2.7-4.5l-0.6-1.3
			c1.1-0.6,2.3-1,3.4-1.5c3.6-1.3,7.7-1.9,10.2-4.8l0.6-0.1c0.4,1.3,0.8,2.7,1.2,4c0.5,1.7,1.1,3.4,1.4,5.1l-1,0.2
			C507.8,131.2,504.5,132.4,501.1,133.6z"/>
		<path class="st1" d="M668.7,378.5c-0.2,0-0.4,0.1-0.6,0.1c-1.3,0.3-2.5,0.9-3.6,1.6l-0.3-0.4c-13.5-4.7-27.9-7-42.2-6.6
			c-2.4,0.1-5,0.3-7,1.7c-15.7-13.7-36.7-22.4-59.7-23c-3.3-7-6.5-14-9.7-21c-0.7-1.5-1.3-3-2.4-4.2c-1.2-1.5-3-2.5-4.9-2.6
			c-1.9-0.1-3.9,1-4.7,2.7l-0.2,0.3c4,8.3,8,16.7,11.9,25.1c-47.1,3.5-84.2,40.3-84.2,85.2c0,7,0.9,13.8,2.6,20.3
			c-4.6,3.4-8.7,7.5-12.3,12c-5.2,6.5-9.5,13.8-13.3,21.2c-8.5-16.1-13.2-34.3-13.2-53.5c0-67.2,58.3-121.6,130.1-121.6
			C603.8,315.9,646.5,341.2,668.7,378.5z"/>
		<path class="st0" d="M563.5,744.9c3.2,1.9,7.1,2.5,10.7,1.8l1.6-0.5c0.2,0.5,0.2,1,0,1.5c-0.1,0.4-0.3,0.7-0.6,0.9
			c-0.4,0.3-0.9,0.3-1.3,0.3c-2.6,0.1-5.3,0.2-7.9-0.3c-2.6-0.5-5.1-1.8-6.7-3.8c-0.5,0.7,0,1.7,0.1,2.6c0,0.9-0.5,1.8-1.3,2.1
			c-0.8,0.3-1.8,0.1-2.5-0.5c-0.8-0.9-0.8-2.3-0.7-3.5c0.1-1.6,0.3-3.2,0.4-4.8c0-0.4,0.1-0.8,0.2-1.2c0.1-0.3,0.3-0.5,0.5-0.7
			c0.4-0.7,0.6-1.5,0.5-2.3l0.2-0.1C557.8,740,560.3,743.1,563.5,744.9z"/>
		<path class="st5" d="M562.1,612.9c0.9,2.3,2.2,4.8,4.6,5.3c1.5,0.3,3-0.3,4.4-1c2.5-1.1,5-2.3,7.4-3.5c-0.3,1.8-0.6,3.6-0.8,5.4
			c-0.9,5.6-1.7,11.4-0.4,16.9l-0.8,0.5c-0.4,0.6-1.3,0.7-2,0.6c-0.7-0.1-1.4-0.5-2.1-0.6c-0.8-0.2-1.6,0-2.4,0
			c-5.4,0.6-10.9,0.2-16.2-1.1c0-0.3,0-0.5,0.1-0.8l0,0c2.7-8.7,5-17.6,6.3-26.6l0.1,0C560.8,609.7,561.5,611.3,562.1,612.9z"/>
		<path class="st15" d="M370.8,374c-1.9-6.7-3.8-13.4-5.8-20l-0.3-0.1c0.3-1.4,0.6-2.5,0.8-3.3c1.5,0.1,2.9,0.3,4.3,0.6
			c0.5,0.1,1,0.4,1.1,0.8l0.1,0c0.1,0.2,0.1,0.4,0.2,0.6c0,0,0,0,0,0C385.1,396.4,397,440.2,409,486c4,13,8,25,12.2,38.1l0.1,0
			c-1.3,2.6-2.7,5.3-4,7.9l0,0c-1-3.4-2.1-6.7-3.1-10.1c-0.6-2-1.2-4-1.8-6c-2.5-8.3-5.1-16.6-7.5-25c-0.5-1.7-1-3.3-1.5-5
			c-2.4-8-4.8-16-7.1-24.1c-0.5-1.6-1-3.3-1.5-4.9c-2.4-8.3-4.9-16.7-7.3-25c-0.5-1.7-1-3.3-1.4-5c-2.2-7.7-4.5-15.4-6.7-23.1
			c-0.5-1.7-1-3.4-1.5-5.1C375.5,390.5,373.1,382.2,370.8,374z"/>
		<path class="st13" d="M175.3,513.1c0.2,0,0.4,0,0.6,0.2c0.1,0.1,0.1,0.2,0.1,0.3c0,0.3-0.1,0.6-0.2,0.8c-1.8,2.8-5,4.6-8.3,4.8
			c0,0-0.1,0-0.1,0l-0.3-0.5c-0.6-1.9,0.7-4,2.4-4.9S173.4,512.8,175.3,513.1z"/>
		<path class="st6" d="M154.6,526.7l-0.4-0.7c0.4-0.2,0.7-0.5,1.1-0.7l1.5,0.4c3.2-2.1,7.7-4.4,10.7-6.1l0-0.4
			c3.3-0.2,6.5-2,8.3-4.8c0.1-0.2,0.3-0.5,0.2-0.8l0.5,0c1-0.6,2-1.3,3-2.1l0.1,0.1c-0.6,0.4-1.1,1-1.3,1.8
			c-0.6,2.4,1.4,4.2,3.2,6.2c-2.9,1-5.9,2.2-8.9,3.3c-1.4,0.5-2.9,1.1-4.4,1.6c-3.7,1.4-7.4,2.7-10.9,4l-1.8,0.1
			C155.4,527.8,155.1,527.2,154.6,526.7z"/>
		<path class="st14" d="M550.2,85.2c-5.1,1.3-10.3,2.9-15,5.1l-0.3-0.6c-0.9-3-2.4-5.9-4.8-8c-1.1-1-2.4-1.7-3.7-2.5
			c-2.2-1.3-4.4-2.6-6.6-3.9l-0.4-0.3c1.8-2.2,3.6-4.5,5.6-6.5c2.9-3.1,6.3-5.9,10.3-7c1.5-0.4,3-0.6,4.5-0.4c2.7,0.2,5.3,1.4,7,3.5
			c0.3,0.3,0.5,0.7,0.7,1c1.3,2.1,1.7,4.7,2.1,7.1c0.6,3.9,1.2,7.8,1.8,11.7c0,0.1,0,0.2,0,0.3C551.2,84.9,550.7,85.1,550.2,85.2z"
			/>
		<path class="st6" d="M591.6,534.4c1.9,1.2,3.2,3,4,5.1l-0.9,0.3c-1.4,2.8-4.4,4.6-7.5,4.7c-0.8,0-1.6-0.1-2.5,0
			c-1.3,0.1-2.6,0.6-3.8,1.1c1.1,3.6,0.8,7.5-0.2,11.1c-2.4,0.4-4.8,0.8-7.2,1.2c0-0.3,0-0.6,0-0.9c0-0.4,0-0.9,0-1.3
			c0-4,0.1-8.2,1.3-11.9c0.5-1.6,1.2-3.2,2.1-4.6C580,534.3,586.8,531.4,591.6,534.4z"/>
		<path class="st8" d="M1055.4,573.6c0.9,3.3,1.8,6.8,1.4,10.3c-0.2,1.6-0.7,3.3-0.9,4.9l-1-0.1c-2.8-1.7-5.6-3.4-8.4-5.1l-0.8-0.2
			c0.9-3.1,1.6-6.2,2-9.2l0.1-1.2c1.7,0.2,3.3,0.3,5,0.2L1055.4,573.6z"/>
		<path class="st16" d="M555.2,352c-0.9,0-1.8,0-2.7,0c-2.5,0-4.9,0.1-7.3,0.3c-4-8.4-7.9-16.7-11.9-25.1l0.2-0.3
			c0.8-1.8,2.8-2.8,4.7-2.7c1.9,0.1,3.7,1.2,4.9,2.6c1,1.2,1.7,2.7,2.4,4.2C548.7,338.1,551.9,345.1,555.2,352z"/>
		<path class="st6" d="M585.3,564.2c0-0.3,0.1-0.6,0.2-0.9c0.4-1.4,0.8-2.9,1.2-4.3c0.6,1.1,2.3,1.3,3.5,0.7
			c1.2-0.6,1.9-1.7,2.6-2.8c0.6-1.1,1.2-2.3,1.7-3.4c0.4-0.1,0.8-0.2,1.3-0.4c-0.1,0.8-0.3,1.6-0.4,2.4c-0.3,2.1-0.5,4.3-0.6,6.4
			c-0.1,3.7,0,7.4,0.6,11c-1.1-1.5-2.5-2.9-4-4c-1.3-1-2.7-1.8-4.2-2.5c-0.7-0.3-1.6-0.7-1.8-1.5
			C585.3,564.6,585.3,564.4,585.3,564.2z"/>
		<path class="st13" d="M185.5,562.5c-1-4.5-4.1-11.4-8-14l-0.2-0.5c0.3-0.1,0.5-0.2,0.8-0.3c0.9-0.4,1.7-1,2.5-1.5
			c0.8-0.6,1.6-1.2,1.9-2c0.2-0.7,0.2-1.4,0.1-2.1c-0.3-6.1,2.3-12.4,1.3-18.4h0c-0.2-1.6-1.3-2.9-2.4-4.2c-1.8-2-3.8-3.8-3.2-6.2
			c0.2-0.7,0.7-1.3,1.3-1.8c1.3-1,3.4-1.1,4.9-0.4c2.2,1.1,3.5,3.5,4.5,5.8c3.8,9.4,3.6,19.9,3.3,30.1c-0.1,3.7-0.3,7.6-2.1,10.9
			C189.1,559.8,187.4,561.4,185.5,562.5L185.5,562.5z"/>
		<path class="st0" d="M184.4,712.2c0.5,0.8,0.7,1.9,0.2,2.7c-0.3,0.5-0.9,0.8-1.5,1c-1.4,0.5-2.8,0.4-4.3,0.4
			c-4-0.1-8.1-0.1-12.1-0.2c-1.3,0-2.5,0-3.7-0.5c-0.2-0.1-0.4-0.2-0.6-0.4c-0.2-0.2-0.2-0.5-0.3-0.8c-0.1-0.8-0.2-1.7,0.1-2.5
			c0.3-0.8,1-1.6,1.8-1.6l0.2,0c1.3-0.1,2.7-0.1,4.1-0.2c2.8-0.1,5.6-0.3,8.4-0.4c1.4-0.1,2.9-0.1,4.3,0.2S183.7,711,184.4,712.2z"
			/>
		<path class="st0" d="M355.6,366.8C355.5,366.7,355.9,366.9,355.6,366.8L355.6,366.8z"/>
		<path class="st1" d="M386,427L386,427h-40.2c-0.5-1.6-0.9-3.2-1.4-4.8l5.6-18.8l1.9,0.6h27l0.4-0.1
			C381.6,411.6,383.8,419.3,386,427z"/>
		<path class="st3" d="M326.8,259.3l-0.7,0.7c-3,5.4-6,10.8-9,16.1c-6.4,11.4-12.8,22.8-20.2,33.5c-17.9-31.5-35.6-63.1-53-94.9
			c0.1-0.1,0.2-0.3,0.3-0.4c0.3-0.4,0.6-0.8,1.1-1c0.4-0.2,0.9-0.2,1.4-0.2c11.3,0,22.6,3.1,32.8,8.1c10.2,4.9,19.5,11.6,28.1,19
			C314.3,246.2,320.8,252.6,326.8,259.3z"/>
		<path class="st18" d="M661,389.6c-0.3-0.9-0.5-1.8-0.5-2.8c0.1-2.7,1.7-5,4-6.5c1.1-0.8,2.3-1.3,3.6-1.6c0.2-0.1,0.4-0.1,0.6-0.1
			c4.7,7.8,8.4,16.1,11.1,24.9c-3.3-1.8-6.6-3.7-9.9-5.5C666.3,395.9,662.3,393.2,661,389.6z"/>
		<path class="st1" d="M684.4,425.7c-0.8-7.7-2.3-15.1-4.6-22.3c4.7,2.6,9.4,5.2,14.1,7.8l-0.1,0.2c-2.5,4.1-5.1,8.2-7.7,12.2
			c-0.4,0.6-0.8,1.3-1,2C684.9,425.7,684.7,425.7,684.4,425.7z"/>
		<path class="st15" d="M458.4,670H419l-0.5,0.2c-0.6-2.1-1.2-4.1-1.8-6.2h29.6h10.4C457.3,666,457.8,668,458.4,670z"/>
		<path class="st4" d="M1183.1,376.8c0.5,20.6-3.1,41.3-11.6,60.1c-2.3,5-4.9,9.9-7.6,14.8c-4,7.2-8.1,14.5-12.7,21.3l-1.7-0.3
			c-34.8,0.7-69.7,1.5-104.5,2.2l-0.1-0.1c5.7-7.1,10.3-15.2,16.1-22.2c4.6-5.6,9.8-10.5,14.8-15.7c2.9-3,5.6-6.1,8.3-9.2
			c5.1-5.9,10-12.1,14.9-18.3c8.1-10.2,16.2-20.4,24.4-30.6l0.4,0.3c19.4-1.4,38.8-1.8,58.3-2.3L1183.1,376.8z"/>
		<path class="st2" d="M1016.5,300c0,3.1-0.3,6.2-0.7,9.2c-4,24.8-24.2,44.7-50.1,49.9c-2-1.6-3.9-3.2-5.9-4.8L959,354
			c0.8-1.9,1.7-3.7,2.5-5.6c6.5-14.3,13.3-28.6,22.3-41.6c7.7-11,17.2-21.1,28.6-28.1C1015,285.3,1016.5,292.5,1016.5,300z"/>
		<path class="st0" d="M773.2,138.8l2.7,1.3c-1.4,2.8-5.4,3.2-8.7,3.1c-1.3,0-2.6-0.1-3.7-0.8c-1.1-0.7-1.6-2.3-0.8-3.3l0.1-0.3
			c1.3,0.2,2.6,0.2,3.9,0.2c1.6,0,3.2-0.1,4.7-0.1C772,138.9,772.6,138.9,773.2,138.8z"/>
		<path class="st10" d="M793.4,500.7l0.5,0.3c-0.1,0.1-0.2,0.3-0.3,0.4c-1.8,2.3-3.7,4.4-5.7,6.6c-2.9,3.2-5.8,6.3-8.9,9.4
			c-1.8,1.8-3.7,3.6-5.7,5.3c-19.4,16.6-45,24.1-70.2,28.2c-7.4,1.2-15,2.2-22.4,1.1c-2.1-3.2-4.2-6.5-6.3-9.7l0-0.3
			c-4-8.8-7.9-17.7-11.6-26.6c-0.9-2.2-1.8-4.3-2.7-6.5c11.2-14.5,19.1-31.3,22.6-49.6c15.5,0.8,31,1.2,46.6,1.2l0.6-0.9
			C751.7,472.4,773.8,484.8,793.4,500.7z"/>
		<path class="st0" d="M463.6,204.8c-0.1-5.9-0.3-11.9-0.4-17.8l1.3-0.6c1.5-0.1,3-0.2,4.4-0.3c0.5,0,1-0.1,1.4,0.3
			c0.3,0.3,0.4,0.8,0.5,1.2c0.1,0.3,0.1,0.6,0.2,1c0.2,1.6,0.4,3.3,0.1,4.9c-0.2,1-0.5,1.9-1.1,2.7c-0.5,0.6-1.1,1.2-1.6,1.8
			c-1.7,2.4-0.9,6.1-2.8,8.3c-0.2,0.2-0.4,0.4-0.6,0.4C464,206.8,463.6,205.6,463.6,204.8z"/>
		<path class="st3" d="M836.2,602.2c-0.5,0.8-0.1,1.9,0.8,2.4c0.8,0.5,1.8,0.4,2.8,0.1l0.5,0.9c-6.2,3.7-12.8,6.4-19.7,8.3l-0.3-1.2
			c-7.3-7.4-12.7-16.5-15.8-26.4c-1.2-3.8-2-7.9-0.8-11.7c1.8-5.7,7.6-9.1,13.2-11.2c1.3-0.5,2.8-1,3.6-2.1c0.9-1.2,1-2.8,1-4.3
			c0-4.8,0-9.5,0.1-14.3c0-3.7,0-7.4-1.3-10.9c-1.3-3.4-4.2-6.5-7.8-7L811,524c1-1,3-1,4-2c22-19,39-41,55-66
			c6.5-10.5,12.8-20.8,18.9-31.2l1.2,0.7c3.4-1.7,7.7-0.5,10.5,2c1,0.9,1.9,1.9,2.6,3c1.4,2,2.3,4.3,3.1,6.6c1,3,2.2,6.4,5.1,7.7
			c1.2,0.5,2.5,0.6,3.8,0.7c7.5,0.4,15,0.8,22.4,1.2c0.7,0,1.3,0.1,1.9-0.2c0.6-0.3,1.1-0.9,1.5-1.5c2-3,3.9-6,5.9-8.9
			c1-1.5,2-3.1,3.1-4.7c0.4-0.6,0.8-1.2,1.2-1.8c0.7-1,1.4-2.1,2.5-2.7c1.1-0.6,2.3-0.6,3.5-0.6c9.5,0.3,18.6,3.4,27.5,6.5
			c3.1,1.1,6.3,2.2,8.3,4.8c1.1,1.4,1.6,2.9,1.9,4.6c0.4,2.9-0.3,6.1-1.4,8.9c-1.7,4.3-4.4,8.3-5.2,12.9l0.2,0
			c5.1,5.1,10.2,10.2,15.3,15.3c1.7,1.7,3.6,3.5,6,4.2c5.1,1.5,10-2.6,15.2-3.6c4.1-0.7,8.2,0.7,11.6,3.2c1.9,1.4,3.6,3.2,4.9,5.1
			c1.4,2.1,2.5,4.4,3.4,6.8c1.4,3.7,2.3,7.7,3.1,11.5c0.7,3.4,1.5,7,0.4,10.4c-2,6.2-9.2,8.6-15.3,10.8c-1.1,0.4-2.3,0.8-3,1.8
			c-0.6,0.9-0.7,2-0.7,3.1c-0.3,6.7,0.6,15.9,1.4,22.7c-4.5-1.3-8.9-2.7-13.4-4c-0.5-0.1-1-0.3-1.5-0.1l0,0c-2-1.6-3.5-3.7-4.4-6.1
			c-0.1-0.3-0.2-0.6-0.5-0.8c-0.6-0.5-1.5-0.1-1.8,0.6c-0.3,0.7-0.2,1.5-0.1,2.2c-1.7-0.7-3.4-1.4-4.4-2.9c-0.6-0.8-1.2-2-2.3-2
			c-0.6,0-1.2,0.5-1.4,1.1c-0.2,0.6-0.2,1.2-0.1,1.9c0.4,3.5,2.7,7,6.1,8.1c2.1,0.7,4.5,0.4,6.4,1.6l0.6,0.1
			c-0.1,0.2-0.1,0.4-0.1,0.6c0.1,0.6,0.6,1,1.1,1.4c7.1,5.3,15,9.7,23.2,13.1c3.2,1.3,6.6,2.4,10,2.9l-0.1,1.2c-0.5,3-1.2,6.1-2,9.2
			c-2.8,9.9-7.5,19.8-13,28l-0.1-0.1c-5.1,3.1-11.2-3.5-17.2-2.7c-2.8,0.4-5.2,2.4-7.3,4.3c-5.5,4.9-11,9.8-16.5,14.7
			c-0.9,0.8-1.8,1.7-2.3,2.8c-0.5,1.3-0.1,2.9,0.3,4.2c1.2,3.7,2.9,7.6,3.4,11.3c0.3,2.2,0.2,4.4-0.8,6.5c-2.1,4.6-7.3,6.7-12,8.5
			c-3.6,1.3-7.2,2.6-10.9,4c-4.3,1.5-8.9,3.1-13.2,1.6c-5.5-1.9-8-8-10.6-13.2c-0.5-1-1.2-2.1-2.2-2.7c-0.9-0.4-1.9-0.4-2.9-0.3
			c-7.2,0.5-14.3,1-21.5,1.5l-1.4-0.3c0.7-2.9,1.5-5.7,2.2-8.6c1.4-5.5,2.8-11.2,1.6-16.7c-1.5-6.7-6.7-12-12.5-15.9
			c6.2,1.8,12.8,2.8,19.5,2.8c37.8,0,68.5-30,68.5-67s-30.7-67-68.5-67S860,509,860,546c0,19.1,8.2,36.4,21.3,48.6
			c-6.2-0.2-12.5-0.7-18-3.6c-1.1-0.6-2.3-1.4-3.5-1.8c-1.5-0.5-3-0.5-4.6-0.6c-4.3-0.1-8.7-0.2-12.6,1.6c-0.5,0.2-1,0.5-1.3,0.9
			c-0.3,0.4-0.3,0.9-0.3,1.4c-0.1,1.9,0.2,3.8,0.8,5.6l0,0.5c-3.4,0.1-6.9,0.2-10.3,0.4l-0.1-0.6c-0.6-2.3-2.3-4.1-3.6-6.1
			c-1.3-2-2-4.2-2.9-6.4c-1.5-3.7-3.3-7.3-5.5-10.6c-0.4-0.7-0.9-1.4-1.6-1.8c-0.7-0.4-1.7-0.5-2.3,0.1c-1,1-0.1,2.6,0.7,3.7
			c2.8,4,4.4,8.7,6.8,12.9c0.8,1.4,1.7,2.8,2.6,4.2c1.3,2,2.5,4,3.8,6c0.3,0.5,0.6,0.9,0.9,1.4l0.3,0.3c1.9,0,3.8-0.1,5.7-0.1V602.2
			z"/>
		<path class="st12" d="M512.1,129.8c0.4,1.9,0.7,3.9,0.5,5.9l-0.7,0c-0.1,1.4-1.4,2.7-2.8,2.8l-0.1-0.1c-1.5,1-3,2-4.6,2.8
			l-1.4,0.8c-1.4-2.3-2.6-4.7-3.7-7.2l0.9-0.4c0.1-0.4,0.6-0.6,1-0.7c3.3-1.2,6.7-2.4,10-3.6L512.1,129.8z"/>
		<path class="st13" d="M476.3,189.3c0.3,1.1,0.5,2.1,0.8,3.2l-1.1,0.3c-1.2,0.3-2.5,0.6-3.7,0.8l-1.3-0.3c0.3-1.6,0.1-3.3-0.1-4.9
			l1.7-0.1c0.9,0,1.8,0,2.7,0l0.8-0.1C476.1,188.6,476.2,189,476.3,189.3z"/>
		<path class="st1" d="M406,552l1,0.5c-4.3,8.5-8.5,17.1-12.8,25.6L394,578h-3.5c-2.7-8.7-5.3-17.3-7.9-26H406z"/>
		<path class="st13" d="M596.6,544.1c0,0.7,0,1.4,0,2.1c0,0.2,0,0.3,0,0.5c-0.5,2.3-1.2,4.5-2.1,6.7c-4.5,1.3-9,2.5-13.7,3.3
			c0.9-3.7,1.3-7.5,0.2-11.1c1.2-0.5,2.5-1,3.8-1.1c0.8,0,1.6,0.1,2.5,0c3.1,0,6.1-1.9,7.5-4.7l0.9-0.3
			C596.2,541,596.5,542.6,596.6,544.1z"/>
		<path class="st14" d="M891.3,610.5c-0.4-0.1-0.7-0.2-0.9-0.5c-0.2-0.3-0.2-0.7-0.2-1.1c0-1,0-2.1-0.1-3.1c1.2-0.5,2.1-1.4,3-2.4
			c4.4,2.6,9.2,4.8,14.2,6.4c-5,0.3-9.9,0.6-14.9,0.9c-0.1,0-0.2,0-0.4,0C891.8,610.6,891.6,610.6,891.3,610.5z"/>
		<path class="st5" d="M323.8,371.9c2.1,0.1,4.1,0.2,6.2,0.3l0,0.8c0.1,0.3,0.2,0.7,0.3,1h-7.7c-0.2-0.6-0.4-1.2-0.6-1.8
			C322.5,371.9,323.2,371.9,323.8,371.9z"/>
		<path class="st16" d="M819.3,249.8l-1,0.8c-12.2,1.8-24.2,5-35.6,9.6l-2-0.2c0.2-2.7,0.3-5.4,0.2-8c0.2,0,0.5,0,0.7-0.2
			c5.2-4.3,10.3-8.6,15.4-12.9c2.6-2.2,5.3-4.6,6.6-7.8l0.4,0.2C809.1,237.2,814.3,243.4,819.3,249.8z"/>
		<path class="st16" d="M652.1,435.2c-0.4,1.6-0.7,3.3-0.8,5c-1.4-0.4-2.8,0.7-3.3,2.1c-0.5,1.3-0.3,2.8-0.2,4.3
			c0.4,3.3,0.9,6.5,1.4,9.8c1.4,10,3.1,19.9,5,29.8c0.8,4.5,1.7,8.9,3,13.3c0.9,3.2,2,6.3,3.2,9.4c-1.2,1.5-2.4,3-3.7,4.5
			c-6.9-18.9-11.4-38.6-13.3-58.6c-0.1-1.4-0.3-2.9-0.4-4.3c0.7-4.2,1-8.5,1-12.9c0-3.9-0.3-7.7-0.8-11.4c13-0.1,26-0.1,39-0.2
			c0.7,0,1.5,0,2.2,0c0,0.1,0,0.3,0,0.4c0.3,2.9,0.5,5.8,0.5,8.8c-10.4,0.2-20.9,0.4-31.3,0.6L652.1,435.2z"/>
		<path class="st1" d="M572.7,557l0.9,0c0,0.3,0,0.6,0,0.9c-6.1,0.8-12.4,1.3-18.7,1.3c-3.8,0-7.5-0.2-11.2-0.5
			c0.7-4,1.3-8,1.9-12.1l1.1,0.2c1.4-0.2,2.8,0.4,4.1,1C558,550.8,565.3,553.9,572.7,557z"/>
		<path class="st1" d="M351.1,363.3l0.2,0.6c-0.2,0.1-0.4,0.2-0.6,0.4c-0.3,0.3-0.4,0.7-0.5,1.1c-0.4,1.5-0.6,3.1-0.7,4.6l-0.5,0
			h-10l-1.4,0.1c-0.2-1.1-1.5-1.9-2.7-2.3c-2.6-1-5.3-2-8-2.3l0.1-0.5l-1.6-6.5c0,0,0.1,0,0.1,0c3-10.3,6-20.7,9.1-31l0.1,0
			c1.2-0.3,2.1-1.3,3.2-2c2-1.4,4.7-1.8,7-1.2l1.1-0.1c0.6,7.3,1.2,14.7,1.8,22c0.3,3.4,0.6,6.8,1.9,9.9c0.2,0.5,0.5,1.1,1,1.3
			c0.1,0.1,0.3,0.1,0.4,0.1c0,0,0,0,0,0.1C350.9,359.6,350.9,361.5,351.1,363.3z"/>
		<path class="st0" d="M906.9,754.1c-3.5-0.1-6.9-0.2-10.4-0.2c-0.3,0-0.7,0-0.9-0.3c-0.1-0.1-0.2-0.3-0.2-0.4
			c0-0.4,0.4-0.9,0.8-1.2c1.3-1,2.8-1.7,4.3-2.3l0,0.1c1.4,0.8,3.2,0.4,4.7-0.2c1.5-0.7,2.8-1.6,4.4-2.2c1.1-0.4,2.4-0.6,3.1-1.5
			c0.3-0.4,0.5-0.9,0.9-1.2c0.1,0.3,0.2,0.6,0.4,0.7c0.4,0.4,0.9,0.7,1.1,1.1c0.2,0.4,0.2,0.8,0.3,1.3c0.1,1.7,0.1,3.3,0.2,5
			c0,0.7,0,1.6-0.6,2c-0.7,0.5-1.7,0.1-2.2-0.6c-0.4-0.7-0.5-1.6-0.4-2.4c0-0.4,0-1-0.4-1.2c-0.3-0.1-0.6,0-0.9,0.1
			c-1.1,0.6-2,1.4-2.6,2.4c-0.2,0.4-0.4,0.8-0.8,1C907.5,754.1,907.2,754.1,906.9,754.1z"/>
		<path class="st5" d="M252.6,704l1.8-5.9l7.8-25.4l1.4-4.5L271,644l1.5-4.8l8.6-28.1l1.5-4.9l7.7-25.1l1.5-4.9l7.7-25.1l1.6-5.1
			l3.7-12.2l3.9-12.7l1.6-5.1l2.9-9.4l4.7-15.5l1.6-5.1l5.3-17.1l2.1-6.8l1.6-5.1l7.7-25.1l1.5-4.9l0.6-2.1c0.9,3,1.8,6,2.8,9.1
			l-10.3,34.3l-7.1,23.6L311,533.1l-55.2,183.3c-0.2,0.3-0.3,0.7-0.3,1.1c0,0,0,0,0,0.1c-0.1,0.9-0.2,1.9-1,2.3
			c-0.3,0.2-0.7,0.2-1,0.2c-1.3,0-2.5,0-3.8,0c-0.3,0-0.6,0-0.8-0.2s-0.3-0.5-0.3-0.7c-0.1-0.5-0.1-1-0.1-1.6h0L252.6,704z"/>
		<path class="st12" d="M762.4,76.6c1.2,2.7,1.8,5.6,2,8.5c-2-0.3-4-0.7-5.8-1.7c-1.9-1.1-3.6-2.9-4-5.1c-0.4-2.2,0.7-4.7,2.7-5.5
			c2.1-0.9,4.8,0.5,5.1,2.7L762.4,76.6z"/>
		<path class="st13" d="M351.1,363.3c-0.2-1.8-0.2-3.7,0.1-5.5c0,0,0-0.1,0-0.1c0.3,0.1,0.5,0.1,0.8,0.1c1.6,0,3.1,0,4.7,0v0.5
			c0,1.5,0,3,0,4.6c0,0.3,0,0.7-0.3,0.8c-0.2,0.1-0.4,0.1-0.6,0.1c-0.5,0-1,0-1.5,0c-0.5,0-1,0-1.5,0c-0.5,0-1.1,0-1.5,0.2
			L351.1,363.3z"/>
		<path class="st4" d="M350.1,487.5c0.2,1.1,0.4,2.4-0.3,3.3c-0.4,0.5-1.1,0.7-1.7,0.9c-5.7,1.9-11.2,4.5-16.3,7.6
			c-2.7,1.7-5.3,3.5-7.2,6c-3,3.8-4.2,8.7-4.3,13.5c-0.1,4.7,0.9,9.3,1.9,13.9c-3.2,0-6.5,0.3-9.7,0.8l-1.5-0.5l12.4-41.2l1.4,0.4
			c5.5-7.6,11.1-15.1,16.6-22.7V469c1.1,0,2.2,0,3.3,0l2.8-0.1C348.1,475.1,348.9,481.3,350.1,487.5z"/>
		<path class="st2" d="M1016.7,315.7c-1.2,7.1-2.3,14.2-2.6,21.3c-0.2,6.2,0.2,12.6-1.6,18.6c-0.8,2.5-1.9,4.9-2.6,7.4
			c-7.1,5.4-15,9.7-23.6,12.9c-6.9-5.6-13.8-11.2-20.6-16.8c25.9-5.2,46.1-25.1,50.1-49.9l1.9,0.3
			C1017.3,311.6,1017,313.7,1016.7,315.7z"/>
		<path class="st22" d="M511.3,145.8c1.3,0.7,2.9,0.8,4.3,0.3c4.8,7,10,13.7,15.6,20.1c2.1,2.5,4.4,5,5.6,8c0.7,1.8,1.1,3.8,1.1,5.7
			c-6.8,6.4-17,7.3-26.3,8.4c-11.4,1.4-22.7,3.6-34,5.9c-0.1-0.5-0.3-1.1-0.4-1.6c-0.3-1.1-0.5-2.1-0.8-3.2
			c-0.1-0.3-0.2-0.7-0.2-1.1c0-0.2,0-0.3,0.1-0.5c0.2-0.8,1.1-1.3,1.8-1.7c8.1-4.1,16.6-7.4,25.4-9.7c2.5-0.7,5.1-1.3,7.3-2.5
			c2.3-1.3,4.2-3.5,4.4-6c0.3-2.1-0.6-4.2-1.4-6.1c-2-4.7-4-9.3-6-14l0,0c1.1-0.7,2.1-1.4,3.1-2.1l0,0
			C511.1,145.6,511.2,145.7,511.3,145.8z"/>
		<path class="st13" d="M842,598.1c-0.6-1.8-0.9-3.7-0.8-5.6c0-0.5,0.1-1,0.3-1.4c0.3-0.4,0.8-0.7,1.3-0.9c3.9-1.8,8.3-1.7,12.6-1.6
			c1.5,0,3.1,0.1,4.6,0.6c1.2,0.4,2.3,1.2,3.5,1.8c5.4,2.9,11.8,3.5,18,3.6c3.6,3.3,7.5,6.3,11.8,8.8c-0.9,1-1.8,1.9-3,2.4
			c-0.3,0.1-0.6,0.2-0.9,0.3c-1.7,0.3-3.3-0.4-4.8-1.1c-1-0.4-1.9-0.8-2.9-1.1c-3.7-1.3-7.5-2.4-11.3-3.7c-3.8-1.3-7.4-2.7-10.8-4.7
			c-1.9-1.2-4-2.6-6.2-2.3l-0.2,0c-0.4,0.8-1.1,1.5-1.9,1.7c-0.6,0.2-1.2,0.2-1.8,0.3c-1.5,0.1-3.1,0.2-4.5-0.4h-1.2
			c-0.4,0.4-0.6,1-0.5,1.5c0,0.4,0.3,0.8,0.2,1.3c0,0.4-0.3,0.7-0.7,0.7l0,0.4c-0.2,0-0.5,0-0.7,0L842,598.1z"/>
		<path class="st4" d="M302.7,521v0.7c-3.3,2.8-6.1,6.1-8.2,9.8l-0.1,1.7c-8.3-0.6-16.5-1.7-24.6-3.4l-0.6-0.2
			c0.9-2.9,1.8-5.8,2.7-8.7l0.3,0.1H302.7z"/>
	</g>
	<g>
		<path class="st23" d="M500.2,134.3c0.1-0.4,0.6-0.6,1-0.7c3.3-1.2,6.7-2.4,10-3.6"/>
		<path class="st23" d="M537.5,125.3c-5.2,2.7-10.2,6-15.8,7.5"/>
		<path class="st23" d="M537.5,125.3c1.7,3.6,4.7,6.7,8.5,7c0.3,0,0.7,0,1-0.1c0.6-0.2,0.9-0.8,1.1-1.4c0.6-1.2,1.2-2.6,1-3.9
			c-0.3-2.2-2.5-3.6-4.6-3.8c-2.2-0.1-4.3,0.7-6.2,1.7C538.1,125,537.8,125.1,537.5,125.3z"/>
		<path class="st23" d="M535.8,119.5c0.2,1.2,0.5,2.3,0.8,3.4c0.3,0.8,0.6,1.6,0.9,2.3"/>
		<path class="st23" d="M535.8,119.5c0.7-0.2,1.4-0.5,2.1-0.7c0.6-0.2,1.2-0.3,1.6-0.8c0.3-0.3,0.4-0.6,0.6-1
			c0.2-0.4,0.4-0.8,0.5-1.2c0.6-1.4,1.2-3.2,0.3-4.4c-1-1.3-3.2-0.9-4.3,0.3c-1,1.2-1.2,3-1.2,4.6
			C535.5,117.4,535.6,118.5,535.8,119.5z"/>
		<path class="st23" d="M521.9,126c4.3-2.7,9-4.9,13.9-6.5"/>
		<path class="st23" d="M504.4,141.1c1.6-0.8,3.1-1.7,4.6-2.8"/>
		<path class="st23" d="M1088.5,550.5c1.1-0.4,2.1-0.8,3.2-1.2c31-12,62.4-22.8,94.3-32.4"/>
		<path class="st23" d="M1091.3,548.3c3.8-20.6,18.1-37.9,23.8-58.1"/>
		<path class="st23" d="M1089.5,609.5c5.2,2.8,10.2,6,14.8,9.7"/>
		<path class="st24" d="M1037.4,482.8c2.8-2.4,5.2-5.1,7.5-8c5.7-7.1,10.3-15.2,16.1-22.2c4.6-5.6,9.8-10.5,14.8-15.7
			c2.9-3,5.6-6.1,8.3-9.2c5.1-5.9,10-12.1,14.9-18.3c8.1-10.2,16.2-20.4,24.4-30.6c15-18.9,30.1-37.8,45.1-56.7"/>
		<path class="st23" d="M1082.8,426.5c-1-3.3-2.9-6.3-4-9.7c-0.7-2.3-1-4.7-1.4-7c-2.5-14.8-8.7-28.8-14.8-42.5"/>
		<path class="st23" d="M1123.8,379.1c19.4-1.4,38.8-1.8,58.3-2.3"/>
		<path class="st23" d="M959.7,354.3c2,1.6,3.9,3.2,5.9,4.8c6.9,5.6,13.8,11.2,20.6,16.8c7.1,5.8,14.2,11.6,21.3,17.4"/>
		<path class="st23" d="M1006.4,421.9c1.1-9.5,1.8-19,2.2-28.5c0.3-6.4,0.4-12.7,0.3-19.1c0-3.5-0.1-7.1,0.8-10.5
			c0.1-0.3,0.1-0.5,0.2-0.8c0.7-2.5,1.9-4.9,2.6-7.4c1.8-6,1.3-12.3,1.6-18.6c0.3-7.2,1.4-14.3,2.6-21.3c0.3-2.1,0.7-4.1,1-6.2
			c1.8-11,3.6-21.9,5.4-32.9"/>
		<path class="st23" d="M190,473c29.1-0.8,58.2-1.6,87.3-2.4"/>
		<path class="st23" d="M290,469c10.7,0.1,21.3-0.2,32-0.9"/>
		<path class="st23" d="M332.7,469c2.9,0,5.8,0,8.7,0c1.1,0,2.2,0,3.3,0"/>
		<path class="st23" d="M294.5,531.5c2.1-3.7,5-7.1,8.2-9.8"/>
		<path class="st23" d="M324.8,492.4c5.5-7.6,11.1-15.1,16.6-22.7"/>
		<path class="st23" d="M234.9,427.6c11.4,8.1,22.3,17,32.6,26.5c4,3.8,8.1,7.7,10.9,12.4"/>
		<path class="st23" d="M137.9,306.9c0.4,0.3,0.8,0.6,1.2,0.8c32.5,23.4,69.7,39.2,105.8,56.9c17.2,8.4,34.2,17.2,50.3,27.5
			c1.8,1.1,3.6,2.3,5.4,3.5"/>
		<path class="st23" d="M205.8,425.4c0.2,0,0.3,0,0.5-0.1c31.2-4.7,57.7-26,88.6-32.9"/>
		<path class="st23" d="M245.6,363c-0.2-19.6-1.2-39.1-2.8-58.6"/>
		<path class="st23" d="M243.4,214c0.1,0.3,0.3,0.5,0.4,0.8c17.4,31.8,35.1,63.4,53,94.9c4.3,7.6,8.6,15.1,13,22.7"/>
		<path class="st23" d="M296.8,309.8C296.8,309.7,296.8,309.7,296.8,309.8c7.5-10.8,13.9-22.2,20.3-33.6c3-5.4,6-10.8,9-16.1"/>
		<path class="st25" d="M723,25c6,3.7,11.4,8.2,16,13.5"/>
		<path class="st25" d="M770.5,5c0.4,8.7,0.7,17.3,1.1,26"/>
		<path class="st25" d="M795.5,37.5c4.6-5,9.8-9.4,15.5-13.1"/>
		<path class="st23" d="M764.1,121c0.1-9.5,0.3-19.1,0.4-28.6c0-2.3,0.1-4.7-0.1-7c0-0.1,0-0.3,0-0.4c-0.2-2.9-0.8-5.8-2-8.5"/>
		<path class="st23" d="M762.5,75.4c-0.3-2.2-3.1-3.5-5.1-2.7c-2,0.8-3.1,3.3-2.7,5.5c0.4,2.2,2,4,4,5.1c1.8,1,3.8,1.4,5.8,1.7
			c0.2,0,0.4,0.1,0.6,0.1"/>
		<path class="st23" d="M765.5,85.5c1.4,0.1,2.7,0.2,4.1,0.3c1.9,0.1,3.8,0.3,5.6,0.4c0.6,0.1,1.3,0.1,1.8-0.3c0.5-0.3,0.8-1,1-1.6
			c0.9-2.5,1.6-5.1,2.2-7.8"/>
		<path class="st23" d="M779.9,75.6c-1.8-2.5-5.9-2.2-8.1,0c-2.1,2.2-2.6,5.5-2.4,8.6c0,0.5,0.1,1.1,0.2,1.6c0.3,2.5,0.9,5,0.9,7.5
			c0,2.1-0.3,4.2-0.6,6.3c-1,7.3-1.5,14.6-1.3,21.9"/>
	</g>
</g>
<line class="st26" x1="392.5" y1="176.5" x2="403" y2="167"/>
<line class="st26" x1="413.5" y1="180.5" x2="393.1" y2="183.4"/>
<line class="st26" x1="407" y1="195" x2="393.2" y2="189.8"/>
<g>
	<g>
		<path d="M755,209.5c1.9,0,1.9-3,0-3C753.1,206.5,753.1,209.5,755,209.5L755,209.5z"/>
	</g>
</g>
<g>
	<g>
		<path d="M557,51.8c1,0,1-1.5,0-1.5C556,50.3,556,51.8,557,51.8L557,51.8z"/>
	</g>
</g>
<g>
	<g>
		<path d="M595.7,551.1c1,0,1-1.5,0-1.5C594.7,549.6,594.7,551.1,595.7,551.1L595.7,551.1z"/>
	</g>
</g>
<g>
	<g>
		<path d="M589.7,551.4c1,0,1-1.5,0-1.5C588.7,549.9,588.7,551.4,589.7,551.4L589.7,551.4z"/>
	</g>
</g>
<g>
	<g>
		<path d="M882.7,548.4c1,0,1-1.5,0-1.5C881.7,546.9,881.7,548.4,882.7,548.4L882.7,548.4z"/>
	</g>
</g>
<g>
	<g>
		<path d="M1064,514.1c1,0,1-1.5,0-1.5C1063,512.6,1063,514.1,1064,514.1L1064,514.1z"/>
	</g>
</g>
<g>
	<g>
		<path d="M156.3,533.8c1,0,1-1.5,0-1.5C155.4,532.3,155.4,533.8,156.3,533.8L156.3,533.8z"/>
	</g>
</g>
<g>
	<g>
		<path d="M359,174.8c0.1,0,0.2,0,0.3,0c1,0,1-1.5,0-1.5c-0.1,0-0.2,0-0.3,0C358,173.3,358,174.8,359,174.8L359,174.8z"/>
	</g>
</g>
<g>
	<g>
		<path class="st13" d="M329.6,256.3c1.6,2.5,5.5,8.6,9.2,6c1.8-1.3,1.1-3.4-0.4-4.5c-1.9-1.3-4.2-2.2-6.5-2.7c-0.1,1-0.3,2-0.4,2.9
			c0.8,0,1.7,0,2.5,0c0.9,0,1.4-0.7,1.5-1.5c0.1-1-0.4-1.8-1.3-2.3c-0.3,0.9-0.5,1.9-0.8,2.8c1.8,0.1,3.4,2,3.1,3.8
			c-0.3,1.9,2.6,2.7,2.9,0.8c0.6-3.8-2-7.3-5.9-7.6c-1.5-0.1-2,2.1-0.8,2.8c-0.1-0.1-0.1-0.2-0.2-0.3c0.5-0.5,1-1,1.5-1.5
			c-0.8,0-1.7,0-2.5,0c-1.7,0-2.1,2.6-0.4,2.9c1.2,0.3,2.4,0.6,3.5,1.1c0.5,0.3,1.1,0.5,1.6,0.8c0.2,0.1,0.4,0.3,0.7,0.4
			c0.4-0.5,0.3-0.7-0.3-0.8c-0.3-0.3-0.9-0.5-1.2-0.8c-0.5-0.4-0.9-0.9-1.3-1.3c-0.7-0.9-1.3-1.8-1.9-2.8
			C331.2,253.2,328.6,254.7,329.6,256.3L329.6,256.3z"/>
	</g>
</g>
<g>
	<g>
		<path class="st13" d="M335.5,258.3c1.1,0.4,2.2-0.6,2.2-1.7c0-0.5-0.2-0.9-0.4-1.3c-0.1-0.2-0.3-0.3-0.4-0.4
			c-0.4-0.3-0.2-0.3-0.1,0.1c0,0.3,0,0.5,0,0.8c0,0,0-0.1,0-0.1c-0.1,0.2-0.3,0.4-0.4,0.7c0,0,0.1-0.1,0.1-0.1
			c-0.4,0.1-0.7,0.3-1.1,0.4c0.8,0,1.6,0.2,2.2,0.8c1.4,1.3,3.5-0.8,2.1-2.1c-1.1-1.1-2.7-1.8-4.2-1.6c-1.1,0.1-2,1.1-1.6,2.2
			c0.1,0.4,0.4,0.8,0.7,1c0,0,0.5,0.4,0.5,0.4c0,0,0,0-0.1-0.1c-0.4-0.4-0.4-0.8,0.1-1.4c0.2-0.1,0.4-0.3,0.7-0.4c0,0,0,0-0.1,0
			c0.3,0,0.5,0,0.8,0c0,0-0.1,0-0.1,0c-0.8-0.3-1.6,0.3-1.8,1C334.3,257.3,334.8,258.1,335.5,258.3L335.5,258.3z"/>
	</g>
</g>
<g>
	<g>
		<path class="st13" d="M332.6,254.8C332.3,254.9,332.6,254.8,332.6,254.8C332.6,254.8,332.4,254.8,332.6,254.8
			C332.9,254.9,332.5,254.8,332.6,254.8c0.1,0.1,0.3,0.3,0.1,0.1c-0.3,0.7-0.6,1.5-0.9,2.2c0.9-0.4,1.8-0.7,2.7-1.1
			c0.8-0.3,1.3-1,1-1.8c-0.2-0.7-1.1-1.3-1.8-1c-0.9,0.4-1.8,0.7-2.7,1.1c-0.9,0.4-1.4,1.3-0.9,2.2c0.6,1.1,2,1.7,3.3,1.3
			c0.8-0.3,1.3-1,1-1.8C334.2,255.1,333.4,254.6,332.6,254.8L332.6,254.8z"/>
	</g>
</g>
<g>
	<g>
		<path class="st13" d="M333.1,256.1c0.5-0.9,1.7-1.1,2.5-0.5c1.6,1.1,3.1-1.5,1.5-2.6c-2.2-1.5-5.3-0.6-6.6,1.6
			C329.5,256.3,332.1,257.8,333.1,256.1L333.1,256.1z"/>
	</g>
</g>
</svg>
